<svg xmlns="http://www.w3.org/2000/svg" width="32" height="24" viewBox="0 0 32 24" fill="none">
    <g clip-path="url(#clip0_3998_380)">
        <rect width="32" height="24" fill="#FA5022"/>
        <path d="M19.789 7.8452C19.0499 4.93186 17.4868 4 15.999 4C14.5112 4 12.9482 4.93186 12.2091 7.8452L9 20H12.1628C12.678 17.9698 14.2662 16.839 15.999 16.839C17.7319 16.839 19.3201 17.9718 19.8353 20H23L19.789 7.8452ZM15.999 14.0069C14.9917 14.0069 14.079 14.4088 13.4055 15.0605L15.2194 7.98731C15.3931 7.31125 15.6498 7.09605 16.001 7.09605C16.3522 7.09605 16.6088 7.31125 16.7825 7.98731L18.5945 15.0605C17.921 14.4088 17.0063 14.0069 15.999 14.0069Z" fill="white"/>
    </g>
    <defs>
        <clipPath id="clip0_3998_380">
            <rect width="32" height="24" rx="4" fill="white"/>
        </clipPath>
    </defs>
</svg>
