<svg width="32" height="24" viewBox="0 0 32 24" fill="none" xmlns="http://www.w3.org/2000/svg">
<path d="M27.871 0H4.12903C1.84863 0 0 1.86872 0 4.17391V19.8261C0 22.1313 1.84863 24 4.12903 24H27.871C30.1514 24 32 22.1313 32 19.8261V4.17391C32 1.86872 30.1514 0 27.871 0Z" fill="#0095FF"/>
<path fill-rule="evenodd" clip-rule="evenodd" d="M2 9.44702L3.04961 7H4.86481L5.46048 8.37072V7H7.71694L8.07154 7.99072L8.41532 7H18.5445V7.49807C18.5445 7.49807 19.077 7 19.9521 7L23.2386 7.01149L23.824 8.36427V7H25.7123L26.232 7.77706V7H28.1377V11.396H26.232L25.734 10.6164V11.396H22.9596L22.6806 10.703H21.9348L21.6603 11.396H19.7788C19.0258 11.396 18.5445 10.9081 18.5445 10.9081V11.396H15.7077L15.1446 10.703V11.396H4.5959L4.31709 10.703H3.57363L3.29679 11.396H2V9.44702ZM3.42106 7.54192L2.00535 10.8335H2.92705L3.18826 10.1744H4.70683L4.96669 10.8335H5.90868L4.49434 7.54192H3.42106ZM3.94484 8.30797L4.40772 9.45975H3.48061L3.94484 8.30797ZM6.00627 7.54135V10.8329H6.82916V8.40755L7.70388 10.8329H8.42556L9.29784 8.40755V10.8329H10.1207V7.54135H8.82143L8.07786 9.66841L7.31605 7.54621L6.00627 7.54135ZM10.6837 10.8329V7.54135H13.3689V8.27762H11.5153V8.84065H13.3256V9.53362H11.5153V10.1183H13.3689V10.8329H10.6837ZM13.8453 10.8335V7.54192H15.6766C16.2833 7.54192 16.827 7.91713 16.827 8.60979C16.827 9.20192 16.3686 9.58331 15.9242 9.62081L17.007 10.8335H16.0014L15.0147 9.66412H14.6682V10.8335H13.8453ZM15.6089 8.27819H14.6682V8.97116H15.6211C15.786 8.97116 15.9987 8.84335 15.9987 8.62467C15.9987 8.4547 15.8345 8.27819 15.6089 8.27819ZM18.0031 10.8329H17.1629V7.54135H18.0031V10.8329ZM19.814 10.8329H19.9954L20.3418 10.114H20.1253C19.6012 10.114 19.2374 9.84624 19.2374 9.20879C19.2374 8.67199 19.5556 8.32093 20.0054 8.32093H20.9482V7.54135H20.0387C18.9305 7.54135 18.4037 8.23651 18.4037 9.20067C18.4037 10.1416 18.9365 10.8329 19.814 10.8329ZM21.786 7.54192L20.3703 10.8335H21.292L21.5532 10.1744H23.0718L23.3316 10.8335H24.2736L22.8593 7.54192H21.786ZM22.3098 8.30797L22.7727 9.45975H21.8455L22.3098 8.30797ZM24.3696 7.54135V10.8329H25.1925V8.71072L26.5622 10.8329H27.5746V7.54135H26.7517V9.60941L25.4158 7.54135H24.3696Z" fill="white"/>
<path fill-rule="evenodd" clip-rule="evenodd" d="M7.43542 12.7602V17.1562H12.0608L12.5671 16.4912L13.0657 17.1562H15.8593V16.1384H16.4873C17.0321 16.1384 17.2842 15.9733 17.2842 15.9733V17.1562H19.1292V16.4632L19.6922 17.1562H29.0472C29.5582 17.1518 30 16.853 30 16.853V15.9629C29.8655 16.3329 29.5346 16.5932 28.9964 16.5932H27.2426V15.8786H28.8894C29.1331 15.8786 29.2386 15.7469 29.2386 15.6025C29.2386 15.4641 29.1335 15.3242 28.8894 15.3242H28.1452C27.4984 15.3242 27.1381 14.9301 27.1381 14.3384C27.1381 13.8106 27.468 13.3016 28.4293 13.3016H30V12.7602H13.1052L12.5893 13.4112L12.09 12.7602H7.43542ZM30 13.3694L29.6853 14.0422H28.2993C28.0344 14.0422 27.9529 14.1812 27.9529 14.314C27.9529 14.4504 28.0536 14.6009 28.256 14.6009H29.0356C29.563 14.6009 29.872 14.8197 30 15.1467V13.3694ZM7.99834 13.3016V16.5932H10.6836V15.8786H8.8299V15.2939H10.6403V14.6009H8.8299V14.0379H10.6836V13.3016H7.99834ZM23.8413 16.5932H21.156V13.3016H23.8413V14.0379H21.9876V14.6009H23.7893V15.2939H21.9876V15.8786H23.8413V16.5932ZM12.0952 14.9677L10.7878 16.5932H11.8096L12.5649 15.5795L13.3389 16.5932H14.3755L13.0656 14.9474L14.3866 13.3016H13.3905L12.5906 14.3316L11.7934 13.3016H10.7567L12.0952 14.9677ZM14.4732 13.3022V16.5937H15.3178V15.5543H16.184C16.9169 15.5543 17.4725 15.1654 17.4725 14.4093C17.4725 13.7829 17.0368 13.3022 16.2909 13.3022H14.4732ZM15.3178 14.0465H16.23C16.4668 14.0465 16.636 14.1917 16.636 14.4255C16.636 14.6452 16.4676 14.8045 16.2273 14.8045H15.3178V14.0465ZM18.6527 16.5932H17.8298V13.3016H19.661C20.2678 13.3016 20.8115 13.6768 20.8115 14.3695C20.8115 14.9616 20.3531 15.343 19.9087 15.3805L20.9915 16.5932H19.9859L18.9992 15.4238H18.6527V16.5932ZM19.5934 14.0379H18.6527V14.7309H19.6056C19.7705 14.7309 19.9832 14.6031 19.9832 14.3844C19.9832 14.2144 19.819 14.0379 19.5934 14.0379ZM24.2223 16.5932V15.8786H25.8692C26.1129 15.8786 26.2184 15.7469 26.2184 15.6025C26.2184 15.4641 26.1132 15.3242 25.8692 15.3242H25.125C24.4781 15.3242 24.1179 14.9301 24.1179 14.3384C24.1179 13.8106 24.4478 13.3016 25.409 13.3016H27.0115L26.665 14.0422H25.2791C25.0142 14.0422 24.9326 14.1812 24.9326 14.314C24.9326 14.4504 25.0334 14.6009 25.2358 14.6009H26.0154C26.7365 14.6009 27.0494 15.01 27.0494 15.5456C27.0494 16.1215 26.7007 16.5932 25.9761 16.5932H24.2223Z" fill="white"/>
</svg>
