<svg xmlns="http://www.w3.org/2000/svg" width="32" height="24" viewBox="0 0 32 24"><g fill="none" fill-rule="evenodd"><rect width="31" height="23" x=".5" y=".5" fill="#FFF" stroke="#000" rx="5"/><path fill="#000" fill-rule="nonzero" d="M4.53173976 1.30500241C4.80223614.966689157 4.98579277.512404819 4.93738795.0481927711 4.54141687.0678939759 4.05823614.309416867 3.77848675.648019277 3.52730602.937966265 3.30498313 1.41125783 3.36293012 1.85601928 3.80742169 1.89457349 4.25150843 1.6338506 4.53173976 1.30500241M4.93233735 1.94286265C4.2868241 1.90440482 3.73800482 2.30920482 3.4297253 2.30920482 3.12131084 2.30920482 2.64925301 1.96223614 2.1386988 1.97158554 1.47417831 1.98133976.857580723 2.35706988.520346988 2.95464096-.173243373 4.15011084.337310843 5.92339277 1.01179759 6.89702169 1.33935422 7.37871807 1.73409157 7.90908916 2.25424578 7.8900241 2.74569639 7.87074699 2.93831325 7.57181687 3.53569157 7.57181687 4.13262651 7.57181687 4.30613976 7.8900241 4.82637108 7.88038554 5.36586024 7.87074699 5.70313253 7.39845783 6.03068916 6.91631807 6.40643855 6.36720964 6.5602506 5.83701205 6.56992771 5.80790361 6.5602506 5.79826506 5.52965783 5.40289157 5.52009639 4.21736867 5.51036145 3.22471325 6.32923373 2.75255904 6.36776867 2.72327711 5.9053494 2.03934458 5.1828241 1.96223614 4.93233735 1.94286265" transform="translate(3.855 7.59)"/><path fill="#000" fill-rule="nonzero" d="M15.2237494 8.18991807C16.6267373 8.18991807 17.6037783 9.15701205 17.6037783 10.5650313 17.6037783 11.9780819 16.6067277 12.9502458 15.1886651 12.9502458L13.6352771 12.9502458 13.6352771 15.420453 12.5128675 15.420453 12.5128675 8.18991807 15.2237494 8.18991807zM13.6352771 12.0081349L14.9230651 12.0081349C15.9002024 12.0081349 16.4563277 11.4820627 16.4563277 10.5700627 16.4563277 9.65815904 15.9002024 9.13700241 14.9280771 9.13700241L13.6352771 9.13700241 13.6352771 12.0081349zM17.8822361 13.9223518C17.8822361 12.9952771 18.5887614 12.4641349 19.8915084 12.3840193L21.2894843 12.2987566 21.2894843 11.897947C21.2894843 11.3116723 20.903653 10.9909783 20.2172337 10.9909783 19.6509494 10.9909783 19.2400771 11.2816 19.1549301 11.7275566L18.1427084 11.7275566C18.1728578 10.7905157 19.0547084 10.1091277 20.2472867 10.1091277 21.5300434 10.1091277 22.3668434 10.7805687 22.3668434 11.822747L22.3668434 15.420453 21.3295807 15.420453 21.3295807 14.5536771 21.304559 14.5536771C21.008906 15.1198651 20.3574747 15.475547 19.6509494 15.475547 18.6087518 15.475547 17.8822361 14.8542651 17.8822361 13.9223518zM21.2894843 13.4563084L21.2894843 13.0503711 20.041812 13.1305831C19.3403181 13.1756337 18.9745928 13.4362024 18.9745928 13.8922024 18.9745928 14.3331277 19.3553928 14.6188337 19.9516337 14.6188337 20.7132337 14.6188337 21.2894843 14.1326651 21.2894843 13.4563084zM23.3204048 17.354641L23.3204048 16.4878651C23.3905735 16.4977349 23.5608867 16.5077783 23.6510458 16.5077783 24.1471614 16.5077783 24.4277398 16.2974651 24.5981494 15.7562217L24.6983711 15.4355277 22.7992675 10.1742651 23.9717398 10.1742651 25.294612 14.4433157 25.3196337 14.4433157 26.642506 10.1742651 27.7850217 10.1742651 25.8157494 15.7011277C25.3647807 16.9688096 24.8486554 17.3847904 23.7562988 17.3847904 23.6711518 17.3847904 23.3955084 17.374747 23.3204048 17.354641z"/></g></svg>
