<svg xmlns="http://www.w3.org/2000/svg" width="32" height="24" viewBox="0 0 32 24" fill="none">
    <g clip-path="url(#clip0_3503_135)">
        <rect width="32" height="24" rx="4" fill="#002D73"/>
        <path d="M24.1631 11.1913L16.8028 3.83355C16.5872 3.61986 16.296 3.5 15.9925 3.5C15.6891 3.5 15.3979 3.61986 15.1822 3.83355L7.83691 11.1913C7.73017 11.2972 7.64543 11.4231 7.58761 11.5619C7.52978 11.7007 7.5 11.8496 7.5 12C7.5 12.1504 7.52978 12.2993 7.58761 12.4381C7.64543 12.5769 7.73017 12.7028 7.83691 12.8087L15.1872 20.1664C15.4029 20.3801 15.6941 20.5 15.9975 20.5C16.301 20.5 16.5922 20.3801 16.8078 20.1664L24.1631 12.8087C24.2698 12.7028 24.3546 12.5769 24.4124 12.4381C24.4702 12.2993 24.5 12.1504 24.5 12C24.5 11.8496 24.4702 11.7007 24.4124 11.5619C24.3546 11.4231 24.2698 11.2972 24.1631 11.1913ZM19.1466 13.7621C18.9571 15.3045 17.8401 16.0483 16.015 16.0483H12.3199L12.5343 14.3311H16.1845C16.6532 14.3311 16.9076 14.0466 16.9674 13.5474C16.9722 13.496 16.9722 13.4442 16.9674 13.3927H19.1765C19.1765 13.4975 19.1466 13.6323 19.1316 13.7621H19.1466ZM20.6425 12.7637H12.6939L12.8834 11.2163H16.4488C16.9475 11.2163 17.132 10.8519 17.1868 10.4176C17.2417 9.98335 17.1868 9.7088 16.6283 9.7088H13.0679L13.2823 7.92676H16.9225C18.997 7.92676 19.5555 8.81029 19.4158 10.0233C19.3789 10.4477 19.2404 10.8569 19.0119 11.2163H19.2263C19.4244 11.2151 19.6204 11.2566 19.8011 11.338C19.9817 11.4193 20.1428 11.5386 20.2733 11.6878C20.4039 11.8369 20.5008 12.0124 20.5577 12.2024C20.6145 12.3923 20.6298 12.5923 20.6026 12.7887L20.6425 12.7637Z" fill="white"/>
    </g>
    <defs>
        <clipPath id="clip0_3503_135">
            <rect width="32" height="24" rx="4" fill="white"/>
        </clipPath>
    </defs>
</svg>
