<svg width="32" height="24" viewBox="0 0 32 24" fill="none" xmlns="http://www.w3.org/2000/svg">
<path d="M4.12903 0.5H27.871C29.8701 0.5 31.5 2.13976 31.5 4.17391V19.8261C31.5 21.8602 29.8701 23.5 27.871 23.5H4.12903C2.12986 23.5 0.5 21.8602 0.5 19.8261V4.17391C0.5 2.13976 2.12986 0.5 4.12903 0.5Z" fill="white" stroke="#E5E5E5"/>
<mask id="mask0" mask-type="alpha" maskUnits="userSpaceOnUse" x="6" y="9" width="6" height="7">
<path d="M0 0V5.34729H4.45531V0H0Z" transform="translate(6.70969 9.74527)" fill="white"/>
</mask>
<g mask="url(#mask0)">
<path fill-rule="evenodd" clip-rule="evenodd" d="M4.29492 1.68639H2.97219C2.97219 1.4655 2.94674 1.31733 2.89598 1.24187C2.81722 1.13015 2.60002 1.07426 2.24446 1.07426C1.89908 1.07426 1.67022 1.10641 1.55851 1.17078C1.44687 1.23535 1.39092 1.37576 1.39092 1.59196C1.39092 1.78767 1.44046 1.91654 1.53967 1.9783C1.61068 2.02213 1.70464 2.04789 1.82166 2.05559L2.0884 2.07476C2.66007 2.11337 3.01711 2.14057 3.15952 2.15609C3.61166 2.20246 3.93935 2.32474 4.14277 2.52307C4.30273 2.6777 4.39816 2.87987 4.42867 3.12952C4.44642 3.27887 4.45533 3.44791 4.45533 3.63567C4.45533 4.06839 4.4147 4.38535 4.3335 4.58622C4.18622 4.95476 3.85539 5.18759 3.34057 5.28535C3.12491 5.32663 2.79504 5.3473 2.35129 5.3473C1.61049 5.3473 1.09432 5.30243 0.802841 5.21224C0.445097 5.10176 0.20925 4.878 0.0951079 4.54096C0.0315317 4.35333 0 4.04087 0 3.60346H1.32267C1.32267 3.65224 1.32286 3.68948 1.32286 3.71517C1.32286 3.94865 1.38874 4.09872 1.52038 4.16563C1.61158 4.21174 1.72168 4.23594 1.85108 4.2388H2.33739C2.58547 4.2388 2.7439 4.22583 2.81216 4.19987C2.9338 4.15122 3.01359 4.07296 3.05172 3.96457C3.07197 3.89778 3.08197 3.81143 3.08197 3.70578C3.08197 3.46911 2.99712 3.32511 2.82754 3.27346C2.76415 3.25304 2.46928 3.22461 1.94285 3.18854C1.52006 3.15783 1.2264 3.12828 1.06202 3.09965C0.628968 3.01728 0.340376 2.84772 0.196368 2.59037C0.0697287 2.3717 0.00647298 2.04085 0.00647298 1.59828C0.00647298 1.26124 0.0406323 0.990978 0.109079 0.787696C0.177526 0.584413 0.287823 0.429978 0.440034 0.324457C0.662999 0.162326 0.948259 0.0671739 1.29556 0.0387391C1.5846 0.0131087 1.90517 0 2.25779 0C2.81292 0 3.20855 0.0325435 3.44439 0.0968478C4.01997 0.254283 4.30767 0.695087 4.30767 1.41939C4.30767 1.4788 4.30344 1.5677 4.29492 1.68639Z" transform="translate(6.70969 9.74527)" fill="#0054A5"/>
</g>
<mask id="mask1" mask-type="alpha" maskUnits="userSpaceOnUse" x="16" y="9" width="6" height="7">
<path d="M4.47353 0H0L0 5.37565H4.47353V0V0Z" transform="translate(16.7716 9.68002)" fill="white"/>
</mask>
<g mask="url(#mask1)">
<path fill-rule="evenodd" clip-rule="evenodd" d="M1.42175 2.74076H2.3081C2.58913 2.73046 2.76005 2.70841 2.82158 2.67404C2.9056 2.62702 2.962 2.53285 2.99007 2.39172C3.00801 2.29774 3.01698 2.15798 3.01698 1.97243C3.01698 1.74502 2.99917 1.5765 2.96334 1.46648C2.9122 1.3123 2.78972 1.21839 2.59573 1.18428C2.5574 1.17913 2.46556 1.17639 2.32008 1.17639H1.42175V2.74076ZM0 5.37567V0H2.07219H2.39744H2.64886C3.01218 0 3.28943 0.0301957 3.4799 0.0905217C3.91557 0.229435 4.20788 0.513848 4.35766 0.943696C4.43489 1.16928 4.47353 1.50893 4.47353 1.96246C4.47353 2.50774 4.43066 2.89963 4.34587 3.1382C4.17597 3.60998 3.8263 3.88174 3.29814 3.95217C3.2361 3.96274 2.97186 3.9722 2.50543 3.97976L2.26945 3.98778H1.42175V5.37567H0Z" transform="translate(16.7716 9.68002)" fill="#0054A5"/>
</g>
<mask id="mask2" mask-type="alpha" maskUnits="userSpaceOnUse" x="20" y="9" width="7" height="7">
<path d="M0 5.37567H5.33854V0H0L0 5.37567Z" transform="translate(20.681 9.68002)" fill="white"/>
</mask>
<g mask="url(#mask2)">
<path fill-rule="evenodd" clip-rule="evenodd" d="M3.34493 3.39939L2.67872 1.06917L2.03232 3.39939H3.34493ZM3.62724 4.44672H1.72636L1.47097 5.37574H0L1.58716 0H3.73189L5.33854 5.37574H3.89853L3.62724 4.44672Z" transform="translate(20.681 9.68002)" fill="#0054A5"/>
</g>
<path fill-rule="evenodd" clip-rule="evenodd" d="M3.51335 0.708457C4.0997 0.708457 4.62305 0.983348 4.96714 1.41391L5.27362 0.745239C4.79423 0.284217 4.14194 0 3.42241 0C2.30214 0 1.34375 0.6885 0.950502 1.66311H0.352873L0 2.43293H0.76881C0.763042 2.50435 0.759261 2.57583 0.759261 2.64874C0.759261 2.73698 0.763811 2.82417 0.772335 2.91033H0.386008L0.0331982 3.68041H0.968831C1.3733 4.63037 2.3197 5.29728 3.42241 5.29728C3.97812 5.29728 4.49378 5.12785 4.92074 4.83841V3.89465C4.57691 4.293 4.074 4.54474 3.51335 4.54474C2.85792 4.54474 2.28144 4.20085 1.9458 3.68041H3.905L4.25787 2.91033H1.65753C1.64414 2.81765 1.63696 2.72296 1.63696 2.6265C1.63696 2.56128 1.64023 2.49672 1.64644 2.43293H4.47654L4.82935 1.66311H1.89113C2.21613 1.09246 2.82074 0.708457 3.51335 0.708457Z" transform="translate(11.3548 9.65216)" fill="#FEC10E"/>
</svg>
