<svg width="32" height="24" viewBox="0 0 32 24" fill="none" xmlns="http://www.w3.org/2000/svg">
<path d="M28 0H4C1.79086 0 0 1.79086 0 4V20C0 22.2091 1.79086 24 4 24H28C30.2091 24 32 22.2091 32 20V4C32 1.79086 30.2091 0 28 0Z" fill="#D50043"/>
<path fill-rule="evenodd" clip-rule="evenodd" d="M0 1.78118C0 0.797462 0.789207 0 1.78118 0H8.71882C9.70254 0 10.5 0.789207 10.5 1.78118V10.5H1.78118C0.797462 10.5 0 9.71079 0 8.71882V1.78118ZM2.25 3.66229V3.83771C2.25 4.21078 2.54774 4.5 2.91503 4.5H7.58497C7.96061 4.5 8.25 4.20348 8.25 3.83771V3.66229C8.25 3.28922 7.95226 3 7.58497 3H2.91503C2.53939 3 2.25 3.29652 2.25 3.66229ZM2.25 6.66229V6.83771C2.25 7.21078 2.54774 7.5 2.91503 7.5H7.58497C7.96061 7.5 8.25 7.20348 8.25 6.83771V6.66229C8.25 6.28922 7.95226 6 7.58497 6H2.91503C2.53939 6 2.25 6.29652 2.25 6.66229Z" transform="translate(10.75 6.75)" fill="white"/>
</svg>
