<svg xmlns="http://www.w3.org/2000/svg" width="32" height="24" viewBox="0 0 32 24" fill="none">
    <path d="M28 0H4C1.79086 0 0 1.79086 0 4V20C0 22.2091 1.79086 24 4 24H28C30.2091 24 32 22.2091 32 20V4C32 1.79086 30.2091 0 28 0Z" fill="#1E1E1E"/>
    <path d="M16.7837 18.8089H11V9.24787C11 8.0803 11.4851 6.95074 12.3303 6.15135C13.1884 5.34003 14.3096 4.93382 15.4879 5.00876C17.6623 5.1467 19.4314 7.00287 19.4314 9.14686C19.4314 9.82895 19.3365 10.5306 19.2083 11.0877C20.2917 11.8578 21 13.1275 21 14.5611C21 16.9039 19.108 18.8089 16.7837 18.8089ZM14.8864 17.0364H16.7837C18.1388 17.0364 19.2406 15.9253 19.2406 14.5611C19.2406 13.8812 18.9679 13.2654 18.5259 12.8168C17.6893 14.4199 16.4981 15.8037 14.8864 17.0364ZM12.7583 12.0848V16.3728C14.6988 15.127 16.0302 13.7542 16.9185 12.0892C16.8732 12.087 16.8279 12.0859 16.7827 12.0859H12.7594L12.7583 12.0848ZM12.7583 10.3123H16.7837C17.0478 10.3123 17.3055 10.3372 17.5556 10.384C17.6203 10.0244 17.6721 9.58781 17.6721 9.14686C17.6721 7.92064 16.6425 6.85733 15.3769 6.77804C14.688 6.73351 14.0336 6.97028 13.5345 7.44383C13.0343 7.91738 12.7583 8.55817 12.7583 9.24895V10.3133V10.3123Z" fill="white"/>
</svg>
