<svg width="32" height="24" viewBox="0 0 32 24" fill="none" xmlns="http://www.w3.org/2000/svg">
<path d="M28 0H4C1.79086 0 0 1.79086 0 4V20C0 22.2091 1.79086 24 4 24H28C30.2091 24 32 22.2091 32 20V4C32 1.79086 30.2091 0 28 0Z" fill="#FF821E"/>
<path d="M9.72452 5.12574C9.92739 3.78602 8.89487 3.06581 7.48304 2.58537L7.94102 0.770544L6.82283 0.495237L6.37696 2.26223C6.083 2.18987 5.78108 2.12159 5.48107 2.05394L5.93013 0.275307L4.81258 0L4.35428 1.81419C4.11096 1.75945 3.8721 1.70533 3.64025 1.64838L3.64152 1.64272L2.09943 1.26232L1.80197 2.44221C1.80197 2.44221 2.63161 2.63004 2.6141 2.64168C3.06698 2.75338 3.14883 3.04945 3.13513 3.28417L2.61346 5.35165C2.64467 5.35951 2.68512 5.37084 2.72971 5.38846C2.69244 5.37933 2.65263 5.36927 2.61155 5.35951L1.88032 8.25574C1.8249 8.39166 1.68445 8.59554 1.36788 8.51814C1.37903 8.53419 0.555114 8.31772 0.555114 8.31772L0 9.58224L1.45514 9.94061C1.72585 10.0076 1.99115 10.0778 2.2523 10.1439L1.78955 11.9795L2.90646 12.2548L3.36476 10.4387C3.66986 10.5205 3.96605 10.596 4.25587 10.6671L3.79917 12.4747L4.91736 12.75L5.38011 10.9179C7.28686 11.2744 8.72066 11.1306 9.32419 9.42681C9.81051 8.055 9.29998 7.26369 8.29676 6.74769C9.02736 6.58124 9.5777 6.10646 9.72452 5.12574ZM7.16966 8.66508C6.82411 10.0369 4.48613 9.2953 3.72815 9.10935L4.34218 6.67752C5.10016 6.86442 7.53082 7.23443 7.16966 8.66508ZM7.51553 5.10592C7.20023 6.35376 5.25431 5.71977 4.62308 5.56434L5.17979 3.35874C5.81102 3.51417 7.84388 3.80427 7.51553 5.10592Z" transform="translate(10.75 6)" fill="white"/>
</svg>
