<svg width="32" height="24" viewBox="0 0 32 24" fill="none" xmlns="http://www.w3.org/2000/svg">
<rect width="32" height="24" rx="4" fill="white"/>
<path fill-rule="evenodd" clip-rule="evenodd" d="M12.8975 9.718C13.4727 10.1426 14.2745 10.0188 14.6928 9.43498L16.1917 7.3299C16.61 6.74614 16.488 5.93241 15.9129 5.50786C15.3377 5.08331 14.5359 5.20713 14.1176 5.79089L12.6012 7.89597C12.2003 8.47973 12.3223 9.29347 12.8975 9.718ZM19.7648 6.74614C19.1896 6.32159 18.3878 6.44541 17.9695 7.02917L11.9389 15.4495C11.5205 16.0332 11.6426 16.847 12.2177 17.2715C12.7929 17.6961 13.5947 17.5723 14.013 16.9885L20.0437 8.56818C20.4794 7.98442 20.3399 7.17069 19.7648 6.74614ZM12.3223 6.07394C12.7406 5.49018 12.6186 4.67645 12.0435 4.2519C11.4683 3.82735 10.6665 3.95118 10.2482 4.53494C9.82989 5.1187 9.95189 5.93243 10.5271 6.35698C11.1023 6.78153 11.904 6.6577 12.3223 6.07394ZM21.4729 17.643C20.8978 17.2184 20.096 17.3423 19.6777 17.926C19.2594 18.5098 19.3813 19.3236 19.9565 19.7481C20.5317 20.1727 21.3335 20.0488 21.7518 19.4651C22.1701 18.8813 22.0481 18.0676 21.4729 17.643ZM19.1199 14.2996C18.5448 13.8751 17.743 13.9989 17.3247 14.5827L15.8083 16.6878C15.39 17.2715 15.512 18.0852 16.0871 18.5098C16.6623 18.9344 17.4641 18.8105 17.8824 18.2268L19.3988 16.1217C19.8171 15.538 19.6951 14.7242 19.1199 14.2996Z" fill="#05C0C7"/>
</svg>
