<svg width="32" height="25" viewBox="0 0 32 25" fill="none" xmlns="http://www.w3.org/2000/svg">
<path fill-rule="evenodd" clip-rule="evenodd" d="M4 0L28 0C30.2091 0 32 1.79086 32 4V20C32 22.2091 30.2091 24 28 24H4C1.79086 24 0 22.2091 0 20V4C0 1.79086 1.79086 0 4 0Z" transform="translate(0 0.5)" fill="#FF6E28"/>
<path fill-rule="evenodd" clip-rule="evenodd" d="M5.39708 0.0876698C5.61009 0.0277493 5.83172 0 6.0526 0H6.06809C6.35485 0.00173033 6.6236 0.0506922 6.85562 0.134965C7.04306 0.203089 7.20643 0.294348 7.33611 0.402461C7.39009 0.447385 7.44029 0.497949 7.48437 0.553127C7.51662 0.593437 7.54553 0.636183 7.57016 0.681171C7.63704 0.803384 7.67175 0.941233 7.65405 1.08729C7.64038 1.19969 7.59743 1.30697 7.53004 1.40599C7.47877 1.48122 7.41346 1.55178 7.33611 1.61625C7.27521 1.66701 7.20694 1.71405 7.13218 1.75673C6.84794 1.91675 6.4725 2.0141 6.06091 2.0141C5.17394 2.0141 4.45487 1.56216 4.45487 1.00474C4.45487 0.70969 4.65629 0.444245 4.97737 0.259677C5.00748 0.242566 5.03865 0.226224 5.07077 0.210587C5.17085 0.161946 5.28025 0.120546 5.39708 0.0876698ZM0.220517 6.12016C0.220517 3.87163 4.14588 3.10818 6.14084 3.10818C7.2691 3.10818 9.6599 3.35061 11.1082 4.61497C11.2949 4.78198 11.4652 4.96648 11.6144 5.17021C11.6539 5.22405 11.6918 5.27922 11.7281 5.33575C11.8155 5.47167 11.8939 5.61548 11.9619 5.76775C12.0219 5.90214 12.0058 5.99955 11.9499 6.05249C11.9409 6.06101 11.9309 6.06838 11.92 6.0746C11.8961 6.08818 11.8679 6.09607 11.8371 6.09799C11.7464 6.10344 11.6646 6.06236 11.5965 6.00436C11.5831 5.99071 11.57 5.97597 11.5572 5.96001C11.4921 5.87843 11.4143 5.7989 11.3252 5.72167C10.5847 5.05133 8.99689 4.55396 7.54213 4.48898C5.95706 4.41816 4.53001 4.86074 4.53001 6.15233V7.81851C4.53001 7.89906 4.52755 7.97411 4.52258 8.04383C4.48957 8.50731 4.34597 8.73917 4.07666 8.83049C3.95114 8.87311 3.79834 8.88516 3.61677 8.87599C3.12362 8.85087 1.86838 8.60869 1.02045 7.87612C1.0185 7.87446 1.01655 7.87279 1.01466 7.87112C0.551866 7.45546 0.220517 6.88734 0.220517 6.12016ZM7.68428 5.64919C7.8161 5.50314 8.01078 5.44732 8.27392 5.44732C8.30913 5.44732 8.34547 5.44828 8.38313 5.4502C9.15819 5.48968 11.8158 6.0653 11.8158 8.23802C11.8158 10.4865 7.89036 11.25 5.8954 11.25C4.4783 11.25 1.06964 10.8675 0.0381211 8.55838C-0.119397 8.20591 0.247411 8.10818 0.478933 8.39817C1.53861 9.72513 5.97381 10.5274 7.17097 9.05563C7.1762 9.0496 7.18143 9.04339 7.18659 9.0373C7.22564 8.99052 7.26142 8.94143 7.2936 8.88996C7.42416 8.68117 7.49672 8.43309 7.49672 8.14182V6.47565C7.49672 6.07613 7.55718 5.81325 7.68428 5.64919Z" transform="translate(10 6.5)" fill="white"/>
</svg>
