<svg width="32" height="24" viewBox="0 0 32 24" fill="none" xmlns="http://www.w3.org/2000/svg">
<path d="M28 0H4C1.79086 0 0 1.79086 0 4V20C0 22.2091 1.79086 24 4 24H28C30.2091 24 32 22.2091 32 20V4C32 1.79086 30.2091 0 28 0Z" fill="#DE378C"/>
<path fill-rule="evenodd" clip-rule="evenodd" d="M1.19848 5.42947C1.19848 5.42947 1.09328 4.9241 1.09328 4.59138C1.09328 4.25862 1.19286 3.74809 1.19286 3.74809C1.55945 2.22346 2.90282 1.08816 4.50004 1.08816C6.37852 1.08816 7.92 2.65527 7.92 4.58303V5.43083H2.92914C3.22387 6.02194 3.81992 6.35444 4.50731 6.35444H8.99384L9 1.35516C9 0.609805 8.40578 0 7.67948 0H1.32052C0.594252 0 0 0.591333 0 1.33669V7.86248C0 8.60783 0.594252 9.23611 1.32052 9.23611H7.67948C8.3313 9.23611 8.87501 8.75583 8.98002 8.12778H4.50731C2.90747 8.12778 1.56244 6.95786 1.19848 5.42947Z" transform="translate(11.5 9.51389)" fill="white"/>
<path fill-rule="evenodd" clip-rule="evenodd" d="M1.54282 0C0.872566 0 0.289669 0.4613 0 1.05556H3.08571C2.79605 0.4613 2.21315 0 1.54282 0Z" transform="translate(14.3286 12.1528)" fill="white"/>
<path fill-rule="evenodd" clip-rule="evenodd" d="M5.65714 2.92875C5.65714 1.31124 4.39041 0 2.82786 0C1.29118 0 0.0413884 1.26836 0.000340243 2.8488C-0.000331517 2.85548 0.000198741 2.86197 0.000198741 2.86883V3.74897C0.000198741 3.85425 0.080987 3.95833 0.182671 3.95833H1.22358C1.32527 3.95833 1.41443 3.85425 1.41443 3.74897V2.92875C1.41443 2.12103 2.04837 1.46387 2.82867 1.46387C3.60898 1.46387 4.24291 2.12103 4.24291 2.92875V3.74897C4.24291 3.85425 4.32539 3.95833 4.42708 3.95833H5.46802C5.56971 3.95833 5.65714 3.85425 5.65714 3.74897V2.92875Z" transform="translate(13.0428 4.5)" fill="white"/>
</svg>
