<svg width="32" height="24" viewBox="0 0 32 24" fill="none" xmlns="http://www.w3.org/2000/svg">
<path d="M28 0H4C1.79086 0 0 1.79086 0 4V20C0 22.2091 1.79086 24 4 24H28C30.2091 24 32 22.2091 32 20V4C32 1.79086 30.2091 0 28 0Z" fill="#EB008B"/>
<path fill-rule="evenodd" clip-rule="evenodd" d="M0 0V4.04895H1.05384V2.45895H2.19419V1.60046H1.05384V0.921628H2.90686V0H0Z" transform="translate(13 9.75)" fill="white"/>
<path fill-rule="evenodd" clip-rule="evenodd" d="M1.94616 3.32233C1.45047 3.32233 1.01512 2.7886 1.01512 2.12163C1.01512 1.45744 1.45047 0.916744 1.94616 0.916744C2.31209 0.916744 2.62919 1.21221 2.77361 1.63605L3.76779 1.35C3.47651 0.557791 2.77361 0 1.94616 0C0.870349 0 0 0.951977 0 2.12163C0 3.28849 0.870349 4.23663 1.94616 4.23663C2.77361 4.23663 3.47651 3.6757 3.76779 2.88872L2.77361 2.60721C2.62919 3.02198 2.31209 3.32233 1.94616 3.32233Z" transform="translate(16 9.75)" fill="white"/>
<path fill-rule="evenodd" clip-rule="evenodd" d="M0 7.85714C0 12.8014 3.70733 16.5 8.64286 16.5C12.7982 16.5 16.5 12.8014 16.5 7.85714C16.5 3.69941 12.7982 0 8.64286 0C3.70733 0 0 3.69941 0 7.85714ZM1.57143 7.85714C1.57143 4.56799 4.56911 1.57143 7.85714 1.57143C11.9258 1.57143 14.9286 4.56799 14.9286 7.85714C14.9286 11.9265 11.9258 14.9286 7.85714 14.9286C4.56911 14.9286 1.57143 11.9265 1.57143 7.85714Z" transform="translate(7.75 3.75)" fill="white"/>
</svg>
