<svg width="32" height="24" viewBox="0 0 32 24" fill="none" xmlns="http://www.w3.org/2000/svg">
<path d="M28 0H4C1.79086 0 0 1.79086 0 4V20C0 22.2091 1.79086 24 4 24H28C30.2091 24 32 22.2091 32 20V4C32 1.79086 30.2091 0 28 0Z" fill="#0F4CA1"/>
<path fill-rule="evenodd" clip-rule="evenodd" d="M0 9.75H2.25V6.03677C2.68608 6.85033 3.6412 7.1517 4.44875 7.1517C6.43599 7.1517 7.5 5.47204 7.5 3.45099C7.5 1.79793 6.48794 0 4.64148 0C3.59013 0 2.7114 0.43305 2.25 1.39104V0H0V9.75ZM5.11575 3.50375C5.11575 4.59319 4.58997 5.3408 3.71868 5.3408C2.9491 5.3408 2.30742 4.59319 2.30742 3.59541C2.30742 2.57214 2.87206 1.8109 3.71868 1.8109C4.61572 1.8109 5.11575 2.59785 5.11575 3.50375Z" transform="translate(16.75 7.5)" fill="#FFFFFE"/>
<path fill-rule="evenodd" clip-rule="evenodd" d="M7.5 0.154884H5.38082V1.36844H5.35537C4.86126 0.542315 4.05514 0 3.05452 0C0.949061 0 0 1.49758 0 3.49941C0 5.48893 1.15684 6.88244 3.0158 6.88244C3.95158 6.88244 4.73137 6.52185 5.28987 5.73313H5.31621V6.09548C5.31621 7.41266 4.58864 8.04517 3.23664 8.04517C2.26168 8.04517 1.66379 7.83881 0.949061 7.4901L0.831784 9.32407C1.3779 9.51701 2.30085 9.75 3.41853 9.75C6.14821 9.75 7.5 8.85854 7.5 6.09548V0.154884ZM2.41768 3.46047C2.41768 2.54393 2.87263 1.78205 3.74358 1.78205C4.7962 1.78205 5.23832 2.62071 5.23832 3.37005C5.23832 4.40364 4.57515 5.10084 3.74358 5.10084C3.04169 5.10084 2.41768 4.50616 2.41768 3.46047Z" transform="translate(7.75 7.5)" fill="#FFFFFE"/>
</svg>
