<svg xmlns="http://www.w3.org/2000/svg" width="129.81mm" height="129.81mm" viewBox="0 0 367.97 367.97"><defs><style>.a{fill:#fff;}.b{fill:#c06;}</style></defs><rect class="a" width="367.97" height="367.97"/><path class="b" d="M350.31,231.9V194.25H332.64v20H294.23a101.46,101.46,0,0,1-6,17.66Z"/><path class="b" d="M332.64,153.69v20h17.67V136h-62a99.74,99.74,0,0,1,6,17.66Z"/><polygon class="b" points="35.32 214.24 35.32 173.13 17.65 173.13 17.65 231.9 64.8 231.9 64.8 214.24 35.32 214.24"/><polygon points="35.32 96.84 35.32 35.32 96.84 35.32 96.84 80.82 114.5 80.82 114.5 17.65 17.65 17.65 17.65 114.5 64.8 114.5 64.8 96.84 35.32 96.84"/><polygon points="96.84 332.64 35.32 332.64 35.32 271.13 64.8 271.13 64.8 253.46 17.65 253.46 17.65 350.31 114.5 350.31 114.5 287.15 96.84 287.15 96.84 332.64"/><path d="M274.53,114.5h75.78V17.65H253.46V97.11A86.58,86.58,0,0,1,274.53,114.5Zm-3.4-79.18h61.52V96.84H271.13Z"/><rect x="287.15" y="51.34" width="29.48" height="29.48"/><rect x="51.34" y="51.34" width="29.48" height="29.48"/><rect x="51.34" y="287.15" width="29.48" height="29.48"/><path class="b" d="M231.14,17.65H137V35.32h76.44V83.14a133.58,133.58,0,0,1,17.66,4.17Z"/><path class="b" d="M213.48,332.65H178.87V287.14H161.21v45.5H137v17.66h94.1V280.62a135.15,135.15,0,0,1-17.66,4.19Z"/><rect class="b" x="161.24" y="51.34" width="17.67" height="29.47"/><rect class="b" x="17.65" y="136.03" width="47.15" height="17.66"/><path class="b" d="M274.4,253.46a86.45,86.45,0,0,1-20.94,17.32v.35h38.71v30.76h17.66V271.13h22.81v61.52H271.13V301.89H253.46v48.42h96.85V253.46Z"/><path d="M184.4,271.14H95.54a14.74,14.74,0,0,1-14.72-14.72V111.56A14.73,14.73,0,0,1,95.54,96.84H184.4c84.67,0,97.31,54.48,97.31,86.95C281.71,240.12,247.15,271.14,184.4,271.14ZM95.54,102.48a9.09,9.09,0,0,0-9.08,9.08V256.42a9.09,9.09,0,0,0,9.08,9.08H184.4c59.12,0,91.67-29,91.67-81.71,0-70.75-57.43-81.31-91.67-81.31Z"/><path class="b" d="M135.73,125.6V251.91h55c49.95,0,71.61-28.23,71.61-68,0-38.14-21.66-67.79-71.61-67.79H145.26A9.53,9.53,0,0,0,135.73,125.6Z"/><path class="a" d="M156.63,167.41a15,15,0,0,1,5.21.89A11.41,11.41,0,0,1,166,171a12.45,12.45,0,0,1,2.76,4.46,18.17,18.17,0,0,1,1,6.29,20.18,20.18,0,0,1-.81,5.85,13,13,0,0,1-2.45,4.62,11.53,11.53,0,0,1-4.1,3.06,13.77,13.77,0,0,1-5.78,1.12H144.4v-29ZM156.18,191a8.41,8.41,0,0,0,2.68-.44,6,6,0,0,0,2.31-1.48,7.31,7.31,0,0,0,1.62-2.7,11.77,11.77,0,0,0,.61-4.06,17.18,17.18,0,0,0-.42-4,8,8,0,0,0-1.4-3,6.22,6.22,0,0,0-2.58-1.92,10.22,10.22,0,0,0-3.95-.67h-4.28V191Z"/><path class="a" d="M196,167.41v5.36h-15V179h13.76v4.95H180.93V191h15.34v5.35H174.56v-29Z"/><path class="a" d="M217.5,167.41l10.83,29h-6.62l-2.19-6.45H208.69l-2.27,6.45H200l11-29Zm.36,17.77-3.65-10.63h-.08l-3.77,10.63Z"/><path class="a" d="M238.43,167.46v23.61h13.84v5.36H232.06v-29Z"/><path d="M110.88,203.82h0a10.55,10.55,0,0,1,10.55,10.55v37.54a0,0,0,0,1,0,0h0a21.09,21.09,0,0,1-21.09-21.09V214.36A10.55,10.55,0,0,1,110.88,203.82Z"/><circle cx="110.88" cy="181.9" r="13.92"/></svg>
