<svg xmlns="http://www.w3.org/2000/svg" width="32" height="24" viewBox="0 0 32 24" fill="none">
    <rect width="32" height="24" rx="4" fill="#001C5D"/>
    <g clip-path="url(#clip0_2767_2)">
        <path d="M6.2 9.16364C5.53455 9.16364 5 9.70909 5 10.3636V16.7236C5 17.3891 5.53455 17.9236 6.2 17.9236C6.86545 17.9236 7.4 17.3891 7.4 16.7236V10.3636C7.4 9.70909 6.86545 9.16364 6.2 9.16364Z" fill="#33EBC7"/>
        <path d="M6.2 8.41091C6.86545 8.41091 7.4 7.87636 7.4 7.21091C7.4 6.54546 6.86545 6.01091 6.2 6.01091C5.53455 6.01091 5 6.54546 5 7.21091C5 7.87636 5.53455 8.41091 6.2 8.41091Z" fill="#33EBC7"/>
        <path d="M13.3127 9.15273C12.1564 9.15273 11.4145 9.58909 10.9564 10.0145C10.8145 9.88363 10.6509 9.76363 10.4873 9.66545C10.4 9.6 10.3018 9.54545 10.1927 9.50182C10.0618 9.44727 9.91999 9.42545 9.76726 9.42545C9.10181 9.42545 8.56726 9.96 8.56726 10.6255C8.56726 11.0836 8.81817 11.4764 9.18908 11.6836C9.19999 11.6836 9.19999 11.6945 9.2109 11.6945C9.28726 11.7382 9.35272 11.7927 9.39635 11.8364C9.70181 12.1527 9.8109 12.7091 9.83272 13.0473C9.83272 13.1345 9.83272 13.2218 9.84362 13.2873V16.7127C9.84362 17.3782 10.3782 17.9236 11.0436 17.9236C11.7091 17.9236 12.2436 17.3891 12.2436 16.7236V13.2545V12.7309V12.72C12.2436 12.0764 12.7673 11.5527 13.4109 11.5527C14.0545 11.5527 14.5782 12.0764 14.5782 12.72V12.7309V13.2327C14.5782 13.2436 14.5782 13.2545 14.5782 13.2764V16.7236C14.5782 17.3891 15.1127 17.9236 15.7782 17.9236C16.4436 17.9236 16.9782 17.3891 16.9782 16.7236V13.3418C16.9782 13.32 16.9782 13.2873 16.9782 13.2436C16.9782 12.7745 16.8909 11.2473 15.8654 10.1782C15.2436 9.51273 14.3491 9.15273 13.3127 9.15273Z" fill="#33EBC7"/>
        <path d="M26 11.8255C26.0327 11.7818 26.0763 11.7382 26.1091 11.6945C26.1309 11.6727 26.1418 11.64 26.1636 11.6182C26.2072 11.5527 26.2509 11.4982 26.2945 11.4327C26.2945 11.4218 26.3054 11.4218 26.3054 11.4109C26.3709 11.3236 26.4254 11.2255 26.4691 11.1164V11.1055C26.6982 10.6255 26.8182 10.0691 26.8182 9.46909C26.8182 8.31273 26.3818 7.57091 25.9563 7.11273C25.4109 6.56727 24.7454 6 22.8145 6H19.2582C18.5927 6 18.0472 6.53455 18.0472 7.2C18.0472 7.86545 18.5818 8.4 19.2472 8.4H22.7163H23.24H23.2509C23.8945 8.4 24.4182 8.92364 24.4182 9.56727C24.4182 10.1673 23.9709 10.6582 23.4036 10.7236C23.2618 10.7345 23.12 10.7345 22.9563 10.7345H22.7491C22.7382 10.7345 22.7272 10.7345 22.7054 10.7345H19.2582C18.5927 10.7345 18.0582 11.2691 18.0582 11.9345C18.0582 12.6 18.5927 13.1345 19.2582 13.1345H22.7272H23.2509H23.2618C23.9054 13.1345 24.4291 13.6582 24.4291 14.3018C24.4291 14.9455 23.9054 15.4691 23.2618 15.4691H23.2509H22.7491C22.7382 15.4691 22.7272 15.4691 22.7054 15.4691H19.2582C18.5927 15.4691 18.0582 16.0036 18.0582 16.6691C18.0582 17.3345 18.5927 17.8691 19.2582 17.8691H22.64C22.6618 17.8691 22.6945 17.8691 22.7382 17.8691C23.2072 17.8691 24.7345 17.7818 25.8036 16.7564C26.48 16.1127 26.84 15.2182 26.84 14.1818C26.84 13.0255 26.4036 12.2836 25.9782 11.8255C25.9672 11.8582 25.9891 11.8473 26 11.8255Z" fill="#33EBC7"/>
    </g>
    <defs>
        <clipPath id="clip0_2767_2">
            <rect width="21.8182" height="12" fill="white" transform="translate(5 6)"/>
        </clipPath>
    </defs>
</svg>
