<svg width="32" height="24" fill="none" xmlns="http://www.w3.org/2000/svg"><path d="M28 0H4a4 4 0 0 0-4 4v16a4 4 0 0 0 4 4h24a4 4 0 0 0 4-4V4a4 4 0 0 0-4-4z" fill="#EB6F93"/><path d="M7.27 9.198a42.582 42.582 0 0 1 4.321-.237c1.013 0 1.749.033 2.75.107l.466.035c.178.014.317.023.452.032.44.028.813.042 1.21.042a.255.255 0 0 0 .257-.253.255.255 0 0 0-.258-.253c-.383 0-.746-.013-1.175-.04l-.447-.032-.465-.035a34.364 34.364 0 0 0-2.791-.109 43.11 43.11 0 0 0-4.607.265.255.255 0 0 0-.229.252v.793c0 .041.01.082.03.119.205.377.335.788.383 1.213.069 1.312.204 2.133.618 2.956.601 1.193 1.672 1.867 3.299 1.867 2.843.002 3.684-.63 4.294-2.515l.094-.293a50.79 50.79 0 0 1 .628-1.806c.15-.355.26-.476.368-.476a.255.255 0 0 0 .258-.253.255.255 0 0 0-.258-.253c-.385 0-.623.262-.845.79-.11.261-.581 1.659-.539 1.537-.033.094-.065.191-.103.307l-.095.294c-.274.848-.474 1.222-.896 1.54-.548.411-1.451.623-2.906.622-1.428 0-2.321-.562-2.836-1.585-.374-.742-.5-1.513-.567-2.773a3.844 3.844 0 0 0-.411-1.353v-.505z" fill="#fff"/><path d="M11.161 14.541h-.026a2.27 2.27 0 0 1-1.663-.641c-.898-.893-.884-2.375-.884-2.446a7.018 7.018 0 0 1-.031-.691.8.8 0 0 1 .183-.603.83.83 0 0 1 .567-.293c.625-.069 1.583-.102 2.213-.11 1.617-.018 2.498.08 2.856.312.485.309.422.77 0 2.085l-.113.285c-.42 1.354-.656 2.102-3.102 2.102zm.915-4.326l-2.45 3.004a.25.25 0 0 0 .04.356c.112.087.274.07.363-.04l2.45-3.004a.25.25 0 0 0-.04-.355.261.261 0 0 0-.363.039zm-1.624-.102l-1.407 1.724a.25.25 0 0 0 .04.356c.112.087.274.07.363-.04l1.406-1.724a.25.25 0 0 0-.04-.356.261.261 0 0 0-.362.04zM25.666 9.198v.505a3.83 3.83 0 0 0-.41 1.338c-.067 1.275-.194 2.046-.568 2.788-.515 1.023-1.408 1.585-2.836 1.585-1.453 0-2.356-.213-2.904-.626-.424-.32-.623-.694-.9-1.544l-.094-.291c-.037-.115-.07-.211-.102-.304.043.121-.43-1.276-.54-1.538-.221-.527-.459-.79-.844-.79a.255.255 0 0 0-.258.254c0 .14.116.253.258.253.109 0 .219.121.368.476a50.776 50.776 0 0 1 .627 1.803l.094.29c.613 1.889 1.455 2.523 4.295 2.523 1.627 0 2.698-.674 3.299-1.867.414-.823.55-1.644.619-2.971.047-.41.177-.821.382-1.198a.249.249 0 0 0 .03-.119v-.793a.255.255 0 0 0-.229-.252c-1.53-.17-3.067-.259-4.606-.265-1.03 0-1.778.034-2.792.109l-.465.035c-.176.013-.314.023-.447.031-.43.028-.792.041-1.175.041a.255.255 0 0 0-.258.253c0 .14.116.253.258.253.396 0 .769-.014 1.209-.042.135-.009.275-.018.452-.032l.465-.035a33.856 33.856 0 0 1 2.752-.107c1.443.006 2.885.085 4.32.237z" fill="#fff"/><path d="M21.767 14.541c-2.445 0-2.682-.748-3.11-2.1l-.095-.296c-.428-1.316-.484-1.774 0-2.085.358-.238 1.24-.33 2.857-.312.632 0 1.588.04 2.213.11.222.02.428.126.57.297.14.17.206.39.18.608 0 .237 0 .474-.034.712 0 .043.015 1.534-.884 2.427a2.27 2.27 0 0 1-1.665.641h-.032v-.002zm-1.421-4.428l-1.407 1.724a.25.25 0 0 0 .04.356c.112.087.274.07.363-.04l1.407-1.724a.25.25 0 0 0-.04-.356.261.261 0 0 0-.363.04zm1.624.102l-2.45 3.004a.25.25 0 0 0 .04.356c.112.087.274.07.363-.04l2.45-3.004a.25.25 0 0 0-.04-.356.261.261 0 0 0-.363.04z" fill="#fff"/></svg>