<?xml version="1.0" encoding="UTF-8"?>
<svg width="30" height="30" viewBox="0 0 32 32"><g><defs><linearGradient id="idVv290u3_ig1001431516" gradientTransform="rotate(-135, 0.5, 0.5)"><stop offset="0" stop-color="rgb(0,114,255)" stop-opacity="1"></stop><stop offset="1" stop-color="rgb(0,178,255)" stop-opacity="1"></stop></linearGradient></defs><path d="M 6 32 C 2.686 32 0 29.314 0 26 L 0 6 C 0 2.686 2.686 0 6 0 L 26 0 C 29.314 0 32 2.686 32 6 L 32 26 C 32 29.314 29.314 32 26 32 Z" fill="url(#idVv290u3_ig1001431516)"></path></g><g transform="translate(7.466 7.467)"><path d="M 0.001 1 C 0.001 0.448 0.449 0 1.001 0 L 1.134 0 C 1.686 0 2.134 0.448 2.134 1 L 2.134 4.8 C 2.134 5.095 2.373 5.333 2.668 5.333 C 2.962 5.333 3.201 5.095 3.201 4.8 L 3.201 1 C 3.201 0.448 3.649 0 4.201 0 L 4.334 0 C 4.886 0 5.334 0.448 5.334 1 L 5.334 4.8 C 5.334 5.095 5.573 5.333 5.868 5.333 C 6.162 5.333 6.401 5.095 6.401 4.8 L 6.401 1 C 6.401 0.448 6.849 0 7.401 0 L 7.534 0 C 8.086 0 8.534 0.448 8.534 1 L 8.534 5.533 C 8.534 7.19 7.191 8.533 5.534 8.533 C 5.496 8.533 5.459 8.549 5.433 8.576 C 5.406 8.604 5.392 8.641 5.394 8.679 L 5.787 16.535 C 5.816 17.097 5.533 17.628 5.05 17.918 C 4.568 18.207 3.966 18.207 3.484 17.918 C 3.001 17.628 2.718 17.097 2.747 16.535 L 3.14 8.679 C 3.142 8.641 3.128 8.604 3.101 8.576 C 3.075 8.549 3.038 8.533 3 8.533 C 1.343 8.533 0 7.19 0 5.533 L 0 1 Z" fill="rgb(255,255,255)"></path></g><g transform="translate(19.133 6.345)"><path d="M 5.401 0.965 C 5.401 0.449 5.008 0.017 4.493 0.004 C 4.093 -0.006 3.633 -0 3.267 0.055 C -0.067 0.558 -0.069 9.067 0.025 11.926 C 0.044 12.45 0.479 12.862 1.003 12.855 L 4.401 12.855 C 4.953 12.855 5.367 14.207 5.367 13.655 Z M 5.444 12.505 C 5.444 11.815 4.981 11.255 4.411 11.255 L 4.19 11.255 C 3.652 11.255 3.205 11.754 3.16 12.401 L 2.781 17.901 C 2.757 18.25 2.855 18.594 3.051 18.852 C 3.246 19.109 3.522 19.255 3.811 19.255 L 4.411 19.255 C 4.981 19.255 5.444 18.695 5.444 18.005 Z" fill="rgb(255,255,255)"></path></g></svg>
