<svg width="33" height="24" viewBox="0 0 33 24" fill="none" xmlns="http://www.w3.org/2000/svg">
<path d="M4.12903 0.5H27.871C29.8701 0.5 31.5 2.13976 31.5 4.17391V19.8261C31.5 21.8602 29.8701 23.5 27.871 23.5H4.12903C2.12986 23.5 0.5 21.8602 0.5 19.8261V4.17391C0.5 2.13976 2.12986 0.5 4.12903 0.5Z" transform="translate(0.5)" fill="white" stroke="#E5E5E5"/>
<path fill-rule="evenodd" clip-rule="evenodd" d="M4.4319 7.36096C2.8451 7.36096 1.55873 6.06061 1.55873 4.45656C1.55873 2.8525 2.8451 1.55215 4.4319 1.55215C6.01871 1.55215 7.30508 2.8525 7.30508 4.45656C7.30508 6.06061 6.01871 7.36096 4.4319 7.36096ZM4.41445 0C1.97642 0 0 1.9979 0 4.46244C0 6.92697 1.97642 8.92488 4.41445 8.92488C6.85249 8.92488 8.82891 6.92697 8.82891 4.46244C8.82891 1.9979 6.85249 0 4.41445 0Z" transform="translate(9.27417 9.84601)" fill="#D30D48"/>
<path fill-rule="evenodd" clip-rule="evenodd" d="M5.89757 10.3947C3.48845 10.3947 1.53546 8.42052 1.53546 5.98519C1.53546 3.54987 3.48845 1.57567 5.89757 1.57567C8.30669 1.57567 10.2597 3.54987 10.2597 5.98519C10.2597 8.42052 8.30669 10.3947 5.89757 10.3947ZM5.9092 0C2.64565 0 0 2.6744 0 5.97343C0 9.27246 2.64565 11.9469 5.9092 11.9469C9.17276 11.9469 11.8184 9.27246 11.8184 5.97343C11.8184 2.6744 9.17276 0 5.9092 0Z" transform="translate(11.3912 4.69568)" fill="#2AAACD"/>
<path fill-rule="evenodd" clip-rule="evenodd" d="M0.0729341 1.64074C0.298949 1.58296 0.535597 1.55215 0.779363 1.55215C2.36617 1.55215 3.65254 2.8525 3.65254 4.45656C3.65254 4.703 3.62206 4.94222 3.56492 5.17069C3.82342 5.21895 4.0898 5.24439 4.36211 5.24439C4.62051 5.24439 4.87358 5.22153 5.11963 5.17798C5.15676 4.94499 5.17637 4.70605 5.17637 4.46244C5.17637 1.99792 3.19995 0 0.761915 0C0.525802 0 0.294088 0.0189544 0.0680257 0.0550302C0.0233343 0.308172 0 0.568769 0 0.834869C0 1.11014 0.0251951 1.37944 0.0729341 1.64074Z" transform="translate(12.9268 9.84601)" fill="#F9BA30"/>
<path fill-rule="evenodd" clip-rule="evenodd" d="M5.93247 5.22088C5.92077 5.22088 5.90916 5.22125 5.89757 5.22177V5.22088C3.48845 5.22088 1.53546 3.24668 1.53546 0.811352H1.53458C1.53509 0.799641 1.53546 0.787906 1.53546 0.776077C1.53546 0.347447 1.19175 0 0.767731 0C0.34371 0 0 0.347447 0 0.776077C0 0.783979 0.000371476 0.791762 0.000580818 0.799594H0C0 4.09862 2.64565 6.77303 5.9092 6.77303V6.77244C5.91695 6.77265 5.92467 6.77303 5.93247 6.77303C6.35649 6.77303 6.7002 6.42558 6.7002 5.99695C6.7002 5.56832 6.35649 5.22088 5.93247 5.22088Z" transform="translate(11.3912 9.86951)" fill="#55548F"/>
</svg>
