<svg width="32" height="24" viewBox="0 0 32 24" fill="none" xmlns="http://www.w3.org/2000/svg">
<rect width="32" height="24" rx="4" fill="white"/>
<path fill-rule="evenodd" clip-rule="evenodd" d="M15.957 19.4832H22.5667C24.075 19.4832 24.0908 17.8795 23.9367 17.0882C23.8528 16.5557 22.9483 16.5641 22.8487 17.0882V17.7055C22.8484 17.8416 22.7942 17.9721 22.6979 18.0684C22.6017 18.1646 22.4712 18.2188 22.3351 18.2191H9.66492C9.52879 18.2188 9.39831 18.1646 9.30206 18.0684C9.2058 17.9721 9.1516 17.8416 9.15132 17.7055V17.0882C9.05174 16.5641 8.14718 16.5557 8.06333 17.0882C7.90925 17.8795 7.92497 19.4832 9.43328 19.4832H15.957ZM11.2854 4.11926H21.4756C22.1915 4.11926 22.7774 4.73977 22.7774 5.49759V6.15584C22.7774 7.08661 21.5196 7.08241 21.5196 6.16213V5.80366C21.5196 5.69246 21.4754 5.58582 21.3968 5.50719C21.3182 5.42856 21.2115 5.38439 21.1003 5.38439H10.8892C10.778 5.38439 10.6713 5.42856 10.5927 5.50719C10.5141 5.58582 10.4699 5.69246 10.4699 5.80366V6.15584C10.4699 7.08136 9.26871 7.07508 9.26871 6.17575V5.49864C9.27186 4.74082 9.85673 4.11926 10.5726 4.11926H11.2854Z" fill="#3D73B9"/>
<path fill-rule="evenodd" clip-rule="evenodd" d="M22.5207 11.688C22.8706 11.8443 23.1687 12.0971 23.38 12.4168C23.5912 12.7365 23.707 13.1098 23.7135 13.4929C23.7135 14.6019 22.745 15.5096 21.5617 15.5096H18.2421C18.0981 15.5139 17.9582 15.4613 17.8527 15.3632C17.7472 15.2651 17.6845 15.1294 17.6782 14.9855V8.6672C17.6788 8.52041 17.7374 8.37981 17.8413 8.27611C17.9452 8.17241 18.0859 8.11405 18.2327 8.11378H20.9967C21.4111 8.11281 21.8166 8.23391 22.1627 8.46197C22.5087 8.69002 22.7799 9.01493 22.9425 9.39614C23.105 9.77736 23.1517 10.198 23.0767 10.6056C23.0017 11.0132 22.8083 11.3896 22.5207 11.688ZM20.0439 11.1744H21.0973V11.1629C21.3337 11.1258 21.5492 11.0057 21.7051 10.8242C21.8611 10.6427 21.9473 10.4117 21.9484 10.1724C21.9476 9.90686 21.8418 9.65247 21.654 9.46473C21.4663 9.27699 21.2119 9.17115 20.9464 9.17032H18.8239V14.4111H21.5145C21.6532 14.4155 21.7914 14.392 21.9208 14.342C22.0502 14.292 22.1683 14.2164 22.268 14.1199C22.3676 14.0233 22.4469 13.9077 22.501 13.78C22.5551 13.6522 22.583 13.5148 22.583 13.3761C22.583 13.2373 22.5551 13.0999 22.501 12.9722C22.4469 12.8444 22.3676 12.7288 22.268 12.6322C22.1683 12.5357 22.0502 12.4602 21.9208 12.4101C21.7914 12.3601 21.6532 12.3366 21.5145 12.341H21.0952H20.0439C19.9675 12.341 19.8919 12.326 19.8213 12.2967C19.7507 12.2675 19.6866 12.2246 19.6326 12.1706C19.5786 12.1166 19.5357 12.0525 19.5065 11.9819C19.4772 11.9113 19.4622 11.8357 19.4622 11.7593C19.4622 11.6829 19.4772 11.6072 19.5065 11.5367C19.5357 11.4661 19.5786 11.402 19.6326 11.3479C19.6866 11.2939 19.7507 11.2511 19.8213 11.2218C19.8919 11.1926 19.9675 11.1775 20.0439 11.1775" fill="#1D1D1B"/>
<path d="M17.1508 14.8796C17.1636 14.9684 17.1584 15.0588 17.1355 15.1455C17.1125 15.2322 17.0723 15.3134 17.0173 15.3842C16.9623 15.455 16.8935 15.5139 16.8152 15.5575C16.7368 15.6012 16.6505 15.6285 16.5613 15.638C16.4721 15.6474 16.3819 15.6388 16.2962 15.6126C16.2104 15.5864 16.1308 15.5431 16.0622 15.4854C15.9935 15.4277 15.9372 15.3568 15.8966 15.2768C15.856 15.1969 15.832 15.1096 15.8259 15.0201L15.2777 9.99836L13.348 14.909V14.9216V14.9321V14.9425V14.9488V14.9583V14.9687C13.3057 15.0428 13.2491 15.1076 13.1814 15.1595L13.1709 15.1679C13.1358 15.1996 13.0971 15.227 13.0556 15.2496L13.043 15.2559L13.0315 15.2622H13.0242H13.0158H13.0084H13.0001H12.9938H12.9864H12.9801H12.9739H12.9655C12.9028 15.2846 12.837 15.297 12.7705 15.2989H12.7223C12.6475 15.2968 12.5737 15.2815 12.5043 15.2538H12.4948H12.4854H12.477H12.4707H12.4623H12.455H12.4498L12.4382 15.2475L12.4278 15.2413H12.4215C12.3843 15.2214 12.3492 15.1979 12.3167 15.171L12.2946 15.1511L12.2779 15.1354L12.238 15.1249L12.2181 15.1029C12.1913 15.0704 12.1677 15.0353 12.1479 14.9981V14.9918L12.1416 14.9813L12.1353 14.9698V14.9624V14.9541V14.9478V14.9383V14.93V14.9205L10.17 9.99836L9.62393 15.0201C9.60531 15.1956 9.51771 15.3566 9.3804 15.4676C9.2431 15.5785 9.06734 15.6304 8.89179 15.6118C8.71624 15.5932 8.55528 15.5056 8.44432 15.3683C8.33335 15.231 8.28148 15.0552 8.3001 14.8796L8.94367 8.95963C8.95921 8.82021 9.00119 8.68503 9.06736 8.56133C9.14994 8.40678 9.26809 8.27409 9.41207 8.17422C9.55605 8.07434 9.72172 8.01015 9.8954 7.98694H9.93104C9.98722 7.98277 10.0436 7.98277 10.0998 7.98694C10.1676 7.98964 10.235 7.99876 10.301 8.01419C10.4749 8.05401 10.6364 8.13576 10.7714 8.25233C10.9064 8.36889 11.0109 8.51672 11.0756 8.68292L12.7254 12.8525L14.3721 8.66929C14.4495 8.47101 14.5831 8.29958 14.7564 8.17598C14.9297 8.05238 15.1352 7.98195 15.3479 7.97331C15.4041 7.96914 15.4605 7.96914 15.5167 7.97331H15.5523C15.726 7.99669 15.8916 8.06095 16.0355 8.1608C16.1795 8.26066 16.2977 8.39326 16.3804 8.5477C16.4125 8.60967 16.4395 8.67418 16.4611 8.74057C16.4823 8.80886 16.4967 8.87908 16.5041 8.9502L17.1508 14.8796Z" fill="#1D1D1B"/>
</svg>
