<svg width="34" height="26" viewBox="0 0 34 26" fill="none" xmlns="http://www.w3.org/2000/svg">
<path d="M28 0H4C1.79086 0 0 1.79086 0 4V20C0 22.2091 1.79086 24 4 24H28C30.2091 24 32 22.2091 32 20V4C32 1.79086 30.2091 0 28 0Z" transform="translate(1 1)" fill="black"/>
<path d="M27.25 0H4C1.79086 0 0 1.79086 0 4V19.25C0 21.4591 1.79086 23.25 4 23.25H27.25C29.4591 23.25 31.25 21.4591 31.25 19.25V4C31.25 1.79086 29.4591 0 27.25 0Z" transform="translate(1.375 1.375)" fill="url(#paint0_radial)" stroke="black" stroke-opacity="0.1"/>
<path fill-rule="evenodd" clip-rule="evenodd" d="M0 0V2.07225H1.40737V1.69088H0.42525V1.19812H1.31625V0.83025H0.42525V0.378H1.40737V0H0ZM3.30375 0H2.88863V1.3095L1.974 0H1.569V2.07225H1.98413V0.691875L2.96287 2.07225H3.30375V0ZM3.41813 0.378H4.083V2.07225H4.51838V0.378H5.18662V0H3.41813V0.378ZM5.29762 0V2.07225H6.705V1.69088H5.72287V1.19812H6.61388V0.83025H5.72287V0.378H6.705V0H5.29762ZM7.52137 1.29937H7.29525V2.07225H6.86662V0H7.7205C8.15587 0 8.44613 0.232875 8.44613 0.658125C8.44613 0.988875 8.26388 1.19813 7.97363 1.269L8.52038 2.07225H8.03438L7.52137 1.29937ZM7.29525 0.367875V0.945H7.6935C7.9095 0.945 8.02087 0.83025 8.02087 0.658125C8.02087 0.482625 7.9095 0.367875 7.6935 0.367875H7.29525ZM8.4525 0.378V0H10.221V0.378H9.55275V2.07225H9.11738V0.378H8.4525ZM10.764 0H11.1926L11.9858 2.07225H11.547L11.3614 1.57275H10.5851L10.4029 2.07225H9.97087L10.764 0ZM10.9733 0.51975L10.7201 1.20825H11.2264L10.9733 0.51975ZM12.495 0H12.063V2.07225H12.495V0ZM14.4521 0H14.037V1.3095L13.1224 0H12.7174V2.07225H13.1325V0.691875L14.1112 2.07225H14.4521V0ZM15.8895 2.07225L16.3924 0.718875V2.07225H16.8008V0H16.2945L15.7444 1.46138L15.1909 0H14.6779V2.07225H15.0829V0.718875L15.5959 2.07225H15.8895ZM17.0265 0V2.07225H18.4339V1.69088H17.4517V1.19812H18.3428V0.83025H17.4517V0.378H18.4339V0H17.0265ZM20.3302 0H19.9151V1.3095L19.0005 0H18.5955V2.07225H19.0106V0.691875L19.9894 2.07225H20.3302V0ZM20.4446 0.378H21.1095V2.07225H21.5449V0.378H22.2131V0H20.4446V0.378Z" transform="translate(5.75 12.25)" fill="url(#paint1_linear)"/>
<path fill-rule="evenodd" clip-rule="evenodd" d="M1.73475 0.0337496H1.31962V1.34325L0.405 0.0337496H0V2.106H0.415125V0.725625L1.39388 2.106H1.73475V0.0337496ZM3.15263 0.0337496H3.58125L4.37438 2.106H3.93563L3.75 1.6065H2.97375L2.7915 2.106H2.3595L3.15263 0.0337496ZM3.36187 0.5535L3.10875 1.242H3.615L3.36187 0.5535ZM4.67513 0.41175H5.34V2.106H5.77538V0.41175H6.44363V0.0337496H4.67513V0.41175ZM7.53413 0.0337496H7.10213V2.106H7.53413V0.0337496ZM10.1636 1.06987C10.1636 1.6875 9.75862 2.13975 9.1815 2.13975C8.60437 2.13975 8.20275 1.6875 8.20275 1.06987C8.20275 0.448875 8.60437 0 9.1815 0C9.75862 0 10.1636 0.448875 10.1636 1.06987ZM9.72825 1.06987C9.72825 0.664875 9.51225 0.38475 9.1815 0.38475C8.85412 0.38475 8.6415 0.664875 8.6415 1.06987C8.6415 1.47487 8.85412 1.755 9.1815 1.755C9.51225 1.755 9.72825 1.47487 9.72825 1.06987ZM12.5737 0.0337496H12.1586V1.34325L11.244 0.0337496H10.839V2.106H11.2541V0.725625L12.2329 2.106H12.5737V0.0337496ZM13.9916 0.0337496H14.4202L15.2134 2.106H14.7746L14.589 1.6065H13.8127L13.6305 2.106H13.1985L13.9916 0.0337496ZM14.2009 0.5535L13.9478 1.242H14.454L14.2009 0.5535ZM15.8381 2.106H17.2354V1.72462H16.2701V0.0337496H15.8381V2.106ZM17.9242 0.0337496V2.106H19.3316V1.72462H18.3495V1.23188H19.2405V0.864H18.3495V0.41175H19.3316V0.0337496H17.9242Z" transform="translate(8.75 9.25)" fill="url(#paint2_linear)"/>
<path fill-rule="evenodd" clip-rule="evenodd" d="M0 1.06987C0 1.70437 0.41175 2.13975 0.96525 2.13975C1.45463 2.13975 1.755 1.85287 1.83262 1.43437H1.404C1.33312 1.62675 1.20488 1.755 0.96525 1.755C0.6345 1.755 0.438749 1.46137 0.438749 1.06987C0.438749 0.675 0.6345 0.38475 0.96525 0.38475C1.20488 0.38475 1.33312 0.513 1.404 0.702H1.83262C1.755 0.286875 1.45463 0 0.96525 0C0.41175 0 0 0.435375 0 1.06987ZM3.07837 0.0337496H3.507L4.30013 2.106H3.86138L3.67575 1.6065H2.8995L2.71725 2.106H2.28525L3.07837 0.0337496ZM3.28762 0.5535L3.0345 1.242H3.54075L3.28762 0.5535ZM5.57962 1.33313H5.3535V2.106H4.92488V0.0337496H5.77875C6.21412 0.0337496 6.50438 0.266625 6.50438 0.691875C6.50438 1.02263 6.32213 1.23187 6.03188 1.30275L6.57862 2.106H6.09262L5.57962 1.33313ZM5.3535 0.401625V0.97875H5.75175C5.96775 0.97875 6.07912 0.864 6.07912 0.691875C6.07912 0.516375 5.96775 0.401625 5.75175 0.401625H5.3535ZM7.62863 1.72462H7.9155C8.31038 1.72462 8.52637 1.4715 8.52637 1.06987C8.52637 0.664875 8.31038 0.41175 7.9155 0.41175H7.62863V1.72462ZM7.2 2.106V0.0337496H7.93237C8.56012 0.0337496 8.955 0.43875 8.955 1.06987C8.955 1.701 8.56012 2.106 7.93237 2.106H7.2Z" transform="translate(18.5 15.25)" fill="white"/>
<defs>
<radialGradient id="paint0_radial" cx="0.5" cy="0.5" r="0.5" gradientUnits="userSpaceOnUse" gradientTransform="translate(-31.3438 -19.375) scale(62.5 62)">
<stop stop-color="#12C6FF" stop-opacity="0.5"/>
<stop offset="1" stop-opacity="0.5"/>
</radialGradient>
<linearGradient id="paint1_linear" x2="1" gradientUnits="userSpaceOnUse" gradientTransform="translate(0.0572682 -0.0155419) scale(22.4353 2.09297)">
<stop stop-color="#FF0202"/>
<stop offset="0.150151" stop-color="#FF9C01"/>
<stop offset="0.319914" stop-color="#FFF400"/>
<stop offset="0.475248" stop-color="#7ED21C"/>
<stop offset="0.649454" stop-color="#B8DBF1"/>
<stop offset="0.816725" stop-color="#7F2B89"/>
<stop offset="1" stop-color="#DD0085"/>
</linearGradient>
<linearGradient id="paint2_linear" x2="1" gradientUnits="userSpaceOnUse" gradientTransform="translate(-5.04607 -0.298072) scale(24.6209 2.7252)">
<stop stop-color="#FF0202"/>
<stop offset="0.150151" stop-color="#FF9C01"/>
<stop offset="0.319914" stop-color="#FFF400"/>
<stop offset="0.475248" stop-color="#7ED21C"/>
<stop offset="0.649454" stop-color="#B8DBF1"/>
<stop offset="0.816725" stop-color="#7F2B89"/>
<stop offset="1" stop-color="#DD0085"/>
</linearGradient>
</defs>
</svg>
