<svg width="33" height="26" viewBox="0 0 33 26" fill="none" xmlns="http://www.w3.org/2000/svg">
<path d="M27.871 0H4.12903C1.84863 0 0 1.86872 0 4.17391V19.8261C0 22.1313 1.84863 24 4.12903 24H27.871C30.1514 24 32 22.1313 32 19.8261V4.17391C32 1.86872 30.1514 0 27.871 0Z" transform="translate(0.5 1)" fill="white" stroke="#E5E5E5"/>
<path fill-rule="evenodd" clip-rule="evenodd" d="M0 2.94513H1.74657C1.78524 2.14896 2.27505 1.63462 3.01621 1.63462C3.75093 1.63462 4.24074 2.12078 4.24074 2.79012C4.24074 3.45947 3.98939 3.80472 3.158 4.34724C2.2686 4.91795 1.91414 5.55207 1.99792 6.65825L2.01081 7.06691H3.71871V6.69348C3.71871 6.003 3.95717 5.65775 4.81434 5.11523C5.72307 4.53043 6.19355 3.79062 6.19355 2.72671C6.19355 1.12028 4.97546 0 3.13222 0C1.15364 0 0.0322245 1.21187 0 2.94513ZM2.88732 10.4348C3.4738 10.4348 3.94428 9.94862 3.94428 9.3286C3.94428 8.70857 3.4738 8.22241 2.88732 8.22241C2.30727 8.22241 1.8368 8.70857 1.8368 9.3286C1.8368 9.94862 2.30727 10.4348 2.88732 10.4348Z" transform="translate(13.4032 7.78261)" fill="black" fill-opacity="0.3"/>
</svg>
