<svg width="32" height="24" viewBox="0 0 32 24" fill="none" xmlns="http://www.w3.org/2000/svg">
	<rect width="32" height="24" rx="4" fill="#0040FF"/>
	<path fill-rule="evenodd" clip-rule="evenodd" d="M9.39673 8.2627C9.26225 8.33279 9.16139 8.41311 9.09414 8.50367C9.03138 8.59433 9 8.69731 9 8.81264C9 8.96095 9.05828 9.09281 9.17483 9.20814C9.29138 9.31935 9.45277 9.375 9.65898 9.375H22.341C22.5517 9.375 22.7131 9.31935 22.8252 9.20814C22.9417 9.09281 23 8.96095 23 8.81264C23 8.69731 22.9664 8.59433 22.8991 8.50367C22.8364 8.41311 22.74 8.33279 22.61 8.2627L16.8675 5.22246C16.5806 5.07416 16.2914 5 16 5C15.7086 5 15.4217 5.07416 15.1393 5.22246L9.39673 8.2627ZM12.58 8.0625H19.4267L16.2601 6.38605C16.1415 6.32546 16.059 6.3125 16 6.3125C15.9411 6.3125 15.8626 6.32534 15.7511 6.38368L12.58 8.0625Z" fill="white"/>
	<path d="M11.4062 10.6875H12.7188V16.375H11.4062V10.6875Z" fill="white"/>
	<path d="M10.75 11.2125C10.75 10.9651 10.75 10.8412 10.8269 10.7644C10.9038 10.6875 11.0275 10.6875 11.275 10.6875H12.85C13.0974 10.6875 13.2213 10.6875 13.2981 10.7644C13.375 10.8412 13.375 10.9651 13.375 11.2125V11.475C13.375 11.7224 13.375 11.8463 13.2981 11.9231C13.2213 12 13.0974 12 12.85 12H11.275C11.0275 12 10.9038 12 10.8269 11.9231C10.75 11.8463 10.75 11.7224 10.75 11.475V11.2125Z" fill="white"/>
	<path d="M10.75 15.5875C10.75 15.3401 10.75 15.2162 10.8269 15.1394C10.9038 15.0625 11.0275 15.0625 11.275 15.0625H12.85C13.0974 15.0625 13.2213 15.0625 13.2981 15.1394C13.375 15.2162 13.375 15.3401 13.375 15.5875V15.85C13.375 16.0974 13.375 16.2213 13.2981 16.2981C13.2213 16.375 13.0974 16.375 12.85 16.375H11.275C11.0275 16.375 10.9038 16.375 10.8269 16.2981C10.75 16.2213 10.75 16.0974 10.75 15.85V15.5875Z" fill="white"/>
	<path d="M15.3438 10.6875H16.6562V16.375H15.3438V10.6875Z" fill="white"/>
	<path d="M14.6875 11.2125C14.6875 10.9651 14.6875 10.8412 14.7644 10.7644C14.8412 10.6875 14.9651 10.6875 15.2125 10.6875H16.7875C17.0349 10.6875 17.1588 10.6875 17.2356 10.7644C17.3125 10.8412 17.3125 10.9651 17.3125 11.2125V11.475C17.3125 11.7224 17.3125 11.8463 17.2356 11.9231C17.1588 12 17.0349 12 16.7875 12H15.2125C14.9651 12 14.8412 12 14.7644 11.9231C14.6875 11.8463 14.6875 11.7224 14.6875 11.475V11.2125Z" fill="white"/>
	<path d="M14.6875 15.5875C14.6875 15.3401 14.6875 15.2162 14.7644 15.1394C14.8412 15.0625 14.9651 15.0625 15.2125 15.0625H16.7875C17.0349 15.0625 17.1588 15.0625 17.2356 15.1394C17.3125 15.2162 17.3125 15.3401 17.3125 15.5875V15.85C17.3125 16.0974 17.3125 16.2213 17.2356 16.2981C17.1588 16.375 17.0349 16.375 16.7875 16.375H15.2125C14.9651 16.375 14.8412 16.375 14.7644 16.2981C14.6875 16.2213 14.6875 16.0974 14.6875 15.85V15.5875Z" fill="white"/>
	<path d="M19.2812 10.6875H20.5938V16.375H19.2812V10.6875Z" fill="white"/>
	<path d="M18.625 11.2125C18.625 10.9651 18.625 10.8412 18.7019 10.7644C18.7787 10.6875 18.9026 10.6875 19.15 10.6875H20.725C20.9724 10.6875 21.0963 10.6875 21.1731 10.7644C21.25 10.8412 21.25 10.9651 21.25 11.2125V11.475C21.25 11.7224 21.25 11.8463 21.1731 11.9231C21.0963 12 20.9724 12 20.725 12H19.15C18.9026 12 18.7787 12 18.7019 11.9231C18.625 11.8463 18.625 11.7224 18.625 11.475V11.2125Z" fill="white"/>
	<path d="M18.625 15.5875C18.625 15.3401 18.625 15.2162 18.7019 15.1394C18.7787 15.0625 18.9026 15.0625 19.15 15.0625H20.725C20.9724 15.0625 21.0963 15.0625 21.1731 15.1394C21.25 15.2162 21.25 15.3401 21.25 15.5875V15.85C21.25 16.0974 21.25 16.2213 21.1731 16.2981C21.0963 16.375 20.9724 16.375 20.725 16.375H19.15C18.9026 16.375 18.7787 16.375 18.7019 16.2981C18.625 16.2213 18.625 16.0974 18.625 15.85V15.5875Z" fill="white"/>
	<path d="M9 18.3438C9 17.9813 9.29382 17.6875 9.65625 17.6875H22.3438C22.7062 17.6875 23 17.9813 23 18.3438C23 18.7062 22.7062 19 22.3438 19H9.65625C9.29382 19 9 18.7062 9 18.3438Z" fill="white"/>
</svg>
