<svg xmlns="http://www.w3.org/2000/svg" width="32" height="24" viewBox="0 0 32 24" fill="none"><rect width="32" height="24" rx="4" fill="#FF4785"/><g clip-path="url(#a)"><mask id="b" style="mask-type:luminance" maskUnits="userSpaceOnUse" x="8" y="7" width="7" height="7"><path fill-rule="evenodd" clip-rule="evenodd" d="m8.034 8.486 1.339 2.116c.335-.224.713-.33 1.086-.33.658 0 1.302.33 1.686.937.29.46.39 1.01.278 1.546a2.05 2.05 0 0 1-.706 1.175l3.156-2.326a4.6 4.6 0 0 0-.664-1.767 4.43 4.43 0 0 0-3.755-2.09c-.853 0-1.688.251-2.42.739" fill="#fff"/></mask><g mask="url(#b)"><path fill-rule="evenodd" clip-rule="evenodd" d="M6.746 15.219h9.415v-8.76H6.746z" fill="#fff"/></g><mask id="c" style="mask-type:luminance" maskUnits="userSpaceOnUse" x="17" y="10" width="7" height="7"><path fill-rule="evenodd" clip-rule="evenodd" d="m20.288 10.717.157-.115a2 2 0 0 0-.157.115m-3.16 2.33a4.6 4.6 0 0 0 .66 1.77 4.44 4.44 0 0 0 3.753 2.086c.832 0 1.674-.238 2.421-.735l-1.338-2.117c-.449.3-.983.4-1.508.285a2 2 0 0 1-1.264-.892 2.094 2.094 0 0 1 .436-2.727z" fill="#fff"/></mask><g mask="url(#c)"><path fill-rule="evenodd" clip-rule="evenodd" d="M15.839 18.192h9.412V9.313H15.84z" fill="#fff"/></g><mask id="d" style="mask-type:luminance" maskUnits="userSpaceOnUse" x="6" y="7" width="20" height="10"><path fill-rule="evenodd" clip-rule="evenodd" d="m19.058 8.52-.26.19-3.925 2.894-3.156 2.326a2 2 0 0 1-.485.293 1.975 1.975 0 0 1-2.304-.578 2 2 0 0 1-.147-.2l-2.064 1.372a4.44 4.44 0 0 0 3.276 2.062l.005.001q.232.025.466.025a4.44 4.44 0 0 0 2.474-.77l.006-.005.254-.186 3.93-2.897 3.317-2.445a2 2 0 0 1 .324-.174l.04-.017q.084-.033.169-.06l.015-.004q.08-.022.16-.038l.038-.007q.08-.015.16-.021l.018-.003a2 2 0 0 1 .161-.007h.017q.06.001.117.007l.086.006a2 2 0 0 1 .57.151l.053.026a2 2 0 0 1 .173.093q.05.03.099.062l.058.042q.048.035.092.072l.054.046q.045.041.089.085l.044.046q.05.053.094.11.016.016.028.033a2 2 0 0 1 .112.159l2.064-1.372a4.46 4.46 0 0 0-1.973-1.713 4.4 4.4 0 0 0-1.773-.375 4.44 4.44 0 0 0-2.476.77" fill="#fff"/></mask><g mask="url(#d)"><path fill-rule="evenodd" clip-rule="evenodd" d="M5.428 18.194H26.57V6.46H5.429z" fill="#fff"/></g><mask id="e" style="mask-type:luminance" maskUnits="userSpaceOnUse" x="6" y="8" width="4" height="7"><path fill-rule="evenodd" clip-rule="evenodd" d="m6.717 14.816 2.064-1.372a2.07 2.07 0 0 1-.32-1.154c.011-.66.333-1.303.912-1.688L8.034 8.486c-2.065 1.373-2.656 4.212-1.317 6.33" fill="#fff"/></mask><g mask="url(#e)"><path fill-rule="evenodd" clip-rule="evenodd" d="M4.711 16.105h5.95V7.197h-5.95z" fill="#fff"/></g><mask id="f" style="mask-type:luminance" maskUnits="userSpaceOnUse" x="22" y="9" width="4" height="8"><path fill-rule="evenodd" clip-rule="evenodd" d="M23.216 11.209c.291.46.39 1.01.278 1.546-.111.537-.42.997-.87 1.296l1.339 2.117a4.55 4.55 0 0 0 1.937-2.886 4.7 4.7 0 0 0 .099-.865v-.034a4.63 4.63 0 0 0-.719-2.546z" fill="#fff"/></mask><g mask="url(#f)"><path fill-rule="evenodd" clip-rule="evenodd" d="M21.336 17.457h5.953V8.548h-5.953z" fill="#fff"/></g><mask id="g" style="mask-type:luminance" maskUnits="userSpaceOnUse" x="8" y="7" width="7" height="7"><path fill-rule="evenodd" clip-rule="evenodd" d="m8.034 8.486 1.339 2.116c.335-.224.713-.33 1.086-.33.658 0 1.302.33 1.686.937.29.46.39 1.01.278 1.546a2.05 2.05 0 0 1-.706 1.175l3.156-2.326a4.6 4.6 0 0 0-.664-1.767 4.43 4.43 0 0 0-3.755-2.09c-.853 0-1.688.251-2.42.739" fill="#fff"/></mask><g mask="url(#g)"><path fill-rule="evenodd" clip-rule="evenodd" d="M6.746 15.219h9.415v-8.76H6.746z" fill="#fff"/></g><mask id="h" style="mask-type:luminance" maskUnits="userSpaceOnUse" x="17" y="10" width="7" height="7"><path fill-rule="evenodd" clip-rule="evenodd" d="m20.288 10.717.157-.115a2 2 0 0 0-.157.115m-3.16 2.33a4.6 4.6 0 0 0 .66 1.77 4.44 4.44 0 0 0 3.753 2.086c.832 0 1.674-.238 2.421-.735l-1.338-2.117c-.449.3-.983.4-1.508.285a2 2 0 0 1-1.264-.892 2.094 2.094 0 0 1 .436-2.727z" fill="#fff"/></mask><g mask="url(#h)"><path fill-rule="evenodd" clip-rule="evenodd" d="M15.839 18.192h9.412V9.313H15.84z" fill="#fff"/></g><mask id="i" style="mask-type:luminance" maskUnits="userSpaceOnUse" x="6" y="7" width="20" height="10"><path fill-rule="evenodd" clip-rule="evenodd" d="m19.058 8.52-.26.19-3.925 2.894-3.156 2.326a2 2 0 0 1-.485.293 1.975 1.975 0 0 1-2.304-.578 2 2 0 0 1-.147-.2l-2.064 1.372a4.44 4.44 0 0 0 3.276 2.062l.005.001q.232.025.466.025a4.44 4.44 0 0 0 2.474-.77l.006-.005.254-.186 3.93-2.897 3.317-2.445a2 2 0 0 1 .324-.174l.04-.017q.084-.033.169-.06l.015-.004q.08-.022.16-.038l.038-.007q.08-.015.16-.021l.018-.003a2 2 0 0 1 .161-.007h.017q.06.001.117.007l.086.006a2 2 0 0 1 .57.151l.053.026a2 2 0 0 1 .173.093q.05.03.099.062l.058.042q.048.035.092.072l.054.046q.045.041.089.085l.044.046q.05.053.094.11.016.016.028.033a2 2 0 0 1 .112.159l2.064-1.372a4.46 4.46 0 0 0-1.973-1.713 4.4 4.4 0 0 0-1.773-.375 4.44 4.44 0 0 0-2.476.77" fill="#fff"/></mask><g mask="url(#i)"><path fill-rule="evenodd" clip-rule="evenodd" d="M5.428 18.194H26.57V6.46H5.429z" fill="#fff"/></g><mask id="j" style="mask-type:luminance" maskUnits="userSpaceOnUse" x="6" y="8" width="4" height="7"><path fill-rule="evenodd" clip-rule="evenodd" d="m6.717 14.816 2.064-1.372a2.07 2.07 0 0 1-.32-1.154c.011-.66.333-1.303.912-1.688L8.034 8.486c-2.065 1.373-2.656 4.212-1.317 6.33" fill="#fff"/></mask><g mask="url(#j)"><path fill-rule="evenodd" clip-rule="evenodd" d="M4.711 16.105h5.95V7.197h-5.95z" fill="#fff"/></g><mask id="k" style="mask-type:luminance" maskUnits="userSpaceOnUse" x="22" y="9" width="4" height="8"><path fill-rule="evenodd" clip-rule="evenodd" d="M23.216 11.209c.291.46.39 1.01.278 1.546-.111.537-.42.997-.87 1.296l1.339 2.117a4.55 4.55 0 0 0 1.937-2.886 4.7 4.7 0 0 0 .099-.865v-.034a4.63 4.63 0 0 0-.719-2.546z" fill="#fff"/></mask><g mask="url(#k)"><path fill-rule="evenodd" clip-rule="evenodd" d="M21.336 17.457h5.953V8.548h-5.953z" fill="#fff"/></g></g><defs><clipPath id="a"><path fill="#fff" d="M6 7.747h20v9.158H6z"/></clipPath></defs></svg>
