<svg width="32" height="24" viewBox="0 0 32 24" fill="none" xmlns="http://www.w3.org/2000/svg">
<path d="M27.904 0H4.096C1.83384 0 0 1.84863 0 4.12903V19.871C0 22.1514 1.83384 24 4.096 24H27.904C30.1662 24 32 22.1514 32 19.871V4.12903C32 1.84863 30.1662 0 27.904 0Z" fill="#0071C0"/>
<path d="M6.47411 0C6.46336 0.0715255 6.45107 0.144649 6.43725 0.219771C5.96224 2.75753 4.33715 3.63421 2.26163 3.63421H1.20486C0.95104 3.63421 0.737152 3.82601 0.6976 4.08654L0.156544 7.65722L0.00332798 8.66937C-0.0224 8.84039 0.10432 8.99463 0.270208 8.99463H2.14451C2.36646 8.99463 2.55501 8.82681 2.58995 8.59904L2.60838 8.49995L2.96128 6.16957L2.98394 6.04171C3.0185 5.81314 3.20742 5.64532 3.42938 5.64532H3.7097C5.52563 5.64532 6.9472 4.87812 7.36269 2.65803C7.53626 1.7306 7.4464 0.956204 6.98714 0.411571C6.84813 0.247342 6.67571 0.111084 6.47411 0Z" transform="translate(13.7683 8.87006)" fill="#99C6E5"/>
<path d="M5.27962 0.177415C5.20704 0.155438 5.13216 0.135459 5.05536 0.117477C4.97818 0.0998957 4.89907 0.0843121 4.81766 0.0707262C4.53274 0.0227762 4.22054 0 3.88608 0H1.06291C0.993408 0 0.92736 0.0163829 0.868224 0.0459521C0.738048 0.111084 0.64128 0.23935 0.617856 0.396387L0.01728 4.35466L0 4.47014C0.039552 4.20961 0.25344 4.01781 0.507264 4.01781H1.56403C3.63955 4.01781 5.26464 3.14073 5.73965 0.603371C5.75386 0.52825 5.76576 0.455126 5.77651 0.3836C5.65632 0.317269 5.52614 0.260529 5.38598 0.212179C5.35142 0.200191 5.31571 0.188604 5.27962 0.177415Z" transform="translate(14.4659 8.48645)" fill="#CCE2F2"/>
<path d="M3.69177 3.0764C3.7152 2.91936 3.81196 2.79109 3.94214 2.72636C4.00166 2.69679 4.06732 2.68041 4.13683 2.68041H6.96C7.29446 2.68041 7.60665 2.70318 7.89158 2.75113C7.97299 2.76472 8.05209 2.7803 8.12928 2.79789C8.20608 2.81587 8.28096 2.83585 8.35353 2.85782C8.38963 2.86901 8.42534 2.8806 8.46028 2.89219C8.60044 2.94054 8.73062 2.99768 8.85081 3.06361C8.99212 2.12579 8.84966 1.48725 8.36236 0.909053C7.82515 0.272516 6.85555 0 5.61484 0H2.01292C1.75948 0 1.54329 0.1918 1.50412 0.452728L0.00383571 10.3484C-0.0257323 10.5442 0.11942 10.7208 0.309116 10.7208H2.53286L3.0912 7.03467L3.69177 3.0764Z" transform="translate(11.392 5.80646)" fill="white"/>
</svg>
