<svg xmlns="http://www.w3.org/2000/svg" width="32" height="24" viewBox="0 0 32 24" fill="none"><rect width="32" height="24" rx="4" fill="#F94C43"/><g clip-path="url(#clip0_4559_181)"><path d="M19.5967 6.31667C19.6634 6.25 19.6634 6.11667 19.5967 6.05C19.5633 6.01667 19.5132 6 19.4631 6H16.6759L18.2949 7.61667L19.5967 6.31667ZM15.7079 10.2167L13.7051 8.21667L11.9193 10.0167L10.0501 11.8667C9.98331 11.9333 9.98331 12.0667 10.0501 12.1333L11.9193 14L13.7051 15.7833L15.6912 13.8L14.0223 12.1333L13.9054 12L14.0389 11.8667L15.7079 10.2167ZM18.2949 16.3833L16.6759 18H19.4465C19.5466 18 19.63 17.9167 19.63 17.8167C19.63 17.7667 19.6134 17.7167 19.58 17.6833L18.2949 16.3833Z" fill="white"/><path d="M21.9499 11.8667L20.0974 10.0167L17.9944 7.91667L16.1252 6.05C16.0918 6.01667 16.0584 6 16.0083 6H12.5369C12.4367 6 12.3533 6.08333 12.3533 6.18333C12.3533 6.23333 12.37 6.28333 12.4033 6.31667L14.0056 7.91667L16.0083 9.91667L17.9777 11.8833L18.1113 12.0167L17.9777 12.15L16.0083 14.1L14.0056 16.0833L12.4033 17.6833C12.3366 17.75 12.3366 17.8833 12.4033 17.95C12.4367 17.9833 12.4868 18 12.5369 18H16.0083C16.0584 18 16.1085 17.9833 16.1419 17.95L17.9944 16.1L20.0974 14L21.9499 12.15C22.0167 12.0667 22.0167 11.95 21.9499 11.8667Z" fill="white"/></g><defs><clipPath id="clip0_4559_181"><rect width="12" height="12" fill="white" transform="translate(10 6)"/></clipPath></defs></svg>
