<svg xmlns="http://www.w3.org/2000/svg" width="32" height="24" viewBox="0 0 32 24" fill="none">
<path d="M28 0H4C1.79086 0 0 1.79086 0 4V20C0 22.2091 1.79086 24 4 24H28C30.2091 24 32 22.2091 32 20V4C32 1.79086 30.2091 0 28 0Z" fill="#FF821E"/>
<path fill-rule="evenodd" clip-rule="evenodd" d="M10.1692 0C9.24982 0 8.3567 -7.06741e-05 7.55633 0.399207C6.75654 0.7985 6.05005 1.59768 5.50636 3.196C5.38852 3.53964 5.32619 3.83571 5.31802 4.09273C5.30986 4.35032 5.35538 4.56944 5.45455 4.75991C5.57705 4.99226 5.7754 5.21085 6.02333 5.39501C6.27185 5.57974 6.5687 5.72953 6.88897 5.82534C6.90122 5.82878 7.0693 5.87579 7.27348 5.93316C7.47649 5.99053 7.71388 6.0593 7.86439 6.10405C7.95247 6.13044 8.04923 6.1649 8.13674 6.21711C8.22482 6.26817 8.30363 6.33697 8.35322 6.4322C8.38588 6.49531 8.40341 6.56475 8.40516 6.63876C8.40749 6.71334 8.39459 6.79373 8.36484 6.87864C8.29017 7.0955 8.17699 7.23547 7.96114 7.32095C7.74646 7.40643 7.42973 7.43387 6.94904 7.43731H0.948532L0 10H6.42282C7.02719 10 8.13206 10.0001 9.19379 9.55604C10.2555 9.11257 11.2742 8.2262 11.7053 6.45176C11.8675 5.78512 11.8172 5.24182 11.5518 4.81499C11.2852 4.38874 10.8034 4.079 10.1016 3.88108C10.1016 3.88108 9.9447 3.8362 9.75977 3.784C9.57601 3.73179 9.36306 3.67218 9.25456 3.6412C9.07488 3.59071 8.9366 3.48858 8.85493 3.35835C8.77384 3.22869 8.74933 3.07092 8.79541 2.90971C8.84383 2.74219 8.96053 2.60851 9.12853 2.51615C9.29771 2.42435 9.51938 2.3739 9.77839 2.3739H13.5119C13.5381 2.33661 13.5621 2.29593 13.5883 2.25864C14.2703 1.30974 15.0958 0.542144 16 0H10.1692Z" transform="translate(8 7)" fill="white"/>
</svg>
