<svg xmlns="http://www.w3.org/2000/svg" width="32" height="24" viewBox="0 0 32 24" fill="none"><rect x="0.5" y="0.5" width="31" height="23" rx="3.5" fill="white"/><rect x="0.5" y="0.5" width="31" height="23" rx="3.5" stroke="#ECECF0"/><path fill-rule="evenodd" clip-rule="evenodd" d="M12.5505 19.221C15.7646 20.7582 19.7314 19.9975 22.1278 17.1421C24.9682 13.7577 24.527 8.71224 21.1424 5.8728L18.8924 8.55381C21.5365 10.7721 21.8812 14.7139 19.6622 17.3579C17.8927 19.466 14.9794 20.1701 12.5505 19.221Z" fill="url(#paint0_linear_4559_411)"/><path fill-rule="evenodd" clip-rule="evenodd" d="M12.5505 19.221C15.7646 20.7582 19.7314 19.9974 22.1278 17.1421C22.4165 16.7983 22.6759 16.431 22.9034 16.044C23.2819 13.6923 22.4496 11.2066 20.492 9.56426C20.007 9.15681 19.469 8.81702 18.8927 8.55417C21.5366 10.7724 21.8811 14.714 19.6622 17.3578C17.8928 19.4662 14.9796 20.1701 12.5505 19.221Z" fill="url(#paint1_linear_4559_411)"/><path fill-rule="evenodd" clip-rule="evenodd" d="M19.4495 4.77891C16.2355 3.24185 12.2687 4.0026 9.8723 6.85796C7.03187 10.2424 7.47303 15.2878 10.8576 18.1272L13.1078 15.4462C10.4635 13.228 10.1188 9.28617 12.3379 6.64211C14.1073 4.53376 17.0205 3.82988 19.4494 4.779" fill="url(#paint2_linear_4559_411)"/><path fill-rule="evenodd" clip-rule="evenodd" d="M19.4495 4.77891C16.2355 3.24185 12.2687 4.0026 9.8723 6.85796C9.58358 7.20172 9.32412 7.56903 9.09662 7.95604C8.71816 10.3077 9.55043 12.7934 11.5081 14.4358C11.9931 14.8432 12.5311 15.183 13.1074 15.4459C10.4635 13.2276 10.119 9.28608 12.3379 6.64211C14.1073 4.53376 17.0205 3.82988 19.4494 4.779" fill="url(#paint3_linear_4559_411)"/><defs><linearGradient id="paint0_linear_4559_411" x1="21.8035" y1="14.2978" x2="18.4043" y2="7.52651" gradientUnits="userSpaceOnUse"><stop stop-color="#EF2131"/><stop offset="1" stop-color="#FECF2C"/></linearGradient><linearGradient id="paint1_linear_4559_411" x1="18.6923" y1="8.55407" x2="12.7336" y2="18.8696" gradientUnits="userSpaceOnUse"><stop stop-color="#FBC52C"/><stop offset="0.264" stop-color="#F87130"/><stop offset="0.561" stop-color="#EF52E2"/><stop offset="1" stop-color="#661EEC"/></linearGradient><linearGradient id="paint2_linear_4559_411" x1="10.3551" y1="9.79465" x2="13.6129" y2="16.4205" gradientUnits="userSpaceOnUse"><stop stop-color="#78F6D8"/><stop offset="0.266" stop-color="#77D1F6"/><stop offset="0.554" stop-color="#70A4F3"/><stop offset="1" stop-color="#661EEC"/></linearGradient><linearGradient id="paint3_linear_4559_411" x1="13.4392" y1="15.4459" x2="19.3515" y2="5.16573" gradientUnits="userSpaceOnUse"><stop stop-color="#536EED"/><stop offset="0.247" stop-color="#54C3EC"/><stop offset="0.564" stop-color="#64D769"/><stop offset="1" stop-color="#FECF2C"/></linearGradient></defs></svg>
