<svg xmlns="http://www.w3.org/2000/svg" width="32" height="24" viewBox="0 0 32 24" fill="none">
    <g clip-path="url(#clip0_3650_2026)">
        <rect width="32" height="24" rx="8" fill="black"/>
        <g clip-path="url(#clip1_3650_2026)">
            <g clip-path="url(#clip2_3650_2026)">
                <path d="M25 16.8283C24.9831 17.1296 24.8257 17.4049 24.5784 17.5685L16.4229 22.3972C16.1894 22.5343 15.81 22.5343 15.5771 22.3972L7.42165 17.5685C7.1882 17.4315 7 17.103 7 16.8283V7.17218C7.01629 6.87028 7.17192 6.59553 7.42165 6.43131L15.5771 1.60326C15.81 1.46558 16.1894 1.46558 16.4229 1.60326L24.5784 6.43131C24.8112 6.56652 25 6.89683 25 7.17218V16.8283Z" fill="white"/>
                <path d="M20.2545 12.0218L18.1215 15.2224L17.0333 13.5147L18.2892 11.5903C18.5226 11.2476 19.0221 10.3024 18.4448 9.01697C17.9779 7.96801 16.9645 7.46854 16.0766 7.46854C15.1881 7.46854 14.2223 7.93405 13.6987 9.01697C13.11 10.2592 13.6209 11.226 13.8429 11.5563L15.1223 13.4931L16.0669 14.894L17.4881 17.1253C17.4996 17.137 17.721 17.4889 18.1215 17.4889C18.4985 17.4889 18.732 17.137 18.7676 17.103L22.0991 12.0459H20.2545V12.0218ZM16.0669 12.1015L15.1434 10.6327C14.7543 9.98381 15.1881 9.01697 16.0669 9.01697C16.9434 9.01697 17.3771 9.98381 16.9887 10.6327L16.0669 12.1015Z" fill="url(#paint0_radial_3650_2026)"/>
                <path d="M14.0221 15.1206L11.9319 12.1132L11.0102 10.6444C10.6217 9.99616 11.0554 9.02623 11.9319 9.02623C12.0423 9.02623 12.1436 9.03858 12.2426 9.07253L12.9779 7.69512C12.6431 7.54571 12.2782 7.46606 11.9434 7.46606C11.0554 7.46606 10.0867 7.93405 9.56609 9.01697C8.97675 10.2567 9.48828 11.226 9.70966 11.5563L13.367 17.103C13.3995 17.1469 13.633 17.5012 14.0221 17.5012C14.4105 17.5012 14.6319 17.1586 14.6675 17.1129L15.7654 15.3934L14.8231 13.9703L14.0221 15.1206Z" fill="url(#paint1_radial_3650_2026)"/>
            </g>
        </g>
    </g>
    <defs>
        <radialGradient id="paint0_radial_3650_2026" cx="0" cy="0" r="1" gradientUnits="userSpaceOnUse" gradientTransform="translate(15.3726 8.34556) scale(9.82732 11.3539)">
            <stop stop-color="#FFCC00"/>
            <stop offset="0.09157" stop-color="#FFC800"/>
            <stop offset="0.1739" stop-color="#FFBD00"/>
            <stop offset="0.2528" stop-color="#FFAB00"/>
            <stop offset="0.3295" stop-color="#FF9100"/>
            <stop offset="0.4046" stop-color="#FF7000"/>
            <stop offset="0.4786" stop-color="#FF4700"/>
            <stop offset="0.5503" stop-color="#FF1800"/>
            <stop offset="0.5822" stop-color="#FF0000"/>
            <stop offset="1" stop-color="#FF0000"/>
        </radialGradient>
        <radialGradient id="paint1_radial_3650_2026" cx="0" cy="0" r="1" gradientUnits="userSpaceOnUse" gradientTransform="translate(9.44933 8.92455) scale(9.01107 13.9645)">
            <stop stop-color="#00B4E6"/>
            <stop offset="0.201" stop-color="#00B0E3"/>
            <stop offset="0.3898" stop-color="#01A5DB"/>
            <stop offset="0.5737" stop-color="#0292CD"/>
            <stop offset="0.7546" stop-color="#0377BA"/>
            <stop offset="0.9316" stop-color="#0455A1"/>
            <stop offset="1" stop-color="#054696"/>
        </radialGradient>
        <clipPath id="clip0_3650_2026">
            <rect width="32" height="24" fill="white"/>
        </clipPath>
        <clipPath id="clip1_3650_2026">
            <rect width="18" height="21" fill="white" transform="translate(7 1.5)"/>
        </clipPath>
        <clipPath id="clip2_3650_2026">
            <rect width="18" height="21" fill="white" transform="translate(7 1.5)"/>
        </clipPath>
    </defs>
</svg>
