<svg xmlns="http://www.w3.org/2000/svg" width="32" height="24" viewBox="0 0 32 24" fill="none">
    <rect width="32" height="24" rx="4" fill="#FF5B24"/>
    <path d="M16.6165 15.8182C19.2363 15.8182 20.7232 14.5454 22.1393 12.707C22.9182 11.7172 23.9094 11.505 24.6175 12.0707C25.3255 12.6364 25.3964 13.697 24.6175 14.6869C22.5642 17.3737 19.9444 19 16.6165 19C13.0054 19 9.8192 17.0202 7.62424 13.5555C6.98699 12.6364 7.1286 11.6464 7.83665 11.1515C8.54471 10.6565 9.60679 10.8687 10.244 11.8585C11.8018 14.1919 13.9259 15.8182 16.6165 15.8182ZM21.5021 7.12124C21.5021 8.39391 20.5108 9.24239 19.3779 9.24239C18.2451 9.24239 17.2538 8.39391 17.2538 7.12124C17.2538 5.84848 18.2451 5 19.3779 5C20.5108 5 21.5021 5.91921 21.5021 7.12124Z" fill="white"/>
</svg>
