<svg fill="none" height="24" viewBox="0 0 32 24" width="32" xmlns="http://www.w3.org/2000/svg"><path d="m28 0h-24c-2.20914 0-4 1.79086-4 4v16c0 2.2091 1.79086 4 4 4h24c2.2091 0 4-1.7909 4-4v-16c0-2.20914-1.7909-4-4-4z" fill="#27337a"/><g clip-rule="evenodd" fill="#fff" fill-rule="evenodd"><path d="m.582423 2.50564v1.99436h-.582423v-4.5h1.13374c.90372 0 1.44882.468992 1.44882 1.23723 0 .84763-.6192 1.26841-1.54874 1.26841zm.519767-1.963806h-.519767v1.464636h.481967c.5834 0 .92958-.23429.92958-.75021 0-.474591-.30891-.714426-.89178-.714426zm4.7306 3.958166-.50162-1.55569h-1.76346l-.48343 1.55569h-.58912l1.67214-4.5h.58243l1.6468 4.38002zm-1.38621-3.80299-.68186 1.74855h1.369zm3.70251 3.80299h-.58189v-1.95858l-1.51103-2.421266.58242-.120154 1.22506 2.02507 1.19492-2.02507h.6441l-1.55358 2.54142z" transform="translate(11.5 15.75)"/><path d="m7.59239 8-2.16605-5.44511-.87616 4.62988c-.10285.51683-.50884.81523-.95968.81523h-3.5410081l-.0494919-.23226c.726915-.1569 1.55281-.40992 2.05315-.68064.30623-.16535.39361-.30994.49415-.70294l1.65953-6.38416h2.1993l3.37165 8z" transform="matrix(1 0 0 -1 11 13)"/></g></svg>
