<svg width="32" height="24" viewBox="0 0 32 24" fill="none" xmlns="http://www.w3.org/2000/svg">
<rect width="32" height="24" rx="4" fill="#FDF59B" style="fill:#FDF59B;fill:color(display-p3 0.9922 0.9608 0.6078);fill-opacity:1;"/>
<g clip-path="url(#clip0_9303_430)">
<mask id="mask0_9303_430" style="mask-type:luminance" maskUnits="userSpaceOnUse" x="4" y="9" width="24" height="6">
<path d="M27.9879 9H4V14.5281H27.9879V9Z" fill="white" style="fill:white;fill-opacity:1;"/>
</mask>
<g mask="url(#mask0_9303_430)">
<path d="M22.3076 11.7667C22.3076 10.3224 23.348 9.00531 25.1441 9.00531C26.9402 9.00531 27.9877 10.3224 27.9877 11.7667C27.9877 13.211 26.9476 14.5281 25.1441 14.5281C23.3406 14.5281 22.3079 13.211 22.3079 11.7667H22.3076ZM26.4087 11.7667C26.4087 11.0706 25.9446 10.4272 25.1441 10.4272C24.3434 10.4272 23.8793 11.0709 23.8793 11.7667C23.8793 12.4625 24.351 13.1062 25.1441 13.1062C25.9371 13.1062 26.4087 12.4625 26.4087 11.7667Z" fill="#1D1C1C" style="fill:#1D1C1C;fill:color(display-p3 0.1137 0.1098 0.1098);fill-opacity:1;"/>
<path d="M21.2035 12.7919C21.8023 12.455 22.1613 11.8116 22.1613 11.1005C22.1613 10.0454 21.3904 9.14722 20.193 9.14722H17.6787V14.3859H19.2353V13.0464H19.5273L20.4175 14.3859H22.2511L21.2035 12.7919ZM19.879 11.8416H19.2353V10.3598H19.8864C20.3056 10.3598 20.575 10.6966 20.575 11.1008C20.575 11.505 20.2981 11.8419 19.879 11.8419V11.8416Z" fill="#1D1C1C" style="fill:#1D1C1C;fill:color(display-p3 0.1137 0.1098 0.1098);fill-opacity:1;"/>
<path d="M10.573 9.14191L9.63925 12.2641L8.72796 9.14191H7.48828L6.56951 12.2641L5.64324 9.14191H4L5.88214 14.3706H7.23411L8.10796 11.5247L8.97465 14.3706H10.3338L12.2162 9.14191H10.573Z" fill="#1D1C1C" style="fill:#1D1C1C;fill:color(display-p3 0.1137 0.1098 0.1098);fill-opacity:1;"/>
<path d="M14.5719 13.0931C14.5719 13.0931 14.5694 13.0931 14.5682 13.0931C13.9859 13.0931 13.5777 12.7457 13.4024 12.2857H17.3582C17.39 12.1126 17.4065 11.9354 17.4065 11.7561C17.4065 10.3155 16.3695 9.00187 14.5719 9V10.4194C15.1576 10.4209 15.5618 10.7677 15.7352 11.2268H11.785C11.7535 11.3999 11.7373 11.5771 11.7373 11.7564C11.7373 13.1979 12.7755 14.5128 14.5682 14.5128C14.5694 14.5128 14.5707 14.5128 14.5719 14.5128V13.0934V13.0931Z" fill="#1D1C1C" style="fill:#1D1C1C;fill:color(display-p3 0.1137 0.1098 0.1098);fill-opacity:1;"/>
<path d="M14.5677 14.5125C14.6285 14.5125 14.6884 14.5106 14.7476 14.5078C15.1119 14.4894 15.4425 14.4161 15.7372 14.2979C16.0319 14.1797 16.2908 14.0172 16.511 13.8208C16.7311 13.6243 16.913 13.3941 17.0539 13.1405C17.1821 12.9101 17.2757 12.6606 17.3343 12.4001H15.6861C15.6524 12.4697 15.6131 12.5361 15.5682 12.5982C15.5067 12.683 15.4347 12.7601 15.353 12.8265C15.2713 12.8929 15.1796 12.949 15.0785 12.9924C14.9775 13.0358 14.8674 13.0663 14.7483 13.0816C14.6903 13.0891 14.6304 13.0934 14.5683 13.0934C14.1975 13.0934 13.8972 12.9522 13.6829 12.731L12.6113 13.8027C13.0882 14.2381 13.7497 14.5125 14.5686 14.5125H14.5677Z" fill="url(#paint0_linear_9303_430)" style=""/>
<path d="M14.5677 9C13.0473 9 12.0696 9.94562 11.8076 11.1127H13.4512C13.6477 10.7107 14.0347 10.4194 14.5677 10.4194C14.9924 10.4194 15.3221 10.6009 15.5376 10.8753L16.6188 9.79405C16.1358 9.31032 15.4412 9.00031 14.5674 9.00031L14.5677 9Z" fill="url(#paint1_linear_9303_430)" style=""/>
</g>
</g>
<defs>
<linearGradient id="paint0_linear_9303_430" x1="16.5047" y1="11.4305" x2="14.0792" y2="14.4351" gradientUnits="userSpaceOnUse">
<stop offset="0.02" stop-color="#1D1C1C" stop-opacity="0" style="stop-color:none;stop-opacity:0;"/>
<stop offset="0.39" stop-color="#1D1C1C" stop-opacity="0.66" style="stop-color:#1D1C1C;stop-color:color(display-p3 0.1137 0.1098 0.1098);stop-opacity:0.66;"/>
<stop offset="0.68" stop-color="#1D1C1C" style="stop-color:#1D1C1C;stop-color:color(display-p3 0.1137 0.1098 0.1098);stop-opacity:1;"/>
</linearGradient>
<linearGradient id="paint1_linear_9303_430" x1="12.2611" y1="12.1035" x2="14.7533" y2="9.61137" gradientUnits="userSpaceOnUse">
<stop offset="0.02" stop-color="#1D1C1C" stop-opacity="0" style="stop-color:none;stop-opacity:0;"/>
<stop offset="0.39" stop-color="#1D1C1C" stop-opacity="0.66" style="stop-color:#1D1C1C;stop-color:color(display-p3 0.1137 0.1098 0.1098);stop-opacity:0.66;"/>
<stop offset="0.68" stop-color="#1D1C1C" style="stop-color:#1D1C1C;stop-color:color(display-p3 0.1137 0.1098 0.1098);stop-opacity:1;"/>
</linearGradient>
<clipPath id="clip0_9303_430">
<rect width="24" height="5.52809" fill="white" style="fill:white;fill-opacity:1;" transform="translate(4 9)"/>
</clipPath>
</defs>
</svg>
