<svg width="32" height="24" viewBox="0 0 32 24" fill="none" xmlns="http://www.w3.org/2000/svg">
<path d="M28 0H4C1.79086 0 0 1.79086 0 4V20C0 22.2091 1.79086 24 4 24H28C30.2091 24 32 22.2091 32 20V4C32 1.79086 30.2091 0 28 0Z" fill="#005CAE"/>
<path d="M14.25 0H0V9.75H14.25V0Z" transform="translate(7.99646 8.60211) rotate(-9)" fill="white"/>
<path fill-rule="evenodd" clip-rule="evenodd" d="M1.59075 1.26L2.268 0H3.15525L1.98975 2.079V3.2235H1.1445V2.079L0 0H0.9135L1.59075 1.26ZM5.691 2.04225C5.691 2.772 5.20275 3.276 4.4835 3.276C3.7695 3.276 3.276 2.772 3.276 2.04225C3.276 1.3125 3.7695 0.8085 4.4835 0.8085C5.20275 0.8085 5.691 1.3125 5.691 2.04225ZM4.8825 2.04225C4.8825 1.71675 4.74075 1.48575 4.4835 1.48575C4.2315 1.48575 4.08975 1.71675 4.08975 2.04225C4.08975 2.36775 4.2315 2.5935 4.4835 2.5935C4.74075 2.5935 4.8825 2.36775 4.8825 2.04225ZM8.2845 0.861V3.2235H7.46025V3.01875C7.33425 3.16575 7.098 3.276 6.83025 3.276C6.3105 3.276 6.00075 2.93475 6.00075 2.40975V0.861H6.81975V2.2155C6.81975 2.415 6.91425 2.55675 7.12425 2.55675C7.2765 2.55675 7.41825 2.457 7.46025 2.29425V0.861H8.2845ZM10.311 0.8505V1.64325C10.2113 1.59075 10.101 1.56975 9.96975 1.56975C9.744 1.56975 9.59175 1.6695 9.54975 1.8375V3.2235H8.7255V0.861H9.54975V1.071C9.66525 0.9135 9.849 0.8085 10.0852 0.8085C10.1902 0.8085 10.2743 0.8295 10.311 0.8505ZM4.389 5.8815H3.89025V5.2515H5.22375V5.57175C5.22375 6.46425 4.63575 7.026 3.78 7.026C2.8455 7.026 2.184 6.3435 2.184 5.36175C2.184 4.38 2.8455 3.6975 3.7695 3.6975C4.599 3.6975 5.07675 4.17525 5.1975 4.8315H4.3365C4.24725 4.58475 4.074 4.43775 3.7695 4.43775C3.30225 4.43775 3.0345 4.82625 3.0345 5.36175C3.0345 5.913 3.318 6.28575 3.78 6.28575C4.10025 6.28575 4.31025 6.12825 4.389 5.8815ZM6.384 4.611V6.9735H5.55975V4.611H6.384ZM6.44175 3.9705C6.44175 4.23825 6.2265 4.4115 5.9745 4.4115C5.7225 4.4115 5.50725 4.23825 5.50725 3.9705C5.50725 3.6975 5.7225 3.52425 5.9745 3.52425C6.2265 3.52425 6.44175 3.6975 6.44175 3.9705ZM8.33175 3.57675V4.24875C8.274 4.21725 8.211 4.2015 8.1375 4.2015C7.95375 4.2015 7.8435 4.296 7.8435 4.485V4.611H8.30025V5.2515H7.8435V6.9735H7.02975V5.2515H6.678V4.611H7.02975V4.43775C7.02975 3.87075 7.371 3.51375 7.9485 3.51375C8.106 3.51375 8.232 3.54 8.33175 3.57675ZM8.778 6.15975V5.2515H8.4315V4.611H8.778V3.96H9.59175V4.611H10.0852V5.2515H9.59175V6.039C9.59175 6.22275 9.681 6.3015 9.84375 6.3015C9.933 6.3015 10.0328 6.2805 10.1063 6.249V6.94725C10.0118 6.98925 9.83325 7.02075 9.6495 7.02075C9.093 7.02075 8.778 6.75825 8.778 6.15975Z" transform="translate(9.59146 9.63254) rotate(-9)" fill="#005CAE"/>
</svg>
