<?xml version="1.0" encoding="UTF-8" standalone="no"?>
<svg width="171px" height="24px" viewBox="0 0 171 24" version="1.1" xmlns="http://www.w3.org/2000/svg" xmlns:xlink="http://www.w3.org/1999/xlink">
    <!-- Generator: Sketch 50.2 (55047) - http://www.bohemiancoding.com/sketch -->
    <title>Slice 1</title>
    <desc>Created with Sketch.</desc>
    <defs>
        <linearGradient x1="150%" y1="50%" x2="50.0000751%" y2="149.999925%" id="linearGradient-1">
            <stop stop-color="#083969" offset="0%"></stop>
            <stop stop-color="#007B9D" offset="49.1699%"></stop>
            <stop stop-color="#00A84A" offset="100%"></stop>
        </linearGradient>
        <rect id="path-2" x="0" y="0" width="31" height="34" rx="8"></rect>
    </defs>
    <g id="Page-1" stroke="none" stroke-width="1" fill="none" fill-rule="evenodd">
        <g id="carte-bancaire" transform="translate(140.000000, 0.000000)">
            <path d="M27.125,0 L3.875,0 C1.73489562,0 0,1.79086 0,4 L0,20 C0,22.2091 1.73489562,24 3.875,24 L27.125,24 C29.2650656,24 31,22.2091 31,20 L31,4 C31,1.79086 29.2650656,0 27.125,0 Z" id="Shape" fill="url(#linearGradient-1)" fill-rule="nonzero"></path>
            <path d="M23.4848485,9.69228267 C23.4848485,10.6257093 22.7325818,11.3827267 21.8039909,11.3843413 L21.8039909,11.3861707 L15.6780245,11.3861707 L15.6780245,8 L21.8039909,8 L21.8039909,8.00032221 C22.7325818,8.00182637 23.4848485,8.7588448 23.4848485,9.69228267 Z M23.4848485,13.283544 C23.4848485,14.2171947 22.7325818,14.9739973 21.8039909,14.9755 L21.8039909,14.977656 L15.6780245,14.977656 L15.6780245,11.5913733 L21.8039909,11.5913733 L21.8039909,11.591588 C22.7325818,11.5932027 23.4848485,12.3501173 23.4848485,13.283544 Z M11.0621058,11.5913733 L15.5601118,11.5913733 L15.5601118,11.9217547 C15.5601118,13.6217653 14.1889818,15 12.4973682,15 L9.63882061,15 C7.94719758,15 6.57575758,13.6217653 6.57575758,11.9217547 L6.57575758,11.1008133 C6.57575758,9.40069067 7.94719758,8.02256212 9.63882061,8.02256212 L12.4973682,8.02256212 C14.1889818,8.02256212 15.5601118,9.40069067 15.5601118,11.1008133 L15.5601118,11.3861707 L11.0621058,11.3861707 L11.0621058,11.5913733 Z" id="Shape" fill="#FFFFFF"></path>
        </g>
        <g id="cartasi" transform="translate(105.000000, 0.000000)">
            <path d="M3.875,0 L27.125,0 C29.2650656,0 31,1.79086 31,4 L31,20 C31,22.2091 29.2650656,24 27.125,24 L3.875,24 C1.73489562,24 0,22.2091 0,20 L0,4 C0,1.79086 1.73489562,0 3.875,0 Z" id="Shape" fill="#FF6E28"></path>
            <path d="M14.4639264,6.08572158 C14.6640268,6.02713265 14.8722248,6 15.0797183,6 L15.0942695,6 C15.3636502,6.00169188 15.6161125,6.04956571 15.8340708,6.13196578 C16.0101509,6.19857591 16.1636198,6.28780693 16.2854405,6.39351742 C16.336149,6.43744311 16.3833066,6.48688347 16.4247151,6.54083529 C16.4550106,6.58024951 16.4821685,6.6220456 16.5053057,6.66603387 C16.5681324,6.78553102 16.6007388,6.92031671 16.5841115,7.063128 C16.57127,7.17303022 16.530923,7.27792622 16.4676172,7.37474578 C16.4194545,7.448304 16.3581026,7.517296 16.2854405,7.58033333 C16.2282313,7.62996533 16.1640989,7.67596 16.0938697,7.71769156 C15.8268563,7.87415556 15.47417,7.96934222 15.0875246,7.96934222 C14.2543099,7.96934222 13.5788195,7.52744533 13.5788195,6.98241244 C13.5788195,6.69391911 13.7680324,6.43437289 14.0696532,6.2539064 C14.0979383,6.23717564 14.1272193,6.2211968 14.1573926,6.20590729 C14.2514072,6.1583472 14.354177,6.1178672 14.4639264,6.08572158 Z M9.60109177,11.9841564 C9.60109177,9.78559378 13.2885561,9.03910933 15.1626104,9.03910933 C16.2224916,9.03910933 18.4683959,9.276152 19.8289209,10.5124151 C20.0043059,10.6757138 20.1642848,10.8561138 20.3044424,11.0553164 C20.3415485,11.10796 20.3771515,11.161904 20.4112516,11.2171778 C20.4933546,11.3500773 20.5670032,11.4906916 20.630882,11.6395778 C20.6872457,11.7709813 20.6721214,11.8662267 20.6196093,11.9179902 C20.6111547,11.9263209 20.6017608,11.9335271 20.5915214,11.9396089 C20.5690698,11.9528871 20.5425789,11.9606018 20.5136456,11.9624791 C20.4284425,11.967808 20.3516,11.9276409 20.2876273,11.8709298 C20.2750394,11.8575831 20.2627333,11.8431707 20.250709,11.8275653 C20.1895545,11.7477982 20.1164696,11.6700356 20.0327695,11.5945218 C19.3371479,10.9390782 17.845568,10.4527609 16.4789745,10.3892249 C14.9899685,10.3199787 13.6494056,10.7527236 13.6494056,12.0156116 L13.6494056,13.6447653 C13.6494056,13.7235253 13.6470947,13.7969076 13.6424259,13.8650782 C13.6114165,14.3182587 13.4765195,14.5449662 13.2235312,14.6342569 C13.1056184,14.6759298 12.9620789,14.687712 12.791513,14.6787458 C12.3282507,14.654184 11.1490852,14.4173858 10.3525444,13.7010951 C10.3507126,13.699472 10.3488808,13.6978391 10.3471053,13.6962062 C9.91235919,13.2897831 9.60109177,12.734288 9.60109177,11.9841564 Z M16.6125094,11.5236524 C16.7363404,11.380848 16.9192217,11.3262684 17.166414,11.3262684 C17.1994901,11.3262684 17.2336277,11.3272071 17.2690053,11.3290844 C17.9970923,11.3676871 20.4936365,11.9305156 20.4936365,14.0549529 C20.4936365,16.2534667 16.8060998,17 14.9320455,17 C13.6008296,17 10.3987532,16.626 9.42975007,14.3681938 C9.28177844,14.0235564 9.62635585,13.9279982 9.84384633,14.211544 C10.839301,15.509016 15.0057034,16.2934578 16.1303089,14.8543938 C16.1352219,14.8484978 16.1401349,14.8424258 16.1449822,14.8364711 C16.1816656,14.7907307 16.2152771,14.7427316 16.2455068,14.6924053 C16.3681541,14.4882551 16.4363166,14.245688 16.4363166,13.9608907 L16.4363166,12.3317467 C16.4363166,11.9411049 16.4931124,11.6840667 16.6125094,11.5236524 Z" id="Shape" fill="#FFFFFF"></path>
        </g>
        <g id="amex" transform="translate(70.000000, -4.000000)">
            <path d="M3.62903,4 L27.371,4 C29.3701,4 31,5.71105391 31,7.83364522 L31,24.1663652 C31,26.2889043 29.3701,28 27.371,28 L3.62903,28 C1.62986,28 0,26.2889043 0,24.1663652 L0,7.83364522 C0,5.71105391 1.62986,4 3.62903,4 Z" id="Shape" fill="#0095FF" fill-rule="nonzero"></path>
            <g id="Clipped">
                <g id="Group-Clipped">
                    <mask id="mask-3" fill="white">
                        <use xlink:href="#path-2"></use>
                    </mask>
                    <g id="path-3"></g>
                    <g id="Group" mask="url(#mask-3)">
                        <g transform="translate(-1.937500, 9.562500)">
                            <g>
                                <g transform="translate(0.745938, 0.898875)" fill="#FFFFFF" fill-rule="nonzero" id="Shape">
                                    <path d="M3.02304965,3.17401046 L2.3254228,1.52352502 L1.7440671,3.17401046 L3.02304965,3.17401046 Z M16.7430442,2.41224795 C16.6628492,2.5365533 16.5148678,2.53920837 16.3942307,2.53920837 L15.2315194,2.53920837 L15.2315194,1.65048544 L16.3942307,1.65048544 C16.5113061,1.65048544 16.6768662,1.65796789 16.7430442,1.77744586 C16.9025149,1.78094571 16.9755864,1.90500969 16.9755864,2.03136669 C16.9755864,2.25125441 16.9060766,2.3919729 16.7430442,2.41224795 Z M24.882024,3.17401046 L24.1843972,1.52352502 L23.6030415,3.17401046 L24.882024,3.17401046 Z M9.99931805,5.07841673 L9.06914894,5.07841673 L9.06914894,1.77744586 L7.67389525,5.07841673 L6.85999728,5.07841673 L5.58101473,1.77744586 L5.58101473,5.07841673 L3.60440535,5.07841673 L3.25559193,4.1896938 L1.39525369,4.1896938 L1.04644026,5.07841673 L0,5.07841673 L1.62779596,0.888722927 L3.02304965,0.888722927 L4.65084561,4.8244959 L4.65084561,0.888722927 L6.16237043,0.888722927 L7.32508184,3.68185213 L8.48779324,0.888722927 L9.99931805,0.888722927 L9.99931805,5.07841673 Z M13.7199945,5.07841673 L10.6969449,5.07841673 L10.6969449,0.888722927 L13.7199945,0.888722927 L13.7199945,1.77744586 L11.627114,1.77744586 L11.627114,2.53920837 L13.7199945,2.53920837 L13.7199945,3.42793129 L11.627114,3.42793129 L11.627114,4.1896938 L13.7199945,4.1896938 L13.7199945,5.07841673 Z M18.1382979,2.03136669 C18.1382979,2.68508227 17.7259413,3.03020062 17.440671,3.17401046 C17.6883056,3.21722923 17.8614065,3.36457745 17.9057556,3.42793129 C18.0745977,3.69503681 18.0971557,3.88118082 18.1382979,4.31665422 L18.1382979,5.07841673 L17.2081288,5.07841673 L17.2081288,4.57057506 C17.1594186,4.29795136 17.1817428,3.93539386 16.9755864,3.68185213 C16.877852,3.58648438 16.6715567,3.5545126 16.3942307,3.55489171 L15.3477905,3.55489171 L15.3477905,5.07841673 L14.4176213,5.07841673 L14.4176213,0.888722927 L16.5105019,0.888722927 C17.021382,0.888722927 17.3701552,0.902244591 17.6732133,1.14264376 C17.9626256,1.27655457 18.1382979,1.54976799 18.1382979,2.03136669 Z M19.5335515,5.07841673 L18.6033824,5.07841673 L18.6033824,0.888722927 L19.5335515,0.888722927 L19.5335515,5.07841673 Z M30.4630387,5.07841673 L29.1840562,5.07841673 L27.4399891,1.90440627 L27.4399891,5.07841673 L25.5796509,5.07841673 L25.1145663,4.1896938 L23.254228,4.1896938 L22.9054147,5.07841673 L21.8589744,5.07841673 C21.3802594,5.07841673 20.8127383,4.9707489 20.4637207,4.57057506 C20.1672516,4.25928193 19.9986361,3.77743049 19.9986361,3.04705004 C19.9986361,2.39417694 20.0994097,1.82614069 20.4637207,1.3965646 C20.793887,1.04289517 21.2607506,0.888722927 21.8589744,0.888722927 L22.7891434,0.888722927 L22.7891434,1.77744586 L21.8589744,1.77744586 C21.578432,1.7864603 21.388405,1.8407997 21.1613475,2.03136669 C21.0481485,2.21106582 20.9402764,2.54455806 20.9288052,3.04705004 C20.9402764,3.43256488 21.0224314,3.75620021 21.1613475,3.93577297 C21.3358073,4.13341672 21.5937924,4.18371225 21.8589744,4.1896938 L22.2077877,4.1896938 L23.6030415,0.888722927 L24.882024,0.888722927 L26.50982,4.8244959 L26.50982,0.888722927 L27.9050736,0.888722927 L29.5328696,3.80881255 L29.5328696,0.888722927 L30.4630387,0.888722927 L30.4630387,5.07841673 Z M0,5.84017923 L1.62779596,5.84017923 L1.97660939,4.95145631 L2.67423623,4.95145631 L3.02304965,5.84017923 L6.16237043,5.84017923 L6.16237043,5.07841673 L6.51118385,5.84017923 L8.02270868,5.84017923 L8.37152209,5.07841673 L8.37152209,5.84017923 L16.0454174,5.84017923 L16.0454174,4.31665422 L16.1616885,4.31665422 C16.2952536,4.31512292 16.3257367,4.32560051 16.2779596,4.57057506 L16.2779596,5.84017923 L20.3474496,5.84017923 L20.3474496,5.45929799 C20.6311992,5.66875084 21.1310308,5.83714958 21.7427032,5.84017923 L23.4867703,5.84017923 L23.8355837,4.95145631 L24.6494817,4.95145631 L24.9982952,5.84017923 L28.2538871,5.84017923 L28.2538871,4.95145631 L28.7189717,5.84017923 L31.2769368,5.84017923 L31.2769368,0 L28.7189717,0 L28.7189717,0.634802091 L28.3701582,0 L25.695922,0 L25.695922,0.634802091 L25.3471085,0 L21.8589744,0 C21.2542435,0 20.7318404,0.0900062208 20.3474496,0.380881255 L20.3474496,0 L17.9057556,0 L17.9057556,0.380881255 C17.5912554,0.0823058288 17.2253405,0 16.8593153,0 L7.90643754,0 L7.20881069,1.52352502 L6.62745499,0 L3.83694763,0 L3.83694763,0.634802091 L3.4881342,0 L1.1627114,0 L0,2.7931292 L0,5.84017923 Z M33.0585277,8.15244586 L31.3144606,8.15244586 C31.192706,8.15244586 31.0801811,8.15898494 30.9656472,8.27940627 C30.8871975,8.29000873 30.849376,8.38652072 30.849376,8.53332711 C30.849376,8.66540038 30.9323014,8.76845145 31.0819183,8.78724795 C31.1511259,8.84825246 31.2566032,8.85854545 31.4307317,8.91420837 L31.8958163,8.91420837 C32.4251937,8.88542833 32.7649999,8.97564342 32.9422566,9.1681292 C33.0099,9.22630818 33.0325694,9.2606989 33.0585277,9.29508962 L33.0585277,8.15244586 Z M33.0585277,10.8186146 C32.8345848,11.2106357 32.3982163,11.3906536 31.7795452,11.4534167 L30.035478,11.4534167 L30.035478,10.4377334 L31.7795452,10.4377334 C31.9761567,10.493591 32.099238,10.4684869 32.1283585,10.4377334 C32.237559,10.3253051 32.2823476,10.2313223 32.2446298,10.0568521 C32.2823476,9.99529298 32.237559,9.89853486 32.1283585,9.80293129 C32.1028444,9.7766726 32.0054729,9.74765778 31.8958163,9.80293129 C30.9792912,9.71574147 29.8993632,9.7766726 29.9192069,8.40636669 C29.8993632,7.84605152 30.254647,7.20734697 31.1981895,7.26372293 L33.0585277,7.26372293 L33.0585277,6.375 L31.3144606,6.375 C30.8373637,6.375 30.4633502,6.50872049 30.1517492,6.75588125 L30.1517492,6.375 L27.7100553,6.375 C27.2712631,6.375 26.7975514,6.48349021 26.5473439,6.75588125 L26.5473439,6.375 L22.0127694,6.375 L22.0127694,6.75588125 C21.7082905,6.43605727 21.1031214,6.375 20.850058,6.375 L17.8270083,6.375 L17.8270083,6.75588125 C17.5675002,6.41864838 16.9365049,6.375 16.5480258,6.375 L13.1761627,6.375 L12.4785359,7.26372293 L11.7809091,6.375 L6.78125,6.375 L6.78125,12.2151793 L11.6646379,12.2151793 L12.4785359,11.3264563 L13.1761627,12.2151793 L16.1992124,12.2151793 L16.1992124,10.8186146 L16.4317546,10.8186146 C16.8805483,10.8487072 17.3508865,10.8312983 17.7107372,10.6916542 L17.7107372,12.2151793 L20.2687023,12.2151793 L20.2687023,10.6916542 L20.3849734,10.6916542 C20.5171473,10.6907657 20.5321543,10.6975779 20.5012445,10.8186146 L20.5012445,12.2151793 L28.0588687,12.2151793 C28.5412808,12.2120254 29.0410514,12.0793142 29.3378512,11.834298 L29.3378512,12.2151793 L31.663274,12.2151793 C32.2037059,12.2120254 32.6891674,12.1364608 33.0585277,11.9612584 L33.0585277,10.8186146 Z M29.4541223,9.29508962 C29.5899045,9.44543134 29.6866647,9.70014086 29.6866647,10.1838125 C29.6866647,11.0326911 29.1651894,11.4534167 28.1751398,11.4534167 L26.4310727,11.4534167 L26.4310727,10.5646938 L28.1751398,10.5646938 C28.3987133,10.5549845 28.5234368,10.529842 28.6402244,10.4377334 C28.6653595,10.3864415 28.7111071,10.2923152 28.7564955,10.1838125 C28.7111071,10.0559256 28.6616155,9.95901975 28.6402244,9.92989171 C28.5270638,9.83697143 28.4292507,9.80791231 28.2914109,9.80293129 C27.4006914,9.77594727 26.3148015,9.83697143 26.3148015,8.53332711 C26.3148015,7.90340266 26.6683798,7.26372293 27.5937841,7.26372293 L29.4541223,7.26372293 L29.4541223,8.15244586 L27.8263264,8.15244586 C27.6297802,8.15545897 27.5201498,8.16228155 27.4775129,8.27940627 C27.3253425,8.29898576 27.2876681,8.39968195 27.2449707,8.53332711 C27.2876681,8.69065221 27.3738981,8.79817096 27.4775129,8.78724795 C27.5883616,8.88143167 27.693429,8.89217091 27.8263264,8.91420837 L28.4076821,8.91420837 C28.8538487,8.91996659 29.1993539,9.01396654 29.4541223,9.29508962 Z M20.9663291,8.78724795 C20.8885673,8.90776488 20.7379534,8.91420837 20.6175157,8.91420837 L19.4548043,8.91420837 L19.4548043,8.02548544 L20.6175157,8.02548544 C20.7379534,8.02548544 20.9001707,8.02906515 20.9663291,8.15244586 C21.1283321,8.16103716 21.1988713,8.2835826 21.1988713,8.40636669 C21.1988713,8.62222326 21.1283321,8.75861026 20.9663291,8.78724795 Z M21.5476848,9.54901046 C21.795985,9.58863533 21.9641472,9.73607436 22.0127694,9.80293129 C22.1734754,10.0626638 22.1923674,10.2535638 22.2453116,10.5646938 L22.2453116,11.4534167 L21.3151426,11.4534167 L21.3151426,10.9455751 C21.2682915,10.6771826 21.290682,10.3039736 21.0826002,10.0568521 C20.9838618,9.95906481 20.7780322,9.9231842 20.3849734,9.92989171 L19.4548043,9.92989171 L19.4548043,11.4534167 L18.5246351,11.4534167 L18.5246351,7.26372293 L20.6175156,7.26372293 C21.126135,7.26372293 21.4668908,7.28608514 21.7802271,7.51764376 C22.0618726,7.65234539 22.2453116,7.91386961 22.2453116,8.40636669 C22.2451951,9.06053329 21.8335358,9.40177817 21.5476848,9.54901046 Z M22.8266674,7.26372293 L25.849717,7.26372293 L25.849717,8.15244586 L23.7568364,8.15244586 L23.7568364,8.91420837 L25.849717,8.91420837 L25.849717,9.80293129 L23.7568364,9.80293129 L23.7568364,10.5646938 L25.849717,10.5646938 L25.849717,11.4534167 L22.8266674,11.4534167 L22.8266674,7.26372293 Z M16.5480258,9.04116878 L15.3853143,9.04116878 L15.3853143,8.02548544 L16.5480258,8.02548544 C16.9012051,8.02548544 17.1293815,8.1657207 17.1293815,8.53332711 C17.1293815,8.85944024 16.9117753,9.04116878 16.5480258,9.04116878 Z M14.4551453,10.9455751 L13.0598916,9.29508962 L14.4551453,7.64460418 L14.4551453,10.9455751 Z M10.8507399,10.4377334 L8.5253171,10.4377334 L8.5253171,9.67597088 L10.6181976,9.67597088 L10.6181976,8.78724795 L8.5253171,8.78724795 L8.5253171,8.02548544 L10.8507399,8.02548544 L11.8971802,9.1681292 L10.8507399,10.4377334 Z M18.0595506,8.66028753 C18.0595506,9.80783558 17.263779,10.0481347 16.4317546,10.0568521 L15.2690432,10.0568521 L15.2690432,11.4534167 L13.5249761,11.4534167 L12.3622648,10.0568521 L11.1995533,11.4534167 L7.59514799,11.4534167 L7.59514799,7.26372293 L11.3158245,7.26372293 L12.3622648,8.66028753 L13.5249761,7.26372293 L16.5480258,7.26372293 C17.241433,7.26372293 18.0595506,7.48368122 18.0595506,8.66028753 Z"></path>
                                </g>
                            </g>
                        </g>
                    </g>
                </g>
            </g>
        </g>
        <g id="mastercard" transform="translate(35.000000, 0.000000)">
            <path d="M3.62903,0.5 L27.371,0.5 C29.3701,0.5 31,2.13976 31,4.17391 L31,19.8261 C31,21.8602 29.3701,23.5 27.371,23.5 L3.62903,23.5 C1.62986,23.5 0,21.8602 0,19.8261 L0,4.17391 C0,2.13976 1.62986,0.5 3.62903,0.5 Z" id="Shape" stroke="#E5E5E5" fill="#FFFFFF" fill-rule="nonzero"></path>
            <path d="M12.40323,17.21739 C15.25373,17.21739 17.56454,14.88147 17.56454,11.99998 C17.56454,9.1185 15.25373,6.78259 12.40323,6.78259 C9.55273,6.78259 7.24194,9.1185 7.24194,11.99998 C7.24194,14.88147 9.55273,17.21739 12.40323,17.21739 Z" id="Shape" fill="#E7001A" fill-rule="nonzero"></path>
            <path d="M18.59679,17.21739 C21.44729,17.21739 23.7581,14.88147 23.7581,11.99998 C23.7581,9.1185 21.44729,6.78259 18.59679,6.78259 C15.74629,6.78259 13.4355,9.1185 13.4355,11.99998 C13.4355,14.88147 15.74629,17.21739 18.59679,17.21739 Z" id="Shape" fill="#F49B1C" fill-rule="nonzero"></path>
            <path d="M15.50002,7.82568 C16.75364,8.777547 17.56453,10.29303 17.56453,11.99997 C17.56453,13.70692 16.75364,15.2224 15.50002,16.17427 C14.246394,15.2224 13.4355,13.70692 13.4355,11.99997 C13.4355,10.29303 14.246394,8.777547 15.50002,7.82568 Z" id="Shape" fill="#E7001A" opacity="0.3"></path>
        </g>
        <g id="visa" fill-rule="nonzero">
            <path d="M27.125,0 L3.875,0 C1.73489562,0 0,1.79086 0,4 L0,20 C0,22.2091 1.73489562,24 3.875,24 L27.125,24 C29.2650656,24 31,22.2091 31,20 L31,4 C31,1.79086 29.2650656,0 27.125,0 Z" id="Shape" fill="#27337A"></path>
            <path d="M15.7919939,13.08183 C15.7822944,12.24605 16.4734389,11.77962 16.9942056,11.50233 C17.5291389,11.21778 17.7088667,11.03534 17.7067889,10.78092 C17.7027278,10.39148 17.2800889,10.21964 16.8844611,10.21294 C16.1942517,10.20123 15.7930139,10.41659 15.4739617,10.5795 L15.225365,9.307979 C15.5454372,9.146736 16.138095,9.00613725 16.7527111,9 C18.19535,9 19.1392278,9.778315 19.1443278,10.98512 C19.1499,12.51664 17.2060444,12.60145 17.2192667,13.28603 C17.2238944,13.49358 17.4051333,13.71508 17.8022722,13.77143 C17.9988111,13.79989 18.5413944,13.82165 19.1566056,13.512 L19.3980056,14.74224 C19.0672611,14.87391 18.6419778,15 18.1126167,15 C16.7547889,15 15.7996533,14.21108 15.7919939,13.08183 Z M21.7181278,14.89399 C21.4547222,14.89399 21.2326833,14.72606 21.1336111,14.46829 L19.0728333,9.0903854 L20.5144333,9.0903854 L20.8013556,9.956853 L22.5630278,9.956853 L22.7294389,9.0903854 L24,9.0903854 L22.8912222,14.89399 L21.7181278,14.89399 Z M21.9197667,13.3262 L22.3357944,11.14692 L21.1964167,11.14692 L21.9197667,13.3262 Z M14.0441106,14.89399 L12.9077833,9.0903854 L14.2814872,9.0903854 L15.4173044,14.89399 L14.0441106,14.89399 Z M12.0118928,14.89399 L10.5820417,10.94384 L10.0036639,14.30258 C9.93576778,14.67751 9.66776278,14.89399 9.37015889,14.89399 L7.03267079,14.89399 L7,14.7255 C7.47985144,14.61168 8.02504333,14.42812 8.355325,14.23173 C8.55747389,14.11177 8.61516056,14.00688 8.68151722,13.72178 L9.77700667,9.0903854 L11.2288161,9.0903854 L13.4545033,14.89399 L12.0118928,14.89399 Z" id="Shape" fill="#FFFFFF" transform="translate(15.500000, 12.000000) scale(-1, 1) rotate(-180.000000) translate(-15.500000, -12.000000) "></path>
        </g>
    </g>
</svg>