<svg width="32" height="24" viewBox="0 0 32 24" fill="none" xmlns="http://www.w3.org/2000/svg">
<path d="M28 0H4C1.79086 0 0 1.79086 0 4V20C0 22.2091 1.79086 24 4 24H28C30.2091 24 32 22.2091 32 20V4C32 1.79086 30.2091 0 28 0Z" fill="#EB6F93"/>
<path d="M3.26348 2.34307C3.51762 2.59304 3.52305 3.00084 3.27565 3.25748L3.22599 3.30958C2.9784 3.5628 2.56894 3.56901 2.31141 3.32112L0.871659 1.89457C0.475291 1.4966 0.418363 1.00619 0.670621 0.747072L0.721172 0.694055C0.929071 0.480083 1.26796 0.457507 1.50439 0.643551C1.61679 0.732 1.77966 0.712654 1.86818 0.60034C1.9567 0.488025 1.93734 0.325273 1.82494 0.236824C1.37999 -0.113308 0.742202 -0.0708211 0.347707 0.33523L0.297342 0.388056C-0.169935 0.868013 -0.0760322 1.67696 0.505639 2.26098L1.94929 3.69136C2.41455 4.13925 3.15004 4.12809 3.59889 3.66899L3.64982 3.61558C4.0932 3.15565 4.08344 2.42313 3.62693 1.97411C3.52497 1.87383 3.36095 1.87512 3.26058 1.977C3.16022 2.07889 3.16151 2.24278 3.26348 2.34307Z" transform="translate(11.4431 12.5616)" fill="white"/>
<path d="M0.0339675 1.56856L0.623221 6.41463C0.640477 6.55655 0.769601 6.65762 0.911628 6.64038C1.05366 6.62313 1.1548 6.49411 1.13755 6.35219L0.546465 1.49108L0.540621 1.45952C0.43979 1.0565 0.690446 0.604595 1.0244 0.533451C1.2116 0.493516 1.40693 0.530325 1.56665 0.635606C1.72637 0.740887 1.83711 0.905828 1.87404 1.09343L2.90003 5.47743C2.93261 5.61664 3.07196 5.70309 3.21127 5.67053C3.35059 5.63798 3.43711 5.49873 3.40452 5.35953L2.38047 0.984529C2.31869 0.669783 2.12758 0.385141 1.85195 0.203455C1.57631 0.0217686 1.23922 -0.0417533 0.916295 0.0271382C0.288234 0.160936 -0.12443 0.8968 0.0339675 1.56856Z" transform="translate(13.8109 5.60236)" fill="white"/>
<path d="M2.55393 7.28601L3.71907 1.47699C3.85448 0.851683 3.48261 0.223881 2.86509 0.040491C2.17369 -0.134299 1.48087 0.272927 1.30039 0.951275L0.010425 5.37136C-0.0296264 5.50861 0.0492498 5.65231 0.186601 5.69233C0.323952 5.73235 0.467766 5.65354 0.507818 5.51629L1.79944 1.09025C1.90871 0.679859 2.32177 0.437067 2.72782 0.539585C3.07531 0.643014 3.2908 1.0068 3.21187 1.37139L2.04593 7.18428C2.01781 7.32445 2.10874 7.46086 2.24902 7.48895C2.38931 7.51705 2.52582 7.42619 2.55393 7.28601Z" transform="translate(16.7065 5.57944)" fill="white"/>
<path d="M3.9077 3.53889C2.06074 3.53889 0.518108 2.18409 0.518108 0.258855C0.518108 0.115894 0.402126 0 0.259054 0C0.115983 0 0 0.115894 0 0.258855C0 2.48594 1.78841 4.0566 3.9077 4.0566C4.05078 4.0566 4.16676 3.9407 4.16676 3.79774C4.16676 3.65478 4.05078 3.53889 3.9077 3.53889Z" transform="translate(12.4182 14.9231)" fill="white"/>
<path d="M3.0752 3.28871C3.0349 3.43378 2.94474 3.56003 2.82055 3.64529L2.76517 3.68215C2.46718 3.88244 2.06444 3.80475 1.86308 3.5089L0.730421 1.82337C0.421408 1.35447 0.461814 0.861128 0.759252 0.657127L0.814726 0.620201C1.19626 0.399219 1.52042 0.566877 1.85366 1.052L2.80081 2.46194C2.88054 2.58064 3.04148 2.61227 3.16027 2.53259C3.27906 2.45291 3.31072 2.2921 3.23098 2.1734L2.28233 0.761246C1.81382 0.0791742 1.2333 -0.221072 0.540867 0.181014L0.468954 0.22833C-0.087829 0.610177 -0.154333 1.42217 0.298999 2.11004L1.4338 3.79877C1.79636 4.33147 2.51979 4.47102 3.05346 4.11231L3.11094 4.07402C3.33852 3.91782 3.50155 3.68952 3.57443 3.42718C3.6127 3.28943 3.53196 3.14676 3.3941 3.10852C3.25624 3.07029 3.11346 3.15096 3.0752 3.28871Z" transform="translate(12.337 10.6452)" fill="white"/>
<path d="M2.08087 2.81163C1.54259 3.11212 1.20791 3.67792 1.16635 4.5338C1.15941 4.6766 1.26964 4.79797 1.41254 4.8049C1.55544 4.81183 1.67691 4.70169 1.68385 4.55889C1.72148 3.78379 2.02289 3.36536 2.5104 3.18199C2.77129 3.08386 3.05496 3.06428 3.30487 3.09086C3.33846 3.09443 3.36077 3.09775 3.36979 3.09943C3.70336 3.16155 3.8049 2.66627 3.47375 2.59233L1.48159 2.14754C0.549142 1.89239 0.408416 1.5475 0.581061 0.972465C0.655609 0.721907 0.808742 0.593301 1.03971 0.541987C1.1922 0.508108 1.3635 0.51232 1.52631 0.540829C1.57338 0.549071 1.60648 0.556905 1.62113 0.56111L4.64512 1.26683C4.66515 1.27068 4.67926 1.27459 4.70396 1.28577C4.75398 1.30842 4.80605 1.34481 4.85685 1.39905C5.05956 1.61548 5.17141 2.02376 5.1148 2.69438C4.91756 5.04532 3.82131 6.50512 1.22305 6.48229C1.07998 6.48104 0.962984 6.59591 0.961727 6.73886C0.960469 6.88182 1.07543 6.99873 1.21849 6.99998C4.1386 7.02563 5.41381 5.32753 5.63108 2.73776C5.69913 1.93163 5.54777 1.37909 5.23514 1.04529C5.06276 0.861242 4.88085 0.778874 4.7413 0.758592L1.75155 0.0602433C1.73276 0.0545059 1.682 0.042494 1.61574 0.0308911C1.39163 -0.00835202 1.15578 -0.0141516 0.927254 0.0366198C0.521713 0.12672 0.215712 0.383712 0.08462 0.824319C-0.164622 1.65448 0.101539 2.30677 1.35674 2.64985L2.08087 2.81163Z" transform="translate(15.0468 11.9797)" fill="white"/>
</svg>
