<svg width="32" height="24" viewBox="0 0 32 24" fill="none" xmlns="http://www.w3.org/2000/svg">
<path d="M28 0H4C1.79086 0 0 1.79086 0 4V20C0 22.2091 1.79086 24 4 24H28C30.2091 24 32 22.2091 32 20V4C32 1.79086 30.2091 0 28 0Z" fill="black"/>
<path d="M0 10.5H2.25V0H0V10.5ZM6 0.000905172C5.9535 2.3024 4.66312 4.28907 2.66681 5.27227L6 10.5H9L5.84156 5.71725C7.42931 4.2134 8.33119 2.18617 8.36325 0.000905172H6Z" transform="translate(11.5 6.75)" fill="white"/>
<path fill-rule="evenodd" clip-rule="evenodd" d="M0 1.50011C0 2.32838 0.671619 3 1.50011 3C2.32838 3 3 2.32838 3 1.50011C3 0.671619 2.32838 0 1.50011 0C0.671619 0 0 0.671619 0 1.50011Z" transform="translate(20.5 14.25)" fill="white"/>
</svg>
