<svg width="32" height="25" viewBox="0 0 32 25" fill="none" xmlns="http://www.w3.org/2000/svg">
<mask id="mask0" mask-type="alpha" maskUnits="userSpaceOnUse" x="0" y="0" width="32" height="25">
<path d="M28 0H4C1.79086 0 0 1.79086 0 4V20C0 22.2091 1.79086 24 4 24H28C30.2091 24 32 22.2091 32 20V4C32 1.79086 30.2091 0 28 0Z" transform="translate(0 0.5)" fill="white"/>
</mask>
<g mask="url(#mask0)">
<path d="M28 0H4C1.79086 0 0 1.79086 0 4V20C0 22.2091 1.79086 24 4 24H28C30.2091 24 32 22.2091 32 20V4C32 1.79086 30.2091 0 28 0Z" transform="translate(0 0.5)" fill="#FF5300"/>
</g>
<mask id="mask1" mask-type="alpha" maskUnits="userSpaceOnUse" x="0" y="0" width="32" height="25">
<path d="M28 0H4C1.79086 0 0 1.79086 0 4V20C0 22.2091 1.79086 24 4 24H28C30.2091 24 32 22.2091 32 20V4C32 1.79086 30.2091 0 28 0Z" transform="translate(0 0.5)" fill="white"/>
</mask>
<g mask="url(#mask1)">
<path d="M28 0H4C1.79086 0 0 1.79086 0 4V20C0 22.2091 1.79086 24 4 24H28C30.2091 24 32 22.2091 32 20V4C32 1.79086 30.2091 0 28 0Z" transform="translate(0 0.5)" fill="#00374E"/>
<path fill-rule="evenodd" clip-rule="evenodd" d="M2.82664 0C2.16665 0 1.74834 0.322756 1.49742 0.717065H1.47871L1.48768 0.0803285H0.219044C0.107407 0.0803285 0 0.215775 0 0.345165V4.2427C0 4.37288 0.107066 4.5 0.225496 4.5H1.48768V2.31284C1.48768 1.67586 1.66486 1.17407 2.30567 1.17407C2.91999 1.17407 3.01262 1.61328 3.01262 2.19626V4.23974C3.01262 4.37514 3.11823 4.5 3.22983 4.5H4.5V1.89159C4.5 0.824293 4.15607 0 2.82664 0Z" transform="translate(12.25 11)" fill="white"/>
<path fill-rule="evenodd" clip-rule="evenodd" d="M2.32677 5.07207C1.72437 5.07207 1.31367 4.60745 1.31367 3.92746C1.31367 3.24752 1.72437 2.78236 2.32677 2.78236C2.92925 2.78236 3.33042 3.24752 3.33042 3.92746C3.33042 4.60745 2.92925 5.07207 2.32677 5.07207ZM2.51499 1.60891C1.96497 1.60891 1.58649 1.80417 1.35799 2.01091C1.36274 1.86026 1.36817 1.639 1.36817 1.4203V0H0.201579C0.0989025 0 0 0.130788 0 0.250011V5.65728C0 5.78657 0.0963872 5.90579 0.204724 5.90579H1.30005L1.29446 5.56C1.60682 5.85954 2.03321 6 2.50653 6C3.72949 6 4.5 5.04098 4.5 3.80025C4.5 2.55912 3.72949 1.60891 2.51499 1.60891Z" transform="translate(22 9.5)" fill="white"/>
<path fill-rule="evenodd" clip-rule="evenodd" d="M4.36696 1.7125H2.90952C2.79715 1.7125 2.68544 1.77472 2.6135 1.84897L1.41426 3.13028V0H0.208275C0.102167 0 0 0.131396 0 0.252521V5.7514C0 5.87448 0.0843745 6 0.20925 6H1.41426V4.70451L1.80323 4.33018L2.76982 5.83907C2.86012 5.96248 2.98524 6 3.12994 6H4.5L2.77595 3.32158L4.36696 1.7125Z" transform="translate(7 9.5)" fill="white"/>
<path fill-rule="evenodd" clip-rule="evenodd" d="M2.49755 3.21023C2.41835 3.36002 2.19004 3.6056 1.85118 3.6056C1.5045 3.6056 1.26056 3.4032 1.26056 3.07023C1.26056 2.74578 1.48912 2.56132 1.87478 2.54414L2.49755 2.50013V3.21023ZM3.28491 0.499969C2.97759 0.184017 2.56039 0 1.83547 0C1.21509 0 0.683474 0.186193 0.335094 0.355416C0.245357 0.40137 0.210062 0.536208 0.246117 0.639442L0.504578 1.35092C0.701464 1.21048 1.19772 0.964706 1.69393 0.964706C2.19818 0.964706 2.48933 1.20197 2.48933 1.65752V1.75447L1.51287 1.79856C0.795908 1.83339 0 2.15813 0 3.12252C0 4.08783 0.725102 4.5 1.41002 4.5C2.04057 4.5 2.3554 4.13144 2.52104 3.94755L2.53704 4.24222C2.54208 4.323 2.61237 4.40346 2.70957 4.40346H3.75V1.96509C3.75 1.2366 3.58453 0.815558 3.28491 0.499969Z" transform="translate(17.5 11)" fill="white"/>
</g>
</svg>
