<svg width="32" height="24" viewBox="0 0 32 24" fill="none" xmlns="http://www.w3.org/2000/svg">
<path d="M28 0H4C1.79086 0 0 1.79086 0 4V20C0 22.2091 1.79086 24 4 24H28C30.2091 24 32 22.2091 32 20V4C32 1.79086 30.2091 0 28 0Z" fill="#0079FF"/>
<path fill-rule="evenodd" clip-rule="evenodd" d="M5.36545 4.06466C6.14744 3.71152 6.68729 2.98254 6.68729 2.14556C6.68729 0.965473 5.61411 0 4.30215 0H0.625355C0.281468 0 0 0.253074 0 0.562449V7.27826C0 7.60212 0.276387 7.86732 0.614323 7.86732H3.67679C4.96597 7.86732 6.02071 6.85572 6.02071 5.61948C6.02071 5.01759 5.7706 4.46921 5.36545 4.06466ZM2.62118 4.61164H3.78856V4.62404C4.32015 4.70236 4.73066 5.14608 4.73066 5.67745C4.73066 6.26359 4.23102 6.74326 3.62047 6.74326H1.269V1.17033H4.2509C4.88148 1.17033 5.39739 1.66561 5.39739 2.27098C5.39739 2.87635 4.88148 3.37163 4.2509 3.37163H3.78856V3.37428H2.62118C2.26669 3.37428 1.97666 3.65258 1.97666 3.99289C1.97666 4.3332 2.26669 4.61164 2.62118 4.61164Z" transform="translate(17.8688 15.9855) scale(1 -1)" fill="white"/>
<path d="M9.81028 0.783185C9.8534 0.394237 9.55973 0.0452842 9.15459 0.00403421C8.74944 -0.0373551 8.38596 0.244427 8.34299 0.633515L7.7384 5.97428L5.59698 0.752109L5.5948 0.747231L5.59465 0.746674V0.746534L5.5887 0.732738L5.58391 0.721868L5.58275 0.71922L5.57767 0.70835L5.57448 0.7018L5.5694 0.691627L5.56693 0.686889L5.56127 0.676158L5.55923 0.672396C5.51975 0.600905 5.46894 0.538054 5.40957 0.485238L5.4074 0.483426L5.39636 0.47381C5.35775 0.440922 5.31507 0.411935 5.26877 0.38699L5.26557 0.385318L5.25164 0.378071L5.25106 0.377793L5.23814 0.371382L5.23219 0.368456L5.22391 0.364693L5.21506 0.360791L5.20736 0.357307L5.19822 0.353544L5.19023 0.350339L5.18269 0.347273L5.17586 0.344765L5.17194 0.343232L5.1657 0.341002L5.15598 0.337518L5.15032 0.335707C5.0789 0.311737 5.00617 0.298916 4.93402 0.296408L4.92532 0.296129L4.91486 0.295989H4.90732H4.89962L4.88946 0.296129L4.88017 0.296408C4.79961 0.299195 4.71803 0.314942 4.63862 0.344765L4.62875 0.348527L4.62628 0.349642L4.61641 0.353405L4.60683 0.357446L4.59914 0.36093L4.59086 0.364554L4.58201 0.368595L4.57693 0.371103L4.56343 0.377653L4.56212 0.378489L4.55065 0.384482L4.54412 0.387826C4.50362 0.409706 4.46603 0.434929 4.43133 0.46294L4.42857 0.46531C4.4203 0.472138 4.41217 0.478827 4.40419 0.485935L4.40375 0.486492C4.39751 0.492066 4.39127 0.49778 4.38532 0.503494C4.37936 0.509347 4.37327 0.5152 4.36746 0.521192L4.36702 0.52175C4.35962 0.529414 4.35251 0.537079 4.3454 0.545162L4.34293 0.54781C4.31375 0.581116 4.28762 0.61721 4.26483 0.656091L4.2612 0.662223L4.25482 0.673371L4.25423 0.674765L4.24727 0.687446L4.2448 0.692463L4.24059 0.700825L4.23667 0.708908L4.23319 0.716294L4.22898 0.725491L4.22477 0.734828L4.2239 0.737197L4.21983 0.746674L2.07609 5.97428L1.47149 0.633515C1.42838 0.244427 1.06504 -0.0373551 0.659896 0.00403421C0.254605 0.0452842 -0.0389107 0.394237 0.00420221 0.783185L0.716944 7.0798L0.717234 7.08148L0.717525 7.08412L0.717234 7.08426C0.725799 7.15756 0.741912 7.23059 0.765138 7.30222C0.787638 7.37176 0.817686 7.44032 0.854847 7.50721C1.03688 7.8354 1.37177 8.06562 1.7714 8.11872L1.77285 8.119C1.7862 8.12067 1.7997 8.12206 1.81306 8.12318C1.87562 8.12945 1.9379 8.13126 1.99915 8.12847L2.00206 8.12833V8.12847C2.08175 8.12485 2.15636 8.11523 2.22517 8.0999C2.60636 8.01448 2.93022 7.75987 3.08264 7.3882L4.90732 2.93892L6.73185 7.3882C6.88427 7.75987 7.20812 8.01448 7.58932 8.0999C7.65798 8.11523 7.73259 8.12485 7.81243 8.12847V8.12833L7.81533 8.12847C7.87673 8.13126 7.93915 8.12945 8.00186 8.12318C8.01507 8.12206 8.02828 8.12067 8.04164 8.119L8.04309 8.11872C8.44272 8.06562 8.77775 7.8354 8.95978 7.50721C8.9968 7.44032 9.02699 7.37176 9.04935 7.30222C9.07257 7.23059 9.08869 7.1577 9.09725 7.08426L9.09696 7.08412L9.09725 7.08148L9.09754 7.0798L9.81028 0.783185Z" transform="translate(7.47437 16.0979) scale(1 -1)" fill="white"/>
</svg>
