<svg width="32" height="24" viewBox="0 0 32 24" fill="none" xmlns="http://www.w3.org/2000/svg">
<path d="M28 0H4C1.79086 0 0 1.79086 0 4V20C0 22.2091 1.79086 24 4 24H28C30.2091 24 32 22.2091 32 20V4C32 1.79086 30.2091 0 28 0Z" fill="#EC1D24"/>
<path fill-rule="evenodd" clip-rule="evenodd" d="M5.99934 5.83663L6 2.81293C5.93811 1.24964 4.62227 0 3.00681 0C2.96042 0 0.00564671 0.00346231 0.00564671 0.00346231C0.00564671 0.00346231 0.00465012 2.84279 0.00465012 2.85123C0.00465012 3.65122 0.654598 4.30136 1.46842 4.32018H2.80806C1.25228 4.42318 0.0191552 5.67693 0 7.21891C0 7.21891 0.000331879 10.4827 0.000331879 10.4842C0.000331879 11.3215 0.694679 12 1.55146 12C2.40802 12 3.10236 11.3215 3.10236 10.4842C3.10236 10.4705 3.10126 8.62294 3.10126 8.62294C4.66523 8.57545 5.92681 7.35805 5.99934 5.83663Z" transform="translate(13 6)" fill="white"/>
</svg>
