<?xml version="1.0" encoding="UTF-8" standalone="no"?>
<svg width="32px" height="24px" viewBox="0 0 32 24" version="1.1" xmlns="http://www.w3.org/2000/svg" xmlns:xlink="http://www.w3.org/1999/xlink">
    <!-- Generator: Sketch 50.2 (55047) - http://www.bohemiancoding.com/sketch -->
    <title>Slice 1</title>
    <desc>Created with Sketch.</desc>
    <defs></defs>
    <g id="Page-1" stroke="none" stroke-width="1" fill="none" fill-rule="evenodd">
        <g id="sofort" transform="translate(5.000000, 5.000000)" fill="#FFFFFF" fill-rule="nonzero">
            <path d="M13.9826544,1.23026845e-11 C12.7185057,1.23026845e-11 11.4904689,-9.87099877e-05 10.3899535,0.55888963 C9.2902395,1.1179007 8.3188236,2.2367479 7.5712426,4.4743941 C7.4092141,4.9554967 7.3235124,5.3699998 7.3122834,5.7298231 C7.3010574,6.090449 7.3636435,6.3972223 7.5000043,6.6638762 C7.6684502,6.989162 7.9411777,7.2951901 8.2820817,7.5530097 C8.623787,7.8116317 9.0319645,8.0213386 9.4723325,8.1554695 C9.4891765,8.1602864 9.7202884,8.2261032 10.0010332,8.3064211 C10.2801722,8.3867389 10.6065823,8.4830226 10.8135298,8.5456699 C10.9346504,8.582616 11.0676911,8.630859 11.1880103,8.7039485 C11.309131,8.7754311 11.4174897,8.8717543 11.4856692,9.0050817 C11.5305891,9.0934304 11.5546934,9.1906528 11.5570997,9.2942615 C11.5603034,9.3986747 11.5425584,9.5112273 11.5016496,9.6300971 C11.3989788,9.933697 11.2433579,10.129656 10.9465714,10.2493293 C10.6513889,10.3690016 10.2158807,10.4074144 9.5549299,10.4122342 L1.30423152,10.4122342 L0,14 L8.8313832,14 C9.6623847,14 11.181588,14.0000987 12.6414562,13.3784551 C14.1013234,12.7576003 15.5019917,11.5166782 16.0947621,9.0324571 C16.3177532,8.0991671 16.2487112,7.338554 15.8837444,6.740991 C15.5171727,6.1442314 14.8546171,5.7106039 13.88966,5.4335088 C13.88966,5.4335088 13.6739559,5.3706828 13.4196821,5.2975943 C13.1670123,5.2245057 12.8742114,5.141046 12.7250167,5.0976742 C12.4779619,5.0269951 12.2878189,4.8840112 12.175522,4.7016895 C12.0640265,4.5201724 12.0303267,4.299283 12.0936945,4.0735896 C12.16027,3.8390628 12.3207242,3.6519154 12.5517356,3.5226044 C12.7843517,3.3940948 13.0891466,3.3234552 13.4452897,3.3234552 L18.5788472,3.3234552 C18.6149425,3.2712491 18.6478764,3.2142982 18.6839716,3.162092 C19.6216552,1.8336396 20.7567064,0.75900119 22,-8.8817842e-16 L13.9826544,1.23026845e-11 Z" id="Shape"></path>
        </g>
        <g id="yourgift" fill="#FF9500" fill-rule="nonzero">
            <path d="M28,0 L4,0 C1.79086,0 0,1.79086 0,4 L0,20 C0,22.2091 1.79086,24 4,24 L28,24 C30.2091,24 32,22.2091 32,20 L32,4 C32,1.79086 30.2091,0 28,0 Z" id="Shape" style="mix-blend-mode: overlay;"></path>
        </g>
    </g>
</svg>