<svg width="32" height="25" viewBox="0 0 32 25" fill="none" xmlns="http://www.w3.org/2000/svg">
<path d="M28 0H4C1.79086 0 0 1.79086 0 4V20C0 22.2091 1.79086 24 4 24H28C30.2091 24 32 22.2091 32 20V4C32 1.79086 30.2091 0 28 0Z" transform="translate(0 0.5)" fill="#00927B"/>
<path fill-rule="evenodd" clip-rule="evenodd" d="M15.5522 7.45538C15.5522 9.6525 14.6133 11.7776 13.3664 13.0376C12.572 13.8296 11.8498 14.3156 10.7834 14.7847L10.675 14.5868C11.1806 14.2796 11.597 13.9556 12.0845 13.4696C13.4747 12.1376 14.3966 9.8325 14.3966 7.94138C14.3966 7.65338 14.3966 7.07738 14.3605 6.66338C14.198 7.47338 13.6914 8.33738 12.9872 9.0405C12.7886 9.2385 12.4997 9.5445 12.2831 9.6525C12.2831 9.2385 12.1206 8.28338 11.922 7.72538C12.1928 7.50938 12.3372 7.34738 12.59 7.11338C13.1678 6.51938 13.5469 5.76225 13.5469 5.13225C13.5469 4.77225 13.3844 4.39425 13.0956 4.10625C12.8067 3.81825 12.2109 3.60225 11.615 3.60225C10.9098 3.60225 9.86257 3.98025 9.32092 4.37625C10.4223 5.49225 11.0903 6.69937 11.5067 8.21137C11.6873 8.8605 11.7775 9.5085 11.7775 10.1565C11.7775 11.3265 11.4887 12.4436 10.982 13.3256C10.1695 14.7308 8.94176 15.5228 7.33373 15.5228C5.41877 15.5228 3.63132 14.5868 2.29412 13.2356C0.75944 11.6876 0 9.7965 0 7.85138C0 7.50938 0.0180552 7.18538 0.0722203 6.80738H0.290009C0.308064 7.38338 0.380285 7.92337 0.54278 8.58937C0.849716 9.7965 1.68025 11.1285 2.72744 12.1736C3.48688 12.9296 4.60629 13.6676 5.38266 13.9736C4.78684 13.4876 4.20908 12.5876 3.9202 11.5785C3.84798 11.3085 3.77576 10.9485 3.77576 10.6965C4.13686 10.9125 5.03961 11.2365 5.61738 11.3265C5.74376 12.1556 6.05183 13.0736 6.6657 13.6856C6.97263 13.9916 7.33373 14.1896 7.78511 14.1896C8.4712 14.1896 9.01398 13.6856 9.35703 13.1096C9.70007 12.5156 9.91673 11.4525 9.82646 10.7325C9.06815 10.9485 8.34482 11.0565 7.62262 11.0565C6.90041 11.0565 6.17821 10.9485 5.40072 10.7325C4.13686 10.3905 2.98021 9.7425 2.14968 8.9145C1.26498 8.03137 0.57889 6.80737 0.57889 5.54625C0.57889 4.23225 1.24693 3.13313 2.13162 2.23313C3.61327 0.757125 5.72571 0 7.80316 0C9.48341 0 10.982 0.577125 12.3372 1.56713L12.2289 1.74713C11.1445 1.15313 10.007 0.865125 8.7251 0.865125C6.79208 0.865125 4.94934 1.45912 3.52299 2.53912C3.95631 2.39512 4.4438 2.32313 4.8049 2.32313C5.43683 2.32313 6.59348 2.50313 7.15318 2.84513C6.75597 3.07913 6.03377 3.65625 5.65349 4.10625C5.11184 3.89025 4.4438 3.72825 3.84798 3.72825C3.28828 3.72825 2.67328 3.85425 2.27606 4.26825C2.04135 4.53825 1.89691 4.88025 1.89691 5.24025C1.89691 5.99625 2.31217 6.62738 2.81772 7.14938C3.17995 7.52738 3.66743 7.86938 4.04659 8.04938C4.46185 6.51938 5.166 5.29425 6.26849 4.19625C7.64067 2.84513 9.42925 2.08913 11 2.08913C12.1928 2.07113 13.2039 2.41313 14.0525 3.25913C14.9563 4.17825 15.5522 5.79825 15.5522 7.45538ZM9.59174 8.71538C9.21259 7.54538 8.50731 6.48338 7.65873 5.65425C6.82819 6.53738 6.26849 7.68938 5.97961 8.84138C6.46709 8.9505 6.97263 9.0045 7.47817 9.0045C8.20038 9.0045 8.90565 8.8965 9.59174 8.71538Z" transform="translate(7.99597 4.66962)" fill="white"/>
</svg>
