<svg xmlns="http://www.w3.org/2000/svg" xmlns:xlink="http://www.w3.org/1999/xlink" width="32" height="32" viewBox="0 0 32 32">
  <defs>
    <radialGradient id="amex-b" cx="32.922%" cy="32.8%" r="66.895%" fx="32.922%" fy="32.8%">
      <stop offset="0%" stop-color="#34BBF2"/>
      <stop offset="100%" stop-color="#004DCF"/>
    </radialGradient>
    <rect id="amex-a" width="32" height="32" rx="8"/>
  </defs>
  <g fill="none" fill-rule="evenodd">
    <mask id="amex-c" fill="#fff">
      <use xlink:href="#amex-a"/>
    </mask>
    <use fill="url(#amex-b)" xlink:href="#amex-a"/>
    <use fill="#0095FF" xlink:href="#amex-a"/>
    <g fill="#FFF" fill-rule="nonzero" mask="url(#amex-c)">
      <g transform="translate(-1.23 9.846)">
        <path d="M3.12056738 2.98730396L2.40043644 1.4339059 1.80032733 2.98730396 3.12056738 2.98730396zM17.2831424 2.27035101C17.2003605 2.38734428 17.0476055 2.38984317 16.9230769 2.38984317L15.7228587 2.38984317 15.7228587 1.55339806 16.9230769 1.55339806C17.0439289 1.55339806 17.2148296 1.56044037 17.2831424 1.67289022 17.4477573 1.6761842 17.523186 1.7929503 17.523186 1.91187453 17.523186 2.11882768 17.4514339 2.25126861 17.2831424 2.27035101zM25.6846699 2.98730396L24.964539 1.4339059 24.3644299 2.98730396 25.6846699 2.98730396zM10.3218767 4.77968633L9.36170213 4.77968633 9.36170213 1.67289022 7.92144026 4.77968633 7.08128751 4.77968633 5.76104746 1.67289022 5.76104746 4.77968633 3.72067649 4.77968633 3.36061102 3.94324122 1.44026187 3.94324122 1.0801964 4.77968633 0 4.77968633 1.68030551.836445108 3.12056738.836445108 4.80087289 4.54070202 4.80087289.836445108 6.36115657.836445108 7.5613748 3.46527259 8.76159302.836445108 10.3218767.836445108 10.3218767 4.77968633 10.3218767 4.77968633zM14.162575 4.77968633L11.0420076 4.77968633 11.0420076.836445108 14.162575.836445108 14.162575 1.67289022 12.0021822 1.67289022 12.0021822 2.38984317 14.162575 2.38984317 14.162575 3.22628827 12.0021822 3.22628827 12.0021822 3.94324122 14.162575 3.94324122 14.162575 4.77968633 14.162575 4.77968633zM18.7234043 1.91187453C18.7234043 2.52713625 18.2977459 2.85195352 18.0032733 2.98730396 18.2588961 3.02798045 18.4375809 3.16666113 18.4833606 3.22628827 18.6576492 3.4776817 18.6809349 3.65287607 18.7234043 4.06273338L18.7234043 4.77968633 17.7632297 4.77968633 17.7632297 4.3017177C17.7129482 4.04513069 17.7359926 3.7039001 17.523186 3.46527259 17.4222988 3.37551471 17.2093489 3.34542362 16.9230769 3.34578043L15.8428805 3.34578043 15.8428805 4.77968633 14.8827059 4.77968633 14.8827059.836445108 17.0430987.836445108C17.5704588.836445108 17.9304828.84917138 18.243317 1.07542942 18.5420651 1.20146312 18.7234043 1.45860517 18.7234043 1.91187453zM20.1636661 4.77968633L19.2034915 4.77968633 19.2034915.836445108 20.1636661.836445108 20.1636661 4.77968633zM31.4457174 4.77968633L30.1254774 4.77968633 28.32515 1.79238237 28.32515 4.77968633 26.4048009 4.77968633 25.9247136 3.94324122 24.0043644 3.94324122 23.644299 4.77968633 22.5641026 4.77968633C22.0699452 4.77968633 21.484117 4.67835191 21.1238407 4.3017177 20.8178081 4.00873593 20.6437534 3.5552287 20.6437534 2.8678118 20.6437534 2.253343 20.7477778 1.71872065 21.1238407 1.31441374 21.4646575.981548393 21.9465813.836445108 22.5641026.836445108L23.5242771.836445108 23.5242771 1.67289022 22.5641026 1.67289022C22.2745105 1.6813744 22.0783536 1.73251736 21.8439716 1.91187453 21.727121 2.08100312 21.6157692 2.39487817 21.603928 2.8678118 21.6157692 3.2306493 21.7005743 3.53524726 21.8439716 3.70425691 22.0240591 3.89027456 22.2903664 3.93761153 22.5641026 3.94324122L22.924168 3.94324122 24.3644299.836445108 25.6846699.836445108 27.3649755 4.54070202 27.3649755.836445108 28.8052373.836445108 30.4855428 3.58476475 30.4855428.836445108 31.4457174.836445108 31.4457174 4.77968633zM0 5.49663928L1.68030551 5.49663928 2.04037098 4.66019417 2.76050191 4.66019417 3.12056738 5.49663928 6.36115657 5.49663928 6.36115657 4.77968633 6.72122204 5.49663928 8.28150573 5.49663928 8.64157119 4.77968633 8.64157119 5.49663928 16.5630115 5.49663928 16.5630115 4.06273338 16.6830333 4.06273338C16.8209069 4.06129216 16.8523734 4.07115342 16.8030551 4.3017177L16.8030551 5.49663928 21.0038189 5.49663928 21.0038189 5.13816281C21.2967218 5.33529491 21.812677 5.49378784 22.4440807 5.49663928L24.2444081 5.49663928 24.6044735 4.66019417 25.4446263 4.66019417 25.8046918 5.49663928 29.1653028 5.49663928 29.1653028 4.66019417 29.6453901 5.49663928 32.2858702 5.49663928 32.2858702 0 29.6453901 0 29.6453901.597460792 29.2853246 0 26.5248227 0 26.5248227.597460792 26.1647572 0 22.5641026 0C21.9398643 0 21.4006094.0847117372 21.0038189.358476475L21.0038189 0 18.4833606 0 18.4833606.358476475C18.1587152.0774643095 17.7809966 0 17.4031642 0L8.16148391 0 7.44135297 1.4339059 6.84124386 0 3.96072013 0 3.96072013.597460792 3.60065466 0 1.20021822 0 0 2.62882748 0 5.49663928 0 5.49663928zM34.1249318 7.67289022L32.3246045 7.67289022C32.1989223 7.67289022 32.0827676 7.67904465 31.964539 7.79238237 31.8835587 7.80236116 31.8445172 7.89319597 31.8445172 8.03136669 31.8445172 8.15567095 31.9301176 8.25266019 32.0845608 8.27035101 32.1560009 8.32776702 32.2648807 8.33745454 32.4446263 8.38984317L32.9247136 8.38984317C33.4711677 8.36275608 33.8219354 8.4476644 34.00491 8.62882748 34.0747355 8.68358417 34.0981362 8.71595191 34.1249318 8.74831964L34.1249318 7.67289022zM34.1249318 10.1822255C33.893765 10.5511865 33.44332 10.7206152 32.8046918 10.7796863L31.0043644 10.7796863 31.0043644 9.82374907 32.8046918 9.82374907C33.0076456 9.87632097 33.1346973 9.85269355 33.1647572 9.82374907 33.2774803 9.71793417 33.3237137 9.62947978 33.2847791 9.46527259 33.3237137 9.40733457 33.2774803 9.3162681 33.1647572 9.22628827 33.13842 9.20157421 33.0379075 9.17426615 32.9247136 9.22628827 31.9786232 9.14422727 30.8638588 9.20157421 30.8843426 7.91187453 30.8638588 7.38451908 31.2306034 6.78338538 32.2045827 6.83644511L34.1249318 6.83644511 34.1249318 6 32.3246045 6C31.8321174 6 31.4460389 6.12585458 31.1243863 6.35847647L31.1243863 6 28.603928 6C28.1509813 6 27.6619885 6.10210843 27.4037098 6.35847647L27.4037098 6 22.7228587 6 22.7228587 6.35847647C22.4085579 6.05746567 21.7838672 6 21.5226405 6L18.4020731 6 18.4020731 6.35847647C18.1341938 6.04108083 17.4828438 6 17.0818331 6L13.6012002 6 12.8810693 6.83644511 12.1609384 6 7 6 7 11.4966393 12.0409165 11.4966393 12.8810693 10.6601942 13.6012002 11.4966393 16.7217676 11.4966393 16.7217676 10.1822255 16.9618112 10.1822255C17.4250821 10.210548 17.9105925 10.1941631 18.2820513 10.0627334L18.2820513 11.4966393 20.9225314 11.4966393 20.9225314 10.0627334 21.0425532 10.0627334C21.1789908 10.0618971 21.1944819 10.0683086 21.162575 10.1822255L21.162575 11.4966393 28.9639935 11.4966393C29.4619673 11.493671 29.9778595 11.3687663 30.2842335 11.1381628L30.2842335 11.4966393 32.6846699 11.4966393C33.2425351 11.493671 33.7436567 11.4225513 34.1249318 11.257655L34.1249318 10.1822255zM30.4042553 8.74831964C30.5444175 8.88981773 30.644299 9.12954434 30.644299 9.58476475 30.644299 10.3837093 30.106002 10.7796863 29.0840153 10.7796863L27.2836879 10.7796863 27.2836879 9.94324122 29.0840153 9.94324122C29.3148008 9.93410302 29.4435477 9.91043953 29.5641026 9.82374907 29.5900485 9.77547439 29.6372718 9.68688494 29.6841244 9.58476475 29.6372718 9.46440057 29.5861837 9.37319506 29.5641026 9.34578043 29.4472917 9.25832605 29.3463233 9.23097629 29.2040371 9.22628827 28.2845847 9.20089155 27.1636661 9.25832605 27.1636661 8.03136669 27.1636661 7.43849662 27.5286501 6.83644511 28.4839062 6.83644511L30.4042553 6.83644511 30.4042553 7.67289022 28.7239498 7.67289022C28.5210634 7.67572609 28.4078966 7.68214734 28.3638843 7.79238237 28.2068052 7.81081013 28.1679155 7.90558301 28.1238407 8.03136669 28.1679155 8.17943737 28.2569271 8.28063149 28.3638843 8.27035101 28.4783088 8.35899451 28.5867654 8.36910203 28.7239498 8.38984317L29.3240589 8.38984317C29.784618 8.39526267 30.1412685 8.48373321 30.4042553 8.74831964zM21.6426623 8.27035101C21.5623921 8.38377871 21.4069196 8.38984317 21.2825968 8.38984317L20.0823786 8.38984317 20.0823786 7.55339806 21.2825968 7.55339806C21.4069196 7.55339806 21.5743698 7.5567672 21.6426623 7.67289022 21.8098912 7.68097615 21.8827059 7.79631304 21.8827059 7.91187453 21.8827059 8.11503366 21.8098912 8.24339789 21.6426623 8.27035101zM22.2427714 8.98730396C22.4990813 9.02459796 22.6726681 9.1633641 22.7228587 9.22628827 22.8887488 9.47074238 22.9082502 9.65041301 22.9629023 9.94324122L22.9629023 10.7796863 22.0027278 10.7796863 22.0027278 10.3017177C21.9543654 10.049113 21.9774782 9.69785747 21.7626841 9.46527259 21.6607606 9.37323747 21.4482913 9.33946748 21.0425532 9.34578043L20.0823786 9.34578043 20.0823786 10.7796863 19.122204 10.7796863 19.122204 6.83644511 21.2825968 6.83644511C21.8076232 6.83644511 22.1593712 6.8574919 22.4828151 7.07542942 22.7735459 7.20220743 22.9629023 7.44834787 22.9629023 7.91187453 22.962782 8.52756074 22.5378434 8.8487324 22.2427714 8.98730396zM23.5630115 6.83644511L26.6835788 6.83644511 26.6835788 7.67289022 24.523186 7.67289022 24.523186 8.38984317 26.6835788 8.38984317 26.6835788 9.22628827 24.523186 9.22628827 24.523186 9.94324122 26.6835788 9.94324122 26.6835788 10.7796863 23.5630115 10.7796863 23.5630115 6.83644511 23.5630115 6.83644511zM17.0818331 8.50933532L15.8816148 8.50933532 15.8816148 7.55339806 17.0818331 7.55339806C17.4464053 7.55339806 17.6819422 7.68538419 17.6819422 8.03136669 17.6819422 8.3382967 17.4573164 8.50933532 17.0818331 8.50933532zM14.9214403 10.3017177L13.4811784 8.74831964 14.9214403 7.19492158 14.9214403 10.3017177zM11.2007638 9.82374907L8.80032733 9.82374907 8.80032733 9.10679612 10.9607201 9.10679612 10.9607201 8.27035101 8.80032733 8.27035101 8.80032733 7.55339806 11.2007638 7.55339806 12.2809602 8.62882748 11.2007638 9.82374907zM18.6421167 8.15085885C18.6421167 9.23090408 17.8206751 9.45706791 16.9618112 9.46527259L15.761593 9.46527259 15.761593 10.7796863 13.9612657 10.7796863 12.7610475 9.46527259 11.5608292 10.7796863 7.84015276 10.7796863 7.84015276 6.83644511 11.6808511 6.83644511 12.7610475 8.15085885 13.9612657 6.83644511 17.0818331 6.83644511C17.7976083 6.83644511 18.6421167 7.04346468 18.6421167 8.15085885z"/>
      </g>
    </g>
  </g>
</svg>
