<?xml version="1.0" encoding="UTF-8"?>
<svg width="32" height="25" enable-background="new 0 0 165.52107 105.9651" version="1.1" viewBox="0 0 165.52107 105.9651" xml:space="preserve" xmlns="http://www.w3.org/2000/svg">
	<path d="m150.7 0h-135.87c-0.5659 0-1.1328 0-1.6977 0.0033-0.47751 0.0034-0.95391 0.0087-1.4303 0.0217-1.039 0.0281-2.0869 0.0894-3.1129 0.2738-1.0424 0.1876-2.0124 0.4936-2.9587 0.9754-0.9303 0.4731-1.782 1.0919-2.5201 1.8303-0.73841 0.7384-1.3572 1.5887-1.8302 2.52-0.4819 0.9463-0.7881 1.9166-0.9744 2.9598-0.18539 1.0263-0.2471 2.074-0.2751 3.1119-0.0128 0.4764-0.01829 0.9528-0.0214 1.4291-0.0033 0.5661-0.0022 1.1318-0.0022 1.6989v76.318c0 0.5671-0.0011 1.1318 0.0022 1.699 0.00311 0.4763 0.0086 0.9527 0.0214 1.4291 0.028 1.037 0.08971 2.0847 0.2751 3.1107 0.1863 1.0436 0.4925 2.0135 0.9744 2.9599 0.473 0.9313 1.0918 1.7827 1.8302 2.52 0.73809 0.7396 1.5898 1.3583 2.5201 1.8302 0.9463 0.4831 1.9163 0.7892 2.9587 0.9767 1.026 0.1832 2.0739 0.2456 3.1129 0.2737 0.4764 0.0108 0.9528 0.0172 1.4303 0.0194 0.56489 0.0044 1.1318 0.0044 1.6977 0.0044h135.87c0.5649 0 1.1318 0 1.6966-0.0044 0.47641-0.0022 0.95282-0.0086 1.4314-0.0194 1.0368-0.0281 2.0845-0.0905 3.113-0.2737 1.041-0.1875 2.0112-0.4936 2.9576-0.9767 0.9313-0.4719 1.7805-1.0906 2.5201-1.8302 0.7372-0.7373 1.356-1.5887 1.8302-2.52 0.48299-0.9464 0.78889-1.9163 0.97429-2.9599 0.1855-1.026 0.2457-2.0737 0.2738-3.1107 0.013-0.4764 0.01941-0.9528 0.02161-1.4291 0.00439-0.5672 0.00439-1.1319 0.00439-1.699v-76.318c0-0.5671 0-1.1328-0.00439-1.6989-0.0022-0.4763-0.00861-0.9527-0.02161-1.4291-0.02811-1.0379-0.0883-2.0856-0.2738-3.1119-0.18539-1.0432-0.4913-2.0135-0.97429-2.9598-0.47421-0.9313-1.093-1.7816-1.8302-2.52-0.73961-0.7384-1.5888-1.3572-2.5201-1.8303-0.9464-0.4818-1.9166-0.7878-2.9576-0.9754-1.0285-0.1844-2.0762-0.2457-3.113-0.2738-0.47858-0.013-0.95499-0.0183-1.4314-0.0217-0.56478-0.0033-1.1317-0.0033-1.6966-0.0033z"/>
    <path d="m150.7 3.532l1.6715 0.0032c0.4528 0.0032 0.90561 0.0081 1.3609 0.0205 0.79201 0.0214 1.7185 0.0643 2.5821 0.2191 0.7507 0.1352 1.3803 0.3408 1.9845 0.6484 0.5965 0.3031 1.143 0.7003 1.6202 1.1768 0.479 0.4797 0.87671 1.0271 1.1838 1.6302 0.30589 0.5995 0.51019 1.2261 0.64459 1.9823 0.1544 0.8542 0.1971 1.7832 0.21881 2.5801 0.01219 0.4498 0.01819 0.8996 0.0204 1.3601 0.00429 0.5569 0.0042 1.1135 0.0042 1.6715v76.318c0 0.558 9e-5 1.1136-0.0043 1.6824-0.00211 0.4497-0.0081 0.8995-0.0204 1.3501-0.02161 0.7957-0.0643 1.7242-0.2206 2.5885-0.13251 0.7458-0.3367 1.3725-0.64429 1.975-0.30621 0.6016-0.70331 1.1484-1.1802 1.6251-0.47989 0.48-1.0246 0.876-1.6282 1.1819-0.5997 0.3061-1.2282 0.51151-1.9715 0.6453-0.88109 0.157-1.8464 0.2002-2.5734 0.2199-0.4574 0.0103-0.9126 0.01649-1.3789 0.0187-0.55571 0.0043-1.1134 0.0042-1.6692 0.0042h-135.87-0.0221c-0.5494 0-1.0999 0-1.6593-0.0043-0.4561-0.00211-0.9112-0.0082-1.3512-0.0182-0.7436-0.0201-1.7095-0.0632-2.5834-0.2193-0.74969-0.1348-1.3782-0.3402-1.9858-0.6503-0.59789-0.3032-1.1422-0.6988-1.6223-1.1797-0.4764-0.4756-0.8723-1.0207-1.1784-1.6232-0.3064-0.6019-0.5114-1.2305-0.64619-1.9852-0.15581-0.8626-0.19861-1.7874-0.22-2.5777-0.01221-0.4525-0.01731-0.9049-0.02021-1.3547l-0.0022-1.3279 1e-4 -0.3506v-76.318l-1e-4 -0.3506 0.0021-1.3251c3e-3 -0.4525 0.0081-0.9049 0.02031-1.357 0.02139-0.7911 0.06419-1.7163 0.22129-2.5861 0.1336-0.7479 0.3385-1.3765 0.6465-1.9814 0.3037-0.5979 0.7003-1.1437 1.1792-1.6225 0.477-0.4772 1.0231-0.8739 1.6248-1.1799 0.6011-0.3061 1.2308-0.5116 1.9805-0.6465 0.8638-0.1552 1.7909-0.198 2.5849-0.2195 0.4526-0.0123 0.9052-0.0172 1.3544-0.0203l1.6771-0.0033h135.87" fill="#fff"/>
    <path d="m45.186 35.641c1.4172-1.7727 2.379-4.1528 2.1253-6.5851-2.0746 0.10316-4.6063 1.3687-6.0721 3.1428-1.3161 1.5192-2.4809 3.999-2.1772 6.3293 2.3289 0.20201 4.6556-1.1641 6.124-2.887"/>
    <path d="m47.285 38.983c-3.3821-0.20146-6.2577 1.9195-7.8729 1.9195-1.616 0-4.0893-1.818-6.7644-1.769-3.4818 0.05114-6.7124 2.0198-8.4793 5.1508-3.6341 6.2636-0.95904 15.555 2.5749 20.656 1.7162 2.5238 3.7845 5.3027 6.5098 5.2029 2.5749-0.10104 3.5842-1.6673 6.7142-1.6673 3.1276 0 4.0368 1.6673 6.7625 1.6168 2.8266-0.05054 4.5938-2.5251 6.31-5.0513 1.9688-2.877 2.7747-5.655 2.8254-5.8075-0.0507-0.05051-5.4506-2.122-5.5006-8.3336-0.05098-5.201 4.2395-7.6749 4.4414-7.8283-2.4229-3.5834-6.2086-3.9875-7.521-4.089"/>
    <path d="m76.734 31.944c7.351 0 12.47 5.0671 12.47 12.444 0 7.4036-5.2241 12.497-12.654 12.497h-8.1389v12.943h-5.8804v-37.885h14.204zm-8.3233 20.005h6.7473c5.1198 0 8.0336-2.7564 8.0336-7.5348 0-4.7779-2.9138-7.5084-8.0073-7.5084h-6.7736v15.043z"/>
    <path d="m90.74 61.979c0-4.8311 3.7018-7.7976 10.266-8.1653l7.5606-0.44614v-2.1264c0-3.0718-2.0742-4.9096-5.539-4.9096-3.2825 0-5.3304 1.5749-5.8287 4.0431h-5.3557c0.31499-4.9886 4.5678-8.6641 11.394-8.6641 6.6947 0 10.974 3.5443 10.974 9.0839v19.034h-5.4347v-4.5419h-0.13065c-1.6012 3.0718-5.0934 5.0144-8.7162 5.0144-5.4084 0-9.1892-3.3605-9.1892-8.3222zm17.826-2.494v-2.179l-6.8 0.41981c-3.3868 0.23649-5.3031 1.7329-5.3031 4.0958 0 2.415 1.9952 3.9905 5.0408 3.9905 3.9641 0 7.0623-2.7305 7.0623-6.327z"/>
    <path d="m119.34 79.989v-4.5946c0.4193 0.10483 1.3642 0.10483 1.8372 0.10483 2.6252 0 4.0431-1.1024 4.9091-3.9378 0-0.05267 0.49931-1.6802 0.49931-1.7066l-9.9762-27.646h6.1427l6.9843 22.474h0.10432l6.9843-22.474h5.9857l-10.345 29.063c-2.3619 6.6952-5.0924 8.8479-10.816 8.8479-0.47297 0-1.8909-0.05267-2.3102-0.13116z"/>
</svg>
