<svg xmlns="http://www.w3.org/2000/svg" width="32" height="32" viewBox="0 0 32 32">
  <g fill="none" fill-rule="evenodd">
    <rect width="32" height="32" fill="#D10600" rx="8"/>
    <g fill="#FFF" transform="matrix(1 0 0 -1 6 27)">
      <path d="M-1.8e-15 15.8141558C-1.8e-15 19.4489391 3.0114144 22 6.50615564 22 11.1080905 22 12.7331343 17.8678261 12.7331343 12.7707884 12.7331343 12.7283289 9.53224925 10.1598373 9.53224925 5.694552 9.53224925 2.23360114 11.1080905 1.12934724 12.6904558.504969338L12.7826087.159175937C12.7826087.159175937 4.1338309-1.6009932 4.1338309 6.58505591 4.1338309 9.53545939 5.78823314 10.9779925 5.78823314 13.5903402 5.78823314 14.4294458 5.03334076 15.6046518 3.38981202 15.6046518 1.82565978 15.6046518.964207155 14.485118.964207155 13.6079107L.633924749 13.6023518C.252808755 14.2503897-1.8e-15 15.014437-1.8e-15 15.8141558zM20.2451351 3.94128295C20.2451351 3.94128295 20.1494667 5.5070246 19.1637562 5.5070246 18.2808226 5.5070246 17.7938911 4.73306267 17.7938911 4.73306267 17.7938911 4.73306267 18.8139593 3.94480608 18.8139593 2.71973936 18.8139593 1.45407004 16.1601234.210839001 15.0212842-2.71182158e-15 14.7609358.613659603 14.6086957 1.2960202 14.6086957 1.96483698 14.6086957 4.74322776 16.5303572 7.33333333 19.6379516 7.33333333 21.937844 7.33333333 20.6292897 3.86244574 20.6292897 3.86244574L20.2451351 3.94128295M16.43083 11.8758858C16.43083 11.3497388 16.0101619 10.9166667 15.4769032 10.9166667 14.9485935 10.9166667 14.5217391 11.3497388 14.5217391 11.8758858 14.5217391 12.4053702 14.9485935 12.8333333 15.4769032 12.8333333 16.0101619 12.8333333 16.43083 12.4053702 16.43083 11.8758858M19.1776386 15.2360582C19.1776386 15.2360582 19.7325739 17.2403129 18.6139599 19.25L18.2715996 19.1178032C18.3888163 17.3493013 17.8327881 16.0782155 17.8327881 16.0858663 17.3311332 16.2736381 16.298041 16.1994054 16.298041 16.1994054 16.298041 16.1994054 15.6767102 17.4204055 15.6865465 19.1245723L15.3491044 19.2457906C14.8378863 18.3325292 14.4930668 16.9693493 14.6447109 15.9693408 14.9329712 14.1217427 15.1592078 14.6293409 17.2021674 13.0050666 19.4199959 11.2396933 18.4666876 9.27898275 18.4666876 9.27898275L18.9940264 9.16666667C18.9940264 9.16666667 20.0869565 11.2354555 20.0869565 12.7562022 20.0869565 14.2795939 19.1776386 15.2360582 19.1776386 15.2360582"/>
    </g>
  </g>
</svg>
