<svg width="32" height="25" viewBox="0 0 32 25" fill="none" xmlns="http://www.w3.org/2000/svg">
<path d="M28 0H4C1.79086 0 0 1.79086 0 4V20C0 22.2091 1.79086 24 4 24H28C30.2091 24 32 22.2091 32 20V4C32 1.79086 30.2091 0 28 0Z" transform="translate(0 0.5)" fill="#D10600"/>
<path fill-rule="evenodd" clip-rule="evenodd" d="M0 3.3741C0 1.39149 1.57741 0 3.40799 0C5.81852 0 6.66974 2.25391 6.66974 5.03412C6.66974 5.05728 4.99308 6.45827 4.99308 8.89388C4.99308 10.7817 5.81852 11.384 6.64738 11.7246L6.69565 11.9132C6.69565 11.9132 2.16534 12.8733 2.16534 8.40815C2.16534 6.79884 3.03193 6.012 3.03193 4.58709C3.03193 4.12939 2.63651 3.48837 1.77562 3.48837C0.956298 3.48837 0.505061 4.09903 0.505061 4.5775L0.332056 4.58053C0.132424 4.22706 0 3.81031 0 3.3741ZM10.6046 9.85021C10.6046 9.85021 10.5545 8.99617 10.0382 8.99617C9.57567 8.99617 9.32061 9.41833 9.32061 9.41833C9.32061 9.41833 9.85493 9.84829 9.85493 10.5165C9.85493 11.2069 8.46483 11.885 7.86829 12C7.73192 11.6653 7.65217 11.2931 7.65217 10.9283C7.65217 9.41278 8.65876 8 10.2865 8C11.4913 8 10.8058 9.89321 10.8058 9.89321L10.6046 9.85021ZM8.60662 5.52224C8.60662 5.80923 8.38627 6.04545 8.10695 6.04545C7.83022 6.04545 7.60662 5.80923 7.60662 5.52224C7.60662 5.23343 7.83022 5 8.10695 5C8.38627 5 8.60662 5.23343 8.60662 5.52224ZM10.0454 3.68942C10.0454 3.68942 10.5217 4.21113 10.5217 5.04207C10.5217 5.87157 9.94925 7 9.94925 7L9.67303 6.93874C9.67303 6.93874 10.1724 5.86926 9.01066 4.90633C7.94054 4.02036 7.82203 4.29723 7.67104 3.28945C7.59161 2.74399 7.77223 2.00044 8.04001 1.5023L8.21676 1.56842C8.21161 2.49796 8.53707 3.16396 8.53707 3.16396C8.53707 3.16396 9.07821 3.12347 9.34098 3.22589C9.34098 3.23006 9.63224 2.53674 9.57084 1.57211L9.75017 1.5C10.3361 2.59619 10.0454 3.68942 10.0454 3.68942Z" transform="translate(10 6.5)" fill="white"/>
</svg>
