<svg width="33" height="25" viewBox="0 0 33 25" fill="none" xmlns="http://www.w3.org/2000/svg">
<path d="M4.096 0.5H27.904C29.8862 0.5 31.5 2.12098 31.5 4.12903V19.871C31.5 21.879 29.8862 23.5 27.904 23.5H4.096C2.11376 23.5 0.5 21.879 0.5 19.871V4.12903C0.5 2.12098 2.11376 0.5 4.096 0.5Z" transform="translate(0.375 0.875)" fill="white" stroke="#E5E5E5"/>
<path fill-rule="evenodd" clip-rule="evenodd" d="M0 2.85246C0 2.32958 0.419071 1.90571 0.93461 1.90571H3.78092L2.36308 3.33499H8.03446L10.8702 0H17.0142L12.9156 4.54477C12.569 4.92912 11.8792 5.24069 11.3644 5.24069H0.923597C0.413509 5.24069 0 4.81832 0 4.29394V2.85246Z" transform="translate(6.45007 11.3862)" fill="#00549D"/>
<path fill-rule="evenodd" clip-rule="evenodd" d="M0 2.84785C0 2.32752 0.423396 1.90571 0.922955 1.90571H4.25354L2.83569 3.33499H8.97969L11.3428 0H17.4868L13.3592 4.99304C13.0286 5.39294 12.336 5.71712 11.8223 5.71712H0.938319C0.4201 5.71712 0 5.29467 0 4.77497V2.84785Z" transform="translate(26.2408 14.7807) rotate(-180)" fill="#FFD800"/>
</svg>
