<svg xmlns="http://www.w3.org/2000/svg" xmlns:xlink="http://www.w3.org/1999/xlink" width="32" height="32" viewBox="0 0 32 32">
  <defs>
    <rect id="bancontact-a" width="32" height="32" rx="8"/>
  </defs>
  <g fill="none" fill-rule="evenodd">
    <use fill="#FFF" xlink:href="#bancontact-a"/>
    <rect width="31" height="31" x=".5" y=".5" stroke="#000" stroke-opacity=".1" rx="8"/>
    <g transform="translate(3.077 11.077)">
      <path fill="#00549D" d="M0,6.6844277 C0,6.00904462 0.545665448,5.46153846 1.21694066,5.46153846 L4.92307692,5.46153846 L3.07692308,7.30769231 L10.4615385,7.30769231 L14.1538462,3 L22.1538462,3 L16.8171833,8.87032919 C16.3658654,9.36677882 15.4492438,9.76923077 14.7842671,9.76923077 L1.2157329,9.76923077 C0.544302161,9.76923077 0,9.22365856 0,8.54634153 L0,6.6844277 Z"/>
      <path fill="#FFD800" d="M3,3.67847912 C3,3.00638135 3.55129711,2.46153846 4.21543889,2.46153846 L8.53846154,2.46153846 L6.69230769,4.30769231 L14.6923077,4.30769231 L17.7692308,2.22044605e-15 L25.7692308,2.22044605e-15 L20.3947735,6.44934874 C19.9643289,6.96588225 19.062561,7.38461538 18.3936157,7.38461538 L4.2217689,7.38461538 C3.54700457,7.38461538 3,6.83894994 3,6.16767472 L3,3.67847912 Z" transform="rotate(180 14.385 3.692)"/>
    </g>
  </g>
</svg>
