<svg xmlns="http://www.w3.org/2000/svg" xmlns:xlink="http://www.w3.org/1999/xlink" width="32" height="32" viewBox="0 0 32 32">
  <defs>
    <rect id="banktransfer-a" width="32" height="32" rx="8"/>
    <polygon id="banktransfer-b" points="0 0 0 6.833 5.755 6.833 5.755 0"/>
    <polygon id="banktransfer-d" points="5.778 0 0 0 0 6.869 5.778 6.869 5.778 0"/>
    <polygon id="banktransfer-f" points="0 6.869 6.896 6.869 6.896 0 0 0"/>
  </defs>
  <g fill="none" fill-rule="evenodd">
    <use fill="#0054A5" xlink:href="#banktransfer-a"/>
    <rect width="31" height="31" x=".5" y=".5" stroke="#000" stroke-opacity=".1" rx="8"/>
    <g transform="translate(4 13)">
      <g transform="translate(0 .119)">
        <mask id="banktransfer-c" fill="#fff">
          <use xlink:href="#banktransfer-b"/>
        </mask>
        <path fill="#FFF" d="M5.54759934,2.15483333 L3.83907285,2.15483333 C3.83907285,1.87258333 3.80620861,1.68325 3.7406457,1.58683333 C3.63890728,1.44408333 3.35836093,1.37266667 2.8990894,1.37266667 C2.45298013,1.37266667 2.15736755,1.41375 2.01307947,1.496 C1.86887417,1.5785 1.79660596,1.75791667 1.79660596,2.03416667 C1.79660596,2.28425 1.86059603,2.44891667 1.98874172,2.52783333 C2.08046358,2.58383333 2.20182119,2.61675 2.35298013,2.62658333 L2.69751656,2.65108333 C3.43592715,2.70041667 3.89710265,2.73516667 4.08104305,2.755 C4.66506623,2.81425 5.08832781,2.9705 5.35107616,3.22391667 C5.55769868,3.4215 5.68096026,3.67983333 5.72036424,3.99883333 C5.7432947,4.18966667 5.75480132,4.40566667 5.75480132,4.64558333 C5.75480132,5.1985 5.70231788,5.6035 5.59743377,5.86016667 C5.40720199,6.33108333 4.97988411,6.62858333 4.31490066,6.7535 C4.03634106,6.80625 3.6102649,6.83266667 3.03708609,6.83266667 C2.08021523,6.83266667 1.41349338,6.77533333 1.03700331,6.66008333 C0.574917219,6.51891667 0.270281457,6.233 0.122847682,5.80233333 C0.0407284768,5.56258333 0,5.16333333 0,4.60441667 L1.70844371,4.60441667 C1.70844371,4.66675 1.70869205,4.71433333 1.70869205,4.74716667 C1.70869205,5.0455 1.79379139,5.23725 1.9638245,5.32275 C2.08162252,5.38166667 2.22384106,5.41258333 2.39097682,5.41625 L3.01912252,5.41625 C3.33956954,5.41625 3.5442053,5.39966667 3.63236755,5.3665 C3.78948675,5.30433333 3.89254967,5.20433333 3.94180464,5.06583333 C3.96796358,4.9805 3.98087748,4.87016667 3.98087748,4.73516667 C3.98087748,4.43275 3.87127483,4.24875 3.6522351,4.18275 C3.57036424,4.15666667 3.18948675,4.12033333 2.50951987,4.07425 C1.9634106,4.035 1.58410596,3.99725 1.37177152,3.96066667 C0.812417219,3.85541667 0.439652318,3.63875 0.253642384,3.30991667 C0.0900662252,3.0305 0.00836092715,2.60775 0.00836092715,2.04225 C0.00836092715,1.61158333 0.0524834437,1.26625 0.14089404,1.0065 C0.229304636,0.74675 0.371771523,0.549416667 0.568377483,0.414583333 C0.856374172,0.207416667 1.22483444,0.0858333333 1.67342715,0.0495 C2.04677152,0.01675 2.46084437,0 2.91630795,0 C3.63336093,0 4.14437086,0.0415833333 4.44900662,0.12375 C5.19246689,0.324916667 5.56407285,0.888166667 5.56407285,1.81366667 C5.56407285,1.88958333 5.55860927,2.00316667 5.54759934,2.15483333" mask="url(#banktransfer-c)"/>
      </g>
      <g transform="translate(12.997 .036)">
        <mask id="banktransfer-e" fill="#fff">
          <use xlink:href="#banktransfer-d"/>
        </mask>
        <path fill="#FFF" d="M1.83642384,3.50208333 L2.98129139,3.50208333 C3.34428808,3.48891667 3.56506623,3.46075 3.64453642,3.41683333 C3.75306291,3.35675 3.8259106,3.23641667 3.86216887,3.05608333 C3.88534768,2.936 3.89693709,2.75741667 3.89693709,2.52033333 C3.89693709,2.22975 3.87392384,2.01441667 3.82764901,1.87383333 C3.7615894,1.67683333 3.60339404,1.55683333 3.35281457,1.51325 C3.30331126,1.50666667 3.18468543,1.50316667 2.99677152,1.50316667 L1.83642384,1.50316667 L1.83642384,3.50208333 Z M0,6.86891667 L0,0 L2.67657285,0 L3.09668874,0 L3.4214404,0 C3.89072848,0 4.24884106,0.0385833333 4.49486755,0.115666667 C5.05761589,0.293166667 5.43518212,0.656583333 5.62864238,1.20583333 C5.72839404,1.49408333 5.77831126,1.92808333 5.77831126,2.50758333 C5.77831126,3.20433333 5.72293046,3.70508333 5.6134106,4.00991667 C5.39395695,4.61275 4.94230132,4.96 4.26009934,5.05 C4.17996689,5.0635 3.83865894,5.07558333 3.2361755,5.08525 L2.93137417,5.0955 L1.83642384,5.0955 L1.83642384,6.86891667 L0,6.86891667 Z" mask="url(#banktransfer-e)"/>
      </g>
      <g transform="translate(18.046 .036)">
        <mask id="banktransfer-g" fill="#fff">
          <use xlink:href="#banktransfer-f"/>
        </mask>
        <path fill="#FFF" d="M4.3205298,4.34366667 L3.46001656,1.36616667 L2.62508278,4.34366667 L4.3205298,4.34366667 Z M4.68518212,5.68191667 L2.22988411,5.68191667 L1.9,6.869 L0,6.869 L2.05008278,0 L4.82036424,0 L6.89561258,6.869 L5.03559603,6.869 L4.68518212,5.68191667 Z" mask="url(#banktransfer-g)"/>
      </g>
      <path fill="#FEC10E" d="M10.5380795,0.90525 C11.295447,0.90525 11.9714404,1.2565 12.415894,1.80666667 L12.811755,0.95225 C12.1925497,0.363166667 11.35,0 10.4206126,0 C8.97359272,0 7.73567881,0.87975 7.22773179,2.12508333 L6.4557947,2.12508333 L6,3.10875 L6.99304636,3.10875 C6.98559603,3.2 6.98071192,3.29133333 6.98071192,3.3845 C6.98071192,3.49725 6.9865894,3.60866667 6.99759934,3.71875 L6.49859272,3.71875 L6.04288079,4.70275 L7.25140728,4.70275 C7.77384106,5.91658333 8.99627483,6.76875 10.4206126,6.76875 C11.1384106,6.76875 11.8044702,6.55225 12.3559603,6.18241667 L12.3559603,4.9765 C11.9118377,5.4855 11.2622517,5.80716667 10.5380795,5.80716667 C9.69147351,5.80716667 8.9468543,5.36775 8.51332781,4.70275 L11.043957,4.70275 L11.4997517,3.71875 L8.14097682,3.71875 C8.1236755,3.60033333 8.11440397,3.47933333 8.11440397,3.35608333 C8.11440397,3.27275 8.11862583,3.19025 8.12665563,3.10875 L11.782202,3.10875 L12.2379139,2.12508333 L8.44271523,2.12508333 C8.8625,1.39591667 9.64346026,0.90525 10.5380795,0.90525"/>
    </g>
  </g>
</svg>
