<svg xmlns="http://www.w3.org/2000/svg" width="32" height="32" viewBox="0 0 32 32">
  <g fill="none" fill-rule="evenodd">
    <rect width="32" height="32" fill="#D50043" rx="8"/>
    <path fill="#FFF" d="M0,2.35907803 C0,1.05619521 1.05227542,0 2.35907803,0 L11.640922,0 C12.9438048,0 14,1.05227542 14,2.35907803 L14,14 L2.35907803,14 C1.05619521,14 0,12.9477246 0,11.640922 L0,2.35907803 Z M3,4.88305092 L3,5.11694908 C3,5.59527016 3.39699196,6 3.88670635,6 L10.1132936,6 C10.6032788,6 11,5.60464464 11,5.11694908 L11,4.88305092 C11,4.40472984 10.603008,4 10.1132936,4 L3.88670635,4 C3.39672124,4 3,4.39535536 3,4.88305092 Z M3,8.88305092 L3,9.11694908 C3,9.59527016 3.39699196,10 3.88670635,10 L10.1132936,10 C10.6032788,10 11,9.60464464 11,9.11694908 L11,8.88305092 C11,8.40472984 10.603008,8 10.1132936,8 L3.88670635,8 C3.39672124,8 3,8.39535536 3,8.88305092 Z" transform="translate(9 9)"/>
  </g>
</svg>
