<svg xmlns="http://www.w3.org/2000/svg" width="32" height="32" viewBox="0 0 32 32">
  <g fill="none" fill-rule="evenodd">
    <rect width="32" height="32" fill="#FF821E" rx="8"/>
    <path fill="#FFF" fill-rule="nonzero" d="M21.9660243,14.8343163 C22.2365213,13.0480221 20.8598314,12.0877526 18.9773926,11.4471535 L19.5880281,9.02739185 L18.0971094,8.66031636 L17.5026103,11.0163117 C17.1106656,10.9198233 16.7081048,10.8287886 16.3080919,10.7385929 L16.9068373,8.36707549 L15.4167679,8 L14.8057079,10.4189226 C14.4812812,10.345927 14.1627996,10.2737705 13.8536601,10.1978383 L13.8553587,10.190287 L11.7992412,9.68309355 L11.4026254,11.2562742 C11.4026254,11.2562742 12.5088183,11.5067246 12.485463,11.5222466 C13.0893042,11.6711744 13.1984372,12.0659379 13.1801776,12.3788959 L12.4846137,15.135528 C12.5262286,15.1460158 12.5801582,15.1611184 12.6396081,15.1846112 C12.589925,15.1724453 12.5368447,15.1590208 12.4820659,15.1460158 L11.5070874,19.00765 C11.4331997,19.1888804 11.2459325,19.460726 10.8238382,19.3575254 C10.8387006,19.3789206 9.74015132,19.0902944 9.74015132,19.0902944 L9,20.7763246 L10.9401901,21.254152 C11.301136,21.3435086 11.6548629,21.4370604 12.0030695,21.5251586 L11.3860644,23.9726081 L12.8752845,24.3396836 L13.4863446,21.918244 C13.8931518,22.0273178 14.288069,22.1280014 14.6744934,22.2228117 L14.0655565,24.6329245 L15.5564752,25 L16.1734803,22.5571651 C18.715813,23.0324754 20.6275521,22.8407571 21.432249,20.5690842 C22.0806776,18.7399995 21.3999762,17.6849197 20.0623534,16.9969153 C21.0364825,16.774992 21.7702642,16.1419441 21.9660243,14.8343163 L21.9660243,14.8343163 Z M18.5595447,19.5534388 C18.0988079,21.3825235 14.9815097,20.393727 13.9708613,20.1457937 L14.7895714,16.9033635 C15.8002198,17.1525553 19.0410889,17.6459048 18.5595447,19.5534388 Z M19.0207061,14.8078869 C18.6003104,16.4716827 16.0057466,15.6263603 15.1641058,15.41912 L15.9063804,12.478321 C16.7480212,12.6855613 19.4585122,13.072354 19.0207061,14.8078869 Z"/>
  </g>
</svg>
