<svg xmlns="http://www.w3.org/2000/svg" xmlns:xlink="http://www.w3.org/1999/xlink" width="32" height="32" viewBox="0 0 32 32">
  <defs>
    <rect id="bunq--a" width="32" height="32" rx="8"/>
  </defs>
  <g fill="none" fill-rule="evenodd">
    <mask id="bunq--b" fill="#fff">
      <use xlink:href="#bunq--a"/>
    </mask>
    <use fill="#F2F2F2" xlink:href="#bunq--a"/>
    <g mask="url(#bunq--b)">
      <g transform="translate(0 -2)">
        <polygon fill="#008F42" points="0 0 3 0 3 198 0 198"/>
        <polygon fill="#00AB47" points="3 0 6 0 6 198 3 198"/>
        <polygon fill="#52C638" points="6 0 9 0 9 198 6 198"/>
        <polygon fill="#96C65A" points="9 0 12 0 12 198 9 198"/>
        <polygon fill="#00C4B5" points="12 0 15 0 15 198 12 198"/>
        <polygon fill="#00A2DC" points="15 0 17 0 17 198 15 198"/>
        <polygon fill="#0A6CB8" points="17 0 20 0 20 198 17 198"/>
        <polygon fill="#46597D" points="20 0 23 0 23 198 20 198"/>
        <polygon fill="#FF001A" points="23 0 26 0 26 198 23 198"/>
        <polygon fill="#FF6B00" points="26 0 29 0 29 198 26 198"/>
        <polygon fill="#F7C000" points="29 0 32 0 32 198 29 198"/>
      </g>
    </g>
    <g fill="#FFF" fill-rule="nonzero" mask="url(#bunq--b)">
      <g transform="translate(3 11)">
        <path d="M11 3L12 3 12 5.69230771C12 6.96596154 10.8797222 8 9.50000004 8 8.12027779 8 7 6.96596154 7 5.69230771L7 3 8 3 8 5.69230771C8 6.47065387 8.73347224 7.10256414 9.50000004 7.10256414 10.2665278 7.10256414 11 6.47065387 11 5.69230771L11 3zM17 8L18 8 18 5.30769231C18 4.03403846 16.8797222 3 15.5 3 14.1202778 3 13 4.03403846 13 5.30769231L13 8 14 8 14 5.30769231C14 4.52934615 14.7334722 3.89743589 15.5 3.89743589 16.2665278 3.89743589 17 4.52934615 17 5.30769231L17 8zM1 7.85714289L0 7.85714289 0 5.28571431C.0012 5.23838574 0 5.19075717 0 5.14285717L0 0 1 0 1 2.85758573C1.50160001 2.49857144 2.32485 2.2857143 3 2.2857143 4.6557 2.2857143 6 3.56595715 6 5.14285717 6 6.71975719 4.6557 8 3 8 2.283 8 1.51630001 7.75991432 1 7.35961436L1 7.85714289zM2.925 3.2857143C1.89015 3.2857143 1.05 4.11787145 1.05 5.14285717 1.05 6.16784289 1.89015 7.00000004 2.925 7.00000004 3.95984999 7.00000004 4.8 6.16784289 4.8 5.14285717 4.8 4.11787145 3.95984999 3.2857143 2.925 3.2857143zM24 2.44290596L25 2.44290596 25 5.01433453C24.9988001 5.06166311 25 5.10929168 25 5.15719168L24.99625 10 24 10 24 7.44246309C23.4984 7.80147738 22.67515 8.0143345 22 8.0143345 20.3443 8.0143345 19 6.7340917 19 5.15719168 19 3.58029168 20.3443 2.30004883 22 2.30004883 22.717 2.30004883 23.4837 2.54013454 24 2.94043454L24 2.44290596zM22.075 7.01433455C23.10985 7.01433455 23.95 6.1821774 23.95 5.15719168 23.95 4.13220597 23.10985 3.30004882 22.075 3.30004882 21.04015 3.30004882 20.2000001 4.13220597 20.2000001 5.15719168 20.2000001 6.1821774 21.04015 7.01433455 22.075 7.01433455z"/>
      </g>
    </g>
  </g>
</svg>
