<svg xmlns="http://www.w3.org/2000/svg" width="32" height="32" viewBox="0 0 32 32">
  <defs>
    <linearGradient id="cartebancare-a" x1="100%" x2="0%" y1="0%" y2="100%">
      <stop offset="0%" stop-color="#083969"/>
      <stop offset="49.17%" stop-color="#007B9D"/>
      <stop offset="100%" stop-color="#00A84A"/>
    </linearGradient>
  </defs>
  <g fill="none" fill-rule="evenodd">
    <rect width="32" height="32" fill="url(#cartebancare-a)" rx="8"/>
    <g fill="#FFF" transform="translate(6 11)">
      <path d="M5 5L10 5C9.94748589 4.0278568 9.69541814 2.90279641 9 2 8.02021793 1.31930653 6.42510175 1 5 1 3.51625749 1 1.87562908 1.35022275 1 2 .170670868 3.06945414 0 4.34957866 0 5 0 6.70452472.333902236 8.10589877 1 9 2.10100214 9.77199292 3.57664872 10 5 10 6.38221522 10 7.87974268 9.7425259 9 9 9.68797864 8.11266169 10 7.33983146 10 6L5 6 5 5zM11 6L11 10 18 10 18 10C19.1703335 9.9425687 20 9.08199663 20 8 20 6.96825575 19.1703335 6.05249579 18 6L18 6 11 6zM20 3C20 1.88946041 19.1813223 1.00891584 18 1 18.0785393 1.00891584 17.9908076.994231944 18 1L11 1 11 5 18 5C19.2481438 4.91140713 20 4.05239895 20 3"/>
    </g>
  </g>
</svg>
