<svg xmlns="http://www.w3.org/2000/svg" width="32" height="32" viewBox="0 0 32 32">
  <g fill="none" fill-rule="evenodd">
    <rect width="32" height="32" fill="#014C6F" rx="8"/>
    <g transform="translate(5 7)">
      <path fill="#FFFFFE" d="M7.70307353 11L12.8615882 11C14.2123235 11 14.65475 11.5907709 14.65475 12.5098492 14.65475 13.5208536 13.8396176 13.9671693 13.0011912 14.0328307 13.8629118 14.1116245 14.6780441 14.2298152 14.6780441 15.4244893 14.6780441 16.2253769 14.2589118 17 12.7917059 17L7.70307353 17 7.70307353 11zM10.2531324 15.7790613L11.6038676 15.7790613C12.1046912 15.7790613 12.2559412 15.54268 12.2559412 15.1882904 12.2559412 14.859983 12.1046912 14.6236017 11.6038676 14.6236017L10.2531324 14.6236017 10.2531324 15.7790613zM10.2531324 13.5208536L11.5456324 13.5208536C12.0231618 13.5208536 12.2093529 13.3107369 12.2093529 12.9561649 12.2093529 12.5755107 12.0231618 12.365394 11.5805735 12.365394L10.2531324 12.365394 10.2531324 13.5208536 10.2531324 13.5208536zM6.49194118 16.6823052C5.88645588 16.8855663 5.09461765 17 4.38430882 17 1.85754412 17 .0176323529 16.2245703.0176323529 13.9618554.0176323529 11.8898634 1.81095588 11 4.25619118 11 4.94320588 11 5.80492647 11.0762891 6.49194118 11.30498L6.49194118 13.3262891C5.99127941 12.982988 5.49061765 12.7795503 4.75701471 12.7795503 3.83705882 12.7795503 2.88216176 13.3008594 2.88216176 14.0127149 2.88216176 14.7372851 3.83705882 15.2457028 4.75701471 15.2457028 5.46732353 15.2457028 5.99127941 15.017012 6.49194118 14.6991406L6.49194118 16.6823052M21.8743088 16.6823052C21.2688235 16.8855663 20.4769853 17 19.7666765 17 17.2399118 17 15.3883529 16.2245703 15.3883529 13.9618554 15.3883529 11.8898634 17.1816765 11 19.6385588 11 20.3139265 11 21.1872941 11.0762891 21.8743088 11.30498L21.8743088 13.3262891C21.3503529 12.982988 20.8496912 12.7795503 20.1393824 12.7795503 19.2077794 12.7795503 18.2645294 13.3008594 18.2645294 14.0127149 18.2645294 14.7372851 19.1844853 15.2457028 20.1393824 15.2457028 20.8496912 15.2457028 21.3503529 15.017012 21.8743088 14.6991406L21.8743088 16.6823052"/>
      <path fill="#FFF" d="M11.2546176,7.55690476 C13.2923676,7.55690476 14.9459265,5.89025714 14.9459265,3.83908571 C14.9459265,1.81122857 13.2923676,0.144580952 11.2546176,0.144580952 C9.20522059,0.144580952 7.55166176,1.81122857 7.55166176,3.83908571 C7.55166176,5.89025714 9.20522059,7.55690476 11.2546176,7.55690476"/>
      <path fill="#FFF" d="M10.4394853,8.37274286 C9.20522059,8.37274286 8.12220588,7.8948 7.44683824,7.37039048 C3.41792647,7.79004762 4e-16,8.39605714 4e-16,8.39605714 L4e-16,10 L22,10 L22,6.65946667 C22,6.65946667 18.183,6.63615238 14.0026765,6.84598095 C13.2923676,7.60353333 12.0231618,8.37274286 10.4394853,8.37274286 Z"/>
    </g>
  </g>
</svg>
