<svg width="33" height="24" viewBox="0 0 33 24" fill="none" xmlns="http://www.w3.org/2000/svg">
<path d="M4.12903 0.5H27.871C29.8701 0.5 31.5 2.13976 31.5 4.17391V19.8261C31.5 21.8602 29.8701 23.5 27.871 23.5H4.12903C2.12986 23.5 0.5 21.8602 0.5 19.8261V4.17391C0.5 2.13976 2.12986 0.5 4.12903 0.5Z" transform="translate(0.5)" fill="white" stroke="#E5E5E5"/>
<path fill-rule="evenodd" clip-rule="evenodd" d="M0 0H3.99369C5.03942 0 5.38194 0.462343 5.38194 1.18162C5.38194 1.97284 4.75087 2.32213 4.10177 2.37352C4.76891 2.43518 5.39998 2.52768 5.39998 3.46264C5.39998 4.08943 5.07549 4.69565 3.93959 4.69565H0V0ZM1.97424 3.74014H3.01997C3.4077 3.74014 3.5248 3.55514 3.5248 3.27779C3.5248 3.02086 3.4077 2.83586 3.01997 2.83586H1.97424V3.74014ZM1.97424 1.97284H2.97488C3.34458 1.97284 3.48873 1.8084 3.48873 1.53091C3.48873 1.23301 3.34458 1.06857 3.00194 1.06857H1.97424V1.97284Z" transform="translate(13.9475 13.5652)" fill="#003466"/>
<path fill-rule="evenodd" clip-rule="evenodd" d="M5.01237 4.44702C4.54361 4.6061 3.93057 4.69565 3.38065 4.69565C1.42445 4.69565 0 4.08879 0 2.31797C0 0.696415 1.38838 0 3.28146 0C3.81335 0 4.48049 0.0597045 5.01237 0.23868V1.82057C4.62476 1.5519 4.23715 1.39269 3.6692 1.39269C2.95698 1.39269 2.2177 1.80067 2.2177 2.35778C2.2177 2.92483 2.95698 3.32272 3.6692 3.32272C4.21912 3.32272 4.62476 3.14375 5.01237 2.89498V4.44702Z" transform="translate(7.99707 13.5652)" fill="#003466"/>
<path fill-rule="evenodd" clip-rule="evenodd" d="M5.02138 4.44702C4.55262 4.6061 3.93959 4.69565 3.38967 4.69565C1.43346 4.69565 0 4.08879 0 2.31797C0 0.696415 1.38838 0 3.29048 0C3.81335 0 4.4895 0.0597045 5.02138 0.23868V1.82057C4.61574 1.5519 4.22813 1.39269 3.67822 1.39269C2.95698 1.39269 2.22672 1.80067 2.22672 2.35778C2.22672 2.92483 2.93894 3.32272 3.67822 3.32272C4.22813 3.32272 4.61574 3.14375 5.02138 2.89498V4.44702Z" transform="translate(19.8974 13.5652)" fill="#003466"/>
<path fill-rule="evenodd" clip-rule="evenodd" d="M2.8668 5.80095C4.44442 5.80095 5.72459 4.49662 5.72459 2.89135C5.72459 1.30433 4.44442 0 2.8668 0C1.28017 0 0 1.30433 0 2.89135C0 4.49662 1.28017 5.80095 2.8668 5.80095Z" transform="translate(13.8303 5.0697)" fill="#019ACC"/>
<path fill-rule="evenodd" clip-rule="evenodd" d="M8.08218 1.34143C7.12662 1.34143 6.28816 0.967386 5.76529 0.556979C2.64614 0.885406 0 1.35967 0 1.35967V2.61493H17.0323V0.000603154C17.0323 0.000603154 14.0772 -0.0176426 10.8408 0.146571C10.2909 0.739438 9.30825 1.34143 8.08218 1.34143Z" transform="translate(7.98386 10.1677)" fill="#019ACC"/>
</svg>
