<?xml version="1.0" encoding="UTF-8" standalone="no"?>
<svg width="176px" height="32px" viewBox="0 0 176 32" version="1.1" xmlns="http://www.w3.org/2000/svg" xmlns:xlink="http://www.w3.org/1999/xlink">
    <!-- Generator: Sketch 50.2 (55047) - http://www.bohemiancoding.com/sketch -->
    <title>Slice</title>
    <desc>Created with Sketch.</desc>
    <defs>
        <linearGradient x1="100%" y1="0%" x2="0%" y2="100%" id="linearGradient-1">
            <stop stop-color="#083969" offset="0%"></stop>
            <stop stop-color="#007B9D" offset="49.17%"></stop>
            <stop stop-color="#00A84A" offset="100%"></stop>
        </linearGradient>
        <radialGradient cx="32.922%" cy="32.8%" fx="32.922%" fy="32.8%" r="66.895%" id="radialGradient-2">
            <stop stop-color="#34BBF2" offset="0%"></stop>
            <stop stop-color="#004DCF" offset="100%"></stop>
        </radialGradient>
        <rect id="path-3" x="0" y="0" width="32" height="32" rx="8"></rect>
    </defs>
    <g id="Page-1" stroke="none" stroke-width="1" fill="none" fill-rule="evenodd">
        <g id="visa" fill-rule="nonzero">
            <rect id="Rectangle-path" fill="#1D18F5" x="0" y="0" width="32" height="32" rx="8"></rect>
            <g id="visa-a-link" transform="translate(15.500000, 16.000000) scale(-1, 1) rotate(-180.000000) translate(-15.500000, -16.000000) translate(3.000000, 12.000000)" fill="#FFFFFF">
                <path d="M12.7304897,5.44244 C12.7164458,4.328064 13.7172635,3.7061558 14.4712029,3.336433 C15.2458388,2.9570392 15.5060218,2.7137809 15.5030652,2.3745583 C15.4971519,1.8553097 14.8851305,1.6261856 14.3122843,1.6172587 C13.3129449,1.6016366 12.731968,1.8887856 12.2699953,2.1060071 L11.9100262,0.4106379 C12.3734772,0.1956481 13.2316377,0.008183 14.121582,0 C16.2104378,0 17.5771379,1.0377534 17.5845295,2.6468291 C17.5926602,4.68886 14.7779528,4.8019342 14.7971709,5.7147108 C14.8038233,5.991445 15.0662238,6.286777 15.6412874,6.3619118 C15.9258626,6.3998512 16.7115858,6.4288637 17.6022692,6.015994 L17.9518902,7.6563139 C17.4729168,7.8318765 16.8571996,8 16.0906945,8 C14.1245386,8 12.7415771,6.9481123 12.7304897,5.44244 M21.3113558,7.8586572 C20.9299511,7.8586572 20.6084181,7.6347406 20.4650217,7.2910545 L17.4810476,0.1205133 L19.5684251,0.1205133 L19.983831,1.2758044 L22.5346595,1.2758044 L22.7756245,0.1205133 L24.6153846,0.1205133 L23.009937,7.8586572 L21.3113558,7.8586572 M21.6033225,5.7682723 L22.2057349,2.8625628 L20.555938,2.8625628 L21.6033225,5.7682723 M10.1996184,7.8586572 L8.5542564,0.1205133 L10.5433261,0.1205133 L12.187949,7.8586572 L10.1996184,7.8586572 M7.257037,7.8586572 L5.18666008,2.5917798 L4.34919594,7.0701134 C4.25088814,7.5700205 3.86283106,7.8586572 3.43190291,7.8586572 L0.04730601,7.8586572 L0,7.6339967 C0.69480696,7.4822392 1.48422594,7.237493 1.9624601,6.975637 C2.25516601,6.8156965 2.33869068,6.6758415 2.434781,6.2957039 L4.02101052,0.1205133 L6.12317117,0.1205133 L9.3458928,7.8586572 L7.257037,7.8586572" id="visa-a"></path>
            </g>
        </g>
        <g id="mastercard" transform="translate(36.000000, -0.000000)" fill-rule="nonzero">
            <rect id="Rectangle-path" fill="#000000" x="0" y="0" width="32" height="32" rx="8"></rect>
            <g id="Group" transform="translate(6.000000, 10.000000)">
                <circle id="Oval" fill="#E7001A" cx="6" cy="6" r="6"></circle>
                <circle id="Oval" fill="#F49B1C" cx="14" cy="6" r="6"></circle>
                <path d="M10.0120165,1.53555826 C11.2274987,2.64318582 12,4.25913619 12,6.07792208 C12,7.81313544 11.2274987,9.39032964 10.0120165,10.4799843 C8.77250128,9.39032964 8,7.81313544 8,6.07792208 C8,4.25913619 8.77250128,2.64318582 10.0120165,1.53555826 Z" id="Shape" fill="#E7001A" opacity="0.3"></path>
            </g>
        </g>
        <g id="cartasi" transform="translate(108.000000, 0.000000)" fill-rule="nonzero">
            <path d="M0,7.99240541 C0,3.57832179 3.57766074,0 7.99240541,0 L24.0075946,0 C28.4216782,0 32,3.57766074 32,7.99240541 L32,24.0075946 C32,28.4216782 28.4223393,32 24.0075946,32 L7.99240541,32 C3.57832179,32 0,28.4223393 0,24.0075946 L0,7.99240541 Z" id="Shape" fill="#FF6E28"></path>
            <path d="M15.1961104,8.1168931 C15.4801179,8.03699906 15.7756301,8 16.0701346,8 L16.0907927,8 C16.4731363,8.0023071 16.8314627,8.06758951 17.140831,8.17995386 C17.3907442,8.27078527 17.6085784,8.39246347 17.7814854,8.53661454 C17.853453,8.59651371 17.920382,8.66393233 17.9791653,8.7375032 C18.0221611,8.79125011 18.0607062,8.84824404 18.0935409,8.90822866 C18.1827236,9.07117833 18.2289945,9.25497736 18.2053972,9.44971375 C18.1871744,9.59958985 18.1299026,9.74263009 18.0400481,9.87464753 C17.9716915,9.97496368 17.8846081,10.0690421 17.7814854,10.155003 C17.7002804,10.2226779 17.6092502,10.2853969 17.5095705,10.3423054 C17.1305859,10.5556695 16.6300038,10.6854653 16.0812194,10.6854653 C14.8985827,10.6854653 13.9398265,10.0828847 13.9398265,9.3396565 C13.9398265,8.9462531 14.2083824,8.59232675 14.636493,8.34623601 C14.6766337,8.32342134 14.7182019,8.30163206 14.7610297,8.28078271 C14.8944679,8.21592754 15.0403345,8.16072802 15.1961104,8.1168931 Z M8.29402322,16.1602153 C8.29402322,13.1621806 13.5278394,12.1442365 16.1877852,12.1442365 C17.6921347,12.1442365 20.8798709,12.467487 22.8109035,14.153294 C23.0598089,14.375972 23.2869645,14.6219773 23.4858201,14.893617 C23.5384732,14.9653935 23.5890269,15.0389644 23.6374811,15.1143297 C23.7539561,15.2955652 23.8585065,15.4873109 23.9492007,15.6903358 C24.0292301,15.8695206 24.0077322,15.9994019 23.9331613,16.0699821 C23.9212367,16.0813467 23.9078845,16.0911732 23.8933566,16.0994617 C23.8614456,16.1175767 23.8239083,16.1280868 23.7827599,16.1306503 C23.6618342,16.1379134 23.5528331,16.0831411 23.4620549,16.0058105 C23.4441679,15.98761 23.4266169,15.9679569 23.4096537,15.9466803 C23.3228223,15.8379048 23.2190278,15.7318636 23.1002015,15.6288986 C22.1129773,14.7351107 19.9958536,14.0719474 18.0561715,13.9853029 C15.9427427,13.8908827 14.0400101,14.4809878 14.0400101,16.2031103 L14.0400101,18.4246774 C14.0400101,18.5320858 14.0367351,18.6321456 14.030101,18.7251132 C13.9860974,19.3430744 13.7946317,19.6522259 13.4355495,19.7739896 C13.268185,19.8308126 13.0644587,19.8468769 12.8223554,19.8346578 C12.1648218,19.8011621 10.4911763,19.4782534 9.36060482,18.5014953 C9.35800156,18.4992737 9.3553983,18.497052 9.35287901,18.4948304 C8.73582196,17.9406135 8.29402322,17.1831154 8.29402322,16.1602153 Z M18.2457058,15.5322567 C18.4214679,15.3375203 18.6810383,15.2630949 19.0318909,15.2630949 C19.0788336,15.2630949 19.1272878,15.2643767 19.1775056,15.2669401 C20.2109166,15.3195762 23.754376,16.0870717 23.754376,18.9840212 C23.754376,21.9819704 18.5204759,23 15.86053,23 C13.9710657,23 9.42619023,22.4900453 8.05082816,19.4111766 C7.84080371,18.9412117 8.32988105,18.8109032 8.63857753,19.1975562 C10.051477,20.9668461 15.9650804,22.0365718 17.5612998,20.074169 C17.5682698,20.0661369 17.5752399,20.0578484 17.5821259,20.0497308 C17.6341911,19.9873537 17.6818896,19.9219004 17.7248015,19.8532855 C17.8988841,19.5748953 17.9956247,19.2441254 17.9956247,18.8557635 L17.9956247,16.6341964 C17.9956247,16.1015124 18.0762418,15.751004 18.2457058,15.5322567 Z" id="Shape" fill="#FFFFFF"></path>
        </g>
        <g id="cartebancare" transform="translate(144.000000, 0.000000)" fill-rule="nonzero">
            <rect id="Rectangle-path" fill="url(#linearGradient-1)" x="0" y="0" width="32" height="32" rx="8"></rect>
            <g id="Group" transform="translate(6.000000, 11.000000)" fill="#FFFFFF">
                <path d="M5,5 L10,5 C9.94748589,4.0278568 9.69541814,2.90279641 9,2 C8.02021793,1.31930653 6.42510175,1 5,1 C3.51625749,1 1.87562908,1.35022275 1,2 C0.170670868,3.06945414 0,4.34957866 0,5 C0,6.70452472 0.333902236,8.10589877 1,9 C2.10100214,9.77199292 3.57664872,10 5,10 C6.38221522,10 7.87974268,9.7425259 9,9 C9.68797864,8.11266169 10,7.33983146 10,6 L5,6 L5,5 Z M11,6 L11,10 L18,10 C19.1703335,9.9425687 20,9.08199663 20,8 C20,6.96825575 19.1703335,6.05249579 18,6 L11,6 Z M20,3 C20,1.88946041 19.1813223,1.00891584 18,1 C18.0785393,1.00891584 17.9908076,0.994231944 18,1 L11,1 L11,5 L18,5 C19.2481438,4.91140713 20,4.05239895 20,3 Z" id="Shape"></path>
            </g>
        </g>
        <g id="amex" transform="translate(72.000000, 0.000000)">
            <g id="amex-a-link" fill="url(#radialGradient-2)" fill-rule="nonzero">
                <rect id="amex-a" x="0" y="0" width="32" height="32" rx="8"></rect>
            </g>
            <g id="amex-a-link" fill="#0095FF" fill-rule="nonzero">
                <rect id="amex-a" x="0" y="0" width="32" height="32" rx="8"></rect>
            </g>
            <g id="Clipped">
                <mask id="mask-4" fill="white">
                    <use xlink:href="#path-3"></use>
                </mask>
                <g id="amex-a"></g>
                <g id="Group" mask="url(#mask-4)">
                    <g transform="translate(-2.000000, 9.000000)">
                        <g transform="translate(0.770000, 0.846000)">
                            <path d="M3.12056738,2.98730396 L2.40043644,1.4339059 L1.80032733,2.98730396 L3.12056738,2.98730396 Z M17.2831424,2.27035101 C17.2003605,2.38734428 17.0476055,2.38984317 16.9230769,2.38984317 L15.7228587,2.38984317 L15.7228587,1.55339806 L16.9230769,1.55339806 C17.0439289,1.55339806 17.2148296,1.56044037 17.2831424,1.67289022 C17.4477573,1.6761842 17.523186,1.7929503 17.523186,1.91187453 C17.523186,2.11882768 17.4514339,2.25126861 17.2831424,2.27035101 Z M25.6846699,2.98730396 L24.964539,1.4339059 L24.3644299,2.98730396 L25.6846699,2.98730396 Z M10.3218767,4.77968633 L9.36170213,4.77968633 L9.36170213,1.67289022 L7.92144026,4.77968633 L7.08128751,4.77968633 L5.76104746,1.67289022 L5.76104746,4.77968633 L3.72067649,4.77968633 L3.36061102,3.94324122 L1.44026187,3.94324122 L1.0801964,4.77968633 L0,4.77968633 L1.68030551,0.836445108 L3.12056738,0.836445108 L4.80087289,4.54070202 L4.80087289,0.836445108 L6.36115657,0.836445108 L7.5613748,3.46527259 L8.76159302,0.836445108 L10.3218767,0.836445108 L10.3218767,4.77968633 Z M14.162575,4.77968633 L11.0420076,4.77968633 L11.0420076,0.836445108 L14.162575,0.836445108 L14.162575,1.67289022 L12.0021822,1.67289022 L12.0021822,2.38984317 L14.162575,2.38984317 L14.162575,3.22628827 L12.0021822,3.22628827 L12.0021822,3.94324122 L14.162575,3.94324122 L14.162575,4.77968633 Z M18.7234043,1.91187453 C18.7234043,2.52713625 18.2977459,2.85195352 18.0032733,2.98730396 C18.2588961,3.02798045 18.4375809,3.16666113 18.4833606,3.22628827 C18.6576492,3.4776817 18.6809349,3.65287607 18.7234043,4.06273338 L18.7234043,4.77968633 L17.7632297,4.77968633 L17.7632297,4.3017177 C17.7129482,4.04513069 17.7359926,3.7039001 17.523186,3.46527259 C17.4222988,3.37551471 17.2093489,3.34542362 16.9230769,3.34578043 L15.8428805,3.34578043 L15.8428805,4.77968633 L14.8827059,4.77968633 L14.8827059,0.836445108 L17.0430987,0.836445108 C17.5704588,0.836445108 17.9304828,0.84917138 18.243317,1.07542942 C18.5420651,1.20146312 18.7234043,1.45860517 18.7234043,1.91187453 Z M20.1636661,4.77968633 L19.2034915,4.77968633 L19.2034915,0.836445108 L20.1636661,0.836445108 L20.1636661,4.77968633 Z M31.4457174,4.77968633 L30.1254774,4.77968633 L28.32515,1.79238237 L28.32515,4.77968633 L26.4048009,4.77968633 L25.9247136,3.94324122 L24.0043644,3.94324122 L23.644299,4.77968633 L22.5641026,4.77968633 C22.0699452,4.77968633 21.484117,4.67835191 21.1238407,4.3017177 C20.8178081,4.00873593 20.6437534,3.5552287 20.6437534,2.8678118 C20.6437534,2.253343 20.7477778,1.71872065 21.1238407,1.31441374 C21.4646575,0.981548393 21.9465813,0.836445108 22.5641026,0.836445108 L23.5242771,0.836445108 L23.5242771,1.67289022 L22.5641026,1.67289022 C22.2745105,1.6813744 22.0783536,1.73251736 21.8439716,1.91187453 C21.727121,2.08100312 21.6157692,2.39487817 21.603928,2.8678118 C21.6157692,3.2306493 21.7005743,3.53524726 21.8439716,3.70425691 C22.0240591,3.89027456 22.2903664,3.93761153 22.5641026,3.94324122 L22.924168,3.94324122 L24.3644299,0.836445108 L25.6846699,0.836445108 L27.3649755,4.54070202 L27.3649755,0.836445108 L28.8052373,0.836445108 L30.4855428,3.58476475 L30.4855428,0.836445108 L31.4457174,0.836445108 L31.4457174,4.77968633 Z M0,5.49663928 L1.68030551,5.49663928 L2.04037098,4.66019417 L2.76050191,4.66019417 L3.12056738,5.49663928 L6.36115657,5.49663928 L6.36115657,4.77968633 L6.72122204,5.49663928 L8.28150573,5.49663928 L8.64157119,4.77968633 L8.64157119,5.49663928 L16.5630115,5.49663928 L16.5630115,4.06273338 L16.6830333,4.06273338 C16.8209069,4.06129216 16.8523734,4.07115342 16.8030551,4.3017177 L16.8030551,5.49663928 L21.0038189,5.49663928 L21.0038189,5.13816281 C21.2967218,5.33529491 21.812677,5.49378784 22.4440807,5.49663928 L24.2444081,5.49663928 L24.6044735,4.66019417 L25.4446263,4.66019417 L25.8046918,5.49663928 L29.1653028,5.49663928 L29.1653028,4.66019417 L29.6453901,5.49663928 L32.2858702,5.49663928 L32.2858702,0 L29.6453901,0 L29.6453901,0.597460792 L29.2853246,0 L26.5248227,0 L26.5248227,0.597460792 L26.1647572,0 L22.5641026,0 C21.9398643,0 21.4006094,0.0847117372 21.0038189,0.358476475 L21.0038189,0 L18.4833606,0 L18.4833606,0.358476475 C18.1587152,0.0774643095 17.7809966,0 17.4031642,0 L8.16148391,0 L7.44135297,1.4339059 L6.84124386,0 L3.96072013,0 L3.96072013,0.597460792 L3.60065466,0 L1.20021822,0 L0,2.62882748 L0,5.49663928 Z M34.1249318,7.67289022 L32.3246045,7.67289022 C32.1989223,7.67289022 32.0827676,7.67904465 31.964539,7.79238237 C31.8835587,7.80236116 31.8445172,7.89319597 31.8445172,8.03136669 C31.8445172,8.15567095 31.9301176,8.25266019 32.0845608,8.27035101 C32.1560009,8.32776702 32.2648807,8.33745454 32.4446263,8.38984317 L32.9247136,8.38984317 C33.4711677,8.36275608 33.8219354,8.4476644 34.00491,8.62882748 C34.0747355,8.68358417 34.0981362,8.71595191 34.1249318,8.74831964 L34.1249318,7.67289022 Z M34.1249318,10.1822255 C33.893765,10.5511865 33.44332,10.7206152 32.8046918,10.7796863 L31.0043644,10.7796863 L31.0043644,9.82374907 L32.8046918,9.82374907 C33.0076456,9.87632097 33.1346973,9.85269355 33.1647572,9.82374907 C33.2774803,9.71793417 33.3237137,9.62947978 33.2847791,9.46527259 C33.3237137,9.40733457 33.2774803,9.3162681 33.1647572,9.22628827 C33.13842,9.20157421 33.0379075,9.17426615 32.9247136,9.22628827 C31.9786232,9.14422727 30.8638588,9.20157421 30.8843426,7.91187453 C30.8638588,7.38451908 31.2306034,6.78338538 32.2045827,6.83644511 L34.1249318,6.83644511 L34.1249318,6 L32.3246045,6 C31.8321174,6 31.4460389,6.12585458 31.1243863,6.35847647 L31.1243863,6 L28.603928,6 C28.1509813,6 27.6619885,6.10210843 27.4037098,6.35847647 L27.4037098,6 L22.7228587,6 L22.7228587,6.35847647 C22.4085579,6.05746567 21.7838672,6 21.5226405,6 L18.4020731,6 L18.4020731,6.35847647 C18.1341938,6.04108083 17.4828438,6 17.0818331,6 L13.6012002,6 L12.8810693,6.83644511 L12.1609384,6 L7,6 L7,11.4966393 L12.0409165,11.4966393 L12.8810693,10.6601942 L13.6012002,11.4966393 L16.7217676,11.4966393 L16.7217676,10.1822255 L16.9618112,10.1822255 C17.4250821,10.210548 17.9105925,10.1941631 18.2820513,10.0627334 L18.2820513,11.4966393 L20.9225314,11.4966393 L20.9225314,10.0627334 L21.0425532,10.0627334 C21.1789908,10.0618971 21.1944819,10.0683086 21.162575,10.1822255 L21.162575,11.4966393 L28.9639935,11.4966393 C29.4619673,11.493671 29.9778595,11.3687663 30.2842335,11.1381628 L30.2842335,11.4966393 L32.6846699,11.4966393 C33.2425351,11.493671 33.7436567,11.4225513 34.1249318,11.257655 L34.1249318,10.1822255 Z M30.4042553,8.74831964 C30.5444175,8.88981773 30.644299,9.12954434 30.644299,9.58476475 C30.644299,10.3837093 30.106002,10.7796863 29.0840153,10.7796863 L27.2836879,10.7796863 L27.2836879,9.94324122 L29.0840153,9.94324122 C29.3148008,9.93410302 29.4435477,9.91043953 29.5641026,9.82374907 C29.5900485,9.77547439 29.6372718,9.68688494 29.6841244,9.58476475 C29.6372718,9.46440057 29.5861837,9.37319506 29.5641026,9.34578043 C29.4472917,9.25832605 29.3463233,9.23097629 29.2040371,9.22628827 C28.2845847,9.20089155 27.1636661,9.25832605 27.1636661,8.03136669 C27.1636661,7.43849662 27.5286501,6.83644511 28.4839062,6.83644511 L30.4042553,6.83644511 L30.4042553,7.67289022 L28.7239498,7.67289022 C28.5210634,7.67572609 28.4078966,7.68214734 28.3638843,7.79238237 C28.2068052,7.81081013 28.1679155,7.90558301 28.1238407,8.03136669 C28.1679155,8.17943737 28.2569271,8.28063149 28.3638843,8.27035101 C28.4783088,8.35899451 28.5867654,8.36910203 28.7239498,8.38984317 L29.3240589,8.38984317 C29.784618,8.39526267 30.1412685,8.48373321 30.4042553,8.74831964 Z M21.6426623,8.27035101 C21.5623921,8.38377871 21.4069196,8.38984317 21.2825968,8.38984317 L20.0823786,8.38984317 L20.0823786,7.55339806 L21.2825968,7.55339806 C21.4069196,7.55339806 21.5743698,7.5567672 21.6426623,7.67289022 C21.8098912,7.68097615 21.8827059,7.79631304 21.8827059,7.91187453 C21.8827059,8.11503366 21.8098912,8.24339789 21.6426623,8.27035101 Z M22.2427714,8.98730396 C22.4990813,9.02459796 22.6726681,9.1633641 22.7228587,9.22628827 C22.8887488,9.47074238 22.9082502,9.65041301 22.9629023,9.94324122 L22.9629023,10.7796863 L22.0027278,10.7796863 L22.0027278,10.3017177 C21.9543654,10.049113 21.9774782,9.69785747 21.7626841,9.46527259 C21.6607606,9.37323747 21.4482913,9.33946748 21.0425532,9.34578043 L20.0823786,9.34578043 L20.0823786,10.7796863 L19.122204,10.7796863 L19.122204,6.83644511 L21.2825968,6.83644511 C21.8076232,6.83644511 22.1593712,6.8574919 22.4828151,7.07542942 C22.7735459,7.20220743 22.9629023,7.44834787 22.9629023,7.91187453 C22.962782,8.52756074 22.5378434,8.8487324 22.2427714,8.98730396 Z M23.5630115,6.83644511 L26.6835788,6.83644511 L26.6835788,7.67289022 L24.523186,7.67289022 L24.523186,8.38984317 L26.6835788,8.38984317 L26.6835788,9.22628827 L24.523186,9.22628827 L24.523186,9.94324122 L26.6835788,9.94324122 L26.6835788,10.7796863 L23.5630115,10.7796863 L23.5630115,6.83644511 Z M17.0818331,8.50933532 L15.8816148,8.50933532 L15.8816148,7.55339806 L17.0818331,7.55339806 C17.4464053,7.55339806 17.6819422,7.68538419 17.6819422,8.03136669 C17.6819422,8.3382967 17.4573164,8.50933532 17.0818331,8.50933532 Z M14.9214403,10.3017177 L13.4811784,8.74831964 L14.9214403,7.19492158 L14.9214403,10.3017177 Z M11.2007638,9.82374907 L8.80032733,9.82374907 L8.80032733,9.10679612 L10.9607201,9.10679612 L10.9607201,8.27035101 L8.80032733,8.27035101 L8.80032733,7.55339806 L11.2007638,7.55339806 L12.2809602,8.62882748 L11.2007638,9.82374907 Z M18.6421167,8.15085885 C18.6421167,9.23090408 17.8206751,9.45706791 16.9618112,9.46527259 L15.761593,9.46527259 L15.761593,10.7796863 L13.9612657,10.7796863 L12.7610475,9.46527259 L11.5608292,10.7796863 L7.84015276,10.7796863 L7.84015276,6.83644511 L11.6808511,6.83644511 L12.7610475,8.15085885 L13.9612657,6.83644511 L17.0818331,6.83644511 C17.7976083,6.83644511 18.6421167,7.04346468 18.6421167,8.15085885 Z" id="Shape" fill="#FFFFFF" fill-rule="nonzero"></path>
                        </g>
                    </g>
                </g>
            </g>
        </g>
    </g>
</svg>