<?xml version="1.0" encoding="UTF-8" standalone="no"?>
<svg width="174px" height="32px" viewBox="0 0 174 32" version="1.1" xmlns="http://www.w3.org/2000/svg" xmlns:xlink="http://www.w3.org/1999/xlink">
    <!-- Generator: Sketch 50.2 (55047) - http://www.bohemiancoding.com/sketch -->
    <title>Slice 1</title>
    <desc>Created with Sketch.</desc>
    <defs>
        <linearGradient x1="150%" y1="50%" x2="50.0000751%" y2="149.999925%" id="linearGradient-1">
            <stop stop-color="#083969" offset="0%"></stop>
            <stop stop-color="#007B9D" offset="49.1699%"></stop>
            <stop stop-color="#00A84A" offset="100%"></stop>
        </linearGradient>
        <rect id="path-2" x="0" y="0" width="31" height="32" rx="8"></rect>
    </defs>
    <g id="Page-1" stroke="none" stroke-width="1" fill="none" fill-rule="evenodd">
        <g id="carte-bancaire" transform="translate(142.000000, 2.000000)">
            <path d="M28,0.5 L4,0.5 C1.79086,0.5 0,2.29086 0,4.5 L0,20.5 C0,22.7091 1.79086,24.5 4,24.5 L28,24.5 C30.2091,24.5 32,22.7091 32,20.5 L32,4.5 C32,2.29086 30.2091,0.5 28,0.5 Z" id="Shape" fill="url(#linearGradient-1)" fill-rule="nonzero"></path>
            <path d="M25,10.56316 C25,11.56326 24.1992,12.37435 23.2107,12.37608 L23.2107,12.37804 L16.68951,12.37804 L16.68951,8.75 L23.2107,8.75 L23.2107,8.75034523 C24.1992,8.75195682 25,9.563048 25,10.56316 Z M25,14.41094 C25,15.41128 24.1992,16.22214 23.2107,16.22375 L23.2107,16.22606 L16.68951,16.22606 L16.68951,12.5979 L23.2107,12.5979 L23.2107,12.59813 C24.1992,12.59986 25,13.41084 25,14.41094 Z M11.77579,12.5979 L16.56399,12.5979 L16.56399,12.95188 C16.56399,14.77332 15.1044,16.25 13.30365,16.25 L10.26068,16.25 C8.45992,16.25 7,14.77332 7,12.95188 L7,12.0723 C7,10.25074 8.45992,8.7741737 10.26068,8.7741737 L13.30365,8.7741737 C15.1044,8.7741737 16.56399,10.25074 16.56399,12.0723 L16.56399,12.37804 L11.77579,12.37804 L11.77579,12.5979 Z" id="Shape" fill="#FFFFFF"></path>
        </g>
        <g id="cartasi" transform="translate(106.000000, 2.000000)">
            <path d="M4,0.5 L28,0.5 C30.2091,0.5 32,2.29086 32,4.5 L32,20.5 C32,22.7091 30.2091,24.5 28,24.5 L4,24.5 C1.79086,24.5 0,22.7091 0,20.5 L0,4.5 C0,2.29086 1.79086,0.5 4,0.5 Z" id="Shape" fill="#FF6E28"></path>
            <path d="M15.39708,6.5876698 C15.61009,6.5277493 15.83172,6.5 16.0526,6.5 L16.06809,6.5 C16.35485,6.50173033 16.6236,6.5506922 16.85562,6.634965 C17.04306,6.703089 17.20643,6.794348 17.33611,6.902461 C17.39009,6.947385 17.44029,6.997949 17.48437,7.053127 C17.51662,7.093437 17.54553,7.136183 17.57016,7.181171 C17.63704,7.303384 17.67175,7.441233 17.65405,7.58729 C17.64038,7.69969 17.59743,7.80697 17.53004,7.90599 C17.47877,7.98122 17.41346,8.05178 17.33611,8.11625 C17.27521,8.16701 17.20694,8.21405 17.13218,8.25673 C16.84794,8.41675 16.4725,8.5141 16.06091,8.5141 C15.17394,8.5141 14.45487,8.06216 14.45487,7.50474 C14.45487,7.20969 14.65629,6.944245 14.97737,6.759677 C15.00748,6.742566 15.03865,6.726224 15.07077,6.710587 C15.17085,6.661946 15.28025,6.620546 15.39708,6.5876698 Z M10.220517,12.62016 C10.220517,10.37163 14.14588,9.60818 16.14084,9.60818 C17.2691,9.60818 19.6599,9.85061 21.1082,11.11497 C21.2949,11.28198 21.4652,11.46648 21.6144,11.67021 C21.6539,11.72405 21.6918,11.77922 21.7281,11.83575 C21.8155,11.97167 21.8939,12.11548 21.9619,12.26775 C22.0219,12.40214 22.0058,12.49955 21.9499,12.55249 C21.9409,12.56101 21.9309,12.56838 21.92,12.5746 C21.8961,12.58818 21.8679,12.59607 21.8371,12.59799 C21.7464,12.60344 21.6646,12.56236 21.5965,12.50436 C21.5831,12.49071 21.57,12.47597 21.5572,12.46001 C21.4921,12.37843 21.4143,12.2989 21.3252,12.22167 C20.5847,11.55133 18.99689,11.05396 17.54213,10.98898 C15.95706,10.91816 14.53001,11.36074 14.53001,12.65233 L14.53001,14.31851 C14.53001,14.39906 14.52755,14.47411 14.52258,14.54383 C14.48957,15.00731 14.34597,15.23917 14.07666,15.33049 C13.95114,15.37311 13.79834,15.38516 13.61677,15.37599 C13.12362,15.35087 11.86838,15.10869 11.02045,14.37612 C11.0185,14.37446 11.01655,14.37279 11.01466,14.37112 C10.551866,13.95546 10.220517,13.38734 10.220517,12.62016 Z M17.68428,12.14919 C17.8161,12.00314 18.01078,11.94732 18.27392,11.94732 C18.30913,11.94732 18.34547,11.94828 18.38313,11.9502 C19.15819,11.98968 21.8158,12.5653 21.8158,14.73802 C21.8158,16.9865 17.89036,17.75 15.8954,17.75 C14.4783,17.75 11.06964,17.3675 10.0381211,15.05838 C9.880603,14.70591 10.247411,14.60818 10.478933,14.89817 C11.53861,16.22513 15.97381,17.0274 17.17097,15.55563 C17.1762,15.5496 17.18143,15.54339 17.18659,15.5373 C17.22564,15.49052 17.26142,15.44143 17.2936,15.38996 C17.42416,15.18117 17.49672,14.93309 17.49672,14.64182 L17.49672,12.97565 C17.49672,12.57613 17.55718,12.31325 17.68428,12.14919 Z" id="Shape" fill="#FFFFFF"></path>
        </g>
        <g id="amex" transform="translate(71.000000, 0.000000)">
            <path d="M3.62903,3.5 L27.371,3.5 C29.3701,3.5 31,5.13976 31,7.17391 L31,22.8261 C31,24.8602 29.3701,26.5 27.371,26.5 L3.62903,26.5 C1.62986,26.5 0,24.8602 0,22.8261 L0,7.17391 C0,5.13976 1.62986,3.5 3.62903,3.5 Z" id="Shape" fill="#0095FF" fill-rule="nonzero"></path>
            <g id="Clipped">
                <g id="Group-Clipped">
                    <mask id="mask-3" fill="white">
                        <use xlink:href="#path-2"></use>
                    </mask>
                    <g id="path-3"></g>
                    <g id="Group" mask="url(#mask-3)">
                        <g transform="translate(-1.937500, 9.000000)">
                            <g>
                                <g transform="translate(0.745938, 0.846000)" fill="#FFFFFF" fill-rule="nonzero" id="Shape">
                                    <path d="M3.02304965,2.98730396 L2.3254228,1.4339059 L1.7440671,2.98730396 L3.02304965,2.98730396 Z M16.7430442,2.27035101 C16.6628492,2.38734428 16.5148678,2.38984317 16.3942307,2.38984317 L15.2315194,2.38984317 L15.2315194,1.55339806 L16.3942307,1.55339806 C16.5113061,1.55339806 16.6768662,1.56044037 16.7430442,1.67289022 C16.9025149,1.6761842 16.9755864,1.7929503 16.9755864,1.91187453 C16.9755864,2.11882768 16.9060766,2.25126861 16.7430442,2.27035101 Z M24.882024,2.98730396 L24.1843972,1.4339059 L23.6030415,2.98730396 L24.882024,2.98730396 Z M9.99931805,4.77968633 L9.06914894,4.77968633 L9.06914894,1.67289022 L7.67389525,4.77968633 L6.85999728,4.77968633 L5.58101473,1.67289022 L5.58101473,4.77968633 L3.60440535,4.77968633 L3.25559193,3.94324122 L1.39525369,3.94324122 L1.04644026,4.77968633 L0,4.77968633 L1.62779596,0.836445108 L3.02304965,0.836445108 L4.65084561,4.54070202 L4.65084561,0.836445108 L6.16237043,0.836445108 L7.32508184,3.46527259 L8.48779324,0.836445108 L9.99931805,0.836445108 L9.99931805,4.77968633 Z M13.7199945,4.77968633 L10.6969449,4.77968633 L10.6969449,0.836445108 L13.7199945,0.836445108 L13.7199945,1.67289022 L11.627114,1.67289022 L11.627114,2.38984317 L13.7199945,2.38984317 L13.7199945,3.22628827 L11.627114,3.22628827 L11.627114,3.94324122 L13.7199945,3.94324122 L13.7199945,4.77968633 Z M18.1382979,1.91187453 C18.1382979,2.52713625 17.7259413,2.85195352 17.440671,2.98730396 C17.6883056,3.02798045 17.8614065,3.16666113 17.9057556,3.22628827 C18.0745977,3.4776817 18.0971557,3.65287607 18.1382979,4.06273338 L18.1382979,4.77968633 L17.2081288,4.77968633 L17.2081288,4.3017177 C17.1594186,4.04513069 17.1817428,3.7039001 16.9755864,3.46527259 C16.877852,3.37551471 16.6715567,3.34542362 16.3942307,3.34578043 L15.3477905,3.34578043 L15.3477905,4.77968633 L14.4176213,4.77968633 L14.4176213,0.836445108 L16.5105019,0.836445108 C17.021382,0.836445108 17.3701552,0.84917138 17.6732133,1.07542942 C17.9626256,1.20146312 18.1382979,1.45860517 18.1382979,1.91187453 Z M19.5335515,4.77968633 L18.6033824,4.77968633 L18.6033824,0.836445108 L19.5335515,0.836445108 L19.5335515,4.77968633 Z M30.4630387,4.77968633 L29.1840562,4.77968633 L27.4399891,1.79238237 L27.4399891,4.77968633 L25.5796509,4.77968633 L25.1145663,3.94324122 L23.254228,3.94324122 L22.9054147,4.77968633 L21.8589744,4.77968633 C21.3802594,4.77968633 20.8127383,4.67835191 20.4637207,4.3017177 C20.1672516,4.00873593 19.9986361,3.5552287 19.9986361,2.8678118 C19.9986361,2.253343 20.0994097,1.71872065 20.4637207,1.31441374 C20.793887,0.981548393 21.2607506,0.836445108 21.8589744,0.836445108 L22.7891434,0.836445108 L22.7891434,1.67289022 L21.8589744,1.67289022 C21.578432,1.6813744 21.388405,1.73251736 21.1613475,1.91187453 C21.0481485,2.08100312 20.9402764,2.39487817 20.9288052,2.8678118 C20.9402764,3.2306493 21.0224314,3.53524726 21.1613475,3.70425691 C21.3358073,3.89027456 21.5937924,3.93761153 21.8589744,3.94324122 L22.2077877,3.94324122 L23.6030415,0.836445108 L24.882024,0.836445108 L26.50982,4.54070202 L26.50982,0.836445108 L27.9050736,0.836445108 L29.5328696,3.58476475 L29.5328696,0.836445108 L30.4630387,0.836445108 L30.4630387,4.77968633 Z M0,5.49663928 L1.62779596,5.49663928 L1.97660939,4.66019417 L2.67423623,4.66019417 L3.02304965,5.49663928 L6.16237043,5.49663928 L6.16237043,4.77968633 L6.51118385,5.49663928 L8.02270868,5.49663928 L8.37152209,4.77968633 L8.37152209,5.49663928 L16.0454174,5.49663928 L16.0454174,4.06273338 L16.1616885,4.06273338 C16.2952536,4.06129216 16.3257367,4.07115342 16.2779596,4.3017177 L16.2779596,5.49663928 L20.3474496,5.49663928 L20.3474496,5.13816281 C20.6311992,5.33529491 21.1310308,5.49378784 21.7427032,5.49663928 L23.4867703,5.49663928 L23.8355837,4.66019417 L24.6494817,4.66019417 L24.9982952,5.49663928 L28.2538871,5.49663928 L28.2538871,4.66019417 L28.7189717,5.49663928 L31.2769368,5.49663928 L31.2769368,0 L28.7189717,0 L28.7189717,0.597460792 L28.3701582,0 L25.695922,0 L25.695922,0.597460792 L25.3471085,0 L21.8589744,0 C21.2542435,0 20.7318404,0.0847117372 20.3474496,0.358476475 L20.3474496,0 L17.9057556,0 L17.9057556,0.358476475 C17.5912554,0.0774643095 17.2253405,0 16.8593153,0 L7.90643754,0 L7.20881069,1.4339059 L6.62745499,0 L3.83694763,0 L3.83694763,0.597460792 L3.4881342,0 L1.1627114,0 L0,2.62882748 L0,5.49663928 Z M33.0585277,7.67289022 L31.3144606,7.67289022 C31.192706,7.67289022 31.0801811,7.67904465 30.9656472,7.79238237 C30.8871975,7.80236116 30.849376,7.89319597 30.849376,8.03136669 C30.849376,8.15567095 30.9323014,8.25266019 31.0819183,8.27035101 C31.1511259,8.32776702 31.2566032,8.33745454 31.4307317,8.38984317 L31.8958163,8.38984317 C32.4251937,8.36275608 32.7649999,8.4476644 32.9422566,8.62882748 C33.0099,8.68358417 33.0325694,8.71595191 33.0585277,8.74831964 L33.0585277,7.67289022 Z M33.0585277,10.1822255 C32.8345848,10.5511865 32.3982163,10.7206152 31.7795452,10.7796863 L30.035478,10.7796863 L30.035478,9.82374907 L31.7795452,9.82374907 C31.9761567,9.87632097 32.099238,9.85269355 32.1283585,9.82374907 C32.237559,9.71793417 32.2823476,9.62947978 32.2446298,9.46527259 C32.2823476,9.40733457 32.237559,9.3162681 32.1283585,9.22628827 C32.1028444,9.20157421 32.0054729,9.17426615 31.8958163,9.22628827 C30.9792912,9.14422727 29.8993632,9.20157421 29.9192069,7.91187453 C29.8993632,7.38451908 30.254647,6.78338538 31.1981895,6.83644511 L33.0585277,6.83644511 L33.0585277,6 L31.3144606,6 C30.8373637,6 30.4633502,6.12585458 30.1517492,6.35847647 L30.1517492,6 L27.7100553,6 C27.2712631,6 26.7975514,6.10210843 26.5473439,6.35847647 L26.5473439,6 L22.0127694,6 L22.0127694,6.35847647 C21.7082905,6.05746567 21.1031214,6 20.850058,6 L17.8270083,6 L17.8270083,6.35847647 C17.5675002,6.04108083 16.9365049,6 16.5480258,6 L13.1761627,6 L12.4785359,6.83644511 L11.7809091,6 L6.78125,6 L6.78125,11.4966393 L11.6646379,11.4966393 L12.4785359,10.6601942 L13.1761627,11.4966393 L16.1992124,11.4966393 L16.1992124,10.1822255 L16.4317546,10.1822255 C16.8805483,10.210548 17.3508865,10.1941631 17.7107372,10.0627334 L17.7107372,11.4966393 L20.2687023,11.4966393 L20.2687023,10.0627334 L20.3849734,10.0627334 C20.5171473,10.0618971 20.5321543,10.0683086 20.5012445,10.1822255 L20.5012445,11.4966393 L28.0588687,11.4966393 C28.5412808,11.493671 29.0410514,11.3687663 29.3378512,11.1381628 L29.3378512,11.4966393 L31.663274,11.4966393 C32.2037059,11.493671 32.6891674,11.4225513 33.0585277,11.257655 L33.0585277,10.1822255 Z M29.4541223,8.74831964 C29.5899045,8.88981773 29.6866647,9.12954434 29.6866647,9.58476475 C29.6866647,10.3837093 29.1651894,10.7796863 28.1751398,10.7796863 L26.4310727,10.7796863 L26.4310727,9.94324122 L28.1751398,9.94324122 C28.3987133,9.93410302 28.5234368,9.91043953 28.6402244,9.82374907 C28.6653595,9.77547439 28.7111071,9.68688494 28.7564955,9.58476475 C28.7111071,9.46440057 28.6616155,9.37319506 28.6402244,9.34578043 C28.5270638,9.25832605 28.4292507,9.23097629 28.2914109,9.22628827 C27.4006914,9.20089155 26.3148015,9.25832605 26.3148015,8.03136669 C26.3148015,7.43849662 26.6683798,6.83644511 27.5937841,6.83644511 L29.4541223,6.83644511 L29.4541223,7.67289022 L27.8263264,7.67289022 C27.6297802,7.67572609 27.5201498,7.68214734 27.4775129,7.79238237 C27.3253425,7.81081013 27.2876681,7.90558301 27.2449707,8.03136669 C27.2876681,8.17943737 27.3738981,8.28063149 27.4775129,8.27035101 C27.5883616,8.35899451 27.693429,8.36910203 27.8263264,8.38984317 L28.4076821,8.38984317 C28.8538487,8.39526267 29.1993539,8.48373321 29.4541223,8.74831964 Z M20.9663291,8.27035101 C20.8885673,8.38377871 20.7379534,8.38984317 20.6175157,8.38984317 L19.4548043,8.38984317 L19.4548043,7.55339806 L20.6175157,7.55339806 C20.7379534,7.55339806 20.9001707,7.5567672 20.9663291,7.67289022 C21.1283321,7.68097615 21.1988713,7.79631304 21.1988713,7.91187453 C21.1988713,8.11503366 21.1283321,8.24339789 20.9663291,8.27035101 Z M21.5476848,8.98730396 C21.795985,9.02459796 21.9641472,9.1633641 22.0127694,9.22628827 C22.1734754,9.47074238 22.1923674,9.65041301 22.2453116,9.94324122 L22.2453116,10.7796863 L21.3151426,10.7796863 L21.3151426,10.3017177 C21.2682915,10.049113 21.290682,9.69785747 21.0826002,9.46527259 C20.9838618,9.37323747 20.7780322,9.33946748 20.3849734,9.34578043 L19.4548043,9.34578043 L19.4548043,10.7796863 L18.5246351,10.7796863 L18.5246351,6.83644511 L20.6175156,6.83644511 C21.126135,6.83644511 21.4668908,6.8574919 21.7802271,7.07542942 C22.0618726,7.20220743 22.2453116,7.44834787 22.2453116,7.91187453 C22.2451951,8.52756074 21.8335358,8.8487324 21.5476848,8.98730396 Z M22.8266674,6.83644511 L25.849717,6.83644511 L25.849717,7.67289022 L23.7568364,7.67289022 L23.7568364,8.38984317 L25.849717,8.38984317 L25.849717,9.22628827 L23.7568364,9.22628827 L23.7568364,9.94324122 L25.849717,9.94324122 L25.849717,10.7796863 L22.8266674,10.7796863 L22.8266674,6.83644511 Z M16.5480258,8.50933532 L15.3853143,8.50933532 L15.3853143,7.55339806 L16.5480258,7.55339806 C16.9012051,7.55339806 17.1293815,7.68538419 17.1293815,8.03136669 C17.1293815,8.3382967 16.9117753,8.50933532 16.5480258,8.50933532 Z M14.4551453,10.3017177 L13.0598916,8.74831964 L14.4551453,7.19492158 L14.4551453,10.3017177 Z M10.8507399,9.82374907 L8.5253171,9.82374907 L8.5253171,9.10679612 L10.6181976,9.10679612 L10.6181976,8.27035101 L8.5253171,8.27035101 L8.5253171,7.55339806 L10.8507399,7.55339806 L11.8971802,8.62882748 L10.8507399,9.82374907 Z M18.0595506,8.15085885 C18.0595506,9.23090408 17.263779,9.45706791 16.4317546,9.46527259 L15.2690432,9.46527259 L15.2690432,10.7796863 L13.5249761,10.7796863 L12.3622648,9.46527259 L11.1995533,10.7796863 L7.59514799,10.7796863 L7.59514799,6.83644511 L11.3158245,6.83644511 L12.3622648,8.15085885 L13.5249761,6.83644511 L16.5480258,6.83644511 C17.241433,6.83644511 18.0595506,7.04346468 18.0595506,8.15085885 Z"></path>
                                </g>
                            </g>
                        </g>
                    </g>
                </g>
            </g>
        </g>
        <g id="mastercard" transform="translate(36.000000, 3.000000)">
            <path d="M3.62903,0.5 L27.371,0.5 C29.3701,0.5 31,2.13976 31,4.17391 L31,19.8261 C31,21.8602 29.3701,23.5 27.371,23.5 L3.62903,23.5 C1.62986,23.5 0,21.8602 0,19.8261 L0,4.17391 C0,2.13976 1.62986,0.5 3.62903,0.5 Z" id="Shape" stroke="#E5E5E5" fill="#FFFFFF" fill-rule="nonzero"></path>
            <path d="M12.40323,17.21739 C15.25373,17.21739 17.56454,14.88147 17.56454,11.99998 C17.56454,9.1185 15.25373,6.78259 12.40323,6.78259 C9.55273,6.78259 7.24194,9.1185 7.24194,11.99998 C7.24194,14.88147 9.55273,17.21739 12.40323,17.21739 Z" id="Shape" fill="#E7001A" fill-rule="nonzero"></path>
            <path d="M18.59679,17.21739 C21.44729,17.21739 23.7581,14.88147 23.7581,11.99998 C23.7581,9.1185 21.44729,6.78259 18.59679,6.78259 C15.74629,6.78259 13.4355,9.1185 13.4355,11.99998 C13.4355,14.88147 15.74629,17.21739 18.59679,17.21739 Z" id="Shape" fill="#F49B1C" fill-rule="nonzero"></path>
            <path d="M15.50002,7.82568 C16.75364,8.777547 17.56453,10.29303 17.56453,11.99997 C17.56453,13.70692 16.75364,15.2224 15.50002,16.17427 C14.246394,15.2224 13.4355,13.70692 13.4355,11.99997 C13.4355,10.29303 14.246394,8.777547 15.50002,7.82568 Z" id="Shape" fill="#E7001A" opacity="0.3"></path>
        </g>
        <g id="visa" transform="translate(-0.000000, 2.000000)" fill-rule="nonzero">
            <path d="M28,0.5 L4,0.5 C1.79086,0.5 0,2.29086 0,4.5 L0,20.5 C0,22.7091 1.79086,24.5 4,24.5 L28,24.5 C30.2091,24.5 32,22.7091 32,20.5 L32,4.5 C32,2.29086 30.2091,0.5 28,0.5 Z" id="Shape" fill="#27337A"></path>
            <path d="M16.30917,13.58183 C16.2989,12.74605 17.0307,12.27962 17.5821,12.00233 C18.1485,11.71778 18.3388,11.53534 18.3366,11.28092 C18.3323,10.89148 17.8848,10.71964 17.4659,10.71294 C16.73509,10.70123 16.31025,10.91659 15.97243,11.0795 L15.70921,9.807979 C16.04811,9.646736 16.67563,9.50613725 17.3264,9.5 C18.8539,9.5 19.8533,10.278315 19.8587,11.48512 C19.8646,13.01664 17.8064,13.10145 17.8204,13.78603 C17.8253,13.99358 18.0172,14.21508 18.4377,14.27143 C18.6458,14.29989 19.2203,14.32165 19.8717,14.012 L20.1273,15.24224 C19.7771,15.37391 19.3268,15.5 18.7663,15.5 C17.3286,15.5 16.31728,14.71108 16.30917,13.58183 Z M22.5839,15.39399 C22.305,15.39399 22.0699,15.22606 21.965,14.96829 L19.783,9.5903854 L21.3094,9.5903854 L21.6132,10.456853 L23.4785,10.456853 L23.6547,9.5903854 L25,9.5903854 L23.826,15.39399 L22.5839,15.39399 Z M22.7974,13.8262 L23.2379,11.64692 L22.0315,11.64692 L22.7974,13.8262 Z M14.45847,15.39399 L13.2553,9.5903854 L14.70981,9.5903854 L15.91244,15.39399 L14.45847,15.39399 Z M12.30671,15.39399 L10.79275,11.44384 L10.18035,14.80258 C10.10846,15.17751 9.82469,15.39399 9.50958,15.39399 L7.0345926,15.39399 L7,15.2255 C7.508078,15.11168 8.08534,14.92812 8.43505,14.73173 C8.64909,14.61177 8.71017,14.50688 8.78043,14.22178 L9.94036,9.5903854 L11.47757,9.5903854 L13.83418,15.39399 L12.30671,15.39399 Z" id="Shape" fill="#FFFFFF" transform="translate(16.000000, 12.500000) scale(-1, 1) rotate(-180.000000) translate(-16.000000, -12.500000) "></path>
        </g>
    </g>
</svg>