<svg xmlns="http://www.w3.org/2000/svg" width="32" height="32" viewBox="0 0 32 32">
  <g fill="none" fill-rule="evenodd">
    <rect width="32" height="32" fill="#DE378C" rx="8"/>
    <g fill="#FFF" transform="translate(10 6)">
      <path d="M1.597968,13.9244737 C1.597968,13.9244737 1.457712,13.2506563 1.457712,12.8070274 C1.457712,12.3633493 1.59048,11.6826356 1.59048,11.6826356 C2.079264,9.64980444 3.870432,8.13606741 6.000048,8.13606741 C8.504688,8.13606741 10.56,10.2255467 10.56,12.7958948 L10.56,13.9262963 L3.90552,13.9262963 C4.298496,14.7144444 5.093232,15.1577778 6.009744,15.1577778 L11.991792,15.1577778 L12,8.49206407 C12,7.49825852 11.207712,6.68518519 10.239312,6.68518519 L1.760688,6.68518519 C0.792336,6.68518519 0,7.47362889 0,8.46743444 L0,17.1684915 C0,18.162297 0.792336,19 1.760688,19 L10.239312,19 C11.1084,19 11.833344,18.3596296 11.97336,17.5222222 L6.009744,17.5222222 C3.876624,17.5222222 2.083248,15.9623293 1.597968,13.9244737 Z"/>
      <path d="M5.82852444 10.2037037C4.93484994 10.2037037 4.15765383 10.818771 3.77142857 11.6111111L7.88571429 11.6111111C7.49948903 10.818771 6.72229292 10.2037037 5.82852444 10.2037037M9.6 3.90500527C9.6 1.74832017 7.91102507 0 5.82761971 0 3.77872171 0 2.11232741 1.69114007 2.05759648 3.79839916 2.0567008 3.80730384 2.05740792 3.8159584 2.05740792 3.82511322L2.05740792 4.99863086C2.05740792 5.13900474 2.16512556 5.27777778 2.30070365 5.27777778L3.68858774 5.27777778C3.82416583 5.27777778 3.94305594 5.13900474 3.94305594 4.99863086L3.94305594 3.90500527C3.94305594 2.82803844 4.78829766 1.95182728 5.82870396 1.95182728 6.86911025 1.95182728 7.71435198 2.82803844 7.71435198 3.90500527L7.71435198 4.99863086C7.71435198 5.13900474 7.8243324 5.27777778 7.95991049 5.27777778L9.34784172 5.27777778C9.48341981 5.27777778 9.6 5.13900474 9.6 4.99863086L9.6 3.90500527"/>
    </g>
  </g>
</svg>
