<svg width="32" height="24" viewBox="0 0 32 24" fill="none" xmlns="http://www.w3.org/2000/svg">
<path d="M4.12903 0.5H27.871C29.8701 0.5 31.5 2.13976 31.5 4.17391V19.8261C31.5 21.8602 29.8701 23.5 27.871 23.5H4.12903C2.12986 23.5 0.5 21.8602 0.5 19.8261V4.17391C0.5 2.13976 2.12986 0.5 4.12903 0.5Z" fill="white" stroke="#E5E5E5"/>
<path d="M15.4839 4.84686C15.4738 4.86696 15.4738 4.86696 15.4637 4.87702C14.455 5.86217 13.4664 6.85738 12.4375 7.81238C11.6507 8.54622 10.7328 9.09912 9.68372 9.4007C7.54523 10.0039 5.55805 9.66206 3.74236 8.37533C3.12704 7.94306 2.59241 7.43038 2.05779 6.90765C1.38195 6.24417 0.716192 5.5807 0.0504357 4.91723C0.0302613 4.89712 0.0201744 4.87702 0 4.85691C0.0100872 4.83681 0.0201747 4.82675 0.0403492 4.80665C0.928024 3.93207 1.79552 3.05749 2.69329 2.19297C3.42965 1.47923 4.2568 0.876073 5.22518 0.504127C7.47462 -0.360399 9.60303 -0.109083 11.6104 1.22792C12.3064 1.69034 12.9015 2.26334 13.4967 2.84639C14.1423 3.4797 14.7778 4.12307 15.4133 4.75638C15.4233 4.78654 15.4536 4.8167 15.4839 4.84686ZM1.8964 4.84686C1.91657 4.86696 1.93674 4.89712 1.95692 4.91723C2.42093 5.37965 2.87486 5.84207 3.33887 6.29444C3.80288 6.75686 4.27698 7.20922 4.82169 7.58117C6.25407 8.54622 7.79742 8.75733 9.43154 8.20443C10.2587 7.92296 10.9547 7.42033 11.5801 6.81717C12.2358 6.18386 12.8814 5.54049 13.527 4.89712C13.5471 4.87702 13.5572 4.85691 13.5673 4.83681C13.5471 4.8167 13.527 4.7966 13.5169 4.77649C13.0629 4.32412 12.6191 3.8617 12.1551 3.41939C11.7314 3.01728 11.3078 2.60512 10.8438 2.25328C9.49207 1.22791 7.97898 0.936389 6.33477 1.3787C5.43701 1.61997 4.69055 2.11255 4.0248 2.73581C3.30861 3.40933 2.62267 4.10296 1.92666 4.78654C1.92666 4.8167 1.91657 4.82675 1.8964 4.84686Z" transform="translate(8.25806 7.30435)" fill="black"/>
</svg>
