<svg xmlns="http://www.w3.org/2000/svg" width="32" height="32" viewBox="0 0 32 32">
  <g fill="none" fill-rule="evenodd">
    <rect width="32" height="32" fill="#EB008B" rx="8"/>
    <g fill="#FFF" transform="translate(5 5)">
      <g transform="translate(7 8)">
        <polygon points="0 0 0 5.399 1.405 5.399 1.405 3.279 2.926 3.279 2.926 2.134 1.405 2.134 1.405 1.229 3.876 1.229 3.876 0"/>
        <path d="M6.59488372,4.42976744 C5.93395349,4.42976744 5.35348837,3.71813953 5.35348837,2.82883721 C5.35348837,1.94325581 5.93395349,1.22232558 6.59488372,1.22232558 C7.0827907,1.22232558 7.5055814,1.61627907 7.69813953,2.18139535 L9.02372093,1.8 C8.63534884,0.74372093 7.69813953,0 6.59488372,0 C5.16046512,0 4,1.26930233 4,2.82883721 C4,4.38465116 5.16046512,5.64883721 6.59488372,5.64883721 C7.69813953,5.64883721 8.63534884,4.90093023 9.02372093,3.85162791 L7.69813953,3.47627907 C7.5055814,4.02930233 7.0827907,4.42976744 6.59488372,4.42976744"/>
      </g>
      <path d="M0,10.4761905 C0,17.0685049 4.94310259,22 11.5238095,22 C17.0642267,22 22,17.0685049 22,10.4761905 C22,4.9325428 17.0642267,0 11.5238095,0 C4.94310259,0 0,4.9325428 0,10.4761905 M2.0952381,10.4761905 C2.0952381,6.09065209 6.09215026,2.0952381 10.4761905,2.0952381 C15.901038,2.0952381 19.9047619,6.09065209 19.9047619,10.4761905 C19.9047619,15.9020092 15.901038,19.9047619 10.4761905,19.9047619 C6.09215026,19.9047619 2.0952381,15.9020092 2.0952381,10.4761905"/>
    </g>
  </g>
</svg>
