<?xml version="1.0" encoding="UTF-8" standalone="no"?>
<svg width="32px" height="24px" viewBox="0 0 32 24" version="1.1" xmlns="http://www.w3.org/2000/svg" xmlns:xlink="http://www.w3.org/1999/xlink">
    <!-- Generator: Sketch 50.2 (55047) - http://www.bohemiancoding.com/sketch -->
    <title>Slice 1</title>
    <desc>Created with Sketch.</desc>
    <defs></defs>
    <g id="Page-1" stroke="none" stroke-width="1" fill="none" fill-rule="evenodd">
        <g id="yourgift" fill="#007AFF" fill-rule="nonzero">
            <path d="M28,0 L4,0 C1.79086,0 0,1.79086 0,4 L0,20 C0,22.2091 1.79086,24 4,24 L28,24 C30.2091,24 32,22.2091 32,20 L32,4 C32,1.79086 30.2091,0 28,0 Z" id="Shape" style="mix-blend-mode: overlay;"></path>
        </g>
        <g id="giftcard" transform="translate(-0.000000, 5.000000)" fill-rule="nonzero">
            <g id="giftcard-d-link" transform="translate(0.000000, 3.000000)" fill="#000000">
                <rect id="giftcard-d" x="0" y="0" width="32" height="3"></rect>
            </g>
            <g id="giftcard-d-link" transform="translate(0.000000, 3.000000)" fill="#FFFFFF">
                <rect id="giftcard-d" x="0" y="0" width="32" height="3"></rect>
            </g>
            <g id="giftcard-f-link" transform="translate(11.000000, 5.000000)" fill="#000000">
                <polygon id="giftcard-f" points="0 0 5 0 5 7 2.5 5 0 7"></polygon>
            </g>
            <g id="giftcard-f-link" transform="translate(11.000000, 5.000000)" fill="#FFFFFF">
                <polygon id="giftcard-f" points="0 0 5 0 5 7 2.5 5 0 7"></polygon>
            </g>
            <g id="Group" transform="translate(15.000000, 0.000000)">
                <g id="giftcard-h-link" fill="#000000">
                    <path d="M0.4811541,2.5730029 L4.4811541,0.14527849 C4.9532846,-0.14127216 5.5683172,0.00916999 5.8548678,0.48130045 C5.9498006,0.63771488 6,0.81717716 6,1.0001463 L6,8.256899 C6,8.8091837 5.5522847,9.256899 5,9.256899 C4.8612597,9.256899 4.7240373,9.228029 4.5970586,9.1721248 L0.5970586,7.4110671 C0.2342112,7.2513183 0,6.892298 0,6.4958413 L0,3.4278707 C0,3.0784184 0.1824186,2.7543147 0.4811541,2.5730029 Z" id="giftcard-h"></path>
                </g>
                <g id="giftcard-h-link" fill="#FFFFFF">
                    <path d="M0.4811541,2.5730029 L4.4811541,0.14527849 C4.9532846,-0.14127216 5.5683172,0.00916999 5.8548678,0.48130045 C5.9498006,0.63771488 6,0.81717716 6,1.0001463 L6,8.256899 C6,8.8091837 5.5522847,9.256899 5,9.256899 C4.8612597,9.256899 4.7240373,9.228029 4.5970586,9.1721248 L0.5970586,7.4110671 C0.2342112,7.2513183 0,6.892298 0,6.4958413 L0,3.4278707 C0,3.0784184 0.1824186,2.7543147 0.4811541,2.5730029 Z" id="giftcard-h"></path>
                </g>
            </g>
            <g id="Group" transform="translate(9.000000, 5.000000) scale(-1, 1) translate(-9.000000, -5.000000) translate(6.000000, 0.000000)">
                <g id="giftcard-j-link" fill="#000000">
                    <path d="M0.48115414,2.5730029 L4.4811541,0.14527849 C4.9532846,-0.14127216 5.5683172,0.00916999 5.8548678,0.48130045 C5.9498006,0.63771488 6,0.81717716 6,1.0001463 L6,8.256899 C6,8.8091837 5.5522847,9.256899 5,9.256899 C4.8612597,9.256899 4.7240373,9.228029 4.5970586,9.1721248 L0.59705864,7.4110671 C0.23421121,7.2513183 0,6.892298 0,6.4958413 L0,3.4278707 C0,3.0784184 0.18241861,2.7543147 0.48115414,2.5730029 Z" id="giftcard-j"></path>
                </g>
                <g id="giftcard-j-link" fill="#FFFFFF">
                    <path d="M0.48115414,2.5730029 L4.4811541,0.14527849 C4.9532846,-0.14127216 5.5683172,0.00916999 5.8548678,0.48130045 C5.9498006,0.63771488 6,0.81717716 6,1.0001463 L6,8.256899 C6,8.8091837 5.5522847,9.256899 5,9.256899 C4.8612597,9.256899 4.7240373,9.228029 4.5970586,9.1721248 L0.59705864,7.4110671 C0.23421121,7.2513183 0,6.892298 0,6.4958413 L0,3.4278707 C0,3.0784184 0.18241861,2.7543147 0.48115414,2.5730029 Z" id="giftcard-j"></path>
                </g>
            </g>
            <g id="Group" transform="translate(10.000000, 1.000000)">
                <g id="giftcard-l-link" fill="#000000">
                    <circle id="giftcard-l" cx="3.5" cy="3.5" r="3.5"></circle>
                </g>
                <g id="giftcard-l-link" fill="#FFFFFF">
                    <circle id="giftcard-l" cx="3.5" cy="3.5" r="3.5"></circle>
                </g>
            </g>
        </g>
    </g>
</svg>