<svg xmlns="http://www.w3.org/2000/svg" width="32" height="32" viewBox="0 0 32 32">
  <g fill="none" fill-rule="evenodd">
    <rect width="32" height="32" fill="#0F4CA1" rx="8"/>
    <path fill="#FFFFFE" d="M17 23L20 23 20 18.0490243 20 18.0490243C20.5814393 19.1337736 21.8549312 19.5355988 22.9316707 19.5355988 25.5813229 19.5355988 27 17.2960492 27 14.6013162 27 12.3972392 25.6505835 10 23.1886331 10 21.7868347 10 20.6151966 10.5774002 20 11.8547156L20 10 17 10 17 23zM23.8209993 14.6716654C23.8209993 16.1242576 23.1199546 17.1210704 21.95824 17.1210704 20.9321363 17.1210704 20.0765649 16.1242576 20.0765649 14.7938823 20.0765649 13.4295247 20.8294095 12.4145284 21.95824 12.4145284 23.1542939 12.4145284 23.8209993 13.463805 23.8209993 14.6716654L23.8209993 14.6716654zM15 10.2065122L12.1744262 10.2065122 12.1744262 11.824582 12.1404968 11.824582C11.4816782 10.7230859 10.4068567 10 9.07269723 10 6.26541571 10 5 11.9967732 5 14.6658844 5 17.3185685 6.54245589 19.1765914 9.02106568 19.1765914 10.2687791 19.1765914 11.3084912 18.6958052 12.0531658 17.6441772L12.0882752 17.6441772 12.0882752 18.1273101C12.0882752 19.8835436 11.118192 20.7268994 9.31551307 20.7268994 8.01557798 20.7268994 7.21838674 20.4517454 6.26541571 19.9867996L6.10904585 22.4320915C6.83719832 22.6893517 8.06779961 23 9.55803387 23 13.1976161 23 15 21.8113816 15 18.1273101L15 10.2065122zM8.22357939 14.613963C8.22357939 13.3919038 8.83017643 12.3760634 9.99144391 12.3760634 11.3949372 12.3760634 11.984422 13.4942798 11.984422 14.4933998 11.984422 15.8715166 11.1001947 16.8011147 9.99144391 16.8011147 9.05558506 16.8011147 8.22357939 16.0082136 8.22357939 14.613963L8.22357939 14.613963z"/>
  </g>
</svg>
