<svg width="32" height="24" viewBox="0 0 32 24" fill="none" xmlns="http://www.w3.org/2000/svg">
<path d="M4.12903 0.5H27.871C29.8701 0.5 31.5 2.13976 31.5 4.17391V19.8261C31.5 21.8602 29.8701 23.5 27.871 23.5H4.12903C2.12986 23.5 0.5 21.8602 0.5 19.8261V4.17391C0.5 2.13976 2.12986 0.5 4.12903 0.5Z" fill="white" stroke="#E5E5E5"/>
<path d="M5.41935 0H0V5.47826H5.41935V0Z" transform="translate(7.0968 3)" stroke="#333333" stroke-width="0.75"/>
<path d="M3.09677 0H0V3.13043H3.09677V0Z" transform="translate(8.25806 4.17392)" fill="#333333"/>
<path d="M5.41935 0H0V5.47826H5.41935V0Z" transform="translate(19.4839 3)" stroke="#333333" stroke-width="0.75"/>
<path d="M3.09677 0H0V3.13043H3.09677V0Z" transform="translate(20.6451 4.17392)" fill="#333333"/>
<path d="M5.41935 0H0V5.47826H5.41935V0Z" transform="translate(19.4839 15.5217)" stroke="#333333" stroke-width="0.75"/>
<path d="M3.09677 0H0V3.13043H3.09677V0Z" transform="translate(20.6451 16.6956)" fill="#333333"/>
<path d="M5.41935 0H0V5.47826H5.41935V0Z" transform="translate(7.0968 15.5217)" stroke="#333333" stroke-width="0.75"/>
<path d="M3.09677 0H0V3.13043H3.09677V0Z" transform="translate(8.25806 16.6956)" fill="#333333"/>
<path d="M1.03226 0H0V18H1.03226V0Z" transform="translate(15.6129 3)" stroke="#333333" stroke-width="0.75"/>
<path d="M18.5806 0H0V1.56522H18.5806V0Z" transform="translate(6.70966 11.2174)" fill="#333333"/>
<path fill-rule="evenodd" clip-rule="evenodd" d="M0.290417 9.60309e-05C5.47813 0.00180678 5.47813 0.00180651 6.52027 0.00220125C7.89735 0.0247071 9.07019 0.425115 9.91332 1.17044C10.3959 1.59703 10.7681 2.13246 11.0189 2.75945C11.2781 3.40762 11.4085 4.1579 11.4085 4.98901C11.4085 6.73284 10.9056 8.05822 9.90346 8.9063C9.08398 9.59982 7.94361 9.95674 6.51558 9.97793H0V0L0.290417 9.60309e-05Z" transform="translate(10.2903 7.0112)" fill="white" stroke="white" stroke-width="0.5625"/>
<path fill-rule="evenodd" clip-rule="evenodd" d="M0 2.86581H1.73511V0H0V2.86581Z" transform="translate(11.7842 12.5907)" fill="#0A0B09"/>
<path fill-rule="evenodd" clip-rule="evenodd" d="M1.96433 0.976962C1.96433 1.51649 1.52457 1.95412 0.982166 1.95412C0.439783 1.95412 0 1.51649 0 0.976962C0 0.437434 0.439783 0 0.982166 0C1.52457 0 1.96433 0.437434 1.96433 0.976962Z" transform="translate(11.686 10.1809)" fill="#0A0B09"/>
<path fill-rule="evenodd" clip-rule="evenodd" d="M6.10746 0.623711C7.31394 0.623711 8.31947 0.94886 9.01535 1.56402C9.80199 2.2594 10.2009 3.31296 10.2009 4.69544C10.2009 7.43528 8.86189 8.76717 6.10746 8.76717C5.89339 8.76717 1.1775 8.76717 0.627033 8.76717C0.627033 8.20843 0.627033 1.18243 0.627033 0.623711C1.1775 0.623711 5.89339 0.623711 6.10746 0.623711ZM6.22525 0H0V9.39088H6.22525V9.3891C7.58507 9.37067 8.66231 9.03465 9.42678 8.3877C10.3565 7.6009 10.8279 6.35863 10.8279 4.69544C10.8279 3.9004 10.7039 3.18727 10.4594 2.57587C10.2254 1.99099 9.87973 1.4937 9.43188 1.09778C8.64311 0.400511 7.53589 0.0234869 6.22525 0.0020669C6.22525 0.00204908 6.22525 0 6.22525 0Z" transform="translate(10.5806 7.30475)" fill="#0A0B09"/>
<path fill-rule="evenodd" clip-rule="evenodd" d="M6.10746 0.623711C7.31394 0.623711 8.31947 0.94886 9.01535 1.56402C9.80199 2.2594 10.2009 3.31296 10.2009 4.69544C10.2009 7.43528 8.86189 8.76717 6.10746 8.76717C5.89339 8.76717 1.1775 8.76717 0.627033 8.76717C0.627033 8.20843 0.627033 1.18243 0.627033 0.623711C1.1775 0.623711 5.89339 0.623711 6.10746 0.623711ZM6.22525 0H0V9.39088H6.22525V9.3891C7.58507 9.37067 8.66231 9.03465 9.42678 8.3877C10.3565 7.6009 10.8279 6.35863 10.8279 4.69544C10.8279 3.9004 10.7039 3.18727 10.4594 2.57587C10.2254 1.99099 9.87973 1.4937 9.43188 1.09778C8.64311 0.400511 7.53589 0.0234869 6.22525 0.0020669C6.22525 0.00204908 6.22525 0 6.22525 0Z" transform="translate(10.5806 7.30475)" fill="#0A0B09"/>
<path fill-rule="evenodd" clip-rule="evenodd" d="M2.20087 6.77191H0V0H2.20087H2.11204C3.94749 0 5.9012 0.720528 5.9012 3.39486C5.9012 6.2221 3.94749 6.77191 2.11204 6.77191H2.20087Z" transform="translate(14.316 8.68781)" fill="#CD0067"/>
<path fill-rule="evenodd" clip-rule="evenodd" d="M0.330304 0.276215V1.35322H0.577767C0.670317 1.35322 0.737122 1.34805 0.778183 1.3377C0.831929 1.32439 0.876521 1.30183 0.911993 1.27004C0.947429 1.23825 0.97638 1.18592 0.998774 1.11309C1.02117 1.04026 1.03237 0.940984 1.03237 0.815279C1.03237 0.689575 1.02117 0.593078 0.998774 0.52577C0.97638 0.458499 0.945028 0.406001 0.904719 0.368293C0.86441 0.330567 0.813262 0.305066 0.751311 0.291737C0.705018 0.281401 0.614331 0.276215 0.479232 0.276215H0.330304ZM0 0H0.604263C0.740544 0 0.844417 0.0103721 0.915916 0.031115C1.01196 0.0592711 1.09424 0.109292 1.16275 0.181179C1.23126 0.253048 1.28338 0.341045 1.31913 0.445151C1.35487 0.549258 1.37275 0.677635 1.37275 0.830266C1.37275 0.964399 1.35599 1.07998 1.32248 1.17705C1.28153 1.29563 1.22307 1.39157 1.14713 1.46494C1.08978 1.52052 1.01234 1.56386 0.914787 1.59497C0.8418 1.61796 0.74427 1.62944 0.622142 1.62944H0V0Z" transform="translate(13.9366 10.4359)" fill="#FFFFFE"/>
<path fill-rule="evenodd" clip-rule="evenodd" d="M0 1.62944V0H1.21265V0.276215H0.33032V0.637077H1.15105V0.913291H0.33032V1.35322H1.244V1.62944H0Z" transform="translate(15.6831 10.4359)" fill="#FFFFFE"/>
<path fill-rule="evenodd" clip-rule="evenodd" d="M1.0348 0.98345L0.808999 0.379787L0.587727 0.98345H1.0348ZM1.64372 1.62944H1.28389L1.14095 1.25967H0.486507L0.350925 1.62944H0L0.636583 0H0.988634L1.64372 1.62944Z" transform="translate(17.1331 10.4359)" fill="#FFFFFE"/>
<path fill-rule="evenodd" clip-rule="evenodd" d="M0 1.61607V0H0.330322V1.33986H1.15329V1.61607H0Z" transform="translate(19.0532 10.4493)" fill="#FFFFFE"/>
</svg>
