<svg xmlns="http://www.w3.org/2000/svg" xmlns:xlink="http://www.w3.org/1999/xlink" width="32" height="32" viewBox="0 0 32 32">
  <defs>
    <path id="ideal-qr-a" d="M0,0.000546489564 L0,12 L8.04095207,12 C9.79738512,11.9741784 11.1888231,11.5448197 12.1762512,10.7181632 C13.3771273,9.71280455 13.9860231,8.12545731 13.9860231,6.00027324 C13.9860231,4.98439469 13.8258678,4.07316888 13.5100231,3.29193928 C13.2078545,2.54459203 12.7613124,1.90916129 12.1828463,1.40327135 C11.1640165,0.512311195 9.73386446,0.0305578748 8.04095207,0.00318785579 C8.04095207,0.00317267552 5.36063471,0.00229222011 0,0.000546489564 Z"/>
  </defs>
  <g fill="none" fill-rule="evenodd">
    <rect width="32" height="32" fill="#FFF" rx="8"/>
    <g transform="translate(4 4)">
      <rect width="7" height="7" x=".5" y=".5" stroke="#333"/>
      <rect width="4" height="4" x="2" y="2" fill="#333"/>
    </g>
    <g transform="translate(20 4)">
      <rect width="7" height="7" x=".5" y=".5" stroke="#333"/>
      <rect width="4" height="4" x="2" y="2" fill="#333"/>
    </g>
    <g transform="translate(20 20)">
      <rect width="7" height="7" x=".5" y=".5" stroke="#333"/>
      <rect width="4" height="4" x="2" y="2" fill="#333"/>
    </g>
    <g transform="translate(4 20)">
      <rect width="7" height="7" x=".5" y=".5" stroke="#333"/>
      <rect width="4" height="4" x="2" y="2" fill="#333"/>
    </g>
    <g transform="translate(4 4)">
      <rect width="1" height="23" x="11.5" y=".5" stroke="#333"/>
      <rect width="24" height="2" y="11" fill="#333"/>
    </g>
    <rect width="31" height="31" x=".5" y=".5" stroke="#000" stroke-opacity=".2" rx="8"/>
    <g transform="translate(9 10)">
      <use fill="#FFF" xlink:href="#ideal-qr-a"/>
      <path stroke="#FFF" stroke-width=".75" d="M0.000122121532,-0.374453491 C3.68555878,-0.373252352 3.68555878,-0.373252352 6.03083723,-0.372483851 C7.70603735,-0.371931668 7.70603735,-0.371931668 8.04701405,-0.371763144 C9.82574397,-0.343005678 11.3406644,0.168625581 12.4297115,1.12099031 C13.052999,1.6660782 13.5337617,2.3502298 13.857685,3.15138247 C14.1925272,3.97960173 14.3610231,4.93830025 14.3610231,6.00027324 C14.3610231,8.22849187 13.7113859,9.92203455 12.4169728,11.0057012 C11.3584732,11.8918575 9.88549274,12.3479236 8.04095207,12.375 L-0.375,12.375 L-0.375,-0.374575652 L0.000122121532,-0.374453491 Z"/>
      <polygon fill="#0A0B09" points="1.555 10.417 3.796 10.417 3.796 6.755 1.555 6.755"/>
      <path fill="#0A0B09" d="M3.96500826,4.92393928 C3.96500826,5.61333586 3.39697851,6.17253131 2.69637686,6.17253131 C1.99579835,6.17253131 1.42774545,5.61333586 1.42774545,4.92393928 C1.42774545,4.23454269 1.99579835,3.67559772 2.69637686,3.67559772 C3.39697851,3.67559772 3.96500826,4.23454269 3.96500826,4.92393928"/>
      <path fill="#0A0B09" d="M7.88880331,0.797510436 C9.44717686,0.797510436 10.7459835,1.21297913 11.6448298,1.99901328 C12.6609058,2.88755977 13.1761058,4.2337685 13.1761058,6.00027324 C13.1761058,9.50117647 11.4466083,11.2030361 7.88880331,11.2030361 C7.61229752,11.2030361 1.52093223,11.2030361 0.809917355,11.2030361 C0.809917355,10.489093 0.809917355,1.51143074 0.809917355,0.797510436 C1.52093223,0.797510436 7.61229752,0.797510436 7.88880331,0.797510436 Z M8.04095207,0.000546489564 L0,0.000546489564 L0,12 L8.04095207,12 L8.04095207,11.997723 C9.79738512,11.9741784 11.1888231,11.5448197 12.1762512,10.7181632 C13.3771273,9.71280455 13.9860231,8.12545731 13.9860231,6.00027324 C13.9860231,4.98439469 13.8258678,4.07316888 13.5100231,3.29193928 C13.2078545,2.54459203 12.7613124,1.90916129 12.1828463,1.40327135 C11.1640165,0.512311195 9.73386446,0.0305578748 8.04095207,0.00318785579 C8.04095207,0.00316508539 8.04095207,0.000546489564 8.04095207,0.000546489564 L8.04095207,0.000546489564 Z"/>
      <path fill="#0A0B09" d="M7.88880331,0.797510436 C9.44717686,0.797510436 10.7459835,1.21297913 11.6448298,1.99901328 C12.6609058,2.88755977 13.1761058,4.2337685 13.1761058,6.00027324 C13.1761058,9.50117647 11.4466083,11.2030361 7.88880331,11.2030361 C7.61229752,11.2030361 1.52093223,11.2030361 0.809917355,11.2030361 C0.809917355,10.489093 0.809917355,1.51143074 0.809917355,0.797510436 C1.52093223,0.797510436 7.61229752,0.797510436 7.88880331,0.797510436 Z M8.04095207,0.000546489564 L0,0.000546489564 L0,12 L8.04095207,12 L8.04095207,11.997723 C9.79738512,11.9741784 11.1888231,11.5448197 12.1762512,10.7181632 C13.3771273,9.71280455 13.9860231,8.12545731 13.9860231,6.00027324 C13.9860231,4.98439469 13.8258678,4.07316888 13.5100231,3.29193928 C13.2078545,2.54459203 12.7613124,1.90916129 12.1828463,1.40327135 C11.1640165,0.512311195 9.73386446,0.0305578748 8.04095207,0.00318785579 C8.04095207,0.00316508539 8.04095207,0.000546489564 8.04095207,0.000546489564 L8.04095207,0.000546489564 Z"/>
      <path fill="#CD0067" d="M7.66758017,10.4207362 L4.82479339,10.4207362 L4.82479339,1.76773435 L7.66758017,1.76773435 L7.55284959,1.76773435 C9.92363967,1.76773435 12.4471802,2.68840987 12.4471802,6.10560911 C12.4471802,9.71820114 9.92363967,10.4207362 7.55284959,10.4207362 L7.66758017,10.4207362"/>
      <path fill="#FFFFFE" d="M4.76145785,4.35436053 L4.76145785,5.7305351 L5.08109752,5.7305351 C5.20064132,5.7305351 5.28693223,5.72393169 5.33997025,5.71070209 C5.40939174,5.6936926 5.46698843,5.66486528 5.51280661,5.62424288 C5.55857851,5.58362049 5.59597355,5.5167666 5.62489917,5.42370398 C5.65382479,5.33064137 5.6682876,5.20378748 5.6682876,5.04316509 C5.6682876,4.88254269 5.65382479,4.75924099 5.62489917,4.67323719 C5.59597355,4.58727894 5.55547769,4.52019734 5.50341157,4.47201518 C5.45134545,4.42381025 5.38527934,4.39122581 5.3052595,4.37419355 C5.24546446,4.36098672 5.12832727,4.35436053 4.95382479,4.35436053 L4.76145785,4.35436053 Z M4.33481653,4.00141935 L5.11532231,4.00141935 C5.29135207,4.00141935 5.42552066,4.01467173 5.51787438,4.04117647 C5.64193058,4.0771537 5.74821488,4.14107021 5.83670413,4.232926 C5.92519339,4.32475901 5.99250909,4.43719924 6.03869752,4.57022391 C6.08486281,4.70324858 6.10795702,4.86728653 6.10795702,5.06231499 C6.10795702,5.23370778 6.08629752,5.38139658 6.04302479,5.50542694 C5.99012562,5.65694118 5.91461818,5.779537 5.81652562,5.87328273 C5.74245289,5.94430361 5.64241653,5.99968121 5.51641653,6.03943833 C5.42214215,6.06881214 5.29616529,6.08347628 5.13841653,6.08347628 L4.33481653,6.08347628 L4.33481653,4.00141935 L4.33481653,4.00141935 Z"/>
      <polyline fill="#FFFFFE" points="6.591 6.083 6.591 4.001 8.157 4.001 8.157 4.354 7.017 4.354 7.017 4.815 8.077 4.815 8.077 5.168 7.017 5.168 7.017 5.731 8.198 5.731 8.198 6.083 6.591 6.083"/>
      <path fill="#FFFFFE" d="M9.80027769,5.25804934 L9.50861488,4.48670209 L9.22280661,5.25804934 L9.80027769,5.25804934 Z M10.5868,6.08347628 L10.1220231,6.08347628 L9.93738512,5.61099051 L9.09206281,5.61099051 L8.91693554,6.08347628 L8.4636595,6.08347628 L9.28591074,4.00141935 L9.74064463,4.00141935 L10.5868,6.08347628 L10.5868,6.08347628 Z"/>
      <polyline fill="#FFFFFE" points="10.944 6.083 10.944 4.018 11.37 4.018 11.37 5.731 12.433 5.731 12.433 6.083 10.944 6.083"/>
    </g>
  </g>
</svg>
