<svg xmlns="http://www.w3.org/2000/svg" xmlns:xlink="http://www.w3.org/1999/xlink" width="32" height="32" viewBox="0 0 32 32">
  <defs>
    <rect id="ing-a" width="32" height="32" rx="8"/>
  </defs>
  <g fill="none" fill-rule="evenodd">
    <mask id="ing-b" fill="#fff">
      <use xlink:href="#ing-a"/>
    </mask>
    <use fill="#FF5300" xlink:href="#ing-a"/>
    <g fill="#FFF" mask="url(#ing-b)">
      <path d="M14.6643258,45.3953488 C13.789229,45.3953488 14.0381625,46.8285203 13.789229,47.4796831 C13.6638049,47.6095068 13.534551,47.8691541 13.6638049,48 L15.5355928,48 C15.5355928,48 15.6610169,46.8285203 15.6610169,46.568873 C15.5355928,46.3071812 15.1593203,45.6549962 14.6643258,45.3953488 L14.6643258,45.3953488 Z M17.0140832,35.0651 C16.3672053,34.5592548 15.3308095,34.0524138 13.7767127,33.5445771 C13.3881884,33.4181158 12.4819632,33.5445771 12.0924453,33.5445771 C11.0540621,35.3180226 10.6695126,36.9669983 9.89147049,38.8679009 C9.75931263,39.250272 9.50095893,40.0110314 9.50095893,40.0110314 C8.85706202,39.6316475 8.20620943,39.3787249 7.55635051,39.3787249 C6.51796738,39.3787249 5.74191261,39.7581088 5.35537573,40.7717907 C4.96983252,40.6453294 4.45113778,40.3924068 3.8032662,40.5168766 C2.89902825,40.6453294 2.11800515,41.1531661 1.72848726,41.9129297 C1.34195038,42.4187749 1.21177987,42.9266116 1.34195038,43.4344483 C0.696066135,43.6883667 0.30157991,44.3226647 0.0452135472,44.8285099 C-0.212146484,45.8421918 0.696066135,47.6196203 1.08359668,48 L2.37834618,48 C2.11800515,46.858861 1.60030408,46.3510243 1.9888283,45.2098853 C2.250163,44.5755873 3.15440095,44.3226647 3.41474198,44.1942119 C3.41474198,43.6883667 2.76488306,43.307987 2.89902825,42.7981588 C3.15440095,42.1678438 3.93144938,42.1678438 4.70949148,42.2923136 C4.57932097,43.0550644 4.45113778,44.0677506 4.32096727,45.0814325 C4.19079675,46.224563 4.839662,48 4.839662,48 L6.13341783,48 L6.26358835,48 C6.13341783,47.6196203 6.00424098,47.2382449 6.00424098,46.858861 C5.87804514,46.4774856 5.87804514,46.224563 5.87804514,45.8421918 C6.00424098,45.3363466 6.00424098,44.8285099 6.00424098,44.4511175 C7.29998415,43.814828 6.91046627,44.7020486 7.1678263,44.9549712 C7.1678263,44.9549712 7.6904957,43.814828 7.04063678,43.307987 C6.91046627,43.1815257 6.13341783,43.307987 6.13341783,43.1815257 C6.13341783,43.0550644 6.26358835,42.673689 6.39177153,42.2923136 C6.6540999,41.7844768 6.78228308,41.6600071 7.04063678,41.2786316 C7.1678263,41.1531661 7.55635051,41.1531661 8.07802625,41.2786316 C8.20620943,41.2786316 8.85706202,41.4050929 9.24260523,41.5315542 C9.11243472,41.9129297 8.59473365,42.673689 8.46853781,43.0550644 C7.95083674,44.5755873 7.95083674,46.3510243 8.07802625,48 L9.50095893,48 C9.50095893,47.1097921 9.37277575,46.0961102 9.50095893,45.2098853 C9.75931263,44.0677506 10.1458495,43.9412893 10.2809884,43.9412893 C10.5353674,43.9412893 10.7957084,44.1942119 10.9298536,44.4511175 C11.1852263,45.7157305 10.4091716,46.858861 10.4091716,48 L11.4455674,48 C11.4455674,48 11.8360789,47.8725429 11.9642621,47.493159 C12.2216221,46.7304082 12.7403169,45.9676574 12.8724747,45.2098853 C12.9986706,44.5755873 12.7403169,44.0677506 12.3498053,43.307987 C11.9642621,42.7981588 11.5757379,42.4187749 10.6695126,41.7844768 C10.4091716,41.2786316 10.6695126,40.6453294 10.6695126,40.6453294 C10.6695126,40.7717907 11.1852263,40.5168766 11.4455674,40.5168766 C12.4819632,40.7717907 12.7403169,40.7717907 13.2580179,41.0247133 C13.6465421,41.1531661 14.1632495,41.4050929 14.5527674,41.6600071 C14.9412916,41.9129297 15.3308095,42.673689 15.7193337,43.5609096 C15.7193337,43.5609096 15.9776874,41.9129297 15.9776874,41.4050929 C15.4629674,40.9002435 14.9412916,40.3924068 14.1632495,40.0110314 C13.5123969,39.5031946 12.0924453,39.1238107 11.4455674,38.8679009 C11.4455674,38.8679009 11.7039211,38.488517 11.7039211,38.2355944 C12.4819632,38.1071415 13.3881884,38.1071415 13.7767127,38.2355944 C15.0734495,38.6169698 16.625559,39.3787249 17.2754179,39.8845701 C17.2754179,39.8845701 17.5317843,39.3787249 17.5317843,39.1238107 C17.5317843,39.1238107 15.7193337,37.9826717 15.8475169,37.6012963 C15.3308095,37.2219124 14.9412916,36.840537 14.4245842,36.7130799 C13.6465421,36.5886102 12.0924453,36.4621489 12.0924453,36.4621489 C12.0924453,36.4621489 12.4819632,35.9563037 12.8724747,35.5729367 L13.9088705,35.5729367 C14.4245842,35.5729367 15.7193337,35.9563037 16.4953885,36.3356876 C17.6639422,36.840537 18.3078391,37.2219124 18.4399969,37.474835 C18.5661928,37.0934596 18.6983506,36.5886102 18.8305085,36.3356876 C17.4036011,35.8278508 17.5317843,35.3180226 17.0140832,35.0651 L17.0140832,35.0651 Z M14.1002357,31.5772046 C14.2266144,31.1892291 14.1002357,30.9305788 14.2266144,30.5405666 C14.2266144,30.2819163 14.2266144,29.6342722 14.3559322,29.2462967 C14.1002357,29.1149349 13.5849239,29.3756218 13.2067673,29.3756218 C12.8237124,29.3756218 11.9322034,29.3756218 11.9322034,29.504947 C12.0585821,29.7656339 12.0585821,30.023266 12.1849609,30.2819163 C12.3123193,30.5405666 12.4386981,30.799217 12.4386981,31.4499161 C12.4386981,31.8378916 12.5689955,32.2279037 12.4386981,32.744186 C12.4386981,32.744186 14.1002357,31.8378916 14.1002357,31.5772046 L14.1002357,31.5772046 Z M12.5009718,28.5171243 C12.7595028,28.135533 13.532113,27.3753394 13.7966102,27.120281 C13.532113,26.8672152 13.4078192,26.4856239 13.2775593,26.2325581 C12.7595028,26.2325581 10.8135593,26.9917554 10.8135593,26.9917554 C11.2033446,27.6274088 11.4638644,28.2640585 11.7223955,29.0232558 C11.9829153,28.8967229 12.240452,28.77019 12.5009718,28.5171243 L12.5009718,28.5171243 Z M17.3871186,29.1678623 L16.620339,29.1678623 C16.620339,29.1678623 16.365725,30.1607963 16.365725,30.9067172 C16.2393974,31.2806539 16.1081733,31.5286433 16.1081733,31.652638 C15.8535593,32.1495932 15.7272316,32.2735879 15.4745763,32.895514 C15.8535593,33.0195087 16.2393974,32.7715193 16.4920527,32.7715193 C16.7466667,32.6475246 17.1295669,32.5215773 17.260791,32.3995352 C17.3871186,32.2735879 17.7700188,31.402696 17.8983051,31.1566592 L17.8983051,30.2867436 C17.7700188,30.0368016 17.8983051,29.5398464 17.8983051,29.1678623 C17.7700188,28.9179203 17.5134463,29.041915 17.3871186,29.1678623 L17.3871186,29.1678623 Z M24.4237288,38.5116279 C24.2934896,38.381549 24.2934896,38.1193427 24.1582023,37.8612333 C23.8977238,37.0766628 24.0299823,36.6854018 23.8977238,35.9069767 L22.8447042,35.9069767 C22.5801872,36.0350072 22.4479288,35.9069767 22.1864407,36.0350072 C22.1864407,36.5573714 22.3176895,36.9465839 22.7124457,37.599027 C23.1051826,38.381549 24.4237288,38.5116279 24.4237288,38.5116279 L24.4237288,38.5116279 Z M11.0362259,26.4186047 C11.0362259,26.4186047 11.4381197,26.1682833 11.4381197,25.9120019 C12.1089733,25.1540844 12.9137914,24.5193409 13.0508475,24.3971602 C12.7787963,23.7604301 12.6458622,23.634276 12.2419074,23.255814 C12.1089733,23.381968 11.4381197,23.7604301 11.3010636,24.0147248 C11.0362259,24.1408788 10.7662357,24.2670328 10.6271186,24.3971602 C10.6271186,24.6494683 10.7662357,24.7736356 10.8971088,25.0279303 C10.8971088,25.2802384 11.0362259,25.9120019 11.0362259,26.4186047 L11.0362259,26.4186047 Z M21.197885,30.8232741 C21.197885,30.6976744 20.7930241,30.6976744 20.5272376,30.6976744 C20.2563001,30.6976744 19.992574,30.8232741 19.718546,30.8232741 C19.4506991,31.1961785 19.3178058,31.5671356 19.1838823,32.0636923 C19.0509891,32.4356231 18.7810818,32.6829278 18.6440678,32.9302326 C18.6440678,32.9302326 19.85556,32.6829278 20.1234069,32.6829278 C20.5272376,32.4356231 20.7930241,32.3100234 21.0629314,31.8144403 C21.197885,31.4415359 21.3338688,31.3198308 21.197885,30.8232741 L21.197885,30.8232741 Z M37.5886748,40.9113044 C37.3295311,40.7830517 34.8491551,39.6446848 34.457938,39.6446848 C33.6745034,39.7709491 32.3727813,39.7709491 31.5853445,40.1517303 C31.458274,39.7709491 31.3292024,39.1376392 31.5853445,38.7578522 C31.7144161,38.5033352 33.0221415,38.5033352 33.412358,38.5033352 C34.8491551,38.6315879 35.6305886,38.8821281 36.0218056,38.8821281 C36.4140232,39.2639035 36.8072413,39.2639035 36.9363129,39.2639035 C36.9363129,39.2639035 36.8072413,38.5033352 36.6741675,38.2508066 C36.1548794,37.9982781 35.6305886,37.8720138 35.238371,37.7457495 C34.5870097,37.4912325 34.3278659,37.3629798 33.284287,37.238704 C32.8950711,37.238704 32.8950711,37.3629798 32.1116364,37.3629798 C32.1116364,37.238704 32.240708,37.1104513 32.3727813,36.984187 C32.6289234,36.6063883 32.8950711,36.3538598 33.1552154,36.0993428 L35.238371,36.0993428 C35.7636624,36.2256071 36.0218056,36.3538598 36.6741675,36.6063883 C37.0633834,36.6063883 36.6741675,35.9750669 36.6741675,35.5922973 C36.5450959,35.4640446 36.4140232,35.3377803 36.1548794,35.211516 C35.6305886,35.0852517 35.238371,34.9589874 34.7160813,34.7044705 C34.3278659,34.5801946 33.5474329,34.3266718 32.8950711,34.4529361 C32.240708,34.7044705 32.240708,34.5801946 31.7144161,34.8327231 C31.0660564,35.72055 30.6748394,36.7306642 30.2846229,37.7457495 C30.2846229,37.9982781 29.6312605,39.5164321 29.6312605,39.7709491 C29.6312605,39.8972134 29.50419,40.1517303 29.50419,40.1517303 C28.9788986,40.0234776 26.6315964,39.6446848 25.9812356,40.2760062 C25.7230924,40.5285348 25.4589459,40.7830517 25.0647272,41.5416316 C24.5444385,41.163833 24.152221,41.0355803 23.6319323,41.0355803 C22.9775693,41.0355803 22.1981369,41.4153674 21.8069199,42.0466888 C21.8069199,42.1769299 20.763341,44.0738768 20.8924126,45.8455535 C21.0234853,46.8606388 21.4157029,47.2394317 21.9359915,48 L23.3737891,48 C23.2427164,47.4939487 22.9775693,46.8606388 22.7194261,46.0990763 C22.5883534,45.4667607 22.8504988,44.3283937 22.9775693,43.3152968 C22.9775693,43.3152968 23.3737891,43.0627683 23.7610039,42.9345156 C24.0251505,42.681987 24.152221,42.8062629 24.5444385,42.8062629 C24.6775124,42.8062629 24.6775124,42.9345156 24.6775124,42.9345156 C24.152221,43.4415611 24.152221,43.9476125 24.0251505,44.7071866 C24.0251505,45.0859794 24.5444385,46.9869031 25.0647272,48 L26.1123083,48 C26.1123083,48 25.8501629,45.4667607 25.9812356,45.2142321 C25.9812356,44.7071866 26.1123083,44.3283937 26.2413799,43.9476125 C26.5025248,44.0738768 26.760668,44.0738768 27.0228134,44.200141 C27.4130299,44.4566464 27.4130299,44.7071866 27.4130299,45.0859794 C27.4130299,45.7192893 27.4130299,45.8455535 27.2859594,46.227329 L27.2859594,46.8606388 C27.2859594,47.4939487 27.4130299,48 27.4130299,48 L28.460611,48 C28.460611,46.8606388 28.5856804,46.9869031 28.7187542,46.3535933 C28.849827,45.8455535 28.7187542,45.5950134 28.849827,45.2142321 C28.849827,44.9597151 28.9788986,44.7071866 29.1139735,44.5809223 C29.50419,44.3283937 29.7643343,44.3283937 30.2846229,44.4566464 C30.2846229,44.8334509 30.2846229,45.2142321 30.1575524,45.5950134 C30.0224775,46.227329 29.8934059,46.8606388 29.6312605,47.4939487 C29.6312605,47.6202129 29.50419,47.8727415 29.3711161,48 L30.9369848,48 C30.9369848,48 31.195128,47.4939487 31.3292024,46.8606388 C31.7144161,47.2394317 32.240708,46.9869031 32.4998518,46.9869031 C32.8950711,46.8606388 33.1552154,46.4798576 33.412358,46.227329 C32.8950711,45.8455535 31.7144161,45.9708236 31.7144161,45.4667607 C31.458274,44.5809223 31.7144161,44.4566464 31.7144161,43.9476125 C31.7144161,43.1890326 30.9369848,42.9345156 30.1575524,42.8062629 C29.8934059,42.681987 29.3711161,42.681987 29.1139735,42.681987 C28.849827,42.8062629 28.5856804,43.1890326 28.3315394,43.1890326 C28.3315394,43.1890326 27.806248,42.8062629 27.4130299,42.681987 C27.1538861,42.681987 26.369451,42.42747 26.369451,42.42747 C26.5025248,42.1769299 26.6315964,41.9224129 26.760668,41.7941602 C26.8897396,41.6698843 27.2859594,41.2891031 27.4130299,41.2891031 C27.6771764,41.163833 28.0663923,41.2891031 28.3315394,41.4153674 C28.9788986,41.5416316 29.50419,41.6698843 29.6312605,41.6698843 C29.7643343,41.6698843 30.1575524,41.9224129 30.1575524,41.9224129 C30.5417656,41.6698843 30.5417656,41.4153674 30.803911,41.4153674 C31.5853445,41.163833 31.849491,41.0355803 32.6289234,41.0355803 C33.284287,41.0355803 33.8075773,42.1769299 34.1947921,42.5557227 C34.3278659,42.8062629 35.238371,43.9476125 35.7636624,44.9597151 C36.0218056,44.8334509 36.1548794,44.5809223 36.4140232,44.5809223 C36.4140232,44.3283937 36.283951,43.3152968 36.1548794,43.1890326 C35.7636624,42.0466888 34.9822289,41.7941602 34.9822289,41.5416316 C35.238371,41.5416316 35.7636624,41.7941602 36.0218056,41.7941602 C36.283951,41.9224129 36.6741675,42.0466888 37.0633834,42.3012058 C37.1964572,42.42747 37.4576021,42.5557227 37.5886748,42.681987 C37.7177464,43.1890326 37.7177464,43.5678254 37.9798918,44.0738768 C37.9798918,44.200141 37.9798918,44.3283937 38.1089634,44.4566464 C38.501181,43.6950839 38.8923981,43.5678254 39.1525424,42.9345156 C38.8923981,41.7941602 38.2380351,41.2891031 37.5886748,40.9113044 L37.5886748,40.9113044 Z M36.5153358,46.6696057 C36.2497022,47.2017634 35.9830508,47.7318342 35.9830508,48 L37.4435268,48 C37.8435038,47.4688857 37.974794,46.936728 37.7081426,46.1395349 C37.3132544,46.2720526 36.5153358,45.8703257 36.5153358,46.6696057 L36.5153358,46.6696057 Z M22.522853,34.0988829 C22.9060705,33.9726892 23.1576484,33.7183146 23.541841,33.5921209 C23.7934189,33.4659273 24.0508475,31.4418605 24.0508475,31.4418605 C24.0508475,31.4418605 23.2883129,31.5660668 23.1576484,31.6942478 C23.0299092,31.6942478 22.522853,31.6942478 22.2703,31.9466351 C22.2703,32.3262097 22.2703,32.7047907 22.144511,33.2115527 C21.8890327,33.5921209 21.2542373,33.8445083 21.2542373,34.4774639 C21.2542373,34.4774639 21.7632437,34.6046512 21.8890327,34.6046512 C22.144511,34.4774639 22.397064,34.2250765 22.522853,34.0988829 L22.522853,34.0988829 Z M9.88135593,19.4838348 L9.88135593,20.109711 C9.88135593,20.3620328 10.0170048,21.7419174 10.0170048,22.1174431 C10.148574,22.4949401 10.148574,22.8704659 10.2781033,23.2469773 C10.4168119,23.4973277 10.5483811,23.7476782 10.5483811,24 C10.5483811,24 10.8155992,23.876796 10.9451285,23.622503 C11.3449357,23.2469773 11.4805845,22.8704659 11.7457627,22.3697649 C11.6121537,21.4915669 11.3449357,20.7375585 11.3449357,20.487208 C11.3449357,19.4838348 11.4805845,19.231513 11.6121537,18.6046512 C11.0828172,18.854016 10.4168119,19.231513 9.88135593,19.4838348 L9.88135593,19.4838348 Z M27.3411961,37.3953488 C27.4662536,37.3953488 27.5932203,37.140193 27.5932203,37.140193 C27.4662536,36.6268675 27.3411961,35.9889778 27.2199571,35.476657 C27.2199571,35.476657 26.8419207,35.219492 26.4724761,35.219492 C26.2233157,35.219492 25.97511,35.0919141 25.7288136,35.219492 C25.8500525,35.606244 25.8500525,35.863409 25.97511,36.2461428 C26.3455093,36.75545 26.8419207,37.0106059 27.3411961,37.3953488 L27.3411961,37.3953488 Z M15.7849928,23.7592401 C15.6619706,23.507527 15.2890893,23.3816705 15.0420911,23.255814 C14.792232,23.255814 14.5423729,23.7592401 14.5423729,24.2646482 C14.5423729,24.5163612 14.6692098,25.4023119 14.792232,25.7798815 C14.792232,25.905738 15.0420911,26.0335765 15.2890893,26.161415 C15.6619706,26.4111461 16.0329446,26.5370026 16.4067797,26.7906977 C16.4067797,26.7906977 16.0329446,25.6560069 15.9099224,25.0237513 C15.7849928,24.6461817 16.0329446,24.1387916 15.7849928,23.7592401 L15.7849928,23.7592401 Z M18.6843495,27.7209302 C18.8160907,27.2030319 19.2033898,26.9445915 19.2033898,26.0380151 C19.2033898,26.0380151 19.0756108,25.3898791 18.9478318,25.1304212 C18.8160907,24.8719807 18.6843495,24.6135403 18.2990315,24.3550999 C18.1682809,24.3550999 17.9127229,24.0925896 17.7849439,24.2218098 C17.7849439,24.2218098 17.6532027,25.2596414 17.5254237,25.3898791 C17.7849439,25.7775397 18.0424829,26.0380151 18.1682809,26.4256757 C18.2990315,26.8153713 18.4268105,27.3322521 18.6843495,27.7209302 L18.6843495,27.7209302 Z M22.1971877,29.7674419 C22.5924985,29.3823979 22.1971877,28.7419983 22.1971877,28.358965 C22.0616816,27.973921 22.1971877,27.5898823 22.0616816,27.2048383 C21.930251,26.9494828 21.6612766,26.821805 21.3984153,26.821805 C21.1324974,26.821805 20.4692311,26.436761 20.4692311,26.6921166 C19.8049459,26.6921166 20.3378004,27.3325161 20.3378004,27.7165548 C20.3378004,28.2292765 21.6612766,29.5100756 21.6612766,29.5100756 C21.930251,29.6377534 21.930251,29.5100756 22.1971877,29.7674419 L22.1971877,29.7674419 Z M9.58593904,18.9767442 C9.85187422,18.5891473 10.6466347,17.8139535 11.0394474,17.2944519 C11.3084276,17.0367304 11.8382679,16.391412 13.1588087,15.7450789 C13.2907612,15.2276066 13.4237288,14.8410244 13.4237288,14.3255814 C12.100143,14.7121636 11.17343,14.9719144 10.9125699,15.2276066 C10.249762,15.6162182 9.98281177,15.875969 9.3220339,16.2645805 C9.3220339,17.0367304 9.3220339,17.0367304 9.45297145,17.4253419 L9.58593904,18.9767442 L9.58593904,18.9767442 Z M29.8305085,33.3013515 C29.4290225,33.0539389 28.762944,32.3097528 28.3675876,31.9376598 C28.0968656,31.6902472 28.228651,31.3191282 27.9630369,31.0697674 C27.699466,31.0697674 27.4297655,31.0697674 27.165173,31.1934738 C26.763687,31.1934738 26.5001161,31.1934738 26.1016949,31.3191282 C26.2334804,31.5645927 26.2334804,31.8139535 26.5001161,31.9376598 C27.0313443,32.4334592 27.0313443,32.5591136 27.5635941,33.3013515 C27.699466,33.5507123 28.3675876,33.6744186 28.8967727,33.6744186 C29.1664732,33.6744186 29.6946366,33.427006 29.8305085,33.3013515 L29.8305085,33.3013515 Z M24.7941797,26.2325581 C24.2532597,26.3561925 23.1786318,26.4798269 23.1786318,26.8526771 C23.0436594,27.2235803 23.1786318,27.595457 23.1786318,27.8446728 C23.3166952,28.0919416 23.3166952,28.3392104 23.3166952,28.7120606 C23.3166952,28.9593294 23.1786318,29.2085452 23.3166952,29.5813953 C23.4516677,29.3321796 24.1224085,29.0849108 24.2532597,28.835695 C24.5242349,28.4647918 24.7941797,28.217523 24.9270915,27.8446728 C25.062064,27.4727961 24.9270915,26.8526771 24.7941797,26.2325581 L24.7941797,26.2325581 Z M26.3905755,26.1183314 C25.9931086,26.3741832 25.7288136,26.502109 25.7288136,26.7579607 C25.7288136,27.2716788 25.8589123,27.7843895 25.8589123,28.0422558 C25.8589123,28.428048 25.8589123,28.6838997 25.9931086,28.8118256 C26.3905755,28.9397515 26.5268206,28.9397515 27.0595083,29.1956032 C27.0595083,29.3255436 27.5932203,29.5813953 27.5932203,29.5813953 C27.5932203,29.5813953 27.3289253,28.428048 27.1937046,27.9123154 L27.1937046,25.8604651 C26.6589682,25.988391 26.5268206,26.1183314 26.3905755,26.1183314 L26.3905755,26.1183314 Z M11.2767213,14.074415 C11.4031838,13.949176 12.8109374,12.9531351 12.9354392,12.8288745 C13.1913053,12.5803535 13.3197285,12.704614 13.4422697,12.456093 C13.4422697,11.7075946 13.7030375,11.7075946 13.5746143,11.4610304 C13.4422697,11.2085957 12.4256678,11.4610304 12.1688214,11.4610304 C11.531607,11.5833341 10.3806998,11.9551372 10.3806998,12.2056151 C10.2542373,12.5803535 10.2542373,13.4501771 10.2542373,13.5783513 C10.3806998,13.949176 10.3806998,14.3248929 10.5052017,14.6976744 C10.8943926,14.3248929 11.0169339,14.2006324 11.2767213,14.074415 L11.2767213,14.074415 Z M39.2144507,36.6580078 C39.0913498,36.5330283 38.8432393,36.406049 38.5932203,36.2790698 L38.5932203,36.7859869 C38.5932203,37.2939039 38.7144127,37.4228828 38.7144127,37.678841 C38.7144127,37.9327994 39.0913498,39.715508 39.0913498,40.223425 C39.7116258,40.3524039 39.7116258,40.8623206 40.0847458,41.1162791 C40.0847458,41.1162791 39.8347268,39.5885288 39.8347268,37.678841 C39.8347268,37.549862 39.4654239,36.7859869 39.2144507,36.6580078 L39.2144507,36.6580078 Z M31.4861254,31.9391382 C32.001193,32.3096225 33.0283682,32.1858028 33.9322034,32.062958 C33.4131889,31.6895487 33.2868887,31.4399593 33.0283682,31.1942697 C32.6405874,30.9446802 32.3879871,30.8208605 31.8719328,30.3255814 L30.2033898,30.3255814 C30.4569768,30.9446802 30.5822902,31.3180894 31.4861254,31.9391382 L31.4861254,31.9391382 Z M26.4334238,23.6890129 C26.696398,23.4414706 26.9553573,22.9473607 26.9553573,22.8216405 C27.220339,22.326556 27.220339,21.7057512 27.220339,21.2087176 C26.1754682,20.5869382 24.8656158,20.4651163 23.5577708,20.4651163 C22.3794055,20.4651163 21.0705568,20.5869382 19.7627119,21.458209 C19.8962064,21.9552426 20.0236786,22.326556 20.2876565,22.8216405 C20.4171362,22.8216405 20.5486233,23.0711318 20.6760955,23.0711318 C20.9390697,22.8216405 21.2030477,22.4503271 21.5914866,22.326556 L21.5914866,22.8216405 C21.5914866,23.1939284 21.5914866,23.4414706 21.7269886,23.8166823 C21.7269886,24.1860465 22.1194425,24.1860465 22.6403723,24.1860465 C23.1623058,24.1860465 23.2968041,23.3176995 23.2968041,23.1939284 C23.2968041,23.1939284 23.4282912,23.6890129 24.209184,24.0622754 C24.209184,24.0622754 25.1245751,24.0622754 25.1245751,23.9385043 C25.2580697,23.3176995 25.3905605,23.1939284 25.2580697,22.6978693 C25.2580697,22.6978693 26.0439811,23.1939284 26.4334238,23.6890129 L26.4334238,23.6890129 Z M30.5762712,28.520728 C30.0425591,27.7482305 29.9104116,26.9767442 29.9104116,26.8483316 C29.6440678,26.5894843 30.1747066,25.6905966 29.5078227,25.6905966 C29.2445521,25.5581395 28.4434718,25.3023256 28.4434718,25.3023256 C28.3041535,25.6905966 28.3041535,26.4610718 28.4434718,26.8483316 C28.4434718,27.2335693 29.1062581,28.3943377 29.3746508,28.520728 C29.5078227,28.6511628 30.1747066,28.6511628 30.3130006,28.6511628 C30.4430993,28.520728 30.5762712,28.520728 30.5762712,28.520728 L30.5762712,28.520728 Z M10.513716,11.7209302 C10.7792762,11.345039 10.7792762,11.345039 11.0428092,11.0891553 C11.5749432,10.7112804 11.8405034,10.4573803 12.499336,9.95156359 C12.6300889,9.69766344 12.7628691,9.82560531 13.1591822,9.57368876 C13.2909487,9.44872228 13.4237288,9.32078041 13.4237288,9.19482214 C13.4237288,8.94290559 13.2909487,8.68900544 13.1591822,8.43907248 C13.0264021,8.18517234 12.7628691,7.55339737 12.7628691,7.4254555 C12.7628691,6.41679749 12.8976763,6.16488094 13.0264021,5.27920582 C12.499336,5.15324755 11.8405034,5.15324755 11.5749432,5.65906424 C11.3114102,6.03892267 11.3114102,6.41679749 11.3114102,6.79863951 C11.3114102,7.4254555 11.4421631,7.93325579 11.5749432,8.68900544 C11.0428092,9.07084746 10.7792762,9.32078041 10.2542373,9.57368876 C10.3849902,10.331422 10.513716,11.7209302 10.513716,11.7209302 L10.513716,11.7209302 Z M36.7288136,30.1668109 C36.473195,29.9100945 36.2185596,29.6543888 35.8341486,29.395651 C35.3179957,29.2672928 35.0663097,29.008555 34.8047922,28.4951222 C34.6779661,28.2384058 34.55114,27.979668 34.2925719,27.7209302 C34.040886,27.7209302 33.9120935,27.8513098 33.656475,27.979668 C33.397907,28.2384058 32.8827372,28.2384058 32.6271186,28.6234804 C32.7539448,28.8801968 32.8827372,29.1389346 33.1403221,29.395651 C33.2710808,29.5240092 33.397907,29.782747 33.9120935,30.0384527 C34.8047922,30.5518855 35.0663097,30.6802437 35.0663097,30.6802437 C35.8341486,30.8106233 36.7288136,30.1668109 36.7288136,30.1668109 L36.7288136,30.1668109 Z M30.3898305,24.5581395 C30.3898305,24.5581395 30.5148102,25.1994936 30.7726422,25.8378366 C30.9035265,26.0947797 31.1574222,26.3497154 31.2892905,26.3497154 C31.541218,26.4771833 32.0588503,26.6046512 32.440678,26.6046512 L32.440678,26.3497154 C32.0588503,25.9653045 31.541218,25.0720257 31.541218,24.8150826 C31.2892905,24.6896221 31.2892905,24.6896221 30.9035265,24.6896221 C30.7726422,24.5581395 30.5148102,24.5581395 30.3898305,24.5581395 L30.3898305,24.5581395 Z M42.0712254,33.6744186 C41.9503423,34.0474857 41.5762712,34.2948983 41.5762712,34.7906977 C41.5762712,34.7906977 42.1978194,35.4092293 42.3225098,35.7842445 C42.4462484,36.0316571 42.3225098,37.1479362 42.4462484,37.3953488 C42.8184158,37.0222817 43.0677966,36.8985754 43.0677966,36.4047242 C42.9412026,36.2810179 42.8184158,35.285523 42.6937255,34.543285 C42.6937255,34.2948983 42.3225098,33.9237794 42.0712254,33.6744186 L42.0712254,33.6744186 Z M52.4357884,42.6046512 C51.7940953,42.6046512 51.028962,43.3573989 50.5195262,45.7397863 C50.3921673,46.6206194 50.2638287,47.3753376 50.3921673,47.8738852 L51.5383977,48 C51.7940953,47.6236261 51.7940953,46.996008 52.0507725,46.4935193 C52.0507725,46.2432602 52.3094091,46.2432602 52.5602082,46.2432602 C52.8178652,46.3683898 53.3312197,46.996008 53.5829985,47.246267 C53.7113371,46.996008 53.966055,46.4935193 53.966055,46.1161602 C53.966055,45.9890601 53.5829985,45.7397863 53.4556395,45.7397863 C53.0745424,45.4895272 52.8178652,45.2392682 52.3094091,45.2392682 C52.1791111,44.7367795 52.9442444,44.1091613 52.9442444,44.1091613 C53.8377163,44.1091613 54.7331476,45.1121681 54.7331476,45.1121681 C54.9878655,44.9870386 55.1142447,44.61165 55.3728814,44.3613909 C54.604809,42.9800398 53.2009217,42.6046512 52.4357884,42.6046512 L52.4357884,42.6046512 Z M45.6779661,35.8698362 C45.5514528,35.6167304 45.4268419,35.2380604 45.3050847,34.986932 C45.3050847,34.8613678 45.3050847,34.6102394 45.1785714,34.2325581 C45.1785714,34.2325581 44.3091491,34.8613678 44.1864407,34.986932 C44.6820304,35.6167304 44.4356624,35.9973778 44.5555171,36.4996346 C44.5555171,36.7487856 45.055863,36.8753385 45.1785714,37.2540085 C45.1785714,37.3775953 44.9350571,38.5116279 44.9350571,38.5116279 C45.6779661,37.5051369 45.6779661,36.2465288 45.6779661,35.8698362 L45.6779661,35.8698362 Z M56.2722429,46.9696663 C56.143907,47.3589484 56.0095081,47.6137513 55.7457627,47.8705763 C55.8791512,48 56.143907,48 56.2722429,48 L57.5950117,48 C57.7193055,47.8705763 57.7193055,47.4853387 57.852694,47.2264914 C57.852694,46.9696663 57.9830508,46.710819 57.9830508,46.3255814 L57.1918148,46.3255814 C56.7987231,46.3255814 56.4046208,46.5844287 56.2722429,46.9696663 L56.2722429,46.9696663 Z M38.5006437,28.3371317 L39.1440377,28.3371317 C39.4039649,28.3371317 39.4039649,27.8435254 39.1440377,27.8435254 C38.2407165,27.5947789 37.4698298,27.3489474 36.9549169,26.6046512 C36.8274241,26.7299961 36.0515958,26.9748559 35.7966102,27.2236024 C35.7966102,27.2236024 36.0515958,27.8435254 36.695978,28.4624767 C37.0804331,28.8326814 37.8582381,28.5858783 38.5006437,28.3371317 L38.5006437,28.3371317 Z M32.8135593,24.1392842 C33.2017168,24.6526668 33.5869263,25.0346957 33.9711531,25.4177273 C34.0959532,25.6744186 34.4811626,25.6744186 34.7346934,25.6744186 L36.0170872,25.6744186 C36.4022967,25.5430648 36.6577928,25.5430648 36.9152542,25.2893816 C36.4022967,25.0346957 35.7635565,24.7780044 35.2476509,24.5213131 C34.7346934,24.2666272 34.3534146,24.0119413 33.9711531,23.627907 C33.7117263,23.627907 33.5869263,23.7552499 33.4542649,23.7552499 C33.2017168,23.8866037 33.0710208,24.0119413 32.8135593,24.1392842 L32.8135593,24.1392842 Z M19.2033898,17.9786047 C19.2033898,17.9786047 19.7171741,17.8604651 20.1062247,17.8604651 C20.3665817,17.8604651 20.6239688,17.8604651 20.8813559,17.9786047 C20.7496925,18.0967442 20.2339283,18.3330233 20.2339283,18.3330233 C19.980501,18.4511628 19.8488376,18.5683721 19.459787,18.6865116 C19.3320834,18.4511628 19.2033898,17.9786047 19.2033898,17.9786047 L19.2033898,17.9786047 Z M19.1204081,15.2701054 C19.3751656,14.8927889 19.8925497,14.6412446 20.2761614,14.5154724 C20.7876438,14.3897002 20.6568223,13.3805519 20.6568223,13.2547797 C20.7876438,13.0012547 20.6568223,12.6239382 20.6568223,12.3704132 C20.4030484,12.498166 20.4030484,12.3704132 19.8925497,12.498166 C19.3751656,12.498166 19.1204081,12.244641 18.8666342,11.991116 C18.6049913,11.740562 17.9676056,11.2354927 17.7118644,10.7343847 C18.3492501,10.6046512 18.8666342,10.6046512 19.5059871,10.6046512 L21.1732228,10.6046512 C21.5538837,10.7343847 21.8135593,10.985929 21.8135593,11.2354927 C21.8135593,11.3612648 21.6866724,12.1188688 21.6866724,12.244641 C21.5538837,13.0012547 21.5538837,13.2547797 21.4289639,14.3897002 L21.4289639,14.7670167 C21.3001097,15.0205417 20.7876438,15.1463139 20.5319026,15.3978582 C20.4030484,15.7751747 20.4030484,16.0286997 20.0174694,16.1544719 C19.6309068,16.2822247 19.3751656,16.6585509 19.1204081,16.5327787 C18.7358127,16.2822247 18.8666342,15.6494026 19.1204081,15.2701054 L19.1204081,15.2701054 Z M17.0072127,8.74418605 C16.7410097,8.49872154 16.2096199,8.12565445 15.9454491,7.62888104 C15.5522409,7.1330817 15.6812782,6.63825642 15.6812782,6.51260197 C15.9454491,5.76841593 16.8720791,5.51905516 17.405501,5.39534884 C17.6676398,5.39534884 17.9338427,5.39534884 18.330099,5.64470961 C18.8604728,5.89212225 19.1266757,5.89212225 19.3898305,6.76001461 C19.3898305,6.88761719 19.3898305,7.00742725 19.2577451,7.00742725 C19.2577451,7.00742725 18.4611684,7.50322659 18.1959815,7.75453549 C17.5365704,8.12565445 17.405501,8.74418605 17.0072127,8.74418605 L17.0072127,8.74418605 Z M20.7752698,8.67549152 C21.1586846,8.41248349 21.5372088,8.15153022 21.7954269,8.15153022 C22.0516888,8.02105358 22.559322,7.88852219 22.559322,8.15153022 C22.559322,8.67549152 22.1778635,8.93644479 21.7954269,9.45835134 C21.5372088,9.84875388 21.4129902,9.59088273 20.7752698,9.59088273 L20.1355932,9.59088273 C20.1355932,9.19945282 20.3928332,9.06692143 20.7752698,8.67549152 L20.7752698,8.67549152 Z M26.1195448,8.0594053 C26.3689148,8.0594053 28.5181549,8.54532989 27.1296391,9.15035365 C26.8734768,9.39426875 26.244715,9.27135841 25.6111015,9.27135841 C25.6111015,9.03125449 25.6111015,8.54532989 25.3607612,8.54532989 C25.1036286,8.3014148 24.728118,8.3014148 24.728118,8.0594053 C24.2187045,7.5734807 25.4859313,7.93840054 26.1195448,8.0594053 L26.1195448,8.0594053 Z M28.7090885,5.63838975 C29.1104964,5.25672962 29.6467283,5.13017391 30.1758105,5.25672962 C30.8417595,5.38328533 30.9735194,5.50984104 31.2411247,5.76494545 C31.6415112,6.27316129 31.5097513,7.28759995 31.3728845,7.92137499 C31.2411247,8.30303512 30.8417595,8.55813953 30.4434158,8.55813953 C29.7764454,7.79681229 29.1104964,7.28759995 28.1789849,7.03249553 C28.0451823,6.5262727 28.4496544,6.01805687 28.7090885,5.63838975 L28.7090885,5.63838975 Z M29.5679515,10.9913223 C29.4366731,11.2444162 29.1720964,11.3719675 28.9095395,11.5035361 C28.7752315,11.5035361 28.6490022,11.75663 28.6490022,11.8841813 C28.3813961,12.2678394 27.9885705,12.3953907 27.4634566,12.3953907 C27.1978702,12.3953907 26.6727563,12.3953907 26.4091895,11.8841813 C26.4091895,11.8841813 26.5384483,13.4198182 26.5384483,13.802472 C26.5384483,13.9300233 26.6727563,13.9300233 26.6727563,13.9300233 C27.1978702,14.0575746 27.3301585,14.5707927 27.5917056,14.8258953 C27.5917056,14.8258953 27.7239939,14.9534465 27.8583019,14.9534465 C28.3813961,15.3361003 29.5679515,15.8483141 29.0418278,15.8483141 C29.0418278,16.1054253 28.6490022,16.744186 28.5187336,16.744186 C28.1188391,16.3625366 27.4634566,16.1054253 26.9332936,15.8483141 C26.8030249,15.5932116 26.6727563,15.3361003 26.5384483,15.0830065 C26.2789209,14.8258953 26.1466325,14.8258953 25.7497676,14.5707927 C25.7497676,13.6769295 25.619499,13.6769295 25.619499,12.7800532 C25.619499,12.6525019 25.3559322,11.2444162 25.3559322,11.2444162 C25.3559322,11.1168649 25.7497676,10.7362198 26.1466325,10.6046512 C26.1466325,10.6046512 28.6490022,10.6046512 29.8305085,10.7362198 C29.8305085,10.7362198 29.7022595,10.9913223 29.5679515,10.9913223 L29.5679515,10.9913223 Z M28.0229353,18.7906977 C27.5064858,18.6558638 27.1206328,18.2503004 26.4745763,18.2503004 C26.4745763,17.8479221 26.4745763,17.8479221 26.6061621,17.7109649 C27.3808363,17.576131 27.7676787,17.8479221 28.1525424,17.982756 C28.1525424,18.1175899 28.0229353,18.7906977 28.0229353,18.7906977 L28.0229353,18.7906977 Z M19.5922402,20.6084726 C19.9826195,20.6084726 20.3720054,20.2289615 20.760398,20.0997875 C21.5342031,19.8454449 22.1848352,19.5911023 22.9586403,19.463931 C23.2218731,19.3327543 23.2218731,19.0804144 23.2218731,18.8240692 C23.3519995,18.5707279 23.3519995,18.5707279 23.3519995,18.189214 C23.3519995,18.0620428 22.8324872,17.9348715 22.5722344,17.4221809 C22.3139682,17.0386643 22.5722344,16.6571504 22.442108,16.6571504 C22.0566954,16.911493 21.5342031,17.1658356 21.40805,16.6571504 C21.2779236,16.2766379 21.2779236,15.7639474 21.6683028,15.6367761 C22.9586403,15.1280909 24.3860575,15.1280909 25.6843416,15.6367761 C25.9406211,15.6367761 26.0707475,15.8931213 26.0707475,16.1474639 C26.1988873,16.4018065 26.0707475,16.6571504 25.8104947,16.911493 C25.4221021,17.0386643 25.0307296,16.5299792 25.0307296,16.911493 C25.0307296,17.2930069 24.7744501,17.8056975 24.1248113,18.0620428 C23.9986583,18.189214 24.1248113,18.5707279 24.2579178,18.9532431 C24.2579178,19.0804144 24.2579178,19.3327543 24.3860575,19.3327543 C24.9045765,19.463931 25.6843416,19.5911023 26.0707475,19.8454449 C26.5862865,20.0997875 27.4922047,20.8628152 27.6243178,20.7376466 C28.0107237,20.483304 28.1388635,20.0997875 28.4020963,19.8454449 C29.8245468,20.483304 30.9887312,20.8628152 32.804541,22.0143663 C33.0628071,22.0143663 33.0628071,21.5036784 33.0628071,21.2473331 C32.4121751,20.8628152 30.4682256,19.8454449 30.2129394,19.7162709 C29.6964071,19.5911023 29.4381409,19.3327543 28.9166419,19.2075857 L28.9166419,18.189214 C29.8245468,18.4435566 31.6324099,18.5707279 33.452193,19.5911023 C33.5783461,19.2075857 33.8405856,18.9532431 33.7104592,18.8240692 C31.6324099,17.8056975 30.0867863,17.4221809 28.7885022,17.4221809 C28.7885022,17.2930069 28.5262627,17.1658356 28.7885022,17.0386643 C29.1768948,16.7843217 29.3060278,16.6571504 29.4381409,16.5299792 C29.8245468,16.0202926 30.0867863,15.5096048 30.2129394,15.0009196 C30.6003386,14.2358892 30.9887312,14.4902317 31.2499774,12.8319982 C30.8605915,12.8319982 30.7284784,13.0863408 30.3420725,13.2155148 C30.4682256,12.8319982 30.6003386,12.4504843 30.6003386,12.0669678 C30.7284784,11.300936 30.9887312,10.7922508 30.9887312,9.89804635 C31.3781171,9.76887236 32.0267625,9.38835983 32.1549023,8.87967466 C32.1549023,8.75050067 32.1549023,8.3689868 32.286022,7.85829893 C32.286022,7.09426983 32.4121751,6.45641068 32.1549023,5.94572281 C32.1549023,5.81855152 31.2499774,4.54383455 30.6003386,4.16232068 C29.6964071,3.7788041 29.3060278,3.90797809 28.6583758,4.03314669 C27.8805973,4.03314669 26.842566,4.79817714 26.842566,6.20206809 C26.0707475,6.20206809 24.5141972,6.32923938 23.608279,7.09426983 C22.8324872,6.71075326 22.1848352,6.58558467 21.5342031,6.45641068 L20.3720054,6.45641068 C20.2438656,5.94572281 19.9826195,5.43503495 19.4660872,5.05352107 C18.8204218,4.67300854 18.03867,4.16232068 17.1327517,4.16232068 C16.7443592,4.16232068 16.3579533,4.03314669 15.9685674,4.29149467 C15.5801748,4.54383455 14.9325227,4.79817714 14.804383,5.30786365 C14.5441301,5.94572281 14.285864,6.45641068 14.285864,7.09426983 C14.285864,7.73313034 14.6762432,8.24181551 15.0646358,8.87967466 C15.1897955,9.13601995 15.3219086,9.13601995 15.5801748,9.26118854 C15.7103012,9.26118854 16.2298135,9.51753382 16.3579533,9.64370376 C16.486093,9.76887236 16.2298135,10.1543916 16.2298135,10.9214248 C16.2298135,11.5572812 16.2298135,11.5572812 16.3579533,12.0669678 C16.3579533,12.5776556 16.486093,13.0863408 16.6162194,13.4678547 C16.2298135,13.4678547 15.9685674,13.0863408 15.7103012,13.3426861 C15.7103012,13.5990313 15.9685674,14.2358892 16.2298135,14.7445743 C16.8764722,15.3824335 17.5221376,16.0202926 17.9125169,16.7843217 C17.9125169,16.911493 17.9125169,17.1658356 18.03867,17.1658356 C17.1327517,17.2930069 16.2298135,17.2930069 15.3219086,17.5513549 C14.5441301,17.8056975 13.6382119,18.189214 12.8644068,18.5707279 C12.8644068,19.0804144 12.9905599,19.463931 12.9905599,19.463931 C13.1206863,19.463931 14.285864,18.8240692 15.3219086,18.5707279 C17.004612,18.0620428 17.9125169,18.189214 17.9125169,18.189214 C18.03867,18.4435566 18.1697897,18.8240692 18.03867,18.9532431 C16.486093,19.5911023 14.9325227,20.3561328 13.5041122,21.2473331 C13.6382119,21.5036784 13.5041122,21.8851923 13.7683383,22.1395349 C15.0646358,21.3745044 16.8764722,20.483304 18.1697897,19.9726162 C18.6883087,19.8454449 18.6883087,19.9726162 18.9485615,19.9726162 C19.0767013,20.0997875 19.3339741,20.6084726 19.5922402,20.6084726 L19.5922402,20.6084726 Z M44.3728814,31.886473 C44.3728814,31.886473 44.1247709,31.390601 44.1247709,31.2695385 C44.00167,31.0216025 43.878569,30.650667 43.5044948,30.5276675 C43.5044948,30.404668 43.3794853,31.0216025 43.2563844,31.2695385 C43.1294664,31.5155375 43.1294664,31.390601 42.8813559,31.886473 C43.1294664,32.2545031 43.2563844,32.5005021 43.5044948,32.8714376 C43.5044948,32.9944371 43.878569,33.4883721 43.878569,33.4883721 C43.878569,33.4883721 44.3728814,32.5005021 44.3728814,32.2545031 L44.3728814,31.886473 L44.3728814,31.886473 Z M60.8952042,46.6078364 L60.2548055,46.6078364 C59.9994318,46.4795584 59.8707627,46.4795584 59.7440581,46.6078364 C59.3590331,46.9867037 59.3590331,47.6201382 59.1016949,48 L60.6398305,48 C60.8952042,47.7444385 61.1525424,47.6201382 61.1525424,47.1110041 C61.1525424,46.9867037 61.1525424,46.7321367 60.8952042,46.6078364 L60.8952042,46.6078364 Z M42.8813559,29.1472327 C42.8813559,28.0304668 42.6107372,28.0304668 42.068459,27.5348837 C42.068459,27.5348837 41.6594084,28.2797189 41.3898305,28.650676 C41.9321088,29.1472327 42.068459,29.7674419 42.068459,29.7674419 C42.6107372,29.2708851 42.6107372,29.3945375 42.8813559,29.1472327 L42.8813559,29.1472327 Z M47.9152542,33.6287612 C47.9152542,33.2494383 47.7834591,32.8720961 47.524899,32.6185539 C47.3910917,32.2412118 47.2613087,31.7370985 47.2613087,31.4835563 C47.1254892,31.2339756 46.6043449,30.4753298 46.3417606,30.0979876 C46.0801823,29.8474166 46.0801823,29.2165322 45.9483872,28.8372093 L44.3728814,29.0887707 C45.1626464,30.0979876 45.8206163,31.1062141 46.2079532,32.1164214 C46.3417606,32.494754 47.524899,36.2790698 47.524899,36.2790698 C47.9152542,36.1513083 47.3910917,34.2596456 47.524899,34.1338648 C47.6516639,33.8823034 47.6516639,33.7545419 47.9152542,33.6287612 L47.9152542,33.6287612 Z M38.1247484,23.5012219 C37.9937914,23.2528108 37.7278165,22.7550107 37.5948291,22.6308052 C37.4648872,22.3823941 37.3298694,22.133983 37.1948517,22.0078215 C37.0659249,21.885572 36.5360056,22.0078215 36.2730763,22.0078215 C36.0071014,22.0078215 35.8761443,22.0078215 35.6101695,22.133983 C35.8761443,22.3823941 36.1380585,23.2528108 36.2730763,23.2528108 C36.4040333,23.5012219 36.4040333,23.6254274 36.668993,23.7535449 C37.3298694,23.8757945 37.8587736,23.7535449 38.5216804,24 C38.7825793,23.6254274 38.2557055,23.6254274 38.1247484,23.5012219 L38.1247484,23.5012219 Z M41.5762712,26.3834235 C41.5762712,26.3834235 39.9915254,25.4945311 39.7260501,25.1162791 C39.3308769,25.1162791 39.3308769,25.1162791 38.9346905,25.4945311 C38.6671887,25.4945311 38.5385041,25.6249286 38.4067797,25.8757694 C38.8039794,26.1325826 38.9346905,26.2570077 39.3308769,26.5098393 C39.4646279,26.6362551 39.595339,26.6362551 39.9915254,26.5098393 L41.0503869,26.5098393 C41.3097826,26.5098393 41.5762712,26.6362551 41.5762712,26.3834235 L41.5762712,26.3834235 Z M63.5012416,45.2093023 C63.5012416,45.2093023 63.3662707,45.6037072 63.2312998,45.8632112 C62.9634187,46.5202094 62.8305085,46.7817729 62.8305085,47.1741183 C63.2312998,47.4418605 63.3662707,47.3069596 63.9051239,47.3069596 C64.173005,47.3069596 64.4408861,47.4418605 64.575857,47.4418605 C64.8437381,47.3069596 64.575857,47.045396 64.575857,46.9146143 C64.4408861,46.9146143 63.9051239,45.7324294 63.5012416,45.2093023 L63.5012416,45.2093023 Z M49.6850761,34.2325581 C50.2187263,33.8505126 50.3536841,33.0824105 50.488642,32.7003649 C50.6235998,32.3163138 50.3536841,31.55122 50.2187263,31.2965229 C49.8179736,31.2965229 49.5532089,31.0398204 49.2791723,31.0398204 C49.0113171,31.0398204 48.8784196,30.4010723 48.4745763,30.5284208 C48.6095341,30.7851233 48.8784196,32.0626195 49.0113171,32.3163138 C49.1483353,32.4456678 49.6850761,33.339113 49.6850761,34.2325581 L49.6850761,34.2325581 Z M59.6610169,41.2088042 C59.6610169,41.0832676 59.2495508,40.8302018 59.1186773,40.8302018 C59.1186773,40.7016763 58.97524,40.1935521 58.8380846,40.0690119 C58.5690087,39.9404864 58.5690087,39.8139535 58.2946979,39.8139535 C58.2946979,39.9404864 58.2946979,40.0690119 58.1575425,40.3220777 C58.1575425,40.5751434 57.8832317,40.7016763 58.0224811,40.9547421 C58.1575425,41.2088042 58.2946979,41.2088042 58.5690087,41.335337 C58.7040701,41.4618699 59.1186773,42.4781183 59.2495508,42.6046512 C59.3867062,42.4781183 59.3867062,41.7149357 59.6610169,41.2088042 L59.6610169,41.2088042 Z M36.9259248,20.585355 C37.3221637,20.585355 37.5832983,20.8372093 37.8474576,20.8372093 C37.8474576,20.461411 37.7133615,20.2095567 37.5832983,19.8297922 C37.4512187,19.1981735 37.1880676,18.818409 37.0539715,18.4416191 C37.0539715,18.0638377 37.0539715,17.8100003 36.9259248,17.5581461 C36.7958616,17.5581461 36.6617655,17.5581461 36.5317023,17.4302358 C36.1384881,17.4302358 35.6101695,17.3023256 35.6101695,17.3023256 C35.6101695,17.6840732 35.7442656,18.3137089 35.7442656,18.6924818 C35.7442656,18.818409 36.2685513,19.9557194 36.3996227,20.0816465 C36.5317023,20.3354839 36.6617655,20.461411 36.9259248,20.585355 L36.9259248,20.585355 Z M49.4067797,28.9671349 C49.2770849,28.577358 48.8859898,28.4453863 48.6235841,28.185535 C48.6235841,28.185535 46.9224711,27.5348837 46.6570493,27.5348837 C46.3946436,27.6637863 47.3135662,28.185535 47.443261,28.4453863 C47.9670671,28.9671349 49.2770849,30.1395349 49.2770849,30.1395349 L49.4067797,28.9671349 L49.4067797,28.9671349 Z M33.3696466,13.0232558 C33.2400204,13.1491476 33.1063749,13.4029138 33.1063749,13.5268231 C32.8431032,13.9064811 32.4542248,14.159256 32.7114674,14.538914 C32.8431032,15.0444639 32.8431032,15.5480311 33.2400204,15.9276892 C33.6339231,16.3073472 34.1544373,16.1794728 34.6779661,16.5581395 C34.6779661,16.5581395 34.2840634,14.9165895 34.0268209,14.159256 C33.8951851,13.65668 33.6339231,13.4029138 33.3696466,13.0232558 L33.3696466,13.0232558 Z M58.1990526,22.5763231 C56.5139161,20.9261999 54.695402,19.9069767 52.8798739,19.9069767 C51.3251289,19.9069767 50.1545911,21.0489858 50.1545911,22.1959861 C50.1545911,26.7720084 51.9741006,29.6969092 53.140657,32.2364818 C53.5278502,32.8723732 53.6572464,33.3814856 53.6572464,34.017377 C53.7876379,35.670495 52.3632845,38.7201782 51.4535297,40.3732962 C51.3251289,40.2445207 50.6731712,40.1197383 50.1545911,40.1197383 C48.8576431,40.1197383 48.339063,41.0071911 48.0782799,41.7688632 C47.689096,41.7688632 47.4332897,41.5153053 47.0381336,41.5153053 C45.484384,41.3885263 44.1864407,42.7850916 44.1864407,44.3134271 C44.1864407,45.962552 44.5726385,46.8559944 45.2245963,48 L46.5225396,48 C46.3911527,47.6186648 46.0039595,45.7099923 45.8735679,45.2028764 C45.7471578,44.4422026 46.0039595,43.9310936 46.3911527,43.5497585 C46.9117235,42.7850916 48.2066807,43.0426425 48.2066807,43.0426425 C47.8194875,43.6775357 47.3009074,44.693764 47.3009074,45.7099923 C47.4332897,46.346882 47.5587044,47.3671034 47.9518698,48 L48.9900254,48 C49.2448363,47.2363314 48.9900254,46.6024365 48.9900254,45.962552 C48.9900254,45.5852099 48.9900254,45.2028764 49.1164355,44.820543 C49.1164355,44.566985 49.7654071,45.3296554 49.7654071,45.3296554 C49.7654071,45.3296554 50.2849826,44.693764 50.2849826,44.1846516 C50.2849826,43.8043147 49.5086055,43.9310936 49.3812,43.5497585 C49.2448363,43.1694215 49.6370063,42.2779756 49.6370063,42.2779756 C50.4153742,41.7688632 51.0623551,41.8976387 51.3251289,41.8976387 C51.7113268,41.8976387 51.8397276,42.0224212 52.3632845,42.0224212 C52.7494823,42.0224212 52.8798739,41.2617473 52.8798739,40.8824086 C53.0082747,41.0071911 53.4014401,41.2617473 53.5278502,41.2617473 C53.9160387,41.3885263 54.0464303,41.3885263 54.4356142,41.5153053 C54.956185,41.7688632 55.4757605,42.0224212 55.9963313,42.5335301 L55.9963313,42.4047546 C55.8639491,41.8976387 56.1227415,41.2617473 55.7355482,41.0071911 C55.7355482,41.0071911 55.0845859,40.4980787 54.5660058,40.2445207 C54.3072134,39.9909628 53.9160387,39.9909628 53.7876379,39.7374048 C53.6572464,39.6106258 53.6572464,39.4818504 53.6572464,39.2282924 C53.6572464,38.9737362 53.7876379,38.5933993 53.9160387,38.5933993 C54.1748311,38.4646238 54.3072134,38.5933993 54.8257935,38.8449607 C55.345369,39.1015134 55.8639491,39.4818504 56.253133,39.7374048 C56.253133,39.7374048 56.3815338,39.9909628 56.3815338,39.8641838 C56.9021047,39.6106258 56.9021047,39.4818504 56.9021047,38.7201782 C56.3815338,38.0822903 56.9021047,37.9575079 56.1227415,37.4483954 C55.8639491,37.4483954 54.4356142,36.939283 54.4356142,36.939283 C54.4356142,36.6847268 54.8257935,36.0508319 54.8257935,36.0508319 C54.956185,35.9260495 55.2129867,35.9260495 55.345369,36.1776109 C56.1227415,36.6847268 56.6413216,36.6847268 57.4256615,36.939283 C57.5480902,36.5599443 57.5480902,36.3063864 57.2912886,36.0508319 C57.0285148,35.670495 56.6413216,35.286165 56.3815338,35.159386 C55.8639491,35.0326071 55.6041613,34.9058281 55.2129867,34.7790491 C55.2129867,34.3977139 55.0845859,34.017377 54.956185,33.5082646 C54.956185,33.2527101 55.2129867,33.3814856 55.4757605,33.3814856 C55.9963313,33.2527101 58.1990526,34.017377 58.1990526,34.017377 C58.1990526,33.5082646 58.0686611,33.1259311 57.807878,32.8723732 C57.5480902,32.6168187 57.2912886,32.3632607 56.6413216,32.110701 C55.7355482,31.8551466 54.956185,31.9839221 54.3072134,31.6015886 C53.7876379,31.0924762 53.6572464,30.9656972 53.5278502,30.4565848 C53.9160387,30.3318023 54.5660058,30.2030268 54.956185,30.2030268 C55.6041613,30.2030268 55.9963313,30.0762479 56.7737038,30.3318023 C57.0285148,30.4565848 57.9402602,31.2212517 58.3314349,31.2212517 C58.3314349,31.2212517 58.0686611,30.2030268 57.807878,29.8236882 C57.4256615,29.8236882 56.7737038,29.0590213 56.5139161,28.9322423 C55.2129867,28.4231299 54.956185,28.6786843 54.1748311,28.8054633 C53.7876379,28.9322423 53.4014401,28.8054633 53.0082747,28.8054633 C52.8798739,28.5519054 53.2690578,28.1695719 53.140657,27.916014 C53.140657,27.7872385 52.6180954,27.6604595 52.6180954,27.4078998 C52.6180954,27.4078998 54.695402,27.1523453 55.4757605,27.2791243 C55.7355482,27.4078998 56.5139161,27.916014 56.7737038,27.916014 C56.7737038,27.916014 57.0285148,27.0235698 56.6413216,26.262896 C55.9963313,26.1381135 55.345369,26.262896 54.8257935,26.1381135 C54.3072134,26.009338 53.7876379,26.1381135 53.4014401,26.1381135 C53.0082747,26.1381135 52.6180954,26.009338 52.2309022,26.009338 C51.9741006,25.6290011 51.8397276,25.2456694 51.8397276,24.8653325 C51.8397276,24.8653325 55.0845859,24.736557 55.345369,24.6117745 C55.2129867,24.4810025 54.956185,24.3582166 54.8257935,24.1006656 C54.3072134,23.2112162 53.9160387,23.0854355 53.2690578,23.0854355 C52.8798739,23.0854355 51.9741006,23.4647742 51.4535297,23.3379952 C51.4535297,22.3227651 51.9741006,21.4333158 52.7494823,21.4333158 C54.3072134,21.4333158 55.8639491,22.0672106 57.160897,23.4647742 C60.407746,26.7720084 62.0908918,32.9991521 62.0908918,37.4483954 C62.0908918,39.4818504 61.8320995,41.3885263 61.5743024,42.913867 C61.962491,43.0426425 62.2192927,43.0426425 62.6104673,43.0426425 C63.0026373,41.5153053 63.3898305,39.4818504 63.3898305,37.5751744 C63.3898305,31.0924762 61.0527363,25.6290011 58.1990526,22.5763231 L58.1990526,22.5763231 Z M38.5932203,17.3092266 C38.85744,18.3238562 39.2487652,19.5921431 39.380875,21.1091139 C39.380875,21.4920868 39.2487652,21.8710808 39.380875,22.2520643 L41.2033898,22.8837209 C41.2033898,22.8837209 40.9471769,21.363766 40.6849589,19.5921431 C40.4237418,18.073183 40.2926328,17.5658682 39.9013076,16.9302326 C39.6390896,17.0565639 39.5099823,17.0565639 39.2487652,17.0565639 C38.85744,17.1828952 38.5932203,17.3092266 38.5932203,17.3092266 L38.5932203,17.3092266 Z M42.8798417,24.7050807 C43.1415314,24.9559078 43.2703786,25.4585494 43.4012235,26.338419 C43.5310696,26.8420481 43.7927593,26.9674616 44.0504538,27.7209302 C44.4429884,27.4710907 45.0942162,27.5965042 45.0942162,27.5965042 C45.0942162,26.9674616 44.7016816,26.338419 44.7016816,26.2149805 C44.5688391,25.9602034 44.1812986,25.2067348 44.0504538,24.9559078 C44.1812986,24.9559078 44.5688391,25.4585494 45.2230635,25.4585494 C45.355906,25.4585494 45.7474418,25.5819879 46.0051362,25.4585494 C46.0051362,25.4585494 46.3936756,25.7113514 46.3936756,25.9602034 C46.6543665,26.338419 46.6543665,26.589246 46.7892066,26.9674616 C47.0429058,26.9674616 47.1777459,26.9674616 47.3065932,26.8420481 C47.8269762,26.8420481 48.0866683,26.7146596 48.0866683,26.7146596 C47.9598187,26.4638325 47.8269762,26.2149805 47.8269762,25.9602034 C47.6961313,25.7113514 47.4394357,25.0813213 47.4394357,25.0813213 L49.779661,24.7050807 C49.779661,24.3248901 49.6508138,23.821261 49.2572804,23.570434 C48.0866683,23.9506246 46.7892066,24.0740631 45.8742914,24.0740631 C44.5688391,24.0740631 43.2703786,23.821261 41.4475399,23.0697674 C41.3176938,23.319607 41.4475399,23.821261 41.4475399,23.821261 C42.2286138,24.4542537 42.2286138,24.0740631 42.8798417,24.7050807 L42.8798417,24.7050807 Z M14.1423109,3.73684925 C15.0571136,3.22107304 16.617072,2.31694767 17.1363923,1.8031941 C17.2702172,2.06209354 18.8331717,2.96419625 19.4823221,3.34748877 C20.0016424,3.73684925 20.5239588,3.86326499 21.0432791,4.12014177 C21.303938,3.73684925 21.5616008,3.34748877 21.8252557,2.44740871 C22.2157447,2.70630815 22.7360637,2.70630815 23.1245553,2.83272388 C23.1245553,3.34748877 23.1245553,3.86326499 23.2583801,4.38106386 C23.2583801,4.63591799 23.5180403,4.5074796 24.039358,4.25060282 C24.8193372,3.99372603 25.5993164,3.86326499 25.9918027,3.73684925 C26.8986159,3.22107304 27.4209323,2.19053193 28.2019102,2.19053193 C28.8550554,2.19053193 30.0255235,2.5758471 30.2871811,2.83272388 C30.6766713,2.96419625 30.9383289,3.09061199 31.3298165,3.09061199 C31.8491368,3.09061199 32.2396258,2.5758471 32.6271186,2.31694767 C31.4586479,1.54631732 30.1603471,0.773664324 28.8550554,0.258899434 C28.0730788,0.900080063 27.5517611,1.41585628 27.1622708,1.41585628 C26.7697845,1.41585628 27.0314421,0.645225933 27.0314421,0.128438391 C26.6409531,0.128438391 26.3792956,0.128438391 25.9918027,0 C25.7341399,0.900080063 25.5993164,2.06209354 24.950166,2.31694767 C24.6905058,2.44740871 24.5576796,2.44740871 24.4288482,2.44740871 L24.4288482,1.41585628 C24.4288482,1.28741789 24.950166,0.387337825 24.8193372,0.258899434 C24.8193372,0.258899434 23.6468717,0.51476489 23.3892089,0.645225933 C23.2583801,0.773664324 22.4744061,1.16100215 22.3455748,1.16100215 C22.3455748,1.16100215 21.9540871,1.03054111 21.8252557,1.03054111 C21.4347668,0.773664324 21.1751066,0.773664324 20.783619,0.51476489 C20.2642986,2.06209354 20.1304738,2.44740871 20.1304738,2.19053193 C20.1304738,2.19053193 18.3078592,1.03054111 17.6607061,0.258899434 C15.9659242,0.51476489 15.9659242,0.773664324 14.5337985,1.28741789 C14.0134795,1.8031941 13.2325016,2.44740871 12.7121826,3.22107304 C12.4525224,3.73684925 12.1908649,3.99372603 11.9322034,4.5074796 L13.2325016,5.02325581 C13.3633304,4.89279477 14.0134795,3.99372603 14.1423109,3.73684925 L14.1423109,3.73684925 Z M59.1231301,38.2718667 C59.4862856,38.3963101 59.7302661,39.2703535 59.9751849,39.5192403 C60.3420939,40.0189737 60.2210421,38.6471566 60.0981135,38.3963101 C60.0981135,38.2718667 60.0981135,37.2743597 59.8541331,37.2743597 C59.7302661,37.1479565 59.6092142,36.7736465 59.4862856,36.6511628 C59.363357,37.0235131 59.4862856,37.2743597 59.4862856,37.6476899 C59.4862856,37.8985364 58.9945712,38.1454635 59.1231301,38.2718667 L59.1231301,38.2718667 Z M36.3985766,12.3422523 C36.2677047,12.3422523 35.871031,12.2176378 35.3384127,12.0930233 L34.6779661,12.0930233 C34.808838,12.4688292 35.2075408,12.8426727 35.3384127,13.0919017 C35.3384127,13.2184787 35.3384127,13.5942846 35.4743572,13.8415512 C35.736101,13.8415512 36.1327748,13.9661657 36.3985766,14.0917615 C36.5304631,14.0917615 37.3238106,14.2183384 37.588598,14.4675674 C37.8523708,14.4675674 38.7755758,15.4664459 38.9125347,15.5910604 C39.3071795,15.8422519 39.7048678,16.0914809 39.9666116,15.9668664 C40.2324135,15.9668664 39.9666116,15.5910604 39.9666116,15.4664459 C39.4400804,14.7167964 39.0434067,13.3430932 38.9125347,13.3430932 C38.5148465,13.2184787 38.2490446,13.3430932 37.7214989,13.0919017 C37.4587406,12.8426727 36.663364,12.4688292 36.3985766,12.3422523 L36.3985766,12.3422523 Z M34.1872655,9.34782256 C34.3176548,9.60757336 34.5715707,9.60757336 34.8284277,9.73541946 C35.083324,9.99314096 35.3411614,10.1220017 35.7244863,10.3817525 C36.2342789,10.8992248 36.4901555,11.5475872 37.1283767,12.0599862 C37.3842533,12.1908763 37.5126819,12.319737 37.6391496,12.319737 C37.7695389,12.319737 38.2793315,12.7083486 38.4067797,12.8372093 C38.4067797,11.8032794 38.0224745,11.0301149 37.7695389,10.5106133 C37.7695389,10.3817525 37.6391496,10.2528918 37.3842533,10.1220017 C36.9979874,9.73541946 36.6166233,9.34782256 36.4901555,9.34782256 C36.1078111,8.96124031 35.850954,8.57465806 35.4676292,8.18604651 C35.083324,8.18604651 34.8284277,8.57465806 34.5715707,8.70351881 C34.4451029,8.96124031 33.9362907,9.22099111 34.1872655,9.34782256 L34.1872655,9.34782256 Z M33.7149756,6.05734273 C33.7149756,6.43312527 33.8461445,6.81285303 33.9753409,7.18666295 C34.6144194,7.5634318 35.3886117,7.81395349 35.3886117,7.81395349 C35.5158357,7.43619834 35.2564566,7.06140211 35.2564566,6.68364696 C35.0039811,5.80484842 34.6144194,4.9270362 34.4871954,3.92297682 L34.4871954,3.41798821 C33.9753409,3.16943913 33.4565827,3.04220567 32.8135593,2.79069767 C32.8135593,2.79069767 32.8135593,3.54522167 33.0719522,3.92297682 C33.330345,4.54928105 33.7149756,5.55432673 33.7149756,6.05734273 L33.7149756,6.05734273 Z M61.2928645,9.4223445 L60.779661,8.76516356 L62.1875295,8.37209302 L62.8305085,10.6046512 L61.2928645,9.4223445 L61.2928645,9.4223445 Z M56.6012673,8.27129012 L55.8360852,8.74418605 L54.8135593,8.03484216 L55.9623109,7.44186047 L57.2372881,8.27129012 L56.6012673,8.27129012 L56.6012673,8.27129012 Z M76.8719517,33.0692664 C77,32.308929 77,31.5495869 77,31.0420318 C76.7389015,30.7892495 76.3457533,30.6608679 76.0896567,30.6608679 C76.0896567,30.2836848 75.9566065,29.777125 76.0896567,29.2695699 C76.3457533,29.2695699 76.8719517,29.3959611 76.8719517,29.2695699 C76.8719517,28.5092325 76.7389015,27.7469047 76.6118536,27.3687265 C76.3457533,27.2403449 75.9566065,27.1139537 75.5644587,26.9855721 C75.5644587,26.6063987 75.43541,26.2272252 75.3043606,25.9744428 C75.6995096,25.8460613 75.9566065,25.8460613 76.2167046,25.8460613 C76.2167046,25.8460613 75.9566065,24.7055552 75.8285582,24.1980001 C75.5644587,24.071609 75.1733111,24.071609 74.9132131,24.071609 C74.783164,23.8208171 74.6521146,23.5640539 74.5210652,23.1848804 C74.783164,23.0594845 75.0462632,23.0594845 75.3043606,22.9330933 C75.0462632,22.2991471 74.9132131,22.0443743 74.6521146,21.6652009 L73.7417713,21.6652009 C73.6127226,21.4124185 73.4816732,21.1576458 73.4816732,20.9068539 C73.6127226,20.7754867 73.87082,20.6510859 74.0028698,20.5227044 C73.87082,20.1455213 73.6127226,19.7643574 73.348623,19.5115751 C73.088525,19.5115751 72.8274265,19.6359758 72.5673284,19.5115751 C72.4382798,19.5115751 72.0451315,19.00402 72.1761809,19.00402 C72.3052296,18.7492473 72.5673284,18.6228561 72.6983778,18.4974602 C72.3052296,17.9918955 72.1761809,17.6107316 71.784033,17.3559589 C71.523935,17.3559589 71.2658376,17.3559589 71.001738,17.4843405 C71.001738,17.4843405 70.7406396,17.1011861 70.6115909,16.974795 C70.2184426,16.974795 70.8726894,16.341844 70.8726894,16.341844 C70.4805415,15.8362793 70.0913947,15.4551154 69.5701982,14.9495508 C69.3040978,14.9495508 69.0439998,15.2003427 68.9149511,15.2003427 C68.9149511,15.2003427 68.3937545,14.8211692 68.3937545,14.694778 C68.3937545,14.4419957 68.9149511,14.3156045 68.9149511,14.3156045 C68.9149511,14.3156045 68.0006063,13.3014896 67.3503611,12.9203257 C67.090263,13.0467169 66.9612143,13.0467169 66.6961144,13.0467169 C66.3069676,12.6675434 65.7847707,12.4147611 65.7847707,12.4147611 C65.7847707,12.4147611 66.1779189,12.1599883 66.1779189,12.0335972 C65.525673,11.6534285 65.2635741,11.4026366 64.7423776,11.0194823 C64.2201807,10.7666999 63.9600826,10.385536 63.6989841,10.0043721 C62.7876405,8.61307416 61.6141979,6.58583953 58.7411145,6.20467563 C58.7411145,6.20467563 59.3963616,7.09140418 59.7885095,7.72634561 C59.7885095,7.85074636 59.7885095,7.85074636 59.2653122,7.85074636 L58.3549689,7.85074636 C58.0908693,7.46958246 57.9618206,7.34518171 57.8287704,7.09140418 C57.567672,6.58583953 57.4446256,6.45745796 57.1785252,6.20467563 C56.6563283,5.82351174 54.0483448,7.21779534 51.8305085,7.72634561 C52.3567069,8.35830142 52.8759027,8.73747491 53.0049514,8.99224764 C53.6571973,9.62519866 54.5705418,10.7666999 55.220787,11.6534285 C55.3538371,11.5270373 55.4848866,11.4026366 55.745985,11.2722646 C57.4446256,11.0194823 57.4446256,10.6422992 57.4446256,10.6422992 C57.4446256,10.6422992 56.1351318,9.62519866 57.0454751,9.62519866 C57.0454751,9.62519866 57.6997218,9.74959941 57.9618206,9.4998027 C58.6130662,9.37142113 59.3963616,9.24502997 59.7885095,9.4998027 C60.3087056,9.87798098 60.5688037,10.385536 60.9609516,10.7666999 C60.7008535,10.7666999 60.4417558,10.6422992 60.179657,10.6422992 C59.3963616,10.5119272 58.6130662,10.6422992 57.9618206,10.7666999 C57.9618206,10.7666999 59.0092156,11.6534285 59.2653122,12.0335972 C59.0092156,11.9052156 58.2219187,12.0335972 58.2219187,12.0335972 C57.8287704,12.1599883 57.3095747,12.2863795 57.1785252,12.2863795 C56.7893785,12.4147611 56.3952299,12.2863795 56.1351318,12.4147611 C56.6563283,12.6675434 59.0092156,13.5562624 60.179657,13.5562624 C61.2230504,13.5562624 61.8732957,13.4258904 62.7876405,13.0467169 C62.9166891,12.9203257 63.1767872,12.7939346 63.3078366,12.9203257 C63.8310339,13.0467169 64.091132,13.1750985 64.3512301,13.4258904 C67.7435093,15.4551154 71.523935,20.2719125 72.6983778,22.8047117 C73.87082,25.2131103 74.5210652,27.8752863 74.5210652,30.4080856 C74.6521146,33.8315942 73.4816732,37.1257261 71.1327874,40.0416797 C69.824294,41.68576 67.3503611,43.082034 64.7423776,43.3348163 C65.525673,44.2225401 65.9138194,45.6148333 66.3069676,46.8837209 C66.3069676,46.8837209 67.2213124,46.7573298 67.7435093,46.5045474 C67.7435093,45.4904325 67.090263,44.3509217 67.090263,44.0941585 C67.090263,44.0941585 67.8715576,43.5885939 68.524804,43.5885939 C68.6518519,43.9677673 69.0439998,44.6017136 69.5701982,45.4904325 C70.0913947,45.2356598 70.4805415,44.9808871 70.8726894,44.6017136 C70.8726894,43.9677673 70.4805415,43.2084252 70.2184426,42.4480878 C71.1327874,42.0689143 71.6549844,41.9385423 71.6549844,41.9385423 C71.9180836,42.3197062 72.5673284,42.6988797 72.6983778,43.082034 C72.6983778,43.082034 73.348623,42.4480878 73.6127226,41.8141416 C73.348623,41.3065865 72.9574755,40.9264178 72.6983778,40.4188627 L73.7417713,39.2813423 C73.7417713,39.2813423 74.3920165,39.7869069 74.6521146,40.0416797 C75.0462632,39.5341246 75.43541,39.0265696 75.5644587,38.3916281 C74.9132131,37.7596723 74.6521146,37.7596723 74.5210652,37.3785084 C74.783164,36.9973445 74.9132131,36.4927751 75.1733111,36.1116112 C75.5644587,36.2399927 75.8285582,36.4927751 76.0896567,36.6171758 C76.3457533,36.1116112 76.6118536,35.3492834 76.6118536,34.8437187 C76.3457533,34.588946 75.9566065,34.4645452 75.6995096,34.2107677 C75.8285582,33.5768215 75.9566065,32.9428753 75.9566065,32.9428753 C75.9566065,32.9428753 76.6118536,33.0692664 76.8719517,33.0692664 L76.8719517,33.0692664 Z" transform="translate(-4 5)"/>
    </g>
  </g>
</svg>
