<svg xmlns="http://www.w3.org/2000/svg" width="32" height="32" viewBox="0 0 32 32">
  <g fill="none" fill-rule="evenodd">
    <rect width="32" height="32" fill="#F36717" rx="8"/>
    <path fill="#FFF" fill-rule="nonzero" d="M15.7929275,19.5375044 C16.8423775,19.5375044 16.8147711,19.0746884 16.8147711,17.9863795 L16.8147711,15.2924318 C16.8147711,15.1020094 16.8147711,15.0203426 16.8423775,14.8844342 L11.9540921,19.8367465 L9.33047526,19.8367465 L9.33047526,19.5375044 C10.4351706,19.5375044 10.4351706,18.8571131 10.4351706,18.2312999 L10.4351706,14.0407253 C10.4351706,12.9796334 10.4351706,12.4897926 9.38552571,12.4897926 L9.38552571,12.1905506 L12.174911,12.1905506 L12.174911,12.4897926 C11.125461,12.4897926 11.125461,12.8979665 11.125461,14.0407253 L11.125461,17.7141782 C11.125461,17.8774958 11.125461,18.0135324 11.0978709,18.17685 L17.035525,12.1361167 L17.5052564,12.1361167 L17.5052564,17.9863795 C17.5052564,19.1019053 17.5604367,19.5375044 18.5824752,19.5375044 L18.5824752,19.8367465 L15.7929275,19.8367465 L15.7929275,19.5375044 L15.7929275,19.5375044 Z M4,19.5375044 C4.77338579,19.5375044 5.13248038,19.5100952 5.13248038,18.5305259 L5.13248038,13.4964988 C5.13248038,12.5442265 4.6628789,12.4897926 4,12.4897926 L4,12.1905506 L7.92180075,12.1905506 L7.92180075,12.4897926 C7.20372524,12.4897926 6.789499,12.5442265 6.789499,13.4964988 L6.789499,18.5305259 C6.789499,19.5100952 7.12080854,19.5375044 7.92180075,19.5375044 L7.92180075,19.8367465 L4,19.8367465 L4,19.5375044 Z M24.4925229,16.1632936 L24.4925229,15.8638753 C25.4313037,15.8638753 25.5420541,15.6190671 25.5420541,14.9659087 L25.5420541,12.9524164 C24.9897633,12.707432 24.5477358,12.5986604 24.0504954,12.5986604 C22.3934605,12.5986604 21.1506844,13.9864676 21.1506844,15.999976 C21.1506844,18.0407493 22.1726092,19.4013396 23.9124633,19.4013396 C24.7409807,19.4013396 25.4589101,19.1292504 25.9839193,18.6123209 C26.3153587,18.3129507 26.5636541,17.8774958 26.702011,17.3606143 L27.0334505,17.3606143 L26.7846679,20 L26.5086037,20 C26.4809972,19.8095135 26.4257844,19.4828783 26.2323771,19.4828783 C26.0115257,19.4828783 25.7905119,19.618979 25.4313037,19.7279268 C24.9343881,19.8909881 24.4649165,20 23.829644,20 C21.2888789,20 19.3005669,18.0953273 19.3005669,15.8094254 C19.3005669,13.6870493 21.0400963,12 23.9400697,12 C24.9897633,12 26.0391321,12.2720252 27.1437138,12.8162997 L27.1437138,14.7755504 C27.1437138,15.5918501 27.1162697,15.8638753 28,15.8638753 L28,16.1632936 L24.4925229,16.1632936 L24.4925229,16.1632936 Z" transform="matrix(1 0 0 -1 0 32)"/>
  </g>
</svg>
