<svg width="32" height="25" viewBox="0 0 32 25" fill="none" xmlns="http://www.w3.org/2000/svg">
<mask id="mask0" mask-type="alpha" maskUnits="userSpaceOnUse" x="0" y="0" width="32" height="25">
<path d="M28 0H4C1.79086 0 0 1.79086 0 4V20C0 22.2091 1.79086 24 4 24H28C30.2091 24 32 22.2091 32 20V4C32 1.79086 30.2091 0 28 0Z" transform="translate(0 0.5)" fill="white"/>
</mask>
<g mask="url(#mask0)">
<path d="M28 0H4C1.79086 0 0 1.79086 0 4V20C0 22.2091 1.79086 24 4 24H28C30.2091 24 32 22.2091 32 20V4C32 1.79086 30.2091 0 28 0Z" transform="translate(0 0.5)" fill="#FF5300"/>
</g>
<mask id="mask1" mask-type="alpha" maskUnits="userSpaceOnUse" x="0" y="0" width="32" height="25">
<path d="M28 0H4C1.79086 0 0 1.79086 0 4V20C0 22.2091 1.79086 24 4 24H28C30.2091 24 32 22.2091 32 20V4C32 1.79086 30.2091 0 28 0Z" transform="translate(0 0.5)" fill="white"/>
</mask>
<g mask="url(#mask1)">
<path d="M28 0H4C1.79086 0 0 1.79086 0 4V20C0 22.2091 1.79086 24 4 24H28C30.2091 24 32 22.2091 32 20V4C32 1.79086 30.2091 0 28 0Z" transform="translate(0 0.5)" fill="#FF5300"/>
<path fill-rule="evenodd" clip-rule="evenodd" d="M8.57006 26.4806C8.05864 26.4806 8.20412 27.3166 8.05864 27.6965C7.98534 27.7722 7.9098 27.9237 7.98534 28H9.07924C9.07924 28 9.15254 27.3166 9.15254 27.1652C9.07924 27.0125 8.85934 26.6321 8.57006 26.4806ZM9.9433 20.4546C9.56525 20.1596 8.95956 19.8639 8.05133 19.5677C7.82427 19.4939 7.29465 19.5677 7.06701 19.5677C6.46017 20.6022 6.23543 21.5641 5.78073 22.6729C5.70349 22.896 5.55251 23.3398 5.55251 23.3398C5.1762 23.1185 4.79584 22.9709 4.41605 22.9709C3.8092 22.9709 3.35566 23.1922 3.12977 23.7835C2.90445 23.7098 2.60131 23.5622 2.22269 23.6348C1.69424 23.7098 1.2378 24.006 1.01015 24.4492C0.784257 24.7443 0.708183 25.0405 0.784257 25.3368C0.406792 25.4849 0.176248 25.8549 0.0264235 26.15C-0.123982 26.7413 0.406792 27.7781 0.633271 28H1.38994C1.2378 27.3343 0.935243 27.0381 1.1623 26.3724C1.31503 26.0024 1.84348 25.8549 1.99563 25.78C1.99563 25.4849 1.61584 25.263 1.69424 24.9656C1.84348 24.5979 2.2976 24.5979 2.7523 24.6705C2.67623 25.1155 2.60131 25.7062 2.52524 26.2975C2.44917 26.9643 2.82837 28 2.82837 28H3.58447H3.66054C3.58446 27.7781 3.50897 27.5556 3.50897 27.3343C3.43522 27.1119 3.43522 26.9643 3.43522 26.7413C3.50897 26.4462 3.50897 26.15 3.50897 25.9298C4.26622 25.5587 4.03858 26.0762 4.18899 26.2237C4.18899 26.2237 4.49445 25.5587 4.11466 25.263C4.03858 25.1892 3.58447 25.263 3.58447 25.1892C3.58447 25.1155 3.66054 24.893 3.73545 24.6705C3.88876 24.3743 3.96367 24.3017 4.11466 24.0792C4.18899 24.006 4.41605 24.006 4.72092 24.0792C4.79584 24.0792 5.17621 24.153 5.40152 24.2267C5.32545 24.4492 5.0229 24.893 4.94915 25.1155C4.64659 26.0024 4.64659 27.0381 4.72092 28H5.55251C5.55251 27.4807 5.4776 26.8894 5.55251 26.3724C5.70349 25.7062 5.92939 25.6324 6.00837 25.6324C6.15703 25.6324 6.30918 25.78 6.38758 25.9298C6.53682 26.6675 6.08328 27.3343 6.08328 28H6.68897C6.68897 28 6.91719 27.9256 6.9921 27.7043C7.14251 27.2594 7.44564 26.8145 7.52287 26.3724C7.59663 26.0024 7.44564 25.7062 7.21742 25.263C6.9921 24.9656 6.76504 24.7443 6.23543 24.3743C6.08328 24.0792 6.23543 23.7098 6.23543 23.7098C6.23543 23.7835 6.53682 23.6348 6.68897 23.6348C7.29465 23.7835 7.44564 23.7835 7.74819 23.9311C7.97525 24.006 8.27722 24.153 8.50486 24.3017C8.73192 24.4492 8.95956 24.893 9.18662 25.4105C9.18662 25.4105 9.33761 24.4492 9.33761 24.153C9.0368 23.8585 8.73192 23.5622 8.27722 23.3398C7.89686 23.0435 7.06701 22.8222 6.68897 22.6729C6.68897 22.6729 6.83995 22.4516 6.83995 22.3041C7.29465 22.2292 7.82427 22.2292 8.05133 22.3041C8.80916 22.5266 9.71624 22.9709 10.096 23.266C10.096 23.266 10.2458 22.9709 10.2458 22.8222C10.2458 22.8222 9.18662 22.1566 9.26154 21.9341C8.95956 21.7128 8.73192 21.4903 8.42995 21.416C7.97525 21.3434 7.06701 21.2696 7.06701 21.2696C7.06701 21.2696 7.29465 20.9745 7.52287 20.7509H8.12856C8.42995 20.7509 9.18662 20.9745 9.64016 21.1958C10.3231 21.4903 10.6994 21.7128 10.7766 21.8603C10.8504 21.6379 10.9276 21.3434 11.0048 21.1958C10.1709 20.8996 10.2458 20.6022 9.9433 20.4546ZM8.2404 18.42C8.31426 18.1937 8.2404 18.0428 8.31425 17.8153C8.31425 17.6645 8.31426 17.2867 8.38983 17.0603C8.2404 16.9837 7.93924 17.1358 7.71824 17.1358C7.49438 17.1358 6.97337 17.1358 6.97337 17.2112C7.04722 17.3633 7.04722 17.5136 7.12108 17.6645C7.19551 17.8153 7.26937 17.9662 7.26937 18.3458C7.26937 18.5721 7.34552 18.7996 7.26937 19.1008C7.26937 19.1008 8.2404 18.5721 8.2404 18.42ZM7.30576 16.635C7.45685 16.4124 7.90838 15.9689 8.06295 15.8202C7.90838 15.6725 7.83574 15.4499 7.75961 15.3023C7.45685 15.3023 6.31961 15.7452 6.31961 15.7452C6.54741 16.116 6.69966 16.4874 6.85075 16.9302C7.003 16.8564 7.15351 16.7826 7.30576 16.635ZM10.1613 17.0146H9.71319C9.71319 17.0146 9.56438 17.5938 9.56438 18.0289C9.49056 18.247 9.41387 18.3917 9.41387 18.464C9.26507 18.7539 9.19124 18.8263 9.04358 19.1891C9.26507 19.2614 9.49056 19.1167 9.63821 19.1167C9.78701 19.0444 10.0108 18.9709 10.0875 18.8997C10.1613 18.8263 10.3851 18.3182 10.46 18.1747V17.6673C10.3851 17.5215 10.46 17.2316 10.46 17.0146C10.3851 16.8688 10.2351 16.9411 10.1613 17.0146ZM14.2736 22.4651C14.1975 22.3892 14.1975 22.2363 14.1184 22.0857C13.9662 21.6281 14.0435 21.3998 13.9662 20.9457H13.3508C13.1962 21.0204 13.1189 20.9457 12.9661 21.0204C12.9661 21.3251 13.0428 21.5522 13.2735 21.9328C13.503 22.3892 14.2736 22.4651 14.2736 22.4651ZM6.44974 15.4109C6.44974 15.4109 6.68462 15.2648 6.68462 15.1153C7.07667 14.6732 7.54702 14.3029 7.62712 14.2317C7.46813 13.8603 7.39044 13.7867 7.15436 13.5659C7.07667 13.6395 6.68462 13.8603 6.60452 14.0086C6.44974 14.0822 6.29196 14.1558 6.21065 14.2317C6.21065 14.3789 6.29196 14.4513 6.36844 14.5996C6.36844 14.7468 6.44974 15.1153 6.44974 15.4109ZM12.3884 17.9802C12.3884 17.907 12.1518 17.907 11.9964 17.907C11.8381 17.907 11.684 17.9802 11.5238 17.9802C11.3673 18.1978 11.2896 18.4142 11.2114 18.7038C11.1337 18.9208 10.976 19.065 10.8959 19.2093C10.8959 19.2093 11.6039 19.065 11.7604 19.065C11.9964 18.9208 12.1518 18.8475 12.3095 18.5584C12.3884 18.3409 12.4678 18.2699 12.3884 17.9802ZM21.9674 23.8649C21.816 23.7901 20.3664 23.1261 20.1378 23.1261C19.6799 23.1997 18.9192 23.1997 18.459 23.4218C18.3847 23.1997 18.3093 22.8303 18.459 22.6087C18.5344 22.4603 19.2987 22.4603 19.5267 22.4603C20.3664 22.5351 20.8231 22.6812 21.0517 22.6812C21.2809 22.9039 21.5107 22.9039 21.5862 22.9039C21.5862 22.9039 21.5107 22.4603 21.433 22.313C21.1295 22.1657 20.8231 22.092 20.5939 22.0184C20.2132 21.8699 20.0617 21.7951 19.4519 21.7226C19.2244 21.7226 19.2244 21.7951 18.7665 21.7951C18.7665 21.7226 18.842 21.6478 18.9192 21.5741C19.0689 21.3537 19.2244 21.2064 19.3764 21.0579H20.5939C20.9008 21.1316 21.0517 21.2064 21.433 21.3537C21.6604 21.3537 21.433 20.9855 21.433 20.7622C21.3575 20.6874 21.2809 20.6137 21.1295 20.5401C20.8231 20.4664 20.5939 20.3927 20.2886 20.2443C20.0617 20.1718 19.6056 20.0239 19.2244 20.0975C18.842 20.2443 18.842 20.1718 18.5344 20.3191C18.1555 20.837 17.9269 21.4262 17.6988 22.0184C17.6988 22.1657 17.317 23.0513 17.317 23.1997C17.317 23.2734 17.2427 23.4218 17.2427 23.4218C16.9357 23.347 15.5639 23.1261 15.1838 23.4943C15.033 23.6416 14.8786 23.7901 14.6482 24.2326C14.3442 24.0122 14.1149 23.9374 13.8109 23.9374C13.4284 23.9374 12.9729 24.159 12.7443 24.5272C12.7443 24.6032 12.1344 25.7098 12.2099 26.7432C12.2865 27.3354 12.5157 27.5563 12.8197 28H13.66C13.5834 27.7048 13.4284 27.3354 13.2776 26.8911C13.201 26.5223 13.3542 25.8582 13.4284 25.2673C13.4284 25.2673 13.66 25.1199 13.8863 25.0451C14.0407 24.8978 14.1149 24.9703 14.3442 24.9703C14.4219 24.9703 14.4219 25.0451 14.4219 25.0451C14.1149 25.3409 14.1149 25.6361 14.0407 26.0792C14.0407 26.3002 14.3442 27.409 14.6482 28H15.2604C15.2604 28 15.1072 26.5223 15.1838 26.375C15.1838 26.0792 15.2604 25.8582 15.3359 25.6361C15.4885 25.7098 15.6394 25.7098 15.7926 25.7834C16.0206 25.933 16.0206 26.0792 16.0206 26.3002C16.0206 26.6696 16.0206 26.7432 15.9463 26.9659V27.3354C15.9463 27.7048 16.0206 28 16.0206 28H16.6328C16.6328 27.3354 16.7059 27.409 16.7837 27.0396C16.8603 26.7432 16.7837 26.5971 16.8603 26.375C16.8603 26.2265 16.9357 26.0792 17.0147 26.0055C17.2427 25.8582 17.3947 25.8582 17.6988 25.933C17.6988 26.1528 17.6988 26.375 17.6245 26.5971C17.5456 26.9659 17.4702 27.3354 17.317 27.7048C17.317 27.7785 17.2427 27.9258 17.1649 28H18.0801C18.0801 28 18.2309 27.7048 18.3093 27.3354C18.5344 27.5563 18.842 27.409 18.9934 27.409C19.2244 27.3354 19.3764 27.1133 19.5267 26.9659C19.2244 26.7432 18.5344 26.8163 18.5344 26.5223C18.3847 26.0055 18.5344 25.933 18.5344 25.6361C18.5344 25.1936 18.0801 25.0451 17.6245 24.9703C17.4702 24.8978 17.1649 24.8978 17.0147 24.8978C16.8603 24.9703 16.7059 25.1936 16.5574 25.1936C16.5574 25.1936 16.2504 24.9703 16.0206 24.8978C15.8692 24.8978 15.4107 24.7494 15.4107 24.7494C15.4885 24.6032 15.5639 24.4547 15.6394 24.3799C15.7148 24.3074 15.9463 24.0853 16.0206 24.0853C16.175 24.0122 16.4024 24.0853 16.5574 24.159C16.9357 24.2326 17.2427 24.3074 17.317 24.3074C17.3947 24.3074 17.6245 24.4547 17.6245 24.4547C17.8491 24.3074 17.8491 24.159 18.0023 24.159C18.459 24.0122 18.6133 23.9374 19.0689 23.9374C19.4519 23.9374 19.7577 24.6032 19.984 24.8242C20.0617 24.9703 20.5939 25.6361 20.9008 26.2265C21.0517 26.1528 21.1295 26.0055 21.2809 26.0055C21.2809 25.8582 21.2049 25.2673 21.1295 25.1936C20.9008 24.5272 20.4442 24.3799 20.4442 24.2326C20.5939 24.2326 20.9008 24.3799 21.0517 24.3799C21.2049 24.4547 21.433 24.5272 21.6604 24.6757C21.7382 24.7494 21.8908 24.8242 21.9674 24.8978C22.0428 25.1936 22.0428 25.4146 22.196 25.7098C22.196 25.7834 22.196 25.8582 22.2715 25.933C22.5007 25.4888 22.7293 25.4146 22.8814 25.0451C22.7293 24.3799 22.3469 24.0853 21.9674 23.8649ZM21.3401 27.2239C21.1849 27.5344 21.0291 27.8436 21.0291 28H21.8826C22.1163 27.6902 22.1931 27.3798 22.0372 26.9147C21.8064 26.992 21.3401 26.7577 21.3401 27.2239ZM13.1627 19.891C13.3867 19.8174 13.5337 19.669 13.7582 19.5954C13.9052 19.5218 14.0557 18.3411 14.0557 18.3411C14.0557 18.3411 13.6101 18.4135 13.5337 18.4883C13.459 18.4883 13.1627 18.4883 13.0151 18.6355C13.0151 18.857 13.0151 19.0778 12.9416 19.3734C12.7923 19.5954 12.4213 19.7426 12.4213 20.1119C12.4213 20.1119 12.7188 20.186 12.7923 20.186C12.9416 20.1119 13.0892 19.9646 13.1627 19.891ZM5.77482 11.3656V11.7307C5.77482 11.8779 5.85409 12.6828 5.85409 12.9018C5.93098 13.122 5.93098 13.3411 6.00668 13.5607C6.08775 13.7068 6.16464 13.8528 6.16464 14C6.16464 14 6.3208 13.9281 6.3965 13.7798C6.63016 13.5607 6.70943 13.3411 6.86441 13.049C6.78632 12.5367 6.63016 12.0969 6.63016 11.9509C6.63016 11.3656 6.70943 11.2184 6.78632 10.8527C6.47697 10.9982 6.08775 11.2184 5.77482 11.3656ZM15.9786 21.814C16.0517 21.814 16.1259 21.6651 16.1259 21.6651C16.0517 21.3657 15.9786 20.9936 15.9078 20.6947C15.9078 20.6947 15.6868 20.5447 15.4709 20.5447C15.3253 20.5447 15.1803 20.4703 15.0363 20.5447C15.1072 20.7703 15.1072 20.9203 15.1803 21.1436C15.3967 21.4407 15.6868 21.5895 15.9786 21.814ZM9.225 13.8596C9.1531 13.7127 8.93518 13.6393 8.79083 13.5659C8.64481 13.5659 8.49879 13.8596 8.49879 14.1544C8.49879 14.3012 8.57291 14.818 8.64481 15.0383C8.64481 15.1117 8.79083 15.1863 8.93518 15.2608C9.1531 15.4065 9.3699 15.4799 9.58838 15.6279C9.58838 15.6279 9.3699 14.966 9.29801 14.5972C9.225 14.3769 9.3699 14.081 9.225 13.8596ZM10.9194 16.1705C10.9964 15.8684 11.2228 15.7177 11.2228 15.1888C11.2228 15.1888 11.1481 14.8108 11.0734 14.6594C10.9964 14.5087 10.9194 14.3579 10.6942 14.2071C10.6178 14.2071 10.4685 14.054 10.3938 14.1294C10.3938 14.1294 10.3168 14.7348 10.2421 14.8108C10.3938 15.0369 10.5443 15.1888 10.6178 15.415C10.6942 15.6423 10.7689 15.9438 10.9194 16.1705ZM12.9724 17.3643C13.2034 17.1397 12.9724 16.7662 12.9724 16.5427C12.8932 16.3181 12.9724 16.0941 12.8932 15.8695C12.8164 15.7205 12.6592 15.6461 12.5056 15.6461C12.3502 15.6461 11.9625 15.4214 11.9625 15.5704C11.5743 15.5704 11.8857 15.944 11.8857 16.168C11.8857 16.4671 12.6592 17.2142 12.6592 17.2142C12.8164 17.2887 12.8164 17.2142 12.9724 17.3643ZM5.60217 11.0698C5.75759 10.8437 6.22206 10.3915 6.45162 10.0884C6.60882 9.93809 6.91847 9.56166 7.69021 9.18463C7.76733 8.88277 7.84504 8.65726 7.84504 8.35659C7.07151 8.5821 6.52993 8.73362 6.37748 8.88277C5.99012 9.10946 5.83411 9.26098 5.44794 9.48767C5.44794 9.93809 5.44794 9.93809 5.52446 10.1648L5.60217 11.0698ZM17.4334 19.4258C17.1988 19.2815 16.8095 18.8474 16.5785 18.6303C16.4202 18.486 16.4973 18.2695 16.342 18.124C16.188 18.124 16.0304 18.124 15.8758 18.1962C15.6411 18.1962 15.4871 18.1962 15.2542 18.2695C15.3313 18.4127 15.3313 18.5581 15.4871 18.6303C15.7975 18.9195 15.7975 18.9928 16.1086 19.4258C16.188 19.5712 16.5785 19.6434 16.8877 19.6434C17.0453 19.6434 17.354 19.4991 17.4334 19.4258ZM14.4901 15.3023C14.174 15.3744 13.546 15.4466 13.546 15.6641C13.4671 15.8804 13.546 16.0973 13.546 16.2427C13.6266 16.387 13.6266 16.5312 13.6266 16.7487C13.6266 16.8929 13.546 17.0383 13.6266 17.2558C13.7055 17.1104 14.0975 16.9662 14.174 16.8208C14.3323 16.6045 14.4901 16.4602 14.5678 16.2427C14.6467 16.0258 14.5678 15.6641 14.4901 15.3023ZM15.4231 15.2357C15.1908 15.3849 15.0363 15.4596 15.0363 15.6088C15.0363 15.9085 15.1124 16.2076 15.1124 16.358C15.1124 16.583 15.1124 16.7323 15.1908 16.8069C15.4231 16.8815 15.5027 16.8815 15.814 17.0308C15.814 17.1066 16.1259 17.2558 16.1259 17.2558C16.1259 17.2558 15.9714 16.583 15.8924 16.2822V15.0853C15.5799 15.1599 15.5027 15.2357 15.4231 15.2357ZM6.59029 8.21008C6.6642 8.13702 7.48691 7.556 7.55967 7.48351C7.7092 7.33854 7.78426 7.41102 7.85587 7.26605C7.85587 6.82943 8.00827 6.82943 7.93322 6.6856C7.85587 6.53835 7.26175 6.6856 7.11165 6.6856C6.73925 6.75695 6.06664 6.97383 6.06664 7.11994C5.99274 7.33854 5.99274 7.84594 5.99274 7.9207C6.06664 8.13702 6.06664 8.35619 6.1394 8.57364C6.36685 8.35619 6.43847 8.2837 6.59029 8.21008ZM22.9175 21.3838C22.8456 21.3109 22.7006 21.2369 22.5545 21.1628V21.4585C22.5545 21.7548 22.6253 21.83 22.6253 21.9793C22.6253 22.1275 22.8456 23.1674 22.8456 23.4637C23.2081 23.5389 23.2081 23.8364 23.4261 23.9845C23.4261 23.9845 23.28 23.0933 23.28 21.9793C23.28 21.9041 23.0642 21.4585 22.9175 21.3838ZM18.401 18.6312C18.702 18.8473 19.3023 18.7751 19.8305 18.7034C19.5272 18.4856 19.4534 18.34 19.3023 18.1967C19.0757 18.0511 18.928 17.9788 18.6265 17.6899H17.6513C17.7995 18.0511 17.8728 18.2689 18.401 18.6312ZM15.4481 13.8186C15.6018 13.6742 15.7531 13.386 15.7531 13.3126C15.908 13.0238 15.908 12.6617 15.908 12.3718C15.2974 12.009 14.5319 11.938 13.7675 11.938C13.0789 11.938 12.314 12.009 11.5496 12.5173C11.6277 12.8072 11.7021 13.0238 11.8564 13.3126C11.9321 13.3126 12.0089 13.4582 12.0834 13.4582C12.2371 13.3126 12.3914 13.096 12.6184 13.0238V13.3126C12.6184 13.5298 12.6184 13.6742 12.6976 13.8931C12.6976 14.1085 12.9269 14.1085 13.2314 14.1085C13.5364 14.1085 13.615 13.602 13.615 13.5298C13.615 13.5298 13.6919 13.8186 14.1482 14.0363C14.1482 14.0363 14.6832 14.0363 14.6832 13.9641C14.7612 13.602 14.8386 13.5298 14.7612 13.2404C14.7612 13.2404 15.2205 13.5298 15.4481 13.8186ZM17.8692 16.6371C17.5573 16.1865 17.4801 15.7364 17.4801 15.6615C17.3245 15.5105 17.6346 14.9862 17.2448 14.9862C17.091 14.9089 16.6228 14.7597 16.6228 14.7597C16.5414 14.9862 16.5414 15.4356 16.6228 15.6615C16.6228 15.8862 17.0102 16.5634 17.167 16.6371C17.2448 16.7132 17.6346 16.7132 17.7154 16.7132C17.7914 16.6371 17.8692 16.6371 17.8692 16.6371ZM6.14438 6.83721C6.29958 6.61794 6.29958 6.61794 6.45359 6.46867C6.76458 6.24825 6.91977 6.10014 7.30481 5.80508C7.38122 5.65697 7.45882 5.7316 7.69043 5.58465C7.76744 5.51175 7.84504 5.43712 7.84504 5.36365C7.84504 5.21669 7.76744 5.06859 7.69043 4.92279C7.61283 4.77468 7.45882 4.40615 7.45882 4.33152C7.45882 3.74313 7.5376 3.59618 7.61283 3.07954C7.30481 3.00606 6.91977 3.00606 6.76458 3.30112C6.61056 3.5227 6.61056 3.74313 6.61056 3.96587C6.61056 4.33152 6.68698 4.62773 6.76458 5.06859C6.45359 5.29133 6.29958 5.43712 5.99274 5.58465C6.06915 6.02666 6.14438 6.83721 6.14438 6.83721ZM21.4649 17.5973C21.3155 17.4476 21.1667 17.2984 20.942 17.1475C20.6404 17.0726 20.4933 16.9217 20.3405 16.6222C20.2663 16.4724 20.1922 16.3215 20.0411 16.1705C19.894 16.1705 19.8188 16.2466 19.6694 16.3215C19.5183 16.4724 19.2172 16.4724 19.0678 16.697C19.1419 16.8468 19.2172 16.9977 19.3677 17.1475C19.4441 17.2223 19.5183 17.3733 19.8188 17.5224C20.3405 17.8219 20.4933 17.8968 20.4933 17.8968C20.942 17.9729 21.4649 17.5973 21.4649 17.5973ZM17.7603 14.3256C17.7603 14.3256 17.8333 14.6997 17.984 15.0721C18.0605 15.222 18.2089 15.3707 18.2859 15.3707C18.4332 15.445 18.7357 15.5194 18.9588 15.5194V15.3707C18.7357 15.1464 18.4332 14.6253 18.4332 14.4755C18.2859 14.4023 18.2859 14.4023 18.0605 14.4023C17.984 14.3256 17.8333 14.3256 17.7603 14.3256ZM24.5871 19.6434C24.5164 19.861 24.2978 20.0054 24.2978 20.2946C24.2978 20.2946 24.6611 20.6554 24.7339 20.8741C24.8062 21.0185 24.7339 21.6696 24.8062 21.814C25.0238 21.5963 25.1695 21.5242 25.1695 21.2361C25.0955 21.1639 25.0237 20.5832 24.9509 20.1502C24.9509 20.0054 24.7339 19.7889 24.5871 19.6434ZM30.6443 24.8527C30.2693 24.8527 29.8221 25.2918 29.5244 26.6815C29.45 27.1954 29.375 27.6356 29.45 27.9264L30.1198 28C30.2693 27.7804 30.2693 27.4143 30.4193 27.1212C30.4193 26.9752 30.5704 26.9752 30.717 26.9752C30.8676 27.0482 31.1676 27.4143 31.3147 27.5603C31.3897 27.4143 31.5386 27.1212 31.5386 26.9011C31.5386 26.827 31.3147 26.6815 31.2403 26.6815C31.0176 26.5356 30.8676 26.3896 30.5704 26.3896C30.4943 26.0965 30.9414 25.7303 30.9414 25.7303C31.4636 25.7303 31.9869 26.3154 31.9869 26.3154C32.1358 26.2424 32.2096 26.0235 32.3608 25.8775C31.9119 25.0717 31.0914 24.8527 30.6443 24.8527ZM26.6949 20.9241C26.621 20.7764 26.5482 20.5555 26.477 20.409C26.477 20.3358 26.477 20.1893 26.4031 19.969C26.4031 19.969 25.895 20.3358 25.8232 20.409C26.1129 20.7764 25.9689 20.9985 26.0389 21.2915C26.0389 21.4368 26.3313 21.5106 26.4031 21.7315C26.4031 21.8036 26.2607 22.4651 26.2607 22.4651C26.6949 21.878 26.6949 21.1438 26.6949 20.9241ZM32.8864 27.399C32.8114 27.6261 32.7328 27.7747 32.5787 27.9245C32.6566 28 32.8114 28 32.8864 28H33.6594C33.7321 27.9245 33.7321 27.6998 33.81 27.5488C33.81 27.399 33.8862 27.248 33.8862 27.0233H33.4238C33.1941 27.0233 32.9637 27.1742 32.8864 27.399ZM22.5004 16.53H22.8764C23.0283 16.53 23.0283 16.2421 22.8764 16.2421C22.3485 16.097 21.898 15.9536 21.597 15.5194C21.5225 15.5925 21.0691 15.7353 20.9201 15.8804C20.9201 15.8804 21.0691 16.2421 21.4457 16.6031C21.6704 16.8191 22.1249 16.6751 22.5004 16.53ZM19.1768 14.0812C19.4036 14.3807 19.6287 14.6036 19.8533 14.827C19.9262 14.9767 20.1513 14.9767 20.2995 14.9767H21.0489C21.2741 14.9001 21.4234 14.9001 21.5739 14.7521C21.2741 14.6036 20.9008 14.4538 20.5993 14.3041C20.2995 14.1555 20.0767 14.007 19.8533 13.7829C19.7017 13.7829 19.6287 13.8572 19.5512 13.8572C19.4036 13.9339 19.3272 14.007 19.1768 14.0812ZM11.2228 10.4875C11.2228 10.4875 11.523 10.4186 11.7504 10.4186C11.9025 10.4186 12.053 10.4186 12.2034 10.4875C12.1264 10.5564 11.825 10.6943 11.825 10.6943C11.6769 10.7632 11.6 10.8316 11.3726 10.9005C11.298 10.7632 11.2228 10.4875 11.2228 10.4875ZM11.1743 8.90756C11.3231 8.68746 11.6255 8.54073 11.8497 8.46736C12.1486 8.39399 12.0722 7.80532 12.0722 7.73196C12.1486 7.58407 12.0722 7.36396 12.0722 7.21607C11.9239 7.2906 11.9239 7.21607 11.6255 7.2906C11.3231 7.2906 11.1743 7.14271 11.026 6.99482C10.873 6.84866 10.5005 6.55404 10.3511 6.26172C10.7236 6.18605 11.026 6.18605 11.3996 6.18605H12.374C12.5964 6.26172 12.7482 6.40846 12.7482 6.55404C12.7482 6.6274 12.674 7.06934 12.674 7.14271C12.5964 7.58407 12.5964 7.73195 12.5234 8.39399V8.61409C12.4481 8.76198 12.1486 8.83535 11.9992 8.98208C11.9239 9.20219 11.9239 9.35007 11.6985 9.42344C11.4726 9.49796 11.3231 9.71749 11.1743 9.64412C10.9495 9.49796 11.026 9.12882 11.1743 8.90756ZM9.93928 5.10078C9.78371 4.95759 9.47315 4.73997 9.31877 4.45018C9.08897 4.16096 9.16438 3.87232 9.16438 3.79902C9.31877 3.36491 9.86031 3.21945 10.172 3.14729C10.3252 3.14729 10.4808 3.14729 10.7124 3.29275C11.0224 3.43707 11.1779 3.43707 11.3317 3.94334C11.3317 4.01778 11.3317 4.08767 11.2545 4.08767C11.2545 4.08767 10.789 4.37688 10.634 4.52348C10.2486 4.73997 10.172 5.10078 9.93928 5.10078ZM12.1414 5.0607C12.3655 4.90728 12.5867 4.75506 12.7376 4.75506C12.8874 4.67895 13.184 4.60164 13.184 4.75506C13.184 5.0607 12.9611 5.21293 12.7376 5.51737C12.5867 5.74511 12.5141 5.59468 12.1414 5.59468H11.7676C11.7676 5.36635 11.9179 5.28904 12.1414 5.0607ZM15.2647 4.70132C15.4104 4.70132 16.6665 4.98478 15.855 5.33771C15.7053 5.47999 15.3378 5.40829 14.9675 5.40829C14.9675 5.26823 14.9675 4.98478 14.8212 4.98478C14.671 4.84249 14.4515 4.84249 14.4515 4.70132C14.1538 4.41786 14.8944 4.63073 15.2647 4.70132ZM16.778 3.28906C17.0126 3.06643 17.326 2.9926 17.6352 3.06643C18.0244 3.14025 18.1014 3.21407 18.2578 3.36288C18.4918 3.65934 18.4148 4.2511 18.3348 4.6208C18.2578 4.84344 18.0244 4.99225 17.7916 4.99225C17.4018 4.54814 17.0126 4.2511 16.4682 4.10229C16.39 3.80699 16.6264 3.51053 16.778 3.28906ZM17.28 6.4116C17.2033 6.55924 17.0486 6.63365 16.8952 6.7104C16.8167 6.7104 16.7429 6.85803 16.7429 6.93244C16.5865 7.15624 16.357 7.23064 16.0501 7.23064C15.8949 7.23064 15.588 7.23064 15.4339 6.93244C15.4339 6.93244 15.5095 7.82823 15.5095 8.05144C15.5095 8.12585 15.588 8.12585 15.588 8.12585C15.8949 8.20025 15.9722 8.49963 16.125 8.64844C16.125 8.64844 16.2023 8.72284 16.2808 8.72284C16.5865 8.94606 17.28 9.24485 16.9725 9.24485C16.9725 9.39483 16.7429 9.76744 16.6668 9.76744C16.4331 9.54481 16.0501 9.39483 15.7402 9.24485C15.6641 9.09604 15.588 8.94606 15.5095 8.79842C15.3578 8.64844 15.2805 8.64844 15.0486 8.49963C15.0486 7.97821 14.9724 7.97821 14.9724 7.45503C14.9724 7.38063 14.8184 6.55924 14.8184 6.55924C14.8184 6.48484 15.0486 6.26279 15.2805 6.18605C15.2805 6.18605 16.7429 6.18605 17.4334 6.26279C17.4334 6.26279 17.3585 6.4116 17.28 6.4116ZM16.377 10.9612C16.0752 10.8826 15.8497 10.646 15.4722 10.646C15.4722 10.4113 15.4722 10.4113 15.5491 10.3314C16.0018 10.2527 16.2279 10.4113 16.4528 10.4899C16.4528 10.5686 16.377 10.9612 16.377 10.9612ZM11.45 12.0216C11.6782 12.0216 11.9057 11.8002 12.1327 11.7249C12.5849 11.5765 12.9652 11.4281 13.4174 11.354C13.5712 11.2774 13.5712 11.1302 13.5712 10.9807C13.6473 10.8329 13.6473 10.8329 13.6473 10.6104C13.6473 10.5362 13.3437 10.462 13.1916 10.1629C13.0406 9.93922 13.1916 9.71667 13.1155 9.71667C12.8903 9.86504 12.5849 10.0134 12.5112 9.71667C12.4352 9.49471 12.4352 9.19564 12.6633 9.12145C13.4174 8.82472 14.2516 8.82472 15.0103 9.12145C15.1601 9.12145 15.2362 9.27099 15.2362 9.41935C15.311 9.56772 15.2362 9.71667 15.0841 9.86504C14.8571 9.93922 14.6283 9.64249 14.6283 9.86504C14.6283 10.0876 14.4786 10.3867 14.0989 10.5362C14.0252 10.6104 14.0989 10.8329 14.1767 11.0561C14.1767 11.1302 14.1767 11.2774 14.2516 11.2774C14.5546 11.354 15.0103 11.4281 15.2362 11.5765C15.5374 11.7249 16.0669 12.17 16.1441 12.097C16.3699 11.9486 16.4448 11.7249 16.5986 11.5765C17.4299 11.9486 18.1103 12.17 19.1715 12.8417C19.3224 12.8417 19.3224 12.5438 19.3224 12.3943C18.9422 12.17 17.8061 11.5765 17.6569 11.5012C17.355 11.4281 17.2041 11.2774 16.8993 11.2044V10.6104C17.4299 10.7587 18.4865 10.8329 19.55 11.4281C19.6237 11.2044 19.777 11.0561 19.7009 10.9807C18.4865 10.3867 17.5832 10.1629 16.8244 10.1629C16.8244 10.0876 16.6712 10.0134 16.8244 9.93922C17.0514 9.79085 17.1269 9.71667 17.2041 9.64249C17.4299 9.34517 17.5832 9.04727 17.6569 8.75054C17.8833 8.30427 18.1103 8.45264 18.263 7.48533C18.0354 7.48533 17.9582 7.6337 17.7324 7.70905C17.8061 7.48533 17.8833 7.26278 17.8833 7.03906C17.9582 6.59221 18.1103 6.29548 18.1103 5.77386C18.3379 5.69851 18.7169 5.47654 18.7918 5.17981C18.7918 5.10446 18.7918 4.88191 18.8685 4.58401C18.8685 4.13832 18.9422 3.76624 18.7918 3.46834C18.7918 3.39415 18.263 2.65057 17.8833 2.42802C17.355 2.2043 17.1269 2.27965 16.7484 2.35267C16.2939 2.35267 15.6872 2.79894 15.6872 3.61787C15.2362 3.61787 14.3265 3.69206 13.797 4.13832C13.3437 3.91461 12.9652 3.84159 12.5849 3.76624H11.9057C11.8308 3.46834 11.6782 3.17044 11.3763 2.94789C10.9989 2.72592 10.5421 2.42802 10.0126 2.42802C9.78566 2.42802 9.55984 2.35267 9.33228 2.50337C9.1053 2.65057 8.7268 2.79894 8.65191 3.09625C8.49982 3.46834 8.34888 3.76624 8.34888 4.13832C8.34888 4.51099 8.57702 4.80773 8.80401 5.17981C8.87715 5.32934 8.95436 5.32934 9.1053 5.40236C9.18134 5.40236 9.48496 5.55189 9.55984 5.62549C9.63473 5.69851 9.48496 5.9234 9.48496 6.37083C9.48496 6.74175 9.48496 6.74175 9.55984 7.03906C9.55984 7.33697 9.63473 7.6337 9.71078 7.85625C9.48496 7.85625 9.33228 7.6337 9.18134 7.78323C9.18134 7.93277 9.33228 8.30427 9.48496 8.601C9.86287 8.97309 10.2402 9.34517 10.4684 9.79085C10.4684 9.86504 10.4684 10.0134 10.5421 10.0134C10.0126 10.0876 9.48496 10.0876 8.95436 10.2383C8.49982 10.3867 7.97038 10.6104 7.51816 10.8329C7.51816 11.1302 7.59189 11.354 7.59189 11.354C7.66793 11.354 8.34888 10.9807 8.95436 10.8329C9.93776 10.5362 10.4684 10.6104 10.4684 10.6104C10.5421 10.7587 10.6187 10.9807 10.5421 11.0561C9.63473 11.4281 8.7268 11.8744 7.89201 12.3943C7.97038 12.5438 7.89201 12.7664 8.04643 12.9147C8.80401 12.4685 9.86287 11.9486 10.6187 11.6507C10.9217 11.5765 10.9217 11.6507 11.0738 11.6507C11.1487 11.7249 11.2991 12.0216 11.45 12.0216ZM25.9322 18.6004C25.9322 18.6004 25.7872 18.3112 25.7872 18.2406C25.7153 18.0959 25.6433 17.8796 25.4247 17.8078C25.4247 17.7361 25.3516 18.0959 25.2797 18.2406C25.2055 18.3841 25.2055 18.3112 25.0605 18.6004C25.2055 18.8151 25.2797 18.9586 25.4247 19.175C25.4247 19.2468 25.6433 19.5349 25.6433 19.5349C25.6433 19.5349 25.9322 18.9586 25.9322 18.8151V18.6004ZM35.5881 27.1879H35.2138C35.0646 27.1131 34.9894 27.1131 34.9154 27.1879C34.6903 27.4089 34.6903 27.7784 34.54 28H35.4389C35.5881 27.8509 35.7385 27.7784 35.7385 27.4814C35.7385 27.4089 35.7385 27.2604 35.5881 27.1879ZM25.0605 17.0026C25.0605 16.3511 24.9024 16.3511 24.5855 16.062C24.5855 16.062 24.3464 16.4965 24.1889 16.7129C24.5058 17.0026 24.5855 17.3643 24.5855 17.3643C24.9024 17.0747 24.9024 17.1468 25.0605 17.0026ZM28.0024 19.6168C28.0024 19.3955 27.9254 19.1754 27.7743 19.0275C27.6961 18.8074 27.6202 18.5133 27.6202 18.3654C27.5409 18.2198 27.2363 17.7773 27.0828 17.5572C26.93 17.411 26.93 17.043 26.853 16.8217L25.9322 16.9685C26.3938 17.5572 26.7783 18.1453 27.0046 18.7346C27.0828 18.9553 27.7743 21.1628 27.7743 21.1628C28.0024 21.0883 27.6961 19.9848 27.7743 19.9114C27.8484 19.7647 27.8484 19.6901 28.0024 19.6168ZM22.2807 13.709C22.2042 13.5641 22.0487 13.2738 21.971 13.2013C21.8951 13.0564 21.8162 12.9115 21.7373 12.8379C21.6619 12.7666 21.3522 12.8379 21.1986 12.8379C21.0431 12.8379 20.9666 12.8379 20.8111 12.9115C20.9666 13.0564 21.1196 13.5641 21.1986 13.5641C21.2751 13.709 21.2751 13.7815 21.4299 13.8562C21.8162 13.9275 22.1253 13.8562 22.5127 14C22.6651 13.7815 22.3572 13.7815 22.2807 13.709ZM24.2978 15.3903C24.2978 15.3903 23.3717 14.8718 23.2165 14.6512C22.9856 14.6512 22.9856 14.6512 22.754 14.8718C22.5977 14.8718 22.5225 14.9479 22.4455 15.0942C22.6777 15.244 22.754 15.3166 22.9856 15.4641C23.0637 15.5378 23.1401 15.5378 23.3717 15.4641H23.9905C24.1421 15.4641 24.2978 15.5378 24.2978 15.3903ZM37.1111 26.3721C37.1111 26.3721 37.0322 26.6022 36.9534 26.7535C36.7968 27.1368 36.7191 27.2894 36.7191 27.5182C36.9534 27.6744 37.0322 27.5957 37.3471 27.5957C37.5037 27.5957 37.6603 27.6744 37.7391 27.6744C37.8957 27.5957 37.7391 27.4431 37.7391 27.3669C37.6603 27.3669 37.3471 26.6773 37.1111 26.3721ZM29.0367 19.969C29.3486 19.7461 29.4275 19.2981 29.5063 19.0752C29.5852 18.8512 29.4275 18.4049 29.3486 18.2563C29.1144 18.2563 28.9597 18.1066 28.7995 18.1066C28.643 18.1066 28.5653 17.734 28.3293 17.8082C28.4082 17.958 28.5653 18.7032 28.643 18.8512C28.7231 18.9266 29.0367 19.4478 29.0367 19.969ZM34.8668 24.0385C34.8668 23.9652 34.6264 23.8176 34.5499 23.8176C34.5499 23.7426 34.4661 23.4462 34.3859 23.3736C34.2286 23.2986 34.2286 23.2248 34.0683 23.2248C34.0683 23.2986 34.0683 23.3736 33.9882 23.5212C33.9882 23.6688 33.8279 23.7426 33.9092 23.8903C33.9882 24.0385 34.0683 24.0385 34.2286 24.1123C34.3076 24.1861 34.5499 24.7789 34.6264 24.8527C34.7065 24.7789 34.7065 24.3337 34.8668 24.0385ZM21.5801 12.0081C21.8117 12.0081 21.9643 12.155 22.1186 12.155C22.1186 11.9358 22.0403 11.7889 21.9643 11.5674C21.8871 11.1989 21.7333 10.9774 21.6549 10.7576C21.6549 10.5372 21.6549 10.3892 21.5801 10.2423C21.5041 10.2423 21.4257 10.2423 21.3497 10.1676C21.1199 10.1676 20.8111 10.093 20.8111 10.093C20.8111 10.3157 20.8895 10.683 20.8895 10.9039C20.8895 10.9774 21.1959 11.6408 21.2725 11.7143C21.3497 11.8624 21.4257 11.9358 21.5801 12.0081ZM28.8741 16.8975C28.7983 16.6701 28.5697 16.5931 28.4164 16.4416C28.4164 16.4416 27.4222 16.062 27.2671 16.062C27.1138 16.1372 27.6508 16.4416 27.7266 16.5931C28.0327 16.8975 28.7983 17.5814 28.7983 17.5814L28.8741 16.8975ZM19.5017 7.5969C19.426 7.67034 19.3479 7.81837 19.3479 7.89065C19.194 8.11211 18.9668 8.25957 19.1171 8.48103C19.194 8.77594 19.194 9.06968 19.426 9.29115C19.6562 9.51262 19.9604 9.43803 20.2663 9.65891C20.2663 9.65891 20.0361 8.70134 19.8858 8.25957C19.8089 7.9664 19.6562 7.81837 19.5017 7.5969ZM34.0124 13.1695C33.0276 12.2069 31.9648 11.6124 30.9038 11.6124C29.9952 11.6124 29.3111 12.2786 29.3111 12.9477C29.3111 15.617 30.3745 17.3232 31.0562 18.8046C31.2825 19.1756 31.3581 19.4725 31.3581 19.8435C31.4343 20.8078 30.6019 22.5868 30.0702 23.5511C29.9952 23.476 29.6142 23.4032 29.3111 23.4032C28.5532 23.4032 28.2501 23.9209 28.0977 24.3652C27.8703 24.3652 27.7208 24.2173 27.4898 24.2173C26.5818 24.1433 25.8232 24.958 25.8232 25.8495C25.8232 26.8115 26.0489 27.3327 26.43 28H27.1885C27.1117 27.7776 26.8854 26.6642 26.8092 26.3683C26.7354 25.9246 26.8854 25.6265 27.1117 25.404C27.4159 24.958 28.1727 25.1082 28.1727 25.1082C27.9465 25.4786 27.6434 26.0714 27.6434 26.6642C27.7208 27.0357 27.794 27.6308 28.0238 28H28.6305C28.7795 27.5545 28.6305 27.1848 28.6305 26.8115C28.6305 26.5914 28.6305 26.3683 28.7044 26.1453C28.7044 25.9974 29.0837 26.4423 29.0837 26.4423C29.0837 26.4423 29.3873 26.0714 29.3873 25.7744C29.3873 25.5525 28.9336 25.6265 28.8591 25.404C28.7794 25.1822 29.0086 24.6622 29.0086 24.6622C29.4635 24.3652 29.8416 24.4403 29.9952 24.4403C30.2209 24.4403 30.2959 24.5131 30.6019 24.5131C30.8276 24.5131 30.9038 24.0694 30.9038 23.8481C30.9789 23.9209 31.2086 24.0694 31.2825 24.0694C31.5094 24.1433 31.5856 24.1433 31.813 24.2173C32.1173 24.3652 32.4209 24.5131 32.7251 24.8112V24.7361C32.6478 24.4403 32.799 24.0694 32.5727 23.9209C32.5727 23.9209 32.1923 23.6239 31.8892 23.476C31.738 23.3281 31.5094 23.3281 31.4343 23.1802C31.3581 23.1062 31.3581 23.0311 31.3581 22.8832C31.3581 22.7347 31.4343 22.5128 31.5094 22.5128C31.6606 22.4377 31.738 22.5128 32.041 22.6596C32.3447 22.8092 32.6478 23.0311 32.8752 23.1802C32.8752 23.1802 32.9502 23.3281 32.9502 23.2541C33.2545 23.1062 33.2545 23.0311 33.2545 22.5868C32.9502 22.2147 33.2545 22.1419 32.799 21.8449C32.6478 21.8449 31.813 21.5479 31.813 21.5479C31.813 21.3994 32.041 21.0297 32.041 21.0297C32.1173 20.9569 32.2673 20.9569 32.3447 21.1036C32.799 21.3994 33.1021 21.3994 33.5605 21.5479C33.632 21.3266 33.632 21.1787 33.4819 21.0297C33.3284 20.8078 33.1021 20.5836 32.9502 20.5096C32.6478 20.4357 32.4959 20.3617 32.2673 20.2878C32.2673 20.0653 32.1923 19.8435 32.1173 19.5465C32.1173 19.3974 32.2673 19.4725 32.4209 19.4725C32.7251 19.3974 34.0124 19.8435 34.0124 19.8435C34.0124 19.5465 33.9362 19.3235 33.7838 19.1756C33.632 19.0265 33.4819 18.8786 33.1021 18.7312C32.5727 18.5822 32.1173 18.6573 31.738 18.4343C31.4343 18.1373 31.3581 18.0633 31.2825 17.7663C31.5094 17.6936 31.8892 17.6184 32.1173 17.6184C32.4959 17.6184 32.7251 17.5445 33.1794 17.6936C33.3284 17.7663 33.8612 18.2124 34.0898 18.2124C34.0898 18.2124 33.9362 17.6184 33.7838 17.3972C33.5605 17.3972 33.1794 16.9511 33.0276 16.8771C32.2673 16.5802 32.1173 16.7292 31.6606 16.8032C31.4343 16.8771 31.2086 16.8032 30.9789 16.8032C30.9038 16.6553 31.1313 16.4323 31.0562 16.2843C31.0562 16.2092 30.7508 16.1353 30.7508 15.9879C30.7508 15.9879 31.9648 15.8389 32.4209 15.9128C32.5727 15.9879 33.0276 16.2843 33.1794 16.2843C33.1794 16.2843 33.3284 15.7637 33.1021 15.32C32.7251 15.2472 32.3447 15.32 32.041 15.2472C31.738 15.1721 31.4343 15.2472 31.2086 15.2472C30.9789 15.2472 30.7508 15.1721 30.5246 15.1721C30.3745 14.9503 30.2959 14.7266 30.2959 14.5048C30.2959 14.5048 32.1923 14.4297 32.3447 14.3569C32.2673 14.2806 32.1173 14.209 32.041 14.0587C31.738 13.5399 31.5094 13.4665 31.1313 13.4665C30.9038 13.4665 30.3745 13.6878 30.0702 13.6138C30.0702 13.0216 30.3745 12.5028 30.8276 12.5028C31.738 12.5028 32.6478 12.8725 33.4057 13.6878C35.3032 15.617 36.2869 19.2495 36.2869 21.8449C36.2869 23.0311 36.1356 24.1433 35.985 25.0331C36.2118 25.1082 36.3619 25.1082 36.5905 25.1082C36.8197 24.2173 37.046 23.0311 37.046 21.9189C37.046 18.1373 35.6802 14.9503 34.0124 13.1695ZM22.5545 10.097C22.7089 10.6889 22.9376 11.4288 23.0148 12.3137C23.0148 12.5371 22.9376 12.7581 23.0148 12.9804L24.0799 13.3488C24.0799 13.3488 23.9302 12.4622 23.7769 11.4288C23.6243 10.5427 23.5476 10.2468 23.3189 9.87597C23.1657 9.94966 23.0902 9.94966 22.9376 9.94966C22.7089 10.0234 22.5545 10.097 22.5545 10.097ZM25.0596 14.4113C25.2126 14.5576 25.2879 14.8508 25.3644 15.3641C25.4402 15.6579 25.5932 15.731 25.7438 16.1705C25.9732 16.0248 26.3538 16.098 26.3538 16.098C26.3538 15.731 26.1244 15.3641 26.1244 15.2921C26.0467 15.1435 25.8202 14.7039 25.7438 14.5576C25.8202 14.5576 26.0467 14.8508 26.4291 14.8508C26.5067 14.8508 26.7355 14.9228 26.8861 14.8508C26.8861 14.8508 27.1132 14.9983 27.1132 15.1435C27.2655 15.3641 27.2655 15.5104 27.3443 15.731C27.4926 15.731 27.5714 15.731 27.6467 15.6579C27.9508 15.6579 28.1026 15.5836 28.1026 15.5836C28.0285 15.4372 27.9508 15.2921 27.9508 15.1435C27.8744 14.9983 27.7243 14.6308 27.7243 14.6308L29.092 14.4113C29.092 14.1895 29.0167 13.8957 28.7867 13.7494C28.1026 13.9712 27.3443 14.0432 26.8097 14.0432C26.0467 14.0432 25.2879 13.8957 24.2226 13.4574C24.1467 13.6031 24.2226 13.8957 24.2226 13.8957C24.6791 14.265 24.6791 14.0432 25.0596 14.4113ZM8.26499 2.17983C8.79961 1.87896 9.71128 1.35155 10.0148 1.05186C10.093 1.20289 11.0064 1.72911 11.3858 1.9527C11.6893 2.17983 11.9945 2.25357 12.298 2.40342C12.4504 2.17983 12.6009 1.9527 12.755 1.42766C12.9832 1.57868 13.2873 1.57868 13.5144 1.65242C13.5144 1.9527 13.5144 2.25357 13.5926 2.55562C13.5926 2.70429 13.7443 2.62936 14.049 2.47952C14.5048 2.32967 14.9606 2.25357 15.19 2.17983C15.72 1.87896 16.0252 1.27781 16.4816 1.27781C16.8633 1.27781 17.5474 1.50258 17.7003 1.65242C17.9279 1.72911 18.0808 1.80286 18.3096 1.80286C18.6131 1.80286 18.8413 1.50258 19.0678 1.35155C18.3849 0.902018 17.6262 0.451304 16.8633 0.151025C16.4063 0.525047 16.1017 0.825916 15.8741 0.825916C15.6447 0.825916 15.7976 0.376382 15.7976 0.0749224C15.5694 0.0749224 15.4165 0.0749224 15.19 0C15.0394 0.525047 14.9606 1.20289 14.5813 1.35155C14.4295 1.42766 14.3519 1.42766 14.2766 1.42766V0.825916C14.2766 0.750994 14.5813 0.225947 14.5048 0.151025C14.5048 0.151025 13.8196 0.30028 13.669 0.376382C13.5926 0.451304 13.1344 0.677251 13.0591 0.677251C13.0591 0.677251 12.8303 0.601149 12.755 0.601149C12.5268 0.451304 12.3751 0.451304 12.1463 0.30028C11.8428 1.20289 11.7646 1.42766 11.7646 1.27781C11.7646 1.27781 10.6994 0.601149 10.3212 0.151025C9.33073 0.30028 9.33073 0.451304 8.49378 0.750994C8.1897 1.05186 7.73328 1.42766 7.4292 1.87896C7.27745 2.17983 7.12453 2.32967 6.97337 2.62936L7.73328 2.93023C7.80974 2.85413 8.1897 2.32967 8.26499 2.17983ZM34.5525 22.3253C34.7647 22.3978 34.9073 22.9077 35.0504 23.0529C35.2649 23.3444 35.1941 22.5442 35.1223 22.3978C35.1223 22.3253 35.1223 21.7434 34.9797 21.7434C34.9073 21.6696 34.8366 21.4513 34.7647 21.3798C34.6929 21.597 34.7647 21.7434 34.7647 21.9612C34.7647 22.1075 34.4773 22.2515 34.5525 22.3253ZM21.2719 7.19965C21.1954 7.19965 20.9636 7.12696 20.6523 7.05426H20.2663C20.3428 7.27348 20.5758 7.49156 20.6523 7.63694C20.6523 7.71078 20.6523 7.93 20.7318 8.07424C20.8847 8.07424 21.1166 8.14693 21.2719 8.22019C21.349 8.22019 21.8126 8.29403 21.9674 8.43941C22.1215 8.43941 22.661 9.02209 22.7411 9.09479C22.9717 9.24131 23.2041 9.3867 23.3571 9.31401C23.5124 9.31401 23.3571 9.09479 23.3571 9.02209C23.0494 8.5848 22.8176 7.78347 22.7411 7.78347C22.5087 7.71078 22.3533 7.78347 22.045 7.63694C21.8915 7.49156 21.4266 7.27348 21.2719 7.19965ZM19.9796 5.4529C20.0558 5.60442 20.2042 5.60442 20.3543 5.67899C20.5032 5.82933 20.6539 5.9045 20.8779 6.05602C21.1759 6.35788 21.3254 6.73609 21.6984 7.03499C21.8479 7.11134 21.923 7.18651 21.9969 7.18651C22.0731 7.18651 22.371 7.4132 22.4455 7.48837C22.4455 6.88525 22.2209 6.43423 22.0731 6.13119C22.0731 6.05602 21.9969 5.98085 21.8479 5.9045C21.6222 5.67899 21.3993 5.4529 21.3254 5.4529C21.102 5.22739 20.9519 5.00188 20.7278 4.77519C20.5032 4.77519 20.3543 5.00188 20.2042 5.07705C20.1303 5.22739 19.8329 5.37891 19.9796 5.4529ZM19.7036 3.53345C19.7036 3.75266 19.7802 3.97416 19.8557 4.19222C20.2292 4.412 20.6817 4.55814 20.6817 4.55814C20.756 4.33778 20.6044 4.11915 20.6044 3.89879C20.4569 3.38616 20.2292 2.8741 20.1549 2.2884V1.99383C19.8557 1.84884 19.5525 1.77462 19.1768 1.62791C19.1768 1.62791 19.1768 2.06805 19.3278 2.2884C19.4788 2.65375 19.7036 3.24002 19.7036 3.53345ZM35.8205 5.49637L35.5206 5.11301L36.3434 4.88372L36.7191 6.18605L35.8205 5.49637ZM33.0787 4.82492L32.6315 5.10078L32.0339 4.68699L32.7052 4.34109L33.4504 4.82492H33.0787ZM44.9252 19.2904C45 18.8469 45 18.4039 45 18.1079C44.8474 17.9604 44.6176 17.8855 44.468 17.8855C44.468 17.6655 44.3902 17.37 44.468 17.0739C44.6176 17.0739 44.9252 17.1476 44.9252 17.0739C44.9252 16.6304 44.8474 16.1857 44.7732 15.9651C44.6176 15.8902 44.3902 15.8165 44.161 15.7416C44.161 15.5204 44.0856 15.2992 44.009 15.1518C44.24 15.0769 44.3902 15.0769 44.5422 15.0769C44.5422 15.0769 44.3902 14.4116 44.3154 14.1155C44.161 14.0418 43.9325 14.0418 43.7804 14.0418C43.7044 13.8955 43.6279 13.7457 43.5513 13.5245C43.7044 13.4514 43.8582 13.4514 44.009 13.3776C43.8582 13.0078 43.7805 12.8592 43.6279 12.638H43.0958C43.0204 12.4906 42.9438 12.342 42.9438 12.1957C43.0204 12.119 43.1713 12.0465 43.2484 11.9716C43.1713 11.7516 43.0204 11.5292 42.8661 11.3818C42.7141 11.3818 42.5615 11.4543 42.4095 11.3818C42.3341 11.3818 42.1043 11.0857 42.1809 11.0857C42.2563 10.9371 42.4095 10.8633 42.4861 10.7902C42.2563 10.4953 42.1809 10.2729 41.9517 10.1243C41.7997 10.1243 41.6489 10.1243 41.4945 10.1992C41.4945 10.1992 41.3419 9.97569 41.2665 9.90196C41.0368 9.90196 41.4191 9.53274 41.4191 9.53274C41.1899 9.23783 40.9625 9.01548 40.6579 8.72057C40.5024 8.72057 40.3504 8.86687 40.275 8.86687C40.275 8.86687 39.9704 8.64568 39.9704 8.57195C39.9704 8.4245 40.275 8.35077 40.275 8.35077C40.275 8.35077 39.7406 7.7592 39.3606 7.53686C39.2086 7.61058 39.1332 7.61058 38.9782 7.61058C38.7508 7.3894 38.4456 7.24194 38.4456 7.24194C38.4456 7.24194 38.6754 7.09333 38.6754 7.0196C38.2942 6.79783 38.1411 6.65154 37.8365 6.42803C37.5313 6.28058 37.3793 6.05823 37.2267 5.83588C36.6941 5.02429 36.0083 3.84174 34.3292 3.61939C34.3292 3.61939 34.7122 4.13665 34.9413 4.50703C34.9413 4.5796 34.9413 4.5796 34.6356 4.5796H34.1036C33.9492 4.35726 33.8738 4.28469 33.796 4.13665C33.6434 3.84174 33.5715 3.76685 33.416 3.61939C33.1108 3.39705 31.5867 4.21038 30.2906 4.50703C30.5981 4.87568 30.9015 5.09686 30.9769 5.24548C31.3581 5.6147 31.8919 6.28058 32.2719 6.79783C32.3496 6.72411 32.4262 6.65154 32.5788 6.57549C33.5715 6.42803 33.5715 6.20801 33.5715 6.20801C33.5715 6.20801 32.8062 5.6147 33.3383 5.6147C33.3383 5.6147 33.7206 5.68727 33.8738 5.54155C34.2544 5.46666 34.7122 5.39293 34.9413 5.54155C35.2453 5.76216 35.3974 6.05823 35.6265 6.28057C35.4745 6.28057 35.3231 6.20801 35.1699 6.20801C34.7122 6.13196 34.2544 6.20801 33.8738 6.28057C33.8738 6.28057 34.4859 6.79783 34.6356 7.0196C34.4859 6.94471 34.0258 7.0196 34.0258 7.0196C33.796 7.09333 33.4926 7.16705 33.416 7.16705C33.1886 7.24194 32.9582 7.16705 32.8062 7.24194C33.1108 7.3894 34.4859 7.90782 35.1699 7.90782C35.7797 7.90782 36.1597 7.83177 36.6941 7.61058C36.7695 7.53686 36.9215 7.46313 36.9981 7.53686C37.3038 7.61058 37.4559 7.68547 37.6079 7.83177C39.5904 9.01548 41.7997 11.8253 42.4861 13.3027C43.1713 14.7076 43.5513 16.2606 43.5513 17.7381C43.6279 19.7351 42.9438 21.6567 41.5711 23.3576C40.8064 24.3167 39.3606 25.1312 37.8365 25.2786C38.2942 25.7965 38.5211 26.6087 38.7508 27.3488C38.7508 27.3488 39.2852 27.2751 39.5904 27.1277C39.5904 26.5361 39.2086 25.8714 39.2086 25.7216C39.2086 25.7216 39.6652 25.4267 40.047 25.4267C40.1212 25.6479 40.3504 26.0177 40.6579 26.5361C40.9625 26.3875 41.1899 26.2389 41.4191 26.0177C41.4191 25.6479 41.1899 25.2049 41.0368 24.7614C41.5711 24.5402 41.8763 24.4641 41.8763 24.4641C42.03 24.6865 42.4095 24.9077 42.4861 25.1312C42.4861 25.1312 42.8661 24.7614 43.0204 24.3916C42.8661 24.0955 42.6375 23.8737 42.4861 23.5777L43.0958 22.9141C43.0958 22.9141 43.4759 23.209 43.6279 23.3576C43.8582 23.0616 44.0856 22.7655 44.161 22.3951C43.7805 22.0265 43.6279 22.0265 43.5513 21.8041C43.7044 21.5818 43.7804 21.2875 43.9325 21.0651C44.161 21.14 44.3154 21.2875 44.468 21.36C44.6176 21.0651 44.7732 20.6204 44.7732 20.3255C44.6176 20.1769 44.3902 20.1043 44.24 19.9563C44.3154 19.5865 44.3902 19.2167 44.3902 19.2167C44.3902 19.2167 44.7732 19.2904 44.9252 19.2904Z" transform="translate(3 5.5)" fill="white"/>
</g>
</svg>
