<svg width="33" height="24" viewBox="0 0 33 24" fill="none" xmlns="http://www.w3.org/2000/svg">
<path d="M4.12903 0.5H27.871C29.8701 0.5 31.5 2.13976 31.5 4.17391V19.8261C31.5 21.8602 29.8701 23.5 27.871 23.5H4.12903C2.12986 23.5 0.5 21.8602 0.5 19.8261V4.17391C0.5 2.13976 2.12986 0.5 4.12903 0.5Z" transform="translate(0.5)" fill="white" stroke="#E5E5E5"/>
<path fill-rule="evenodd" clip-rule="evenodd" d="M2.93513 5.86572C4.55625 5.86572 5.87031 4.5526 5.87031 2.93283C5.87031 1.31318 4.55625 0 2.93513 0C1.31406 0 0 1.31318 0 2.93283C0 4.5526 1.31406 5.86572 2.93513 5.86572Z" transform="translate(13.6467 5.01093)" fill="#019ACC"/>
<path fill-rule="evenodd" clip-rule="evenodd" d="M7.95233 1.37176C6.97069 1.37176 6.12532 0.990549 5.58772 0.566787C2.3832 0.902812 0 1.37907 0 1.37907V2.6261H17.0323C17.0323 0.875709 17.0323 0.000513809 17.0323 0.000513809C17.0323 0.000513809 14.0873 -0.0175251 10.7629 0.160166C10.2038 0.765873 9.21757 1.37176 7.95233 1.37176Z" transform="translate(7.98386 10.1564)" fill="#019ACC"/>
<path fill-rule="evenodd" clip-rule="evenodd" d="M2.01952 4.69565H0V0H2.01952V2.11308L3.21976 0H5.64116L3.86806 2.42663L5.54106 4.69565H3.23031L2.03344 2.9308L2.01952 4.69565Z" transform="translate(7.98386 13.5652)" fill="#003466"/>
<path fill-rule="evenodd" clip-rule="evenodd" d="M5.12815 4.44636C4.65155 4.60304 4.02519 4.69565 3.46474 4.69565C1.46681 4.69565 0 4.08412 0 2.30559C0 0.698329 1.42171 0 3.36519 0C3.90536 0 4.59145 0.0641953 5.12815 0.248707L5.12743 1.80553C4.72969 1.5461 4.33195 1.38439 3.76233 1.38439C3.02107 1.38439 2.28022 1.7775 2.28022 2.34808C2.28022 2.92015 3.01777 3.31191 3.76233 3.31191C4.32283 3.31191 4.72969 3.14477 5.12743 2.89729L5.12815 4.44636Z" transform="translate(19.8559 13.5652)" fill="#003466"/>
<path fill-rule="evenodd" clip-rule="evenodd" d="M2.01946 1.99002H3.02527C3.41401 1.99002 3.56628 1.8142 3.56628 1.54457C3.56628 1.23558 3.41263 1.08132 3.05333 1.08132H2.01934L2.01946 1.99002ZM2.01946 3.74101H3.0724C3.46702 3.74101 3.60148 3.55856 3.60148 3.28907C3.60148 3.01945 3.4657 2.82575 3.0769 2.82575H2.01934L2.01946 3.74101ZM0 0H4.08228C5.14272 0 5.49026 0.46038 5.49026 1.17713C5.49026 1.97944 4.84808 2.32807 4.18838 2.36738V2.38063C4.86571 2.43989 5.52553 2.52526 5.52553 3.47226C5.52553 4.09058 5.17799 4.69565 4.01158 4.69565H0V0Z" transform="translate(13.9558 13.5652)" fill="#003466"/>
</svg>
