<svg width="32" height="24" viewBox="0 0 32 24" fill="none" xmlns="http://www.w3.org/2000/svg">
<path d="M28 0H4C1.79086 0 0 1.79086 0 4V20C0 22.2091 1.79086 24 4 24H28C30.2091 24 32 22.2091 32 20V4C32 1.79086 30.2091 0 28 0Z" fill="#EB6F93"/>
<path d="M13.7718 11.4076L6.04025 0.619171C3.18073 2.68564 1.22375 5.74606 0.565768 9.18044L13.7718 11.4076ZM0.00372543 9.34771C0.650184 5.59036 2.7909 2.24262 5.951 0.0471234C6.06903 -0.0348781 6.23214 -0.00712822 6.31545 0.109129L14.5633 11.6179C14.6977 11.8055 14.5351 12.0597 14.3054 12.0209L0.217576 9.64508C0.0752806 9.62108 -0.0204137 9.48801 0.00372543 9.34771Z" transform="translate(8.72144 5.43729)" fill="white"/>
<path d="M5.18184 0.0760574C5.11472 0.142597 5.04584 0.216304 4.94916 0.323562C4.92281 0.352791 4.82751 0.459121 4.83032 0.455992C4.78231 0.509466 4.74547 0.550149 4.70916 0.589625C4.28495 1.05093 3.98418 1.26492 3.69532 1.26909C2.37821 1.29057 1.74064 2.11959 1.77676 3.23057C1.77936 3.30857 1.78428 3.37561 1.79334 3.47225C1.8083 3.63161 1.81043 3.66122 1.80907 3.71854C1.80256 3.99353 1.59573 4.31618 0.802081 5.16139C-0.165153 6.19245 -0.19336 7.3919 0.375553 8.15359C0.461233 8.2683 0.625028 8.29283 0.741399 8.20837C0.85777 8.12391 0.88265 7.96245 0.796971 7.84774C0.372776 7.27981 0.394508 6.35567 1.18622 5.51172C2.06419 4.57671 2.32172 4.17495 2.33225 3.73058C2.33428 3.6447 2.33166 3.60824 2.31444 3.42473C2.30624 3.33741 2.30199 3.27937 2.29981 3.21384C2.27232 2.36835 2.70856 1.80111 3.70348 1.78489C4.18753 1.7779 4.57867 1.49961 5.09689 0.936086C5.13483 0.89483 5.17294 0.852749 5.2222 0.797872C5.21984 0.800505 5.31459 0.694796 5.34036 0.666209C5.43105 0.5656 5.49428 0.49793 5.55292 0.439802C5.65482 0.338792 5.65435 0.175481 5.55188 0.0750357C5.44941 -0.0254096 5.28374 -0.0249521 5.18184 0.0760574Z" transform="translate(10.4115 7.16653)" fill="white"/>
<path d="M0.502407 1.75732C0.861002 0.928583 1.72803 0.429273 2.6365 0.528334C3.54496 0.627395 4.28032 1.30143 4.4465 2.1874C4.4615 2.26721 4.47171 2.34774 4.47709 2.42865C4.48656 2.57079 4.61113 2.67846 4.75533 2.66913C4.89953 2.6598 5.00875 2.53701 4.99929 2.39486C4.99256 2.29376 4.9798 2.19314 4.96108 2.09352C4.75296 0.983925 3.83191 0.139679 2.69404 0.0156024C1.55617 -0.108474 0.470193 0.516921 0.0210463 1.55493C-0.0356499 1.68596 0.026145 1.83749 0.159069 1.89338C0.291993 1.94927 0.445711 1.88835 0.502407 1.75732Z" transform="translate(14.5099 14.1214)" fill="white"/>
<path d="M2.14428 0.0424236C1.40095 -0.0995643 0.633706 0.119422 0.0823326 0.63094C-0.0229023 0.728568 -0.0279244 0.891805 0.0711155 0.99554C0.170155 1.09927 0.335753 1.10423 0.440988 1.0066C0.869834 0.60875 1.46658 0.438428 2.04473 0.548863C2.1866 0.575963 2.32389 0.484561 2.35139 0.344712C2.37888 0.204863 2.28615 0.0695234 2.14428 0.0424236Z" transform="translate(11.9794 13.508)" fill="white"/>
<path d="M0.0139576 0.340909C0.257537 1.04824 0.831529 1.59681 1.55628 1.81492C1.69449 1.85652 1.84074 1.77979 1.88294 1.64355C1.92513 1.50731 1.8473 1.36314 1.70908 1.32155C1.14539 1.1519 0.698955 0.725234 0.509504 0.17509C0.463052 0.0401996 0.314464 -0.0320309 0.177622 0.0137587C0.0407811 0.0595483 -0.0324941 0.206019 0.0139576 0.340909Z" transform="translate(17.7039 12.3347)" fill="white"/>
<path d="M1.89795 3.7418C0.849743 3.7418 0 2.90417 0 1.8709C0 0.83763 0.849743 0 1.89795 0C2.94616 0 3.79591 0.83763 3.79591 1.8709C3.79591 2.90417 2.94616 3.7418 1.89795 3.7418ZM1.89795 3.22594C2.65714 3.22594 3.27259 2.61927 3.27259 1.8709C3.27259 1.12253 2.65714 0.51586 1.89795 0.51586C1.13876 0.51586 0.523319 1.12253 0.523319 1.8709C0.523319 2.61927 1.13876 3.22594 1.89795 3.22594Z" transform="translate(13.5183 9.44702)" fill="white"/>
</svg>
