<svg width="32" height="24" viewBox="0 0 32 24" fill="none" xmlns="http://www.w3.org/2000/svg">
<path d="M28 0H4C1.79086 0 0 1.79086 0 4V20C0 22.2091 1.79086 24 4 24H28C30.2091 24 32 22.2091 32 20V4C32 1.79086 30.2091 0 28 0Z" fill="#EB6F93"/>
<path d="M0.515649 0.743C1.95083 0.590785 3.39314 0.511631 4.83677 0.505873C5.84954 0.505875 6.5855 0.538914 7.5876 0.613218C7.67362 0.619596 7.9842 0.643032 8.05282 0.648131C8.23031 0.661319 8.36973 0.671156 8.50479 0.679828C8.94479 0.70808 9.31811 0.722 9.71381 0.722C9.8562 0.722 9.97163 0.608756 9.97163 0.469063C9.97163 0.329369 9.8562 0.216125 9.71381 0.216125C9.33039 0.216125 8.96799 0.202613 8.53847 0.175033C8.40544 0.166491 8.26765 0.15677 8.09176 0.1437C8.02355 0.138632 7.71292 0.115193 7.62646 0.108782C6.61244 0.0335934 5.86412 0 4.83572 0C3.29557 0.00614082 1.75796 0.0946864 0.228701 0.265244C0.0984166 0.279774 0 0.387924 0 0.516563V1.30981C0 1.35128 0.0103913 1.39211 0.030259 1.42871C0.234898 1.80568 0.364821 2.2173 0.413144 2.64176C0.481297 3.95341 0.616667 4.77443 1.03103 5.59738C1.63183 6.79062 2.70273 7.46463 4.32975 7.46463C7.17231 7.46647 8.01349 6.83467 8.62338 4.95027C8.63318 4.92001 8.69851 4.71678 8.71798 4.65691C8.75477 4.54377 8.78598 4.45056 8.81742 4.36069C8.78229 4.46089 9.24387 3.09324 9.34573 2.85136C9.49532 2.49615 9.60521 2.375 9.71381 2.375C9.8562 2.375 9.97163 2.26176 9.97163 2.12206C9.97163 1.98237 9.8562 1.86912 9.71381 1.86912C9.32882 1.86912 9.09106 2.13128 8.86915 2.6582C8.75898 2.91981 8.28727 4.31747 8.32976 4.19629C8.29689 4.29025 8.26457 4.38677 8.22673 4.50314C8.20693 4.56401 8.14145 4.7677 8.13191 4.79718C7.85743 5.64525 7.65817 6.01903 7.23524 6.33668C6.68738 6.74817 5.78431 6.95969 4.32993 6.95875C2.90189 6.95875 2.0085 6.39646 1.49335 5.37334C1.11981 4.63146 0.992796 3.86112 0.92686 2.60072C0.872523 2.11951 0.73351 1.66563 0.515649 1.24779V0.743Z" transform="translate(6.75427 8.4552)" fill="white"/>
<path d="M2.60981 4.78557H2.58318C1.96227 4.80662 1.36019 4.57448 0.920034 4.14432C0.0218849 3.25132 0.0364102 1.76932 0.0364102 1.69807C0.0146222 1.48194 0.00493846 1.24444 0.00493846 1.00694C-0.0193475 0.790032 0.046617 0.572686 0.187889 0.404137C0.329162 0.235588 0.533787 0.130099 0.755413 0.111566C1.38 0.0426914 2.33867 0.0094413 2.9681 0.0023163C4.58526 -0.0166837 5.46646 0.0806913 5.82475 0.313441C6.30893 0.622191 6.24598 1.08294 5.82475 2.39869L5.71097 2.68369C5.29215 4.03744 5.05491 4.78557 2.60981 4.78557ZM3.52451 0.459433L1.07458 3.46381C0.985625 3.57289 1.00365 3.73206 1.11484 3.81933C1.22603 3.90659 1.38828 3.88891 1.47723 3.77982L3.92717 0.77545C4.01612 0.666368 3.99809 0.507196 3.8869 0.41993C3.77571 0.332664 3.61347 0.35035 3.52451 0.459433ZM1.90013 0.357274L0.493591 2.08152C0.404621 2.19059 0.422621 2.34977 0.533796 2.43705C0.644971 2.52433 0.80722 2.50668 0.896191 2.39761L2.30273 0.673358C2.3917 0.564291 2.3737 0.405116 2.26252 0.317832C2.15135 0.230548 1.9891 0.248207 1.90013 0.357274Z" transform="translate(8.55164 9.75558)" fill="white"/>
<path d="M9.45598 0.742998V1.24778C9.23812 1.6656 9.09916 2.11885 9.04602 2.58561C8.97883 3.86112 8.85182 4.63146 8.47828 5.37334C7.96313 6.39646 7.06974 6.95875 5.64187 6.95875C4.18901 6.95875 3.28615 6.74586 2.73763 6.33262C2.31421 6.01363 2.11433 5.63883 1.83836 4.78899C1.82876 4.75941 1.76372 4.5578 1.74409 4.49763C1.70649 4.38236 1.67442 4.2868 1.64188 4.19395C1.68435 4.3151 1.21265 2.91743 1.10248 2.65582C0.880572 2.1289 0.642805 1.86675 0.257824 1.86675C0.115432 1.86675 0 1.97999 0 2.11969C0 2.25938 0.115432 2.37262 0.257824 2.37262C0.366424 2.37262 0.476309 2.49378 0.6259 2.84899C0.727763 3.09086 1.18934 4.45851 1.15426 4.35846C1.18543 4.44741 1.21641 4.53972 1.25299 4.65183C1.2723 4.71103 1.33719 4.9122 1.34704 4.94255C1.96007 6.83034 2.802 7.46462 5.64187 7.46462C7.2689 7.46462 8.3398 6.79061 8.9406 5.59738C9.35496 4.77442 9.49033 3.95341 9.55974 2.62665C9.60681 2.2173 9.73673 1.80568 9.94137 1.4287C9.96124 1.39211 9.97163 1.35128 9.97163 1.30981V0.51656C9.97163 0.387922 9.87321 0.279772 9.74293 0.265242C8.21367 0.0946843 6.67606 0.00613873 5.13696 0C4.10751 -2.0899e-06 3.35919 0.0335913 2.34517 0.10878C2.25871 0.115191 1.94807 0.13863 1.87987 0.143698C1.70398 0.156768 1.56619 0.166489 1.43316 0.175031C1.00364 0.202611 0.641241 0.216123 0.257824 0.216123C0.115432 0.216123 0 0.329367 0 0.46906C0 0.608754 0.115432 0.721998 0.257824 0.721998C0.653517 0.721998 1.02684 0.708078 1.46684 0.679826C1.6019 0.671154 1.74131 0.661317 1.91881 0.648129C1.98743 0.64303 2.29801 0.619594 2.38403 0.613216C3.38613 0.538912 4.12209 0.505873 5.13591 0.505873C6.57855 0.511629 8.0208 0.590782 9.45598 0.742998Z" transform="translate(16.2102 8.4552)" fill="white"/>
<path d="M3.54782 4.79516C1.10273 4.79516 0.865482 4.04703 0.436985 2.69566L0.342571 2.39878C-0.0859262 1.08303 -0.141607 0.624655 0.342571 0.31353C0.700862 0.0760303 1.58206 -0.0165946 3.19922 0.00240542C3.83107 0.00240542 4.78732 0.0427804 5.41191 0.111655C5.63488 0.131334 5.84031 0.238507 5.9816 0.40887C6.1229 0.579234 6.18808 0.798351 6.16238 1.01653C6.16238 1.25403 6.16238 1.49153 6.12849 1.72903C6.12849 1.77178 6.14301 3.26328 5.24487 4.15628C4.80413 4.58706 4.20104 4.81925 3.5793 4.79753H3.54782V4.79516ZM2.1264 0.366863L0.719862 2.09111C0.630892 2.20018 0.648892 2.35936 0.760067 2.44664C0.871242 2.53392 1.03349 2.51627 1.12246 2.4072L2.529 0.682947C2.61797 0.57388 2.59997 0.414705 2.48879 0.327421C2.37762 0.240137 2.21537 0.257796 2.1264 0.366863ZM3.75078 0.469022L1.30085 3.4734C1.2119 3.58248 1.22992 3.74165 1.34111 3.82892C1.4523 3.91618 1.61455 3.8985 1.7035 3.78941L4.15344 0.785039C4.24239 0.675957 4.22436 0.516785 4.11317 0.429519C4.00198 0.342253 3.83974 0.359939 3.75078 0.469022Z" transform="translate(18.2196 9.74597)" fill="white"/>
</svg>
