<svg xmlns="http://www.w3.org/2000/svg" width="32" height="32" viewBox="0 0 32 32">
  <g fill="none" fill-rule="evenodd">
    <rect width="32" height="32" fill="#000" rx="8"/>
    <g fill="#FFF" transform="translate(10 9)">
      <path fill-rule="nonzero" d="M0,14 L3,14 L3,0 L0,0 L0,14 Z M8,0.00120689655 C7.938,3.06986207 6.2175,5.71875862 3.55575,7.02968966 L8,14 L12,14 L7.78875,7.623 C9.90575,5.61786207 11.10825,2.91489655 11.151,0.00120689655 L8,0.00120689655 Z"/>
      <path d="M12,12.0001415 C12,13.1045072 12.8954928,14 14.0001415,14 C15.1045072,14 16,13.1045072 16,12.0001415 C16,10.8954928 15.1045072,10 14.0001415,10 C12.8954928,10 12,10.8954928 12,12.0001415 Z"/>
    </g>
  </g>
</svg>
