<svg xmlns="http://www.w3.org/2000/svg" xmlns:xlink="http://www.w3.org/1999/xlink" width="32" height="32" viewBox="0 0 32 32">
  <defs>
    <rect id="knab-a" width="32" height="32" rx="8"/>
  </defs>
  <g fill="none" fill-rule="evenodd">
    <mask id="knab-b" fill="#fff">
      <use xlink:href="#knab-a"/>
    </mask>
    <use fill="#00374E" xlink:href="#knab-a"/>
    <g fill="#FFF" mask="url(#knab-b)">
      <g transform="translate(3 12)">
        <path d="M10.7688554 2C9.88886146 2 9.33111803 2.43034081 8.99656312 2.95608711L8.97161249 2.95608711 8.98357512 2.10710461 7.29205909 2.10710461C7.14320978 2.10710461 7 2.28769945 7 2.46022025L7 7.65693571C7 7.8305001 7.14275406 8 7.30066079 8L8.98357512 8 8.98357512 5.08378876C8.98357512 4.2344767 9.2198086 3.56542993 10.0742253 3.56542993 10.8933237 3.56542993 11.0168236 4.15104496 11.0168236 4.92834977L11.0168236 7.65298108C11.0168236 7.833521 11.1576409 8 11.3064332 8L13 8 13 4.52212122C13 3.09905803 12.5414325 2 10.7688554 2M23.1023552 6.76276583C22.2991586 6.76276583 21.7515645 6.14326705 21.7515645 5.23661932 21.7515645 4.33002638 22.2991586 3.70981534 23.1023552 3.70981534 23.9056617 3.70981534 24.4405581 4.33002638 24.4405581 5.23661932 24.4405581 6.14326705 23.9056617 6.76276583 23.1023552 6.76276583L23.1023552 6.76276583zM23.3533142 2.14521067C22.6199553 2.14521067 22.1153255 2.40555406 21.8106503 2.68121177 21.8169922 2.48034247 21.8242252 2.18533208 21.8242252 1.8937307L21.8242252 0 20.2687725 0C20.1318704 0 20 .17438392 20 .33334863L20 7.54303546C20 7.71542642 20.128516 7.87439113 20.2729655 7.87439113L21.7333939 7.87439113 21.7259513 7.41333578C22.1424229 7.81271429 22.7109438 8 23.3420455 8 24.972658 8 26 6.72130696 26 5.06699358 26 3.41215574 24.972658 2.14521067 23.3533142 2.14521067L23.3533142 2.14521067zM5.8226118 2.28333178L3.87935797 2.28333178C3.72953942 2.28333178 3.5805875 2.36629324 3.48466247 2.46529286L1.88567714 4.17370223 1.88567714 0 .277700543 0C.136223301 0 0 .17519415 0 .336694596L0 7.66852713C0 7.83263844.112499323 8 .279000487 8L1.88567714 8 1.88567714 6.2726752 2.40430065 5.77357435 3.69308683 7.78542979C3.81349414 7.94996736 3.98032029 8 4.17325365 8L6 8 3.70126564 4.42876743 5.8226118 2.28333178M17.3300674 6.28030887C17.2244628 6.48003296 16.9200533 6.80746009 16.4682414 6.80746009 16.0060042 6.80746009 15.6807441 6.53759607 15.6807441 6.09364531 15.6807441 5.66103517 15.9854914 5.41508859 16.4997104 5.39219234L17.3300674 5.33350055 17.3300674 6.28030887 17.3300674 6.28030887zM18.3798869 2.66662486C17.9701141 2.24535536 17.413856 2 16.4472942 2 15.6201228 2 14.911298 2.2482577 14.4467923 2.47388788 14.3271425 2.53515954 14.2800838 2.71494348 14.3281561 2.85258971L14.6727706 3.80122543C14.9352858 3.61397065 15.5969554 3.28627479 16.2585768 3.28627479 16.930913 3.28627479 17.3191111 3.60263002 17.3191111 4.21002562L17.3191111 4.33928731 16.0171535 4.3980866C15.0612101 4.44452407 14 4.87751044 14 6.16335525 14 7.45043625 14.9668031 8 15.8800317 8 16.7207657 8 17.1405294 7.50859057 17.3613916 7.26339646L17.3827249 7.65628751C17.3894338 7.76399663 17.483165 7.87127578 17.6127575 7.87127578L19 7.87127578 19 4.62011574C19 3.64879875 18.7793791 3.08741065 18.3798869 2.66662486L18.3798869 2.66662486z"/>
      </g>
    </g>
  </g>
</svg>
