<svg width="33" height="24" viewBox="0 0 33 24" fill="none" xmlns="http://www.w3.org/2000/svg">
<path d="M4.12903 0.5H27.871C29.8701 0.5 31.5 2.13976 31.5 4.17391V19.8261C31.5 21.8602 29.8701 23.5 27.871 23.5H4.12903C2.12986 23.5 0.5 21.8602 0.5 19.8261V4.17391C0.5 2.13976 2.12986 0.5 4.12903 0.5Z" transform="translate(0.5)" fill="white" stroke="#E5E5E5"/>
<path d="M5.16129 10.4348C8.01179 10.4348 10.3226 8.09888 10.3226 5.21739C10.3226 2.33591 8.01179 0 5.16129 0C2.31079 0 0 2.33591 0 5.21739C0 8.09888 2.31079 10.4348 5.16129 10.4348Z" transform="translate(8.24194 6.78259)" fill="#E7001A"/>
<path d="M5.16129 10.4348C8.01179 10.4348 10.3226 8.09888 10.3226 5.21739C10.3226 2.33591 8.01179 0 5.16129 0C2.31079 0 0 2.33591 0 5.21739C0 8.09888 2.31079 10.4348 5.16129 10.4348Z" transform="translate(14.4355 6.78259)" fill="#F49B1C"/>
<path opacity="0.3" fill-rule="evenodd" clip-rule="evenodd" d="M2.06452 0C3.31814 0.951867 4.12903 2.46735 4.12903 4.17429C4.12903 5.88124 3.31814 7.39672 2.06452 8.34859C0.810894 7.39672 0 5.88124 0 4.17429C0 2.46735 0.810894 0.951867 2.06452 0Z" transform="translate(14.4355 7.82568)" fill="#E7001A"/>
</svg>
