<svg xmlns="http://www.w3.org/2000/svg" width="32" height="32" viewBox="0 0 32 32">
  <g fill="none" fill-rule="evenodd">
    <rect width="32" height="32" fill="#0079FF" rx="8"/>
    <g fill="#FFF" transform="matrix(1 0 0 -1 4 22)">
      <path d="M7.16129032,5.57432432 C8.20393548,5.10347973 8.92374194,4.13150338 8.92374194,3.01552365 C8.92374194,1.4420777 7.49283871,0.154780405 5.74354839,0.154780405 L0.84116129,0.154780405 C0.382645161,0.154780405 0.00735483871,0.492212838 0.00735483871,0.904712838 L0.00735483871,9.85912162 C0.00735483871,10.2909459 0.375870968,10.6445439 0.826451613,10.6445439 L4.90974194,10.6445439 C6.62864516,10.6445439 8.03496774,9.29574324 8.03496774,7.64741554 C8.03496774,6.84489865 7.70148387,6.11373311 7.16129032,5.57432432 M3.50225806,6.30363176 L5.05877419,6.30363176 L5.05877419,6.32016892 C5.76754839,6.42459459 6.31490323,7.01621622 6.31490323,7.72471284 L6.31490323,7.72471284 C6.31490323,8.50623311 5.64870968,9.14579392 4.83464516,9.14579392 L1.69935484,9.14579392 L1.69935484,1.71521959 L5.67522581,1.71521959 C6.516,1.71521959 7.20387097,2.37559122 7.20387097,3.18275338 C7.20387097,3.98991554 6.516,4.65028716 5.67522581,4.65028716 L5.05877419,4.65028716 L5.05877419,4.65381757 L3.50225806,4.65381757 C3.0296129,4.65381757 2.64290323,5.02488176 2.64290323,5.47863176 C2.64290323,5.93238176 3.0296129,6.30363176 3.50225806,6.30363176" transform="translate(14.484 .531)"/>
      <path fill-rule="nonzero" d="M13.1612903,1.11486486 C13.2187742,0.596266892 12.8272258,0.130996622 12.2870323,0.0759966216 C11.7468387,0.0208108108 11.2621935,0.39652027 11.2049032,0.915304054 L10.3987742,8.03631757 L7.54354839,1.07342905 L7.54064516,1.06692568 L7.54045161,1.06618243 L7.54045161,1.06599662 L7.53251613,1.04760135 L7.52612903,1.03310811 L7.52458065,1.0295777 L7.51780645,1.01508446 L7.51354839,1.00635135 L7.50677419,0.992787162 L7.50348387,0.986469595 L7.49593548,0.972162162 L7.49322581,0.96714527 C7.44058065,0.871824324 7.37283871,0.788023649 7.29367742,0.717601351 L7.29077419,0.715185811 L7.27606452,0.702364865 C7.22458065,0.658513514 7.16767742,0.619864865 7.10593548,0.58660473 L7.10167742,0.584375 L7.08309677,0.574712838 L7.08232258,0.574341216 L7.06509677,0.565793919 L7.05716129,0.561891892 L7.04612903,0.556875 L7.03432258,0.551672297 L7.02406452,0.547027027 L7.01187097,0.542010135 L7.00122581,0.537736486 L6.99116129,0.533648649 L6.98206452,0.530304054 L6.97683871,0.528260135 L6.96851613,0.525287162 L6.95554839,0.520641892 L6.948,0.518226351 C6.85277419,0.486266892 6.75580645,0.469172297 6.6596129,0.465827703 L6.648,0.465456081 L6.63406452,0.46527027 L6.624,0.46527027 L6.61374194,0.46527027 L6.60019355,0.465456081 L6.58780645,0.465827703 C6.4803871,0.469543919 6.3716129,0.490540541 6.26574194,0.530304054 L6.25258065,0.535320946 L6.24929032,0.536807432 L6.23612903,0.541824324 L6.22335484,0.547212838 L6.21309677,0.551858108 L6.20206452,0.556689189 L6.19025806,0.562077703 L6.18348387,0.565422297 L6.16548387,0.574155405 L6.16374194,0.57527027 L6.14845161,0.583260135 L6.13974194,0.587719595 C6.08574194,0.616891892 6.0356129,0.650523649 5.98935484,0.687871622 L5.98567742,0.691030405 C5.97464516,0.700135135 5.96380645,0.709054054 5.95316129,0.718530405 L5.95258065,0.719273649 C5.94425806,0.726706081 5.93593548,0.734324324 5.928,0.741942568 C5.92006452,0.749746622 5.91193548,0.757550676 5.90419355,0.765540541 L5.9036129,0.766283784 C5.89374194,0.776503378 5.88425806,0.786722973 5.87477419,0.7975 L5.87148387,0.801030405 C5.83258065,0.845439189 5.79774194,0.893564189 5.76735484,0.945405405 L5.76251613,0.953581081 L5.754,0.968445946 L5.75322581,0.970304054 L5.74393548,0.987212838 L5.74064516,0.993902027 L5.73503226,1.00505068 L5.72980645,1.0158277 L5.72516129,1.02567568 L5.71954839,1.03793919 L5.71393548,1.05038851 L5.71277419,1.0535473 L5.70735484,1.06618243 L2.84903226,8.03631757 L2.04290323,0.915304054 C1.98541935,0.39652027 1.50096774,0.0208108108 0.960774194,0.0759966216 C0.420387097,0.130996622 0.0290322581,0.596266892 0.086516129,1.11486486 L1.03683871,9.51035473 L1.03722581,9.51258446 L1.0376129,9.51611486 L1.03722581,9.51630068 C1.04864516,9.61403716 1.07012903,9.71140203 1.10109677,9.80690878 C1.13109677,9.89962838 1.17116129,9.9910473 1.22070968,10.0802365 C1.46341935,10.5178209 1.90993548,10.8247804 2.44277419,10.8955743 L2.44470968,10.8959459 C2.46251613,10.8981757 2.48051613,10.9000338 2.49832258,10.9015203 C2.58174194,10.9098818 2.66477419,10.9122973 2.74645161,10.9085811 L2.75032258,10.9083953 L2.75032258,10.9085811 C2.85658065,10.90375 2.95606452,10.8909291 3.04780645,10.8704899 C3.55606452,10.7565878 3.98787097,10.4171115 4.19109677,9.92155405 L6.624,3.9891723 L9.05670968,9.92155405 C9.25993548,10.4171115 9.69174194,10.7565878 10.2,10.8704899 C10.2915484,10.8909291 10.3910323,10.90375 10.4974839,10.9085811 L10.4974839,10.9083953 L10.5013548,10.9085811 C10.5832258,10.9122973 10.6664516,10.9098818 10.7500645,10.9015203 C10.7676774,10.9000338 10.7852903,10.8981757 10.8030968,10.8959459 L10.8050323,10.8955743 C11.337871,10.8247804 11.7845806,10.5178209 12.0272903,10.0802365 C12.0766452,9.9910473 12.1169032,9.89962838 12.1467097,9.80690878 C12.1776774,9.71140203 12.1991613,9.61422297 12.2105806,9.51630068 L12.2101935,9.51611486 L12.2105806,9.51258446 L12.2109677,9.51035473 L13.1612903,1.11486486 Z" transform="translate(.552 .466)"/>
    </g>
  </g>
</svg>
