<svg fill="none" height="24" viewBox="0 0 32 24" width="32" xmlns="http://www.w3.org/2000/svg"><path d="m4.12903.5h23.74197c1.9991 0 3.629 1.63976 3.629 3.67391v15.65219c0 2.0341-1.6299 3.6739-3.629 3.6739h-23.74197c-1.99917 0-3.62903-1.6398-3.62903-3.6739v-15.65219c0-2.03415 1.62986-3.67391 3.62903-3.67391z" fill="#fff" stroke="#e6e6e6"/><g clip-rule="evenodd" fill-rule="evenodd"><path d="m22.2986 13.6423s-.7024.1442-.6951-.3586c.0075-.5028 1.2797-.4727 1.41-.432 0 0 .0401.5705-.7149.7906zm.2114-3.1717c-1.0921-.0102-1.6028.6179-1.6028.6179-.3316.3517-.119.828.2063.8624.4674.0494.4626-.3423 1.18-.516.6294-.1523.6566.4307.6566.4307-2.6842-.0667-2.556 2.1857-1.6423 2.6641.8763.4587 1.6953-.12 1.6953-.12s.0308.3117.4643.3117c.4961 0 .4954-.4951.4954-.4951l-.002-2.1924c-.0327-1.604-1.4508-1.5633-1.4508-1.5633z" fill="#204256"/><path d="m31.1779 13.8362-1.0943-1.6471.8043-.7605s.3712-.3436.0664-.6842c-.3377-.3772-.7404-.0048-.7404-.0048l-1.0106.9388v-1.88444c0-.27002-.2188-.48872-.4887-.48872-.2702 0-.489.2187-.489.48872v4.43424c0 .2699.2188.4887.489.4887.2699 0 .4887-.2188.4887-.4887v-1.1805l.1849-.1847.99 1.5516s.3227.5387.798.1959c.3573-.2578.0017-.7743.0017-.7743z" fill="#204256"/><path d="m27.6864 12.0341c0-1.6017-1.3352-1.8274-2.2431-1.3193-.0007.0006-.0016.0024-.002.0029-.0683-.1949-.2519-.3357-.4702-.3357-.2759 0-.4997.2238-.4997.4999v3.3396c0 .2761.2238.4999.4997.4999.2761 0 .4999-.2238.4999-.4999l-.0069-2.2531s.1212-.1443.3158-.2824c.4675-.3314.9132-.2185.9132.3479l.0114 2.1957c0 .2719.2201.4918.4918.4918.2715 0 .4916-.2199.4916-.4918z" fill="#204256"/><path d="m13.317 14.7856c.1145-.1913.1344-.326.1344-.326l-1.1287-2.9503s-.2048-.5708.2465-.7399c.4782-.1794.6508.2773.6867.3731.0359.0957.7131 1.899.7131 1.899l.652-1.8949s.1868-.5891.7091-.379c.4315.1737.2098.7516.2098.7516s-.6672 1.9744-1.2266 3.4067c-.3341.8558-.6194.9402-.9454 1.0204-.4363.1074-1.2612.0542-1.2612-.4883 0-.4279.4381-.4546.6357-.4482.0106.0002.4191.0356.5746-.2242z" fill="#1cb9de"/><path d="m10.6955 9.82625-1.03174 2.84675-1.12477-2.82943s-.16669-.53638-.63567-.53638c-.5434 0-.52567.43043-.5379.53638-.01223.10603 0 4.42453 0 4.42453s-.0055.4534.49307.4534c.50941 0 .48495-.4574.48901-.4574.00407 0 0-2.2798 0-2.2798l.82725 2.2798s.1222.4482.5053.44c.38305-.008.49305-.44.49305-.44l.6928-2.2757v2.2757s0 .4574.5012.4574c.4849 0 .4849-.4574.4849-.4574l.0007-4.41643s0-.54048-.5263-.53789c-.4365.00205-.6024.4205-.6309.51647-.0033.0112-.0048.01732-.0048.01732z" fill="#1cb9de"/><path d="m31.3388 16.4653h-8.708l-6.3938-.0011.0044.0071c-1.2638 1.4809-3.1409 2.4227-5.2405 2.4227-3.80662 0-6.89247-3.0861-6.89247-6.8927 0-3.80669 3.08585-6.89254 6.89247-6.89254 2.1087 0 3.9947.94719 5.2587 2.43893h1.384c-1.4362-2.13813-3.8733-3.54769-6.6427-3.54769-4.41861 0-8.0009 3.58233-8.0009 8.0013 0 4.4189 3.58229 8.0012 8.0009 8.0012 2.3181 0 4.4013-.9896 5.8617-2.5653l13.8203-.0138z" fill="#1cb9de"/><path d="m18.6571 13.7552h-1.3908v-1.3257h1.3908c.3364.0173.663.1885.663.6629 0 .4872-.297.6628-.663.6628zm-1.3908-3.4015h1.2964c.2597.0067.5322.1452.5322.5323 0 .4034-.2383.5323-.5322.5323h-1.2964zm2.4866 1.4663c.0264-.0364.3591-.3059.3328-1.0226-.053-1.45095-1.3131-1.43441-1.592-1.44287-.4493-.0135-.7198-.00808-1.5445 0-.6964.0069-.6913.63978-.6913.63978v4.72709h2.3473c1.2561 0 1.7234-.6915 1.7234-1.6583 0-.9727-.5757-1.2431-.5757-1.2431z" fill="#204256"/></g></svg>