<svg xmlns="http://www.w3.org/2000/svg" xmlns:xlink="http://www.w3.org/1999/xlink" width="32" height="32" viewBox="0 0 32 32">
  <defs>
    <rect id="nationale-bioscoopbon-a" width="32" height="32" rx="8"/>
    <ellipse id="nationale-bioscoopbon-c" cx="13.5" cy="11" rx="13.5" ry="11"/>
  </defs>
  <g fill="none" fill-rule="evenodd">
    <mask id="nationale-bioscoopbon-b" fill="#fff">
      <use xlink:href="#nationale-bioscoopbon-a"/>
    </mask>
    <use fill="#150F11" xlink:href="#nationale-bioscoopbon-a"/>
    <g mask="url(#nationale-bioscoopbon-b)">
      <g transform="translate(2.5 5)">
        <use fill="#FFF" xlink:href="#nationale-bioscoopbon-c"/>
        <g transform="translate(4.5 5)">
          <polygon fill="#FE0" stroke="#FFED07" stroke-width=".563" points=".221 6.866 14.063 0 17.987 10.984 3.273 10.708"/>
          <path fill="#000" d="M0,-7.2e-15 L10,-7.2e-15 L10,4 L17,4 L17,12 L9,12 L8,7 L5,8 L6,4 L0,4 L0,-7.2e-15 Z M15.405,8 C15.1813247,8 15,8.18132468 15,8.40500001 L15,8.59499999 C15,8.81867532 15.1813247,9 15.405,9 L15.595,9 C15.8186753,9 16,8.81867532 16,8.59499999 L16,8.40500001 C16,8.18132468 15.8186753,8 15.595,8 L15.405,8 Z M15.405,10 C15.1813247,10 15,10.1813247 15,10.405 L15,10.595 C15,10.8186753 15.1813247,11 15.405,11 L15.595,11 C15.8186753,11 16,10.8186753 16,10.595 L16,10.405 C16,10.1813247 15.8186753,10 15.595,10 L15.405,10 Z M15.405,11 C15.1813247,11 15,11.1813247 15,11.405 L15,11.595 C15,11.8186753 15.1813247,12 15.405,12 L15.595,12 C15.8186753,12 16,11.8186753 16,11.595 L16,11.405 C16,11.1813247 15.8186753,11 15.595,11 L15.405,11 Z M1.40500001,1 L1.40500001,1 C1.18132468,1 1,1.18132468 1,1.40500001 L1,1.59499999 C1,1.81867532 1.18132468,2 1.40500001,2 L1.59499999,2 C1.81867532,2 2,1.81867532 2,1.59499999 L2,1.40500001 C2,1.18132468 1.81867532,1 1.59499999,1 L1.59499999,1 L1.40500001,1 Z M1.40500001,3 L1.40500001,3 C1.18132468,3 1,3.18132468 1,3.40500001 L1,3.59499999 C1,3.81867532 1.18132468,4 1.40500001,4 L1.59499999,4 C1.81867532,4 2,3.81867532 2,3.59499999 L2,3.40500001 C2,3.18132468 1.81867532,3 1.59499999,3 L1.59499999,3 L1.40500001,3 Z M1.40500001,-1.40833828e-14 L1.40500001,-1.40833828e-14 C1.18132468,-1.40422943e-14 1,0.181324682 1,0.405000012 L1,0.405000012 L1,0.594999988 C1,0.818675318 1.18132468,1 1.40500001,1 L1.59499999,1 C1.81867532,1 2,0.818675318 2,0.594999988 L2,0.405000012 C2,0.181324682 1.81867532,-1.41244712e-14 1.59499999,-1.40833828e-14 L1.59499999,-1.40833828e-14 L1.40500001,-1.40833828e-14 Z"/>
        </g>
      </g>
    </g>
    <rect width="5" height="2" x="10" y="11" fill="#FF0E18" mask="url(#nationale-bioscoopbon-b)"/>
    <rect width="3" height="2" x="18" y="18" fill="#0079FF" mask="url(#nationale-bioscoopbon-b)"/>
    <rect width="5" height="1" x="15" y="15" fill="#FFCB00" mask="url(#nationale-bioscoopbon-b)"/>
  </g>
</svg>
