<svg width="32" height="24" viewBox="0 0 32 24" fill="none" xmlns="http://www.w3.org/2000/svg">
<path d="M4.096 0.5H27.904C29.8862 0.5 31.5 2.12098 31.5 4.12903V19.871C31.5 21.879 29.8862 23.5 27.904 23.5H4.096C2.11376 23.5 0.5 21.879 0.5 19.871V4.12903C0.5 2.12098 2.11376 0.5 4.096 0.5Z" fill="white" stroke="#E5E5E5"/>
<path d="M16.4147 0L0 8.16189L3.7179 12.763L21.0808 13.0697" transform="translate(6.0025 4.51178)" fill="#FFF101"/>
<path d="M18.901 14.4523L19.6929 14.4834L19.2079 4.45592L12.0092 4.70316L11.9488 0L2.61543 0.28965V0.537055C2.61543 0.755023 2.44271 0.932094 2.22895 0.932094H1.42803C1.2147 0.932094 1.0422 0.755023 1.0422 0.537055V0.339086L0 0.371669L0.363121 5.16741L6.68619 4.57957L6.14118 9.22274L9.71037 8.91264L9.83222 14.1108L17.3331 14.3949V14.0733C17.3331 13.8542 17.5054 13.6781 17.7183 13.6781H18.5196C18.7336 13.6781 18.9054 13.8542 18.9054 14.0733V14.3976C18.9054 14.4169 18.9041 14.4351 18.9015 14.4531L18.901 14.4523ZM18.5196 13.0379H17.7178C17.5048 13.0379 17.3327 12.8606 17.3327 12.6426V12.319C17.3327 12.1017 17.5049 11.924 17.7178 11.924H18.5192C18.7332 11.924 18.905 12.1017 18.905 12.3192V12.6428C18.905 12.8608 18.7332 13.0381 18.5192 13.0381L18.5196 13.0379ZM2.62611 2.30662C2.62611 2.52429 2.45274 2.70166 2.24 2.70166H1.43849C1.22599 2.70166 1.05309 2.52429 1.05309 2.30662V1.98196C1.05309 1.76361 1.22599 1.58651 1.43849 1.58651H2.23997C2.45274 1.58651 2.62607 1.76359 2.62607 1.98196V2.30662H2.62611ZM2.62607 4.06061C2.62607 4.2788 2.45274 4.45565 2.23997 4.45565H1.43849C1.22599 4.45565 1.05309 4.2788 1.05309 4.06038V3.73532C1.05309 3.51791 1.22599 3.34194 1.43849 3.34194H2.23997C2.45274 3.34194 2.62607 3.51789 2.62607 3.73534V4.06072V4.06061ZM18.9049 10.5636V10.8885C18.9049 11.1063 18.733 11.2835 18.5191 11.2835H17.7176C17.5047 11.2835 17.3325 11.1063 17.3325 10.8885V10.5636C17.3325 10.3465 17.5047 10.1697 17.7176 10.1697H18.5191C18.733 10.1697 18.9049 10.3465 18.9049 10.5638" transform="translate(5.77454 5.08505)" fill="#0C0A09"/>
<path d="M0.0257656 4.54277C0.0257656 4.54277 0.0466623 5.07789 0.0484746 5.37071C0.0491298 5.6635 0 7.5991 0 7.5991L0.556669 7.61973C0.556669 7.61973 0.549158 6.96053 0.555796 6.57699C0.567696 5.73748 0.595033 4.48432 0.595033 4.48432L0.234533 4.49789L0.0260059 4.54277H0.0257656ZM12.0415 1.59582C12.0715 1.5218 12.1765 1.45861 12.2829 1.44985C12.3337 1.44648 12.3854 1.45546 12.4285 1.48166C12.5617 1.5633 12.5667 1.80929 12.5667 1.80929L12.4186 1.82772L12.0045 1.87686C12.0045 1.87686 12.0045 1.68608 12.0417 1.59579L12.0415 1.59582ZM12.5364 2.15393L12.9492 2.09982C12.9492 2.09982 12.9693 1.93556 12.9044 1.58771C12.8233 1.14121 12.4028 1.04773 12.2386 1.072C12.2082 1.07627 12.1791 1.08054 12.1513 1.08503C11.9509 1.11851 11.8107 1.17042 11.6661 1.38165C11.4648 1.67669 11.4746 2.25352 11.6039 2.61373C11.7218 2.94405 12.0611 3.07371 12.3077 3.0564C12.4651 3.04472 12.6789 2.97528 12.8142 2.92675C12.8931 2.89709 12.9457 2.87664 12.9457 2.87664L12.8193 2.45418C12.8193 2.45418 12.7592 2.47463 12.6658 2.51418C12.6459 2.52182 12.6243 2.53036 12.6016 2.53912C12.4699 2.59373 12.4188 2.61912 12.1989 2.59171C11.9769 2.56407 12.0037 2.22363 12.0037 2.22363L12.5358 2.15307L12.5364 2.15393ZM6.9564 1.01915C6.9564 1.01915 6.99068 1.25105 6.98681 1.41666C6.98149 1.63215 6.97664 1.7681 6.95983 2.03506C6.93188 2.50766 6.87606 3.0076 6.87606 3.0076L7.43701 2.98908L7.46518 1.67615C7.46518 1.67615 7.87534 1.44937 7.94281 1.6188C8.00849 1.78981 7.96654 2.17624 7.95027 2.44407C7.93346 2.70698 7.91446 2.9791 7.91446 2.9791L8.43764 2.93259V1.66568C8.43764 1.66568 8.42855 1.23154 8.22219 1.12773C8.10463 1.06818 7.8461 1.02279 7.68133 1.11222C7.54093 1.18862 7.45001 1.25199 7.45001 1.25199L7.41572 0.974474L6.95631 1.01874L6.9564 1.01915ZM9.6176 1.95803C9.55406 1.97083 9.21146 2.02859 9.1418 2.18206C9.06189 2.35958 9.1477 2.53373 9.32304 2.51755C9.47719 2.50272 9.64926 2.33104 9.64926 2.33104L9.6176 1.9578V1.95803ZM9.15597 0.970901C9.35031 0.903488 9.60906 0.875107 9.794 0.922813C9.97742 0.970901 10.0698 1.23786 10.0787 1.40093C10.0888 1.56429 10.0979 2.09034 10.1165 2.34776C10.1342 2.60559 10.2219 2.76718 10.2219 2.76718L9.75961 2.92052L9.70546 2.73783C9.70546 2.73783 9.57657 2.81972 9.41518 2.88592C9.25033 2.95311 8.9752 2.87273 8.81821 2.72885C8.66099 2.58625 8.67475 2.13056 8.88764 1.88304C9.09922 1.63429 9.60712 1.61101 9.60712 1.61101C9.60712 1.61101 9.64511 1.31934 9.50536 1.32832C9.36802 1.3387 8.87039 1.52551 8.87039 1.52551L8.81449 1.08642C8.81449 1.08642 8.96276 1.03834 9.15665 0.971148L9.15597 0.970901ZM10.6818 0.0189878L11.1841 0C11.1841 0 11.0957 1.25612 11.0957 1.77003V2.95313L10.5752 2.99818C10.5752 2.99818 10.6549 1.44499 10.6549 1.15602C10.6549 0.867265 10.6818 0.0189878 10.6818 0.0189878H10.6818Z" transform="translate(11.1877 5.89316)" fill="#0C0A09"/>
<path d="M0 3.34284C0.00545883 3.21314 0.0264212 2.67224 0.0407451 1.6282V1.62815C0.0482783 1.02739 0.052711 0.633882 0.0559863 0.390612C0.0576458 0.268955 0.0589555 0.184891 0.0602656 0.131365C0.0607678 0.108445 0.0613578 0.0911873 0.0618818 0.0790755C0.067428 0.0784463 0.0737162 0.0775699 0.0809219 0.0764913C0.173504 0.0626717 0.399979 0.0150106 0.470791 0L1.10063 1.80954L1.14954 1.80078L1.14561 0.0806708L1.58861 0.0624695C1.58053 0.203587 1.54629 0.853671 1.54629 1.67701C1.54629 2.50227 1.56186 3.08786 1.5655 3.21177L1.1357 3.24934C1.11779 3.18725 1.06338 3.00746 0.909331 2.51113C0.628311 1.60247 0.536908 1.38587 0.536253 1.38432L0.487997 1.39443V3.27368L0.000197266 3.34244L0 3.34284ZM2.32194 3.13705H2.32107C2.22893 3.13638 2.14333 3.10132 2.07127 2.99616V2.99594H2.07149C1.98262 2.86403 1.94878 2.73393 1.94878 2.61326C1.94878 2.49551 1.98131 2.38697 2.02891 2.29664C2.0763 2.20631 2.13875 2.13485 2.19595 2.09216C2.28439 2.02609 2.41889 1.96564 2.53047 1.92272C2.58637 1.90138 2.63659 1.88407 2.67262 1.87217C2.69074 1.8661 2.70537 1.8616 2.71542 1.85846C2.72546 1.85531 2.73092 1.85374 2.73092 1.85374L2.74948 1.84812L2.74926 1.82835C2.74926 1.82655 2.74861 1.77352 2.72677 1.71757C2.71585 1.68948 2.69948 1.66026 2.67349 1.63757C2.64795 1.61487 2.61257 1.59959 2.56956 1.59959H2.5689C2.56082 1.59959 2.55252 1.60004 2.54379 1.60117H2.54357C2.39837 1.61914 2.17063 1.68745 2.09289 1.7115L2.01865 1.3041C2.09748 1.27511 2.40033 1.17175 2.65668 1.17175H2.65886C2.77 1.17175 2.8711 1.19175 2.94076 1.24141C3.0091 1.28994 3.05605 1.34005 3.09011 1.39646C3.14077 1.4805 3.16282 1.58027 3.1757 1.71127C3.18859 1.84183 3.1923 2.00272 3.20911 2.20496C3.23706 2.5409 3.32309 2.9047 3.34755 3.00313L2.92656 3.10469L2.86804 2.84358L2.83617 2.87482L2.83333 2.87751C2.81848 2.89145 2.7473 2.95706 2.65122 3.01841C2.55558 3.07975 2.43483 3.13615 2.32325 3.13615L2.32194 3.13705ZM2.76564 2.1726C2.76455 2.17283 2.65253 2.19844 2.53855 2.25709C2.48156 2.28653 2.42391 2.32406 2.37937 2.37259C2.33483 2.42091 2.30317 2.48135 2.30338 2.55303C2.30338 2.62854 2.3202 2.68179 2.3512 2.71685C2.38199 2.75145 2.42435 2.76381 2.46496 2.76381H2.46584C2.52807 2.76359 2.5903 2.73819 2.6331 2.7164H2.63331C2.71061 2.6755 2.83442 2.58854 2.83485 2.58831L2.84752 2.57933L2.79116 2.16768L2.76441 2.17375L2.76564 2.1726ZM5.56387 0.954251L5.52881 0.318952L6.026 0.291763V0.927465L5.56381 0.954251H5.56387ZM4.36047 3.1391H4.3597C4.34682 3.1391 4.33463 3.13858 4.32334 3.1373C4.26718 3.12989 4.20784 3.11512 4.15085 3.08733L4.1508 3.08724C4.07346 3.05 4.00086 2.99016 3.94655 2.89421C3.8924 2.79826 3.85659 2.66523 3.85659 2.48115C3.85659 2.47284 3.8567 2.46439 3.85681 2.45589C3.85976 2.28062 3.87253 2.0089 3.88751 1.72386L3.88895 1.69644L3.52915 1.69891L3.5178 1.28612L3.92066 1.29107L3.92168 1.26612C3.93865 0.849738 3.939 0.84075 3.96099 0.531999L4.39503 0.564582C4.38619 0.65087 4.35704 0.939172 4.32538 1.28882L4.32297 1.31646L4.84113 1.32387L4.81499 1.68925L4.29127 1.69195L4.28974 1.71577C4.28188 1.83172 4.2762 1.93149 4.27424 2.0034C4.27227 2.08317 4.26987 2.16182 4.26987 2.23574C4.27009 2.35372 4.27577 2.45933 4.30153 2.53933C4.31463 2.5791 4.33276 2.61348 4.35983 2.6382C4.38669 2.66292 4.42206 2.67685 4.46246 2.67685H4.46333C4.48014 2.67685 4.49805 2.6746 4.51683 2.67033C4.69042 2.63101 4.80156 2.57213 4.85156 2.54112L4.8996 2.72786L4.92406 2.72112L4.89982 2.72763L4.96008 2.95841C4.91947 2.97706 4.81903 3.02178 4.70439 3.06178C4.58845 3.10245 4.45678 3.13818 4.36158 3.13818L4.36047 3.1391ZM5.54483 3.13211L5.59593 1.65083L5.22866 1.72903L5.26687 1.34208L6.00665 1.25646L5.94813 3.07503L5.54483 3.13211ZM7.19493 3.25974C7.1696 3.25974 7.14427 3.2584 7.11872 3.2557C6.89884 3.23278 6.72372 3.11571 6.60166 2.93841C6.4796 2.76112 6.41191 2.52337 6.41191 2.26293C6.41191 2.2135 6.41453 2.16316 6.41934 2.11216L6.41956 2.11193V2.11148C6.42174 2.08339 6.42676 2.05485 6.43244 2.02542V2.02497L6.43266 2.02474C6.51388 1.55218 6.8567 1.24927 7.24034 1.24927C7.26502 1.24927 7.29013 1.25062 7.31502 1.25309C7.44909 1.26702 7.56809 1.32095 7.66963 1.40567V1.40589L7.68557 1.38589L7.66963 1.40589C7.89016 1.58813 8.02358 1.91553 8.02336 2.26338C8.02336 2.30878 8.02117 2.35439 8.01659 2.40023C7.96462 2.92336 7.60237 3.25952 7.19515 3.25952L7.19493 3.25974ZM7.14645 2.84291C7.15977 2.84426 7.17309 2.84493 7.18641 2.84493H7.18663C7.30541 2.84493 7.41874 2.7895 7.50543 2.69415C7.59233 2.59888 7.65325 2.46337 7.66941 2.30181C7.67203 2.27395 7.67334 2.24676 7.67334 2.22001C7.67334 2.06811 7.63229 1.93284 7.56154 1.83172C7.49123 1.7306 7.39013 1.66363 7.27332 1.6515H7.2731C7.26087 1.65015 7.24864 1.6497 7.23641 1.6497C7.11654 1.6497 7.00605 1.71037 6.92308 1.81037C6.83989 1.91059 6.78289 2.05058 6.76717 2.21327C6.76477 2.23799 6.76368 2.26249 6.76368 2.28675C6.7639 2.43102 6.80517 2.5636 6.87373 2.66382C6.94207 2.76381 7.03815 2.83212 7.14733 2.84313H7.14599" transform="translate(9.37659 5.78754)" fill="#D8232A"/>
<path d="M5.08516 3.21986H5.0845C4.86447 3.2197 4.62865 3.16018 4.4466 2.96144C4.2645 2.76276 4.13344 2.42064 4.13338 1.84785C4.13338 1.81033 4.13403 1.77168 4.13534 1.73213C4.15565 1.01912 4.32553 0.604536 4.54148 0.368816C4.75765 0.133096 5.02207 0.0717498 5.24174 0.0717498C5.36118 0.0717498 5.46664 0.0901763 5.54219 0.108378C5.57997 0.117591 5.61032 0.126804 5.63106 0.133545C5.63521 0.134893 5.63914 0.136242 5.64241 0.137366L5.53717 0.649028C5.49372 0.633299 5.40506 0.606783 5.29916 0.606559H5.29764C5.16837 0.606559 5.01159 0.648579 4.88866 0.800258C4.76529 0.952386 4.67708 1.21058 4.67293 1.63977L4.69804 1.64L4.67293 1.63977C4.67293 1.65056 4.67271 1.66134 4.67271 1.67168C4.67293 2.0611 4.73821 2.30154 4.83647 2.44738C4.9343 2.59254 5.0664 2.63973 5.18606 2.63973H5.18824C5.3293 2.63928 5.45507 2.57973 5.50944 2.55007L5.67298 3.09836C5.60246 3.1278 5.35768 3.2206 5.08561 3.2206L5.08516 3.21986ZM2.91147 3.1651C2.72085 3.1651 2.53591 3.11117 2.399 3.05611C2.33066 3.0287 2.2741 3.00106 2.23502 2.98016C2.22017 2.97207 2.20772 2.96511 2.19812 2.95949C2.20205 2.95342 2.20641 2.94646 2.21122 2.93837C2.27716 2.82893 2.4311 2.53771 2.47848 2.4476C2.50577 2.46895 2.55381 2.50513 2.61168 2.54153C2.70229 2.59793 2.81584 2.65591 2.91802 2.65636H2.91824C2.95624 2.65636 2.99336 2.64782 3.02502 2.62624C3.05712 2.60467 3.08266 2.57074 3.09904 2.52445V2.52468L3.09926 2.52423L3.09904 2.5249C3.11017 2.49389 3.1152 2.46108 3.1152 2.4276C3.11498 2.32019 3.06498 2.20447 2.99292 2.0802C2.88462 1.89414 2.72435 1.68898 2.59181 1.47798C2.45905 1.26698 2.35511 1.05058 2.35533 0.847447C2.35555 0.734418 2.38655 0.624759 2.46341 0.517798L2.46385 0.517349L2.46341 0.517798C2.69181 0.199609 2.91759 0.0991647 3.12109 0.09894H3.12262C3.42635 0.09894 3.68881 0.331065 3.81786 0.445891L3.47766 0.88003C3.45605 0.850593 3.41805 0.801381 3.37111 0.75172C3.33399 0.71262 3.29119 0.673072 3.24534 0.642961C3.19948 0.61285 3.15057 0.591277 3.09991 0.591053H3.09948C3.06803 0.591053 3.03615 0.600266 3.00755 0.620715C2.97873 0.641163 2.9534 0.671949 2.93178 0.714418C2.91934 0.738912 2.91344 0.765653 2.91344 0.793067C2.91431 0.882277 2.96977 0.977778 3.04816 1.08654C3.16629 1.24923 3.34097 1.44 3.48531 1.65123C3.63007 1.86223 3.74362 2.09247 3.7434 2.33089C3.7434 2.4338 3.72266 2.53874 3.67375 2.64588C3.58051 2.84947 3.46019 2.97868 3.32853 3.05778C3.19686 3.13687 3.05318 3.16609 2.91213 3.16609H2.91191L2.91147 3.1651ZM6.81148 3.16092C6.66059 3.16092 6.52915 3.11472 6.41538 3.03351C6.24463 2.91171 6.11384 2.70948 6.02606 2.46567C5.9385 2.22208 5.89396 1.93776 5.89396 1.65424C5.89396 1.31583 5.9575 0.978766 6.08436 0.713609C6.21144 0.448228 6.39966 0.256326 6.65033 0.199475L6.64509 0.174532L6.65055 0.199475C6.72719 0.182037 6.80012 0.173858 6.86978 0.173858C7.2008 0.174082 7.45693 0.358659 7.63379 0.640579C7.81022 0.92214 7.90411 1.30033 7.9039 1.67784C7.9039 1.99099 7.83948 2.30343 7.7065 2.55982C7.57353 2.81621 7.37284 3.01632 7.09859 3.10957C6.99618 3.1444 6.90076 3.16058 6.81211 3.16058L6.81148 3.16092ZM6.86801 0.737765C6.83111 0.737765 6.79246 0.744732 6.7525 0.759113C6.68765 0.782258 6.63219 0.825402 6.5859 0.882029C6.44768 1.05236 6.38654 1.34381 6.3861 1.63907C6.3861 1.87232 6.42497 2.10804 6.50008 2.28781C6.53786 2.37792 6.58437 2.4541 6.64136 2.50892C6.69791 2.56375 6.76625 2.59679 6.84246 2.59679H6.8429C6.86386 2.59679 6.88526 2.59431 6.90709 2.58937L6.90163 2.56443L6.90709 2.58914C6.98177 2.57207 7.0464 2.53117 7.10033 2.47387C7.18113 2.38794 7.23899 2.26579 7.2772 2.12595C7.31541 1.98609 7.33391 1.82835 7.33391 1.67053C7.33369 1.44088 7.29504 1.21145 7.21862 1.03663C7.1804 0.949217 7.1327 0.875288 7.0744 0.822257C7.01631 0.769315 6.94666 0.737765 6.86871 0.737765H6.86805H6.86801ZM0.823343 3.11339C0.680868 3.11332 0.559463 3.07703 0.456379 3.01272C0.301785 2.91623 0.187696 2.75536 0.112103 2.55548C0.0365087 2.35567 -4.36856e-05 2.11753 3.9181e-08 1.86981C-4.36856e-05 1.48376 0.0888255 1.07479 0.252939 0.751428C0.334931 0.589863 0.435636 0.449644 0.552738 0.344031C0.669885 0.238642 0.80308 0.167633 0.951538 0.14269C0.995209 0.1355 1.03735 0.132085 1.07818 0.132085C1.36095 0.13231 1.57756 0.298819 1.72713 0.558807C1.87626 0.818526 1.95465 1.17047 1.95465 1.52966C1.95487 1.88156 1.87976 2.24019 1.72582 2.52602C1.57188 2.81208 1.34086 3.02443 1.02621 3.09117C0.954595 3.10645 0.887124 3.11364 0.82402 3.11364L0.823343 3.11339ZM0.965731 0.677791C0.884941 0.696441 0.814631 0.746777 0.755457 0.817336C0.578591 1.02969 0.489722 1.42652 0.489285 1.79347C0.489504 2.0038 0.518981 2.20424 0.581648 2.3548C0.613091 2.43007 0.65305 2.49322 0.703053 2.53838C0.752837 2.58355 0.813758 2.60984 0.88232 2.60984H0.882976C0.892801 2.60984 0.903064 2.60939 0.913108 2.60827H0.913326C0.997829 2.59905 1.07185 2.55232 1.1343 2.48198C1.22797 2.37637 1.29806 2.2175 1.34588 2.03683C1.39348 1.85617 1.41838 1.65348 1.41838 1.46068C1.41838 1.25552 1.39043 1.06182 1.32994 0.916208C1.29959 0.843402 1.26094 0.782506 1.21203 0.738912C1.16356 0.695543 1.10395 0.670151 1.0367 0.670151H1.03626C1.01377 0.670151 0.990405 0.672847 0.966386 0.678465H0.966605L0.965731 0.677791ZM9.15702 3.03791C8.82665 3.03769 8.58516 2.875 8.42205 2.6231C8.25937 2.3712 8.17858 2.02897 8.17858 1.6773C8.17858 1.31192 8.26592 0.936206 8.43558 0.641612C8.60568 0.346794 8.8557 0.133545 9.18432 0.0847828C9.2258 0.0787157 9.26598 0.0757948 9.30485 0.0757948C9.45442 0.0757948 9.58499 0.119388 9.69832 0.196239C9.8682 0.311515 9.99899 0.502743 10.087 0.734643C10.175 0.966543 10.22 1.23844 10.22 1.51259C10.2202 1.87549 10.1409 2.24177 9.98131 2.52333C9.82125 2.80511 9.58347 3.00128 9.26118 3.03342C9.2258 3.03701 9.19131 3.03859 9.1579 3.03859L9.15702 3.03791ZM9.28847 0.608581H9.28803C9.25899 0.608581 9.22886 0.612175 9.19764 0.619366C9.11597 0.638242 9.04413 0.686555 8.98334 0.753743C8.80124 0.955756 8.70757 1.32922 8.70691 1.6764C8.70706 1.87999 8.73944 2.07458 8.80954 2.22109C8.84469 2.29435 8.88924 2.35592 8.94509 2.39951C9.00055 2.44311 9.06737 2.46805 9.14292 2.46805H9.14335C9.15646 2.46805 9.16978 2.46715 9.18331 2.4658C9.27458 2.45592 9.35537 2.41322 9.4235 2.3485C9.52591 2.2512 9.60211 2.10537 9.65343 1.93908C9.70474 1.77257 9.73094 1.58562 9.73094 1.40518C9.73094 1.20046 9.69731 1.00474 9.62613 0.857109C9.59032 0.783404 9.54491 0.721609 9.48857 0.677791C9.43224 0.633972 9.36476 0.608805 9.28856 0.608805L9.28847 0.608581ZM10.5921 3.17004L10.6463 2.39524L10.614 0.0683121C10.6264 0.0662897 10.6439 0.0636609 10.6655 0.0604474C10.8022 0.0402237 11.1018 0 11.2998 0H11.3002C11.3325 0 11.3622 0.00112431 11.3877 0.00359615C11.501 0.0139328 11.5927 0.0350554 11.6665 0.0689865C11.7772 0.12022 11.8497 0.198643 11.9017 0.321334C11.9534 0.44425 11.9825 0.611659 11.9997 0.833447C12.0028 0.870749 12.0041 0.906702 12.0041 0.941757C12.0039 1.37545 11.7901 1.6406 11.5741 1.80127C11.4663 1.88127 11.358 1.93452 11.277 1.96733C11.2366 1.98396 11.2027 1.99542 11.1794 2.00261C11.1676 2.0062 11.1584 2.0089 11.1523 2.0107C11.146 2.01243 11.1431 2.0131 11.1431 2.0131L11.1232 2.01782L11.1237 2.03872L11.1488 2.03827L11.1235 2.03872L11.1449 3.16002L10.592 3.17036L10.5921 3.17004ZM11.0708 0.46216L11.0457 0.463283L11.094 1.53964L11.1274 1.52503C11.1283 1.52481 11.211 1.48863 11.306 1.42526C11.4008 1.36167 11.5086 1.27156 11.5578 1.15719L11.5576 1.15741C11.5894 1.08348 11.6021 0.993822 11.6021 0.904028C11.6021 0.810954 11.5883 0.717744 11.5656 0.642017C11.5543 0.604266 11.5406 0.570785 11.5248 0.543595C11.5087 0.516405 11.4908 0.494833 11.4674 0.482474H11.4672C11.4222 0.460228 11.3551 0.450116 11.287 0.443824C11.2191 0.437757 11.1511 0.436633 11.1098 0.436633C11.0853 0.436633 11.0703 0.437083 11.0701 0.437083L11.0444 0.437757L11.0454 0.464047L11.0706 0.462924L11.0712 0.488766L11.0706 0.463149" transform="translate(12.5123 10.3128)" fill="#FFF101"/>
<path d="M0.931843 3.24237C0.713643 3.24215 0.537804 3.15977 0.398058 3.02112C0.258312 2.88255 0.155687 2.68676 0.0901811 2.46205C0.0296973 2.2561 4.47733e-07 2.02593 4.47733e-07 1.79385C-0.000217971 1.41387 0.0794816 1.02827 0.2308 0.735473C0.30635 0.588962 0.399804 0.465822 0.509199 0.377061C0.618594 0.288526 0.743929 0.234147 0.885859 0.224484C0.908567 0.223136 0.930838 0.222461 0.952892 0.222461C1.30291 0.222911 1.56341 0.406274 1.74005 0.686711C1.91627 0.966924 2.00557 1.34399 2.00557 1.72195C2.00557 1.98958 1.96103 2.25765 1.87216 2.49202C1.80119 2.68101 1.70141 2.84774 1.57345 2.9756C1.4455 3.10346 1.28959 3.19244 1.10465 3.2266C1.04395 3.23783 0.986083 3.24323 0.930839 3.24323L0.931843 3.24237ZM0.922105 2.65202L0.919484 2.67763C0.93062 2.67876 0.941539 2.67943 0.952457 2.67943H0.952675C1.07299 2.67943 1.17408 2.61157 1.25204 2.50551C1.39986 2.30417 1.47716 1.96441 1.4776 1.6397C1.47738 1.42511 1.44353 1.21725 1.36951 1.06018C1.33239 0.981754 1.28501 0.915689 1.22605 0.868725C1.1671 0.821986 1.09613 0.79502 1.01556 0.79502H1.01469C1.0077 0.79502 1.00071 0.795245 0.993724 0.795695C0.907693 0.800189 0.831489 0.837266 0.767511 0.896364C0.671218 0.985124 0.60069 1.12242 0.553089 1.28152C0.505488 1.44084 0.481468 1.62262 0.481468 1.80149C0.481687 2.06732 0.534091 2.32641 0.647853 2.49562C0.714669 2.59472 0.806159 2.6637 0.918611 2.67808L0.919048 2.67831H0.919267L0.921667 2.65269L0.922105 2.65202ZM3.45041 3.37401L3.17267 2.53247L2.88968 1.67049L2.8827 3.33379H2.29533L2.32502 2.5091L2.3842 0.818165L2.27284 0.105164L2.89689 0L3.35892 1.37477L3.31744 0.0570757L3.91594 0.00876347L3.92162 2.77134L3.98494 3.26255L3.45074 3.37423" transform="translate(15.9118 14.8756)" fill="#00A3DA"/>
<path d="M0.543721 2.85916L0.558395 1.66739C0.566823 1.66941 1.08297 1.73098 1.08759 2.25956C1.09288 2.80478 0.543677 2.85918 0.543677 2.85918L0.543721 2.85916ZM0.52979 0.401735C0.52979 0.401735 0.591038 0.398364 0.670234 0.406229C0.835309 0.422273 1.07834 0.486136 1.01174 0.72435C0.9123 1.07809 0.567259 1.02418 0.567259 1.02418L0.533982 0.474429L0.52979 0.401758V0.401735ZM1.06836 1.37592C1.06836 1.37592 1.5122 1.14532 1.49742 0.637523C1.48978 0.393646 1.36805 0.239787 1.19675 0.145027C0.759082 -0.0990744 0 0.0387847 0 0.0387847C0 0.0387847 0.00807936 0.357557 0.0168135 0.730664C0.0224907 1.01649 0.0294774 1.33304 0.0310059 1.56245C0.0353729 2.09074 0.00218359 3.38619 0.00218359 3.38619C0.00218359 3.38619 0.351111 3.48904 0.652438 3.40875C1.06906 3.29842 1.46406 3.10173 1.58983 2.47209C1.74944 1.67096 1.06775 1.37592 1.06775 1.37592H1.06836ZM5.05933 7.48817L5.03022 7.01807L4.9848 6.31217C4.99321 6.31217 5.52457 6.28736 5.52407 6.86891C5.52407 6.92594 5.51878 6.97906 5.50911 7.02569C5.4297 7.42837 5.0593 7.48814 5.0593 7.48814L5.05933 7.48817ZM5.37506 5.3617C5.31816 5.72492 4.92984 5.66789 4.92984 5.66789L4.8922 5.06573C5.19986 5.02962 5.41603 5.09708 5.37498 5.36167L5.37506 5.3617ZM5.4509 6.00131C5.4509 6.00131 5.87909 5.74184 5.83367 5.23633C5.75515 4.37345 4.30306 4.73388 4.30306 4.73388C4.30306 4.73388 4.38909 5.99293 4.42569 6.51965C4.43625 6.65762 4.44547 6.82817 4.4556 7.00749C4.4834 7.51264 4.50899 8.07441 4.50899 8.07441C4.50899 8.07441 4.96666 8.11261 5.26209 8.01396C5.67128 7.87801 5.98571 7.70094 6.0368 7.0603C6.03811 7.05198 6.03811 7.04344 6.03855 7.03446C6.101 6.10888 5.45074 6.00079 5.45074 6.00079L5.4509 6.00131Z" transform="translate(9.23956 10.2988)" fill="#0C0A09"/>
</svg>
