<svg xmlns="http://www.w3.org/2000/svg" xmlns:xlink="http://www.w3.org/1999/xlink" width="32" height="32" viewBox="0 0 32 32">
  <defs>
    <radialGradient id="nationale-entertainment-card-b" cx="0%" r="100%" fx="0%" fy="50%">
      <stop offset="0%" stop-color="#12C6FF" stop-opacity=".5"/>
      <stop offset="100%" stop-opacity=".5"/>
    </radialGradient>
    <rect id="nationale-entertainment-card-a" width="32" height="32" rx="8"/>
    <linearGradient id="nationale-entertainment-card-c" x1=".258%" x2="101.258%" y1="49.75%" y2="49.75%">
      <stop offset="0%" stop-color="#FF0202"/>
      <stop offset="15.015%" stop-color="#FF9C01"/>
      <stop offset="31.991%" stop-color="#FFF400"/>
      <stop offset="47.525%" stop-color="#7ED21C"/>
      <stop offset="64.945%" stop-color="#B8DBF1"/>
      <stop offset="81.673%" stop-color="#7F2B89"/>
      <stop offset="100%" stop-color="#DD0085"/>
    </linearGradient>
    <linearGradient id="nationale-entertainment-card-d" x1="-26.103%" x2="101.258%" y1="49.75%" y2="49.75%">
      <stop offset="0%" stop-color="#FF0202"/>
      <stop offset="15.015%" stop-color="#FF9C01"/>
      <stop offset="31.991%" stop-color="#FFF400"/>
      <stop offset="47.525%" stop-color="#7ED21C"/>
      <stop offset="64.945%" stop-color="#B8DBF1"/>
      <stop offset="81.673%" stop-color="#7F2B89"/>
      <stop offset="100%" stop-color="#DD0085"/>
    </linearGradient>
  </defs>
  <g fill="none" fill-rule="evenodd">
    <use fill="#000" xlink:href="#nationale-entertainment-card-a"/>
    <use fill="url(#nationale-entertainment-card-b)" xlink:href="#nationale-entertainment-card-a"/>
    <rect width="31" height="31" x=".5" y=".5" stroke="#000" stroke-opacity=".1" rx="8"/>
    <path fill="url(#nationale-entertainment-card-c)" d="M1,15 L1,17.763 L2.8765,17.763 L2.8765,17.2545 L1.567,17.2545 L1.567,16.5975 L2.755,16.5975 L2.755,16.107 L1.567,16.107 L1.567,15.504 L2.8765,15.504 L2.8765,15 L1,15 Z M5.405,15 L4.8515,15 L4.8515,16.746 L3.632,15 L3.092,15 L3.092,17.763 L3.6455,17.763 L3.6455,15.9225 L4.9505,17.763 L5.405,17.763 L5.405,15 Z M5.55749999,15.504 L6.44399999,15.504 L6.44399999,17.763 L7.02449999,17.763 L7.02449999,15.504 L7.91549999,15.504 L7.91549999,15 L5.55749999,15 L5.55749999,15.504 Z M8.06349999,15 L8.06349999,17.763 L9.93999999,17.763 L9.93999999,17.2545 L8.63049999,17.2545 L8.63049999,16.5975 L9.81849999,16.5975 L9.81849999,16.107 L8.63049999,16.107 L8.63049999,15.504 L9.93999999,15.504 L9.93999999,15 L8.06349999,15 Z M11.0285,16.7325 L10.727,16.7325 L10.727,17.763 L10.1555,17.763 L10.1555,15 L11.294,15 C11.8745,15 12.2615,15.3105 12.2615,15.8775 C12.2615,16.3185 12.0185,16.5975 11.6315,16.692 L12.3605,17.763 L11.7125,17.763 L11.0285,16.7325 Z M10.727,15.4905 L10.727,16.26 L11.258,16.26 C11.546,16.26 11.6945,16.107 11.6945,15.8775 C11.6945,15.6435 11.546,15.4905 11.258,15.4905 L10.727,15.4905 Z M12.27,15.504 L12.27,15 L14.628,15 L14.628,15.504 L13.737,15.504 L13.737,17.763 L13.1565,17.763 L13.1565,15.504 L12.27,15.504 Z M15.352,15 L15.9235,15 L16.981,17.763 L16.396,17.763 L16.1485,17.097 L15.1135,17.097 L14.8705,17.763 L14.2945,17.763 L15.352,15 Z M15.631,15.693 L15.2935,16.611 L15.9685,16.611 L15.631,15.693 Z M17.66,15 L17.084,15 L17.084,17.763 L17.66,17.763 L17.66,15 Z M20.2695,15 L19.716,15 L19.716,16.746 L18.4965,15 L17.9565,15 L17.9565,17.763 L18.51,17.763 L18.51,15.9225 L19.815,17.763 L20.2695,17.763 L20.2695,15 Z M22.186,17.763 L22.8565,15.9585 L22.8565,17.763 L23.401,17.763 L23.401,15 L22.726,15 L21.9925,16.9485 L21.2545,15 L20.5705,15 L20.5705,17.763 L21.1105,17.763 L21.1105,15.9585 L21.7945,17.763 L22.186,17.763 Z M23.702,15 L23.702,17.763 L25.5785,17.763 L25.5785,17.2545 L24.269,17.2545 L24.269,16.5975 L25.457,16.5975 L25.457,16.107 L24.269,16.107 L24.269,15.504 L25.5785,15.504 L25.5785,15 L23.702,15 Z M28.107,15 L27.5535,15 L27.5535,16.746 L26.334,15 L25.794,15 L25.794,17.763 L26.3475,17.763 L26.3475,15.9225 L27.6525,17.763 L28.107,17.763 L28.107,15 Z M28.2594999,15.504 L29.1459999,15.504 L29.1459999,17.763 L29.7264999,17.763 L29.7264999,15.504 L30.6174999,15.504 L30.6174999,15 L28.2594999,15 L28.2594999,15.504 Z"/>
    <path fill="url(#nationale-entertainment-card-d)" d="M7.313,11.045 L6.7595,11.045 L6.7595,12.791 L5.54,11.045 L5,11.045 L5,13.808 L5.5535,13.808 L5.5535,11.9675 L6.8585,13.808 L7.313,13.808 L7.313,11.045 Z M9.2035,11.045 L9.775,11.045 L10.8325,13.808 L10.2475,13.808 L10,13.142 L8.965,13.142 L8.722,13.808 L8.146,13.808 L9.2035,11.045 Z M9.4825,11.738 L9.145,12.656 L9.82,12.656 L9.4825,11.738 Z M11.2335,11.549 L12.12,11.549 L12.12,13.808 L12.7005,13.808 L12.7005,11.549 L13.5915,11.549 L13.5915,11.045 L11.2335,11.045 L11.2335,11.549 Z M15.0455,11.045 L14.4695,11.045 L14.4695,13.808 L15.0455,13.808 L15.0455,11.045 Z M18.5515,12.4265 C18.5515,13.25 18.0115,13.853 17.242,13.853 C16.4725,13.853 15.937,13.25 15.937,12.4265 C15.937,11.5985 16.4725,11 17.242,11 C18.0115,11 18.5515,11.5985 18.5515,12.4265 Z M17.971,12.4265 C17.971,11.8865 17.683,11.513 17.242,11.513 C16.8055,11.513 16.522,11.8865 16.522,12.4265 C16.522,12.9665 16.8055,13.34 17.242,13.34 C17.683,13.34 17.971,12.9665 17.971,12.4265 Z M21.765,11.045 L21.2115,11.045 L21.2115,12.791 L19.992,11.045 L19.452,11.045 L19.452,13.808 L20.0055,13.808 L20.0055,11.9675 L21.3105,13.808 L21.765,13.808 L21.765,11.045 Z M23.6555,11.045 L24.227,11.045 L25.2845,13.808 L24.6995,13.808 L24.452,13.142 L23.417,13.142 L23.174,13.808 L22.598,13.808 L23.6555,11.045 Z M23.9345,11.738 L23.597,12.656 L24.272,12.656 L23.9345,11.738 Z M26.1175,13.808 L27.9805,13.808 L27.9805,13.2995 L26.6935,13.2995 L26.6935,11.045 L26.1175,11.045 L26.1175,13.808 Z M28.899,11.045 L28.899,13.808 L30.7755,13.808 L30.7755,13.2995 L29.466,13.2995 L29.466,12.6425 L30.654,12.6425 L30.654,12.152 L29.466,12.152 L29.466,11.549 L30.7755,11.549 L30.7755,11.045 L28.899,11.045 Z"/>
    <path fill="#FFF" d="M18,20.4265 C18,21.2725 18.549,21.853 19.287,21.853 C19.9395,21.853 20.34,21.4705 20.4435,20.9125 L19.872,20.9125 C19.7775,21.169 19.6065,21.34 19.287,21.34 C18.846,21.34 18.585,20.9485 18.585,20.4265 C18.585,19.9 18.846,19.513 19.287,19.513 C19.6065,19.513 19.7775,19.684 19.872,19.936 L20.4435,19.936 C20.34,19.3825 19.9395,19 19.287,19 C18.549,19 18,19.5805 18,20.4265 Z M22.1045,19.045 L22.676,19.045 L23.7335,21.808 L23.1485,21.808 L22.901,21.142 L21.866,21.142 L21.623,21.808 L21.047,21.808 L22.1045,19.045 Z M22.3835,19.738 L22.046,20.656 L22.721,20.656 L22.3835,19.738 Z M25.4395,20.7775 L25.138,20.7775 L25.138,21.808 L24.5665,21.808 L24.5665,19.045 L25.705,19.045 C26.2855,19.045 26.6725,19.3555 26.6725,19.9225 C26.6725,20.3635 26.4295,20.6425 26.0425,20.737 L26.7715,21.808 L26.1235,21.808 L25.4395,20.7775 Z M25.138,19.5355 L25.138,20.305 L25.669,20.305 C25.957,20.305 26.1055,20.152 26.1055,19.9225 C26.1055,19.6885 25.957,19.5355 25.669,19.5355 L25.138,19.5355 Z M28.1715,21.2995 L28.554,21.2995 C29.0805,21.2995 29.3685,20.962 29.3685,20.4265 C29.3685,19.8865 29.0805,19.549 28.554,19.549 L28.1715,19.549 L28.1715,21.2995 Z M27.6,21.808 L27.6,19.045 L28.5765,19.045 C29.4135,19.045 29.94,19.585 29.94,20.4265 C29.94,21.268 29.4135,21.808 28.5765,21.808 L27.6,21.808 Z"/>
  </g>
</svg>
