<svg xmlns="http://www.w3.org/2000/svg" xmlns:xlink="http://www.w3.org/1999/xlink" width="32" height="32" viewBox="0 0 32 32">
  <defs>
    <rect id="no-icon-a" width="32" height="32" rx="8"/>
  </defs>
  <g fill="none" fill-rule="evenodd">
    <use fill="#F2F2F2" xlink:href="#no-icon-a"/>
    <rect width="31" height="31" x=".5" y=".5" stroke="#000" stroke-opacity=".05" rx="8"/>
    <path fill="#000" fill-opacity=".3" d="M12,13.4697266 L14.2495117,13.4697266 C14.2993164,12.5317383 14.9301758,11.9257812 15.8847656,11.9257812 C16.8310547,11.9257812 17.4619141,12.4985352 17.4619141,13.2871094 C17.4619141,14.0756836 17.1381836,14.4824219 16.0673828,15.121582 C14.921875,15.7939453 14.465332,16.5410156 14.5732422,17.8442383 L14.5898438,18.3256836 L16.7895508,18.3256836 L16.7895508,17.8857422 C16.7895508,17.0722656 17.0966797,16.6655273 18.2006836,16.0263672 C19.3710938,15.3374023 19.9770508,14.4658203 19.9770508,13.2124023 C19.9770508,11.3198242 18.4082031,10 16.0341797,10 C13.4858398,10 12.0415039,11.4277344 12,13.4697266 Z M15.71875,22.293457 C16.4741211,22.293457 17.0800781,21.7207031 17.0800781,20.9902344 C17.0800781,20.2597656 16.4741211,19.6870117 15.71875,19.6870117 C14.9716797,19.6870117 14.3657227,20.2597656 14.3657227,20.9902344 C14.3657227,21.7207031 14.9716797,22.293457 15.71875,22.293457 Z"/>
  </g>
</svg>
