<svg xmlns="http://www.w3.org/2000/svg" xmlns:xlink="http://www.w3.org/1999/xlink" width="32" height="32" viewBox="0 0 32 32">
  <defs>
    <rect id="paypal-a" width="32" height="32" rx="8"/>
  </defs>
  <g fill="none" fill-rule="evenodd">
    <use fill="#0071C0" xlink:href="#paypal-a"/>
    <rect width="31" height="31" x=".5" y=".5" stroke="#000" stroke-opacity=".1" rx="8"/>
    <g fill="#FFF" fill-rule="nonzero" transform="translate(9 7)">
      <path d="M12.7267307,3 C12.7105769,3.10611331 12.6921154,3.21459787 12.6713461,3.32604649 C11.9576923,7.09099421 9.51615382,9.39162329 6.39788459,9.39162329 L4.81019229,9.39162329 C4.42884613,9.39162329 4.10749998,9.67617296 4.0480769,10.0626862 L3.23519229,15.3600525 L3.00499998,16.8616447 C2.96634613,17.1153682 3.15673075,17.3441935 3.40596152,17.3441935 L6.22192305,17.3441935 C6.55538459,17.3441935 6.83865382,17.0952126 6.89115382,16.7573099 L6.91884613,16.6102925 L7.44903844,13.1530141 L7.4830769,12.9633144 C7.53499998,12.624226 7.81884613,12.3752451 8.15230767,12.3752451 L8.57346152,12.3752451 C11.3017307,12.3752451 13.4375,11.2370464 14.0617307,7.94338407 C14.3225,6.56746789 14.1875,4.41859863 13.4975,3.61059615 C13.2886538,3.3669505 13.0296154,3.16480168 12.7267307,3 Z" opacity=".6"/>
      <path d="M11.9867076,2.33344543 C11.8631722,2.29214026 11.7357151,2.25459009 11.6049899,2.22079495 C11.473611,2.18775081 11.338964,2.15846168 11.2003952,2.13292757 C10.7154045,2.04280718 10.1840063,2 9.61469787,2 L4.80923752,2 C4.69093116,2 4.57850745,2.03079113 4.477849,2.08636537 C4.25626969,2.2087789 4.09155587,2.44985093 4.05168467,2.7449952 L3.02941318,10.1844332 L3,10.4014731 C3.06732351,9.91181901 3.43139334,9.55133746 3.8634403,9.55133746 L5.6622198,9.55133746 C9.1950698,9.55133746 11.9612162,7.90288538 12.7697519,3.13401488 C12.793936,2.99282627 12.8141985,2.85539268 12.8325,2.7209631 C12.627915,2.59629656 12.4063357,2.48965411 12.1677621,2.39878271 C12.1089357,2.37625262 12.0481485,2.35447352 11.9867076,2.33344543 Z" opacity=".8"/>
      <path d="M5.54653201,4.22203226 C5.58172432,4.00651613 5.72710894,3.83048387 5.92268586,3.74164516 C6.01210894,3.70106452 6.11076278,3.67858065 6.21518586,3.67858065 L10.4567243,3.67858065 C10.9592243,3.67858065 11.4282628,3.70983871 11.8563397,3.77564516 C11.9786474,3.79429032 12.0974936,3.81567742 12.2134551,3.83980645 C12.3288397,3.86448387 12.4413397,3.89190323 12.5503782,3.92206452 C12.6046089,3.93741935 12.6582628,3.95332258 12.7107628,3.96922581 C12.9213397,4.03558065 13.1169166,4.114 13.2974936,4.20448387 C13.5098012,2.91741935 13.2957628,2.04109677 12.5636474,1.24758065 C11.756532,0.374 10.2998012,0 8.43576278,0 L3.02422432,0 C2.64345509,0 2.3186474,0.263225806 2.25980124,0.621322581 L0.00576278296,14.202129 C-0.038660294,14.4708387 0.179416629,14.7132258 0.464416629,14.7132258 L3.80537817,14.7132258 L4.64422432,9.65435484 L5.54653201,4.22203226 Z"/>
    </g>
  </g>
</svg>
