<svg xmlns="http://www.w3.org/2000/svg" width="32" height="32" viewBox="0 0 32 32">
  <g fill="none" fill-rule="evenodd">
    <rect width="32" height="32" fill="#A4E3FF" rx="8"/>
    <g fill="#E3001B" fill-rule="nonzero" transform="translate(10 9)">
      <path d="M1.69767442,4.592 C1.92319559,4.51228381 2.10412385,4.45175312 2.27906977,4.368 C2.61750734,2.86860118 4.02365975,1.7097152 5.65116279,1.68 C7.3957097,1.7097152 8.80242718,2.87025219 9.13953488,4.368 C9.65165868,4.5106328 10.0796672,4.71423574 10.4186047,5.04 C10.4268236,4.72083866 10.414385,4.43524413 10.4186047,4.144 C10.1650433,1.83187764 8.15391199,0 5.65116279,0 C3.17725479,0 1.12202211,1.94743604 1,4.368 C1.00046148,4.5920733 0.995938567,4.81108418 1,5.04 C1.21587901,4.86611188 1.45787128,4.70983267 1.69767442,4.592"/>
      <path d="M8.79069767,4 L3.09302326,4 C2.81574425,4 2.5328013,4.06087461 2.27906977,4.224 C1.96006809,4.30437419 1.72960674,4.44696381 1.58139535,4.672 C1.19281226,5.02445217 1.0125497,5.61949116 1,6.352 L1,10.72 C1.0125497,11.4530569 1.19281226,12.0475467 1.58139535,12.4 C1.72960674,12.6255843 1.96006809,12.7681739 2.27906977,12.848 C2.5328013,13.0100281 2.81574425,13.072 3.09302326,13.072 L8.79069767,13.072 C10.2310326,13.0593857 10.9766121,12.28611 11,10.72 L11,6.352 C10.9766121,4.78259804 10.2310326,4.01206508 8.79069767,4"/>
    </g>
  </g>
</svg>
