<svg width="32" height="24" viewBox="0 0 32 24" fill="none" xmlns="http://www.w3.org/2000/svg">
<path d="M28 0H4C1.79086 0 0 1.79086 0 4V20C0 22.2091 1.79086 24 4 24H28C30.2091 24 32 22.2091 32 20V4C32 1.79086 30.2091 0 28 0Z" fill="#A4E3FF"/>
<path d="M0.524536 3.444C0.693677 3.38421 0.829373 3.33881 0.960582 3.276C1.21441 2.15145 2.26902 1.28229 3.48965 1.26C4.79806 1.28229 5.8531 2.15269 6.10593 3.276C6.49002 3.38297 6.81103 3.53568 7.06523 3.78C7.0714 3.54063 7.06207 3.32643 7.06523 3.108C6.87506 1.37391 5.36671 0 3.48965 0C1.63422 0 0.0927967 1.46058 0.00128011 3.276C0.00162622 3.44406 -0.00176597 3.60831 0.00128011 3.78C0.163189 3.64958 0.344684 3.53237 0.524536 3.444Z" transform="translate(12.5 6.75)" fill="#E3001B"/>
<path d="M5.84302 0H1.56977C1.36181 0 1.1496 0.0456562 0.959302 0.168C0.720051 0.228281 0.547205 0.335223 0.436046 0.504C0.144609 0.768339 0.00941227 1.21462 0 1.764V5.04C0.00941227 5.58979 0.144609 6.03566 0.436046 6.3C0.547205 6.46919 0.720051 6.57613 0.959302 6.636C1.1496 6.75752 1.36181 6.804 1.56977 6.804H5.84302C6.92327 6.79454 7.48246 6.21458 7.5 5.04V1.764C7.48246 0.586949 6.92327 0.00904881 5.84302 0Z" transform="translate(12.25 10.75)" fill="#E3001B"/>
</svg>
