<svg xmlns="http://www.w3.org/2000/svg" width="32" height="32" viewBox="0 0 32 32">
  <g fill="none" fill-rule="evenodd">
    <rect width="32" height="32" fill="#EC1D24" rx="8"/>
    <path fill="#FFF" d="M19.9991142,15.7821696 L20,11.750577 C19.917474,9.6661858 18.163022,8 16.0090793,8 C15.9472218,8 12.0075292,8.00461627 12.0075292,8.00461627 C12.0075292,8.00461627 12.0062005,11.7903924 12.0062005,11.8016445 C12.0062005,12.868292 12.8727971,13.7351414 13.9578881,13.7602424 L15.7440809,13.7602424 C13.6697116,13.8975765 12.0255402,15.5692441 12,17.6252164 C12,17.6252164 12.0004429,21.9769186 12.0004429,21.9789383 C12.0004429,23.0953549 12.9262396,24 14.0686117,24 C15.2106885,24 16.1364853,23.0953549 16.1364853,21.9789383 C16.1364853,21.9606174 16.135009,19.4972591 16.135009,19.4972591 C18.220303,19.4339296 19.9024156,17.8107328 19.9991142,15.7821696"/>
  </g>
</svg>
