<svg width="32" height="24" viewBox="0 0 32 24" fill="none" xmlns="http://www.w3.org/2000/svg"><rect width="32" height="24" rx="4" fill="#D13239"/><path fill-rule="evenodd" clip-rule="evenodd" d="M11.446 7.72a1.464 1.464 0 0 0-.512-.322 3.722 3.722 0 0 0-.681-.183 5.757 5.757 0 0 0-.778-.082c-.187-.008-.307-.008-.307-.008H4.706L3 17.427h1.593l.629-3.816 3.09.015s1.204.049 2.057-.404c.853-.452 1.08-1.48 1.08-1.48s.094-.382.173-.846a54.292 54.292 0 0 0 .247-1.683s.022-.105.022-.27a1.84 1.84 0 0 0-.21-.901 1.48 1.48 0 0 0-.235-.322zm-1.227 1.818c0 .019-.142.845-.329 1.825-.071.374-.36.576-.688.647-.546.116-1.134.094-1.134.094l-2.58-.007.568-3.423 2.338.007s.157-.003.378 0c.25.004.583.015.856.053.236.03.423.078.483.153a.634.634 0 0 1 .12.337c.014.164-.012.303-.012.314z" fill="#fff"/><path fill-rule="evenodd" clip-rule="evenodd" d="M12.99 10.735l1.613.004.097-.625s.172-1.13.558-1.347c.123-.07.321-.134.55-.175.422-.075.957-.083 1.395-.068.67.023.924.03 1.604.109.681.078.509.737.509.737l-.135.983s-.06.442-.217.715c-.138.243-.52.408-.74.479-.531.172-2.35.635-2.35.635l-1.428.412s-.88.254-1.37.797a3.278 3.278 0 0 0-.755 1.485c-.067.321-.445 2.547-.445 2.547l7.713.004.258-1.541-6.1.007.108-.628s.071-.648.333-.86c.082-.068.123-.158.61-.33.291-.105 1.286-.37 1.286-.37l2.3-.629s1.257-.321 1.751-1.01c.494-.684.685-1.997.685-1.997s.134-1.275.03-1.676c-.101-.4-.48-.879-.94-1.084-.46-.206-.938-.326-2.326-.307-1.387.019-2.076.082-2.779.344-.703.258-1.11.73-1.369 1.395-.28.632-.445 1.994-.445 1.994zM27.511 13.6l1.081-6.478h-1.915l-5.962 6.403-.27 1.624h5.215l-.382 2.274 1.601.004.378-2.278 1.477.003L29 13.6h-1.489zm-1.593.004l-3.37-.004 4.103-4.372-.733 4.376z" fill="#D4D4D4"/></svg>