<svg xmlns="http://www.w3.org/2000/svg" xmlns:xlink="http://www.w3.org/1999/xlink" width="32" height="32" viewBox="0 0 32 32">
  <defs>
    <radialGradient id="rabobank-a" cy="66.644%" r="79.468%" fx="50%" fy="66.644%" gradientTransform="matrix(-.62918 -.77726 .78627 -.63647 .29 1.48)">
      <stop offset="0%" stop-color="#FFD7A5"/>
      <stop offset="56.386%" stop-color="#FDAD48"/>
      <stop offset="100%" stop-color="#FC9E29"/>
    </radialGradient>
    <linearGradient id="rabobank-b" x1="50%" x2="50%" y1="0%" y2="97.307%">
      <stop offset="0%" stop-color="#FFC14D"/>
      <stop offset="100%" stop-color="#FE6206"/>
    </linearGradient>
    <path id="rabobank-c" d="M1.90332227,0.0320744266 L3.73820215,0.0301251092 C3.72537703,0.21661765 3.69829151,0.402634193 3.65769697,0.587839506 C3.40951515,0.535123457 3.10606061,0.467037037 2.83272727,0.377160494 C2.46734474,0.257101403 2.15167042,0.141521888 1.90332227,0.0320744266 L1.90332227,0.0320744266 Z M3.05812121,1.95697531 C2.74169697,1.87580247 2.51690909,1.81759259 2.45248485,1.80703704 L2.20933333,1.80438272 C2.20933333,1.80438272 1.64375758,1.66993827 1.47642424,1.65796296 C1.30927273,1.6458642 0.498848485,1.46401235 0.268060606,1.32709877 C0.268060606,1.32709877 -0.123030303,0.760864198 0.121333333,0.746358025 C0.507272727,0.723395062 0.76630303,0.87537037 0.76630303,0.87537037 L0.98769697,0.942839506 C1.74793939,1.28722222 2.83078788,1.12339506 3.50363636,1.09697531 L3.05812121,1.95697531 Z"/>
    <path id="rabobank-e" d="M9.38109091,4.86526698 C9.25789381,4.83390342 9.13337325,4.7989491 9.01454545,4.75987654 C8.3570303,4.54382716 7.86048485,4.34228395 7.62757576,4.16487654 C7.62757576,4.16487654 6.61139394,3.89796296 6.27,3.80117284 C5.92842424,3.70444444 4.98715152,3.36425926 4.70090909,3.26067901 C4.41466667,3.15703704 2.63284848,2.75222222 2.63284848,2.75222222 C2.63284848,2.75222222 2.276,2.63660494 2.06266667,2.60580247 C2.06266667,2.60580247 1.28375758,2.36395062 1.07127273,2.57037037 C1.07127273,2.57037037 0.663939394,2.72530864 0.608666667,2.73222222 C0.553454545,2.73895062 0.0906060606,2.70197531 0.0522424242,2.62487654 C0.0138787879,2.54790123 0.253272727,2.435 0.253272727,2.435 C0.253272727,2.435 1.02733333,1.38092593 1.48557576,1.61246914 L1.78327273,1.89611111 C1.78327273,1.89611111 1.94284848,2.05574074 2.16684848,2.11722222 C2.43666667,2.11555556 3.32460606,2.11012346 3.32460606,2.11012346 C3.88872727,2.10166667 4.26812121,2.26740741 4.26812121,2.26740741 L4.37448485,2.31148148 C4.37448485,2.31148148 4.96993939,2.56493827 5.59036364,2.57388889 C5.51775758,2.32524691 5.40193939,2.18820988 5.30854545,2.01574074 L5.27969697,1.95790123 L5.19963636,1.8041358 L5.16381818,1.74728395 C4.96078788,1.42666667 4.59678788,1.00240741 4.27684848,0.732160494 C4.0870303,0.57154321 3.80993939,0.520246914 3.67551515,0.50382716 C3.60939394,0.495617284 3.52933333,0.539320988 3.47751515,0.545740741 C3.42569697,0.552160494 3.25715152,0.575987654 3.22060606,0.502716049 C3.14775758,0.356296296 3.39848485,0.278641975 3.44963636,0.130987654 C3.6710303,0.0460493827 3.72369697,0.113765432 3.92072727,0.142160494 C3.92072727,0.142160494 4.05127273,0.183271605 4.19266667,0.165740741 C4.33436364,0.148148148 4.37139394,0.0535185185 4.53721212,0.0330246914 C4.70309091,0.0124691358 4.8509697,0.0963580247 4.90090909,0.196666667 C4.95084848,0.296790123 4.99993939,0.454382716 5.104,0.59691358 C5.20793939,0.739506173 5.87309091,1.02938272 6.17927273,1.37191358 C6.40048485,1.61907407 6.61115152,1.90740741 6.64127273,1.95290123 C6.67109091,1.99820988 6.65054545,2.00901235 6.82133333,2.24148148 C6.99218182,2.47388889 7.50993939,2.65932099 7.69793939,2.68679012 L7.84654545,2.71209877 L8.96212121,2.81481481 L9.38109091,2.86534013 L9.38109091,4.86526698 L9.38109091,4.86526698 Z M9.38109091,5.49707331 C8.71602721,5.54199539 7.82343194,5.62177375 7.16951515,5.32555556 L6.94812121,5.25808642 C6.94812121,5.25808642 6.68909091,5.10611111 6.30315152,5.12907407 C6.05878788,5.14358025 6.44987879,5.70981481 6.44987879,5.70981481 C6.68066667,5.8467284 7.49109091,6.02858025 7.65824242,6.04067901 C7.82557576,6.05265432 8.39115152,6.18709877 8.39115152,6.18709877 L8.63430303,6.18975309 C8.69872727,6.20030864 8.92351515,6.25851852 9.23993939,6.33969136 C9.28902323,6.26394267 9.33621474,6.18791865 9.38109091,6.11145451 L9.38109091,5.49707331 L9.38109091,5.49707331 Z M9.16745455,1.90469136 C8.87254545,1.90685185 8.29733333,1.87932099 7.96945455,1.65339506 L7.86284848,1.56425926 C7.86284848,1.56425926 7.75272727,1.47567901 7.78612121,1.41024691 L7.9130303,1.30444444 C7.9130303,1.30444444 7.98557576,1.25864198 8.09284848,1.25351852 L8.67751515,1.31679012 C8.85775758,1.5045679 9.02248485,1.70123457 9.16745455,1.90469136 Z"/>
  </defs>
  <g fill="none" fill-rule="evenodd">
    <rect width="32" height="32" fill="url(#rabobank-a)" rx="8"/>
    <path fill="#312D6A" d="M24.9821818,21.6103086 C24.9821818,21.6103086 24.9360606,22.2379012 24.9273939,22.3661728 C24.7364848,25.1991975 21.5836364,27.9462346 16.0021212,27.9462346 C10.4255152,27.9462346 7.22145455,25.2182716 7.07569697,22.3853086 C7.06969697,22.2684568 7.02793939,21.6294444 7.02793939,21.6294444 L24.9821818,21.6103086 Z"/>
    <path fill="url(#rabobank-b)" d="M7.40139394,19.7447531 C8.57163636,17.3084568 12.3082424,15.7711111 16.0068485,15.7711111 C19.7055152,15.7711111 23.4407879,17.3084568 24.6089697,19.7447531 C26.2130303,23.0903704 22.6455758,26.8821605 16.0021212,26.8821605 C9.35872727,26.8821605 5.79448485,23.0903704 7.40139394,19.7447531 Z"/>
    <path fill="#312D6A" d="M24.9821818,21.6103086 C24.9821818,21.6103086 24.9360606,22.2379012 24.9273939,22.3661728 C24.7364848,25.1991975 21.5836364,27.9462346 16.0021212,27.9462346 C10.4255152,27.9462346 7.22145455,25.2182716 7.07569697,22.3853086 C7.06969697,22.2684568 7.02793939,21.6294444 7.02793939,21.6294444 L24.9821818,21.6103086 Z" opacity=".299" style="mix-blend-mode:multiply"/>
    <path fill="#FFF" d="M9.68581818,19.7346296 C10.348303,17.8790123 13.1276364,16.637284 16.0093939,16.637284 C18.8910909,16.637284 21.6681818,17.8790123 22.3272727,19.7346296 C23.1606061,22.0807407 20.4287879,24.4924074 16.0022424,24.4924074 C11.5756364,24.4924074 8.84824242,22.0807407 9.68581818,19.7346296 Z M9.50315152,19.7346296 C10.202303,17.8311728 13.0592727,16.5638272 16.0094545,16.5638272 C18.9595758,16.5638272 21.8142424,17.8311728 22.5099394,19.7346296 C23.3955152,22.1578395 20.5921212,24.6681481 16.0020606,24.6681481 C11.412,24.6681481 8.61315152,22.1578395 9.50315152,19.7346296 L9.50315152,19.7346296 Z"/>
    <polyline fill="#FFF" points="21.551 25.267 21.533 25.421 21.323 25.381 20.179 24.196 20.209 24.058 20.401 24.092 21.551 25.267"/>
    <polyline fill="#FFF" points="24.347 22.506 24.442 22.626 24.28 22.66 22.688 22.112 22.609 21.998 22.765 21.966 24.347 22.506"/>
    <polyline fill="#FFF" points="24.245 19.669 24.384 19.732 24.306 19.798 22.903 19.798 22.77 19.732 22.852 19.669 24.245 19.669"/>
    <polyline fill="#FFF" points="22.233 17.535 22.372 17.553 22.367 17.622 21.411 17.945 21.27 17.925 21.28 17.855 22.233 17.535"/>
    <polyline fill="#FFF" points="12.592 16.327 12.639 16.269 12.758 16.283 13.23 16.766 13.181 16.827 13.059 16.812 12.592 16.327"/>
    <polyline fill="#FFF" points="9.651 17.621 9.644 17.553 9.785 17.534 10.737 17.854 10.746 17.925 10.606 17.945 9.651 17.621"/>
    <polyline fill="#FFF" points="7.707 19.797 7.629 19.733 7.769 19.668 9.162 19.668 9.243 19.733 9.111 19.797 7.707 19.797"/>
    <polyline fill="#FFF" points="7.728 22.66 7.566 22.627 7.661 22.505 9.244 21.965 9.4 21.998 9.321 22.111 7.728 22.66"/>
    <polyline fill="#FFF" points="10.679 25.381 10.471 25.422 10.451 25.266 11.603 24.092 11.797 24.059 11.825 24.195 10.679 25.381"/>
    <path fill="#FFF" d="M15.9814545,17.5457407 L16.4626061,19.1143827 L18.8215152,18.1457407 L17.1917576,19.5116667 L20.4272727,19.8132099 L17.2437576,20.1125926 L19.5015758,21.8797531 L16.5274545,20.567963 L15.9821818,22.8881481 L15.4586061,20.5737037 L12.4624848,21.8797531 L14.728,20.1257407 L11.536303,19.8132099 L14.7620606,19.5238889 L13.1416364,18.1457407 L15.4799394,19.1191975 L15.9814545,17.5457407 Z M15.981697,16.9362346 L16.6096364,18.9004321 L19.6236364,17.6743827 L17.5730303,19.4161111 L21.8602424,19.8126543 L17.6601818,20.2107407 L20.8229697,22.6546914 L16.714,20.8247531 L15.9827273,24.1258642 L15.2804242,20.8325309 L11.1421212,22.6546914 L14.3145455,20.2282716 L10.104,19.8126543 L14.3779394,19.4321605 L12.3399394,17.6743827 L15.3270303,18.9066667 L15.981697,16.9362346 L15.981697,16.9362346 Z"/>
    <path fill="#61585F" d="M24.2280606,19.1022222 C23.9331515,19.1043827 23.3579394,19.0768519 23.0300606,18.8509259 L22.9234545,18.7617901 C22.9234545,18.7617901 22.8133333,18.6732099 22.8467273,18.6077778 L22.9736364,18.5019753 C22.9736364,18.5019753 23.0461818,18.4561728 23.1534545,18.4510494 L23.7381212,18.514321 C23.9183636,18.7020988 24.0830909,18.8987654 24.2280606,19.1022222 Z M24.9001212,22.1680864 C24.6519394,22.1153704 24.3484848,22.047284 24.0751515,21.9574074 C23.4176364,21.741358 22.9210909,21.5398148 22.6881818,21.3624074 C22.6881818,21.3624074 21.672,21.0954938 21.3306061,20.9987037 C20.9890303,20.9019753 20.0477576,20.5617901 19.7615152,20.4582099 C19.4752727,20.3545679 17.6934545,19.9497531 17.6934545,19.9497531 C17.6934545,19.9497531 17.3366061,19.8341358 17.1232727,19.8033333 C17.1232727,19.8033333 16.3443636,19.5614815 16.1318788,19.7679012 C16.1318788,19.7679012 15.7245455,19.9228395 15.6692727,19.9297531 C15.6140606,19.9364815 15.1512121,19.8995062 15.1128485,19.8224074 C15.0744848,19.7454321 15.3138788,19.6325309 15.3138788,19.6325309 C15.3138788,19.6325309 16.0879394,18.5784568 16.5461818,18.81 L16.8438788,19.093642 C16.8438788,19.093642 17.0034545,19.2532716 17.2274545,19.3147531 C17.4972727,19.3130864 18.3852121,19.3076543 18.3852121,19.3076543 C18.9493333,19.2991975 19.3287273,19.4649383 19.3287273,19.4649383 L19.4350909,19.5090123 C19.4350909,19.5090123 20.0305455,19.7624691 20.6509697,19.7714198 C20.5783636,19.5227778 20.4625455,19.3857407 20.3691515,19.2132716 L20.340303,19.1554321 L20.2602424,19.0016667 L20.2244242,18.9448148 C20.0213939,18.6241975 19.6573939,18.1999383 19.3374545,17.9296914 C19.1476364,17.7690741 18.8705455,17.7177778 18.7361212,17.701358 C18.67,17.6931481 18.5899394,17.7368519 18.5381212,17.7432716 C18.486303,17.7496914 18.3177576,17.7735185 18.2812121,17.7002469 C18.2083636,17.5538272 18.4590909,17.4761728 18.5102424,17.3285185 C18.7316364,17.2435802 18.784303,17.3112963 18.9813333,17.3396914 C18.9813333,17.3396914 19.1118788,17.3808025 19.2532727,17.3632716 C19.3949697,17.345679 19.432,17.2510494 19.5978182,17.2305556 C19.763697,17.21 19.9115758,17.2938889 19.9615152,17.3941975 C20.0114545,17.494321 20.0605455,17.6519136 20.1646061,17.7944444 C20.2685455,17.937037 20.933697,18.2269136 21.2398788,18.5694444 C21.4610909,18.8166049 21.6717576,19.1049383 21.7018788,19.1504321 C21.731697,19.1957407 21.7111515,19.2065432 21.8819394,19.4390123 C22.0527879,19.6714198 22.5705455,19.8568519 22.7585455,19.884321 L22.9071515,19.9096296 L24.0227273,20.0123457 L24.7598182,20.1012346 C25.0157576,20.79 25.0499394,21.4845679 24.9001212,22.1680864 Z M24.3005455,23.5372222 C23.9841212,23.4560494 23.7593333,23.3978395 23.6949091,23.387284 L23.4517576,23.3846296 C23.4517576,23.3846296 22.8861818,23.2501852 22.7188485,23.2382099 C22.551697,23.2261111 21.7412727,23.0442593 21.5104848,22.9073457 C21.5104848,22.9073457 21.1193939,22.3411111 21.3637576,22.3266049 C21.749697,22.303642 22.0087273,22.4556173 22.0087273,22.4556173 L22.2301212,22.5230864 C22.9903636,22.8674691 24.0732121,22.703642 24.7460606,22.6772222 C24.637697,22.9732099 24.4820606,23.2570988 24.3005455,23.5372222 L24.3005455,23.5372222 Z"/>
    <path fill="#5E4C7F" d="M23.0671515,23.2986816 C22.9283965,23.2696337 22.7888126,23.2432169 22.7188485,23.2382099 C22.551697,23.2261111 21.7412727,23.0442593 21.5104848,22.9073457 C21.5104848,22.9073457 21.1193939,22.3411111 21.3637576,22.3266049 C21.749697,22.303642 22.0087273,22.4556173 22.0087273,22.4556173 L22.2301212,22.5230864 C22.4825107,22.6374165 22.7704561,22.6957345 23.0671515,22.7216634 L23.0671515,23.2986816 L23.0671515,23.2986816 Z"/>
    <g transform="translate(21.242 21.58)">
      <mask id="rabobank-d" fill="#fff">
        <use xlink:href="#rabobank-c"/>
      </mask>
      <polyline fill="#2D303E" points=".742 9.538 4.093 .159 1.796 -.692 -1.555 8.686" mask="url(#rabobank-d)"/>
    </g>
    <g transform="translate(15.06 17.198)">
      <mask id="rabobank-f" fill="#fff">
        <use xlink:href="#rabobank-e"/>
      </mask>
      <path fill="#61585F" d="M-5.37478788,2.53716049 C-4.71230303,0.68154321 -1.9329697,-0.560185185 0.948727273,-0.560185185 C3.83048485,-0.560185185 6.60757576,0.68154321 7.26666667,2.53716049 C8.09993939,4.8832716 5.36818182,7.29493827 0.941575758,7.29493827 C-3.4849697,7.29493827 -6.21236364,4.8832716 -5.37478788,2.53716049 Z M-5.55745455,2.53716049 C-4.85830303,0.633641975 -2.00133333,-0.633703704 0.948787879,-0.633703704 C3.8989697,-0.633703704 6.75363636,0.633641975 7.44933333,2.53716049 C8.33490909,4.96030864 5.53151515,7.47061728 0.941454545,7.47061728 C-3.64860606,7.47061728 -6.44745455,4.96030864 -5.55745455,2.53716049 L-5.55745455,2.53716049 Z" mask="url(#rabobank-f)"/>
      <polyline fill="#61585F" points="9.286 5.308 9.381 5.428 9.219 5.463 7.627 4.915 7.548 4.8 7.704 4.768 9.286 5.308" mask="url(#rabobank-f)"/>
      <polyline fill="#61585F" points="9.184 2.471 9.324 2.535 9.246 2.6 7.842 2.6 7.71 2.535 7.791 2.471 9.184 2.471" mask="url(#rabobank-f)"/>
      <polyline fill="#61585F" points="7.173 .337 7.312 .356 7.306 .424 6.351 .748 6.21 .727 6.219 .657 7.173 .337" mask="url(#rabobank-f)"/>
      <path fill="#61585F" d="M0.920848485,0.348209877 L1.40193939,1.91685185 L3.76084848,0.948271605 L2.13115152,2.3141358 L5.36660606,2.61574074 L2.18315152,2.91512346 L4.4409697,4.68222222 L1.46684848,3.3704321 L0.921575758,5.69061728 L0.398,3.37611111 L-2.59812121,4.68222222 L-0.332606061,2.92820988 L-3.52430303,2.61574074 L-0.298545455,2.32635802 L-1.9189697,0.948271605 L0.419333333,1.92166667 L0.920848485,0.348209877 Z M0.921090909,-0.261296296 L1.5490303,1.70296296 L4.5630303,0.476851852 L2.51242424,2.21858025 L6.79957576,2.61512346 L2.59957576,3.01320988 L5.76236364,5.45709877 L1.65339394,3.62728395 L0.922121212,6.9282716 L0.219818182,3.63506173 L-3.91854545,5.45709877 L-0.746060606,3.03074074 L-4.95660606,2.61512346 L-0.682666667,2.23462963 L-2.72066667,0.476851852 L0.266424242,1.70919753 L0.921090909,-0.261296296 L0.921090909,-0.261296296 Z" mask="url(#rabobank-f)"/>
    </g>
    <path fill="#5E4C7F" d="M12.9101212,11.7562346 L12.8927273,11.7704321 C12.8732727,11.785679 12.8427879,11.8105556 12.8161212,11.8006173 C12.7790303,11.7804321 12.6789091,11.7038889 12.6655152,11.6491975 C12.5327879,11.1079012 12.6527879,11.0854321 13.0150909,10.7344444 C13.5603636,10.2061728 13.6909697,8.95487654 14.2293939,8.405 C14.3247879,8.06592593 14.4614545,7.70432099 14.5863636,7.3887037 L14.5864848,7.36777778 C14.587697,7.05845679 14.6273333,6.85123457 14.6736364,6.70697531 C14.8212727,6.24734568 15.0447273,6.15580247 15.4822424,5.99901235 C15.7510303,5.90259259 15.9485455,5.71555556 15.9592121,5.39858025 C15.9718788,5.02141975 15.8601212,5.06574074 15.6612727,4.915 C15.5600606,4.76481481 15.5368485,4.06641975 15.5335152,4.0195679 C15.6330303,3.59012346 15.7741818,3.21703704 16.2395152,3.25691358 C16.9913939,3.32148148 16.9694545,3.93512346 16.8033333,4.45567901 C16.6167879,5.04030864 16.6147273,5.57555556 17.2992727,5.8017284 C17.4321212,5.84561728 17.5206061,5.8508642 17.6085455,5.87950617 C18.131697,6.04987654 18.210303,6.99888889 18.25,7.41506173 L18.5832727,8.22716049 C19.1507879,9.2262963 18.9830909,9.51006173 19.1823636,10.5426543 C19.2173939,10.7241358 19.3327273,10.9964815 19.3536364,11.6053704 C19.3604242,11.8040123 19.2300606,12.2692593 19.0970909,12.2739506 C19.034,12.2761111 19.0512727,12.0437654 19.0842424,11.9184568 L18.9896364,11.8717284 C18.9529091,11.6905556 18.9681818,11.4466667 18.9870303,11.3622222 C19.0477576,11.187037 19.1177576,11.0820988 19.0573333,10.8646914 C18.8813333,10.2317901 18.5910909,9.68598765 18.3455152,9.08561728 C18.2876364,8.94425926 18.2936364,8.79339506 18.2814545,8.64382716 C18.0865455,8.45740741 17.6886061,7.64166667 17.658303,7.30253086 C17.5877576,7.26283951 17.4644848,7.30969136 17.4086667,7.4541358 C17.2485455,7.80938272 17.041697,8.52506173 17.041697,8.99518519 C17.041697,9.24419753 17.136,9.46882716 17.2283636,9.67981481 C17.6302424,10.5975309 17.4879394,10.7995062 17.2515758,11.7538889 C17.3344242,12.2624074 17.3996364,12.6183333 17.4649091,13.1155556 C17.5130303,13.4821605 17.5722424,13.7275309 17.7213333,14.0725309 C17.9657576,14.2737654 18.1305455,14.5211111 18.2321212,14.8272222 C18.4,15.3330247 18.4060606,15.3561111 18.7291515,15.9057407 C18.8139394,16.0500617 18.999697,16.102037 19.146,16.1467284 C19.6116364,16.2890123 19.1871515,16.6994444 19.0390909,16.969321 C18.8099394,17.3869753 18.8850303,17.7090741 18.2796364,17.7090741 C18.1095758,17.7090741 18.1652121,17.5674074 18.1594545,17.5587037 C18.338,17.4030864 18.3979394,17.4190741 18.5375758,17.1621605 C18.5541818,16.7970988 18.424,16.4937037 18.2348485,16.1876543 C18.1329697,16.0227778 17.9929697,15.8616667 17.8575758,15.7254938 C17.4555758,15.3212346 17.4521818,15.2730864 17.2197576,14.78 C17.0889697,14.5024691 16.9595758,14.1691358 16.8227879,13.9591975 L16.6541212,15.1646296 C16.8258788,15.6016049 16.8804242,15.9519136 16.8241818,16.3353086 C16.7307273,16.9723457 16.4457576,17.5578395 16.3786667,18.2323457 C16.3401818,18.6194444 16.6650303,18.9139506 16.3719394,19.1997531 C16.1817576,19.3851852 16.0505455,19.5234568 15.8908485,19.7751235 C15.6786667,20.1095062 14.7480606,19.8347531 14.7480606,19.6877778 C14.7480606,19.5964198 14.9452121,19.4862346 15.0158788,19.4496914 C15.2718788,19.3175309 15.607697,18.857284 15.6732121,18.5885802 L15.8559394,17.6574074 C15.8559394,17.6574074 15.8487273,15.6518519 15.8479394,15.5342593 C15.8440606,15.3415432 15.8410303,15.087963 15.7982424,14.9197531 C15.6710303,14.6711728 15.7433333,14.2449383 15.7600606,13.9749383 C15.7929091,13.443642 15.8122424,11.7187037 16.1241212,10.5083333 C15.8929091,10.7437654 15.7718182,11.4304321 15.7037576,11.8823457 C15.2496364,10.7843827 15.1838788,10.8512963 15.2279394,9.60790123 C15.2489697,9.0158642 15.1444242,8.51345679 15.090303,7.91098765 C15.0799394,7.87098765 15.0550303,7.89376543 15.0391515,7.94018519 C14.9568485,8.25592593 14.6267273,9.15530864 14.3684242,9.42246914 C13.9823636,9.82179012 13.626,10.2638272 13.282,10.7014815 C13.142,10.9026543 13.2289697,11.0217901 13.0707879,11.2561111 C12.9002424,11.5087037 12.9367273,11.4837654 12.9101212,11.7562346 Z"/>
  </g>
</svg>
