<svg width="32" height="25" viewBox="0 0 32 25" fill="none" xmlns="http://www.w3.org/2000/svg">
<mask id="mask0" mask-type="alpha" maskUnits="userSpaceOnUse" x="0" y="0" width="32" height="25">
<path d="M28 0H4C1.79086 0 0 1.79086 0 4V20C0 22.2091 1.79086 24 4 24H28C30.2091 24 32 22.2091 32 20V4C32 1.79086 30.2091 0 28 0Z" transform="translate(0 0.5)" fill="white"/>
</mask>
<g mask="url(#mask0)">
<path d="M4 0.5H27C28.933 0.5 30.5 2.067 30.5 4V19C30.5 20.933 28.933 22.5 27 22.5H4C2.067 22.5 0.5 20.933 0.5 19V4C0.5 2.067 2.067 0.5 4 0.5Z" transform="translate(0.5 1)" fill="white" stroke="#E5E5E5"/>
<path d="M8.51073 0C8.70064 0.199344 8.85877 0.43057 8.97888 0.684518C9.33946 1.46737 9.20724 2.33057 8.48909 3.08386C7.66638 3.94706 6.26554 4.47797 4.63994 4.47797C3.01434 4.47797 1.61349 3.94706 0.793783 3.08386C0.0762348 2.33057 -0.0565778 1.46737 0.303999 0.684518C0.423011 0.431173 0.579469 0.200029 0.767341 0C0.537773 0.237171 0.356884 0.449918 0.191619 0.800211C-0.159342 1.55222 -0.0487652 2.62752 0.694624 3.40652C1.53597 4.29222 2.85809 4.82505 4.65376 4.82505C6.44943 4.82505 7.77395 4.27615 8.58224 3.40652C9.37491 2.55425 9.40556 1.44488 9.08044 0.775786C8.93677 0.481913 8.74363 0.218915 8.51073 0Z" transform="translate(11.3721 13.7662)" fill="url(#paint0_linear)"/>
<path d="M7.08281 0.514192C6.3208 0.176753 5.43318 0 4.53233 0C3.63149 0 2.74387 0.174182 1.98185 0.514192C1.14772 0.88441 0.502286 1.43331 0.193392 2.10497C-0.167185 2.88783 -0.0343727 3.75103 0.683175 4.50432C1.50589 5.36752 2.90673 5.89842 4.53233 5.89842C6.15793 5.89842 7.55878 5.36752 8.38149 4.50432C9.09964 3.75103 9.23185 2.88783 8.87128 2.10497C8.56238 1.43331 7.91695 0.88441 7.08281 0.514192Z" transform="translate(11.4797 12.3483)" fill="#F47920"/>
<path d="M4.68152 0.888908C4.53128 0.559826 4.56133 0.261595 4.59258 0H4.53248C3.63104 0 2.74402 0.17354 1.982 0.514192C1.14786 0.883767 0.502432 1.43267 0.193538 2.10433C-0.167039 2.88719 -0.0348278 3.75103 0.683321 4.50432C0.733201 4.55702 0.786086 4.60844 0.840773 4.65858C3.86722 4.46704 5.44955 2.5716 4.68152 0.888908Z" transform="translate(11.4819 12.3516)" fill="url(#paint1_linear)"/>
<path fill-rule="evenodd" clip-rule="evenodd" d="M1.07993 0.478198C1.63608 0.630528 2.18432 0.814179 2.72236 1.02838C2.82993 0.682589 2.94471 0.338081 3.07572 0C3.20613 0.336796 3.32091 0.680661 3.42849 1.02838C3.9625 0.816519 4.50675 0.635435 5.05889 0.485911C4.67462 0.747017 4.30388 1.03024 3.94832 1.33433C4.69291 1.43588 5.39062 1.56764 6.12199 1.73732C5.39183 1.71997 4.70373 1.74761 3.97476 1.79774C4.48918 2.26373 4.92969 2.71493 5.40745 3.2227C4.7518 2.82227 4.13702 2.48612 3.45433 2.14097C3.32151 2.75157 3.19651 3.36217 3.07572 3.97792C2.95553 3.36474 2.84435 2.78113 2.71214 2.17053C2.02945 2.51568 1.40805 2.84412 0.728966 3.22784C1.20974 2.72072 1.66106 2.28044 2.17548 1.81381C1.44591 1.76368 0.746394 1.75339 0 1.74182C0.732572 1.57214 1.45673 1.44038 2.20012 1.33883C1.84126 1.03091 1.46733 0.743627 1.07993 0.478198ZM3.07572 1.54643V0.196678C2.94772 0.571395 2.83534 0.951898 2.72837 1.33497C2.84495 1.40439 2.96094 1.47509 3.07572 1.54643ZM1.40805 0.627314C1.85877 0.840703 2.29808 1.07723 2.73017 1.33433C2.6232 1.3459 2.51623 1.35747 2.40925 1.37096C2.08353 1.11001 1.75361 0.859343 1.40805 0.627314ZM3.07572 1.54643C3.94471 1.54643 4.8117 1.59335 5.67668 1.68719C4.91767 1.54065 4.18089 1.4301 3.42067 1.33368C3.30469 1.4031 3.1899 1.47444 3.07572 1.54643ZM4.74219 0.627314C4.29087 0.839418 3.85096 1.07723 3.42007 1.33433C3.40264 1.27005 3.38462 1.20578 3.36719 1.14536C3.81911 0.95254 4.27764 0.777715 4.74219 0.627314ZM3.03005 1.54643C3.04868 2.19817 3.07091 2.88911 3.07632 3.52028C3.1893 2.93668 3.30809 2.35457 3.43269 1.77396C3.31611 1.69683 3.14964 1.62099 3.03005 1.54643ZM4.99039 2.88976C4.48317 2.49897 3.96514 2.1249 3.43269 1.77396C3.54147 1.76432 3.65084 1.75596 3.75962 1.74825C4.18209 2.11333 4.59135 2.49576 4.99039 2.88976ZM3.07572 1.54643C2.20132 1.55929 1.51863 1.60171 0.666466 1.68012C1.40264 1.68012 1.97416 1.71226 2.72175 1.77589C2.83894 1.69812 2.95553 1.62163 3.07572 1.54643ZM1.16286 2.8904C1.67007 2.49961 2.1887 2.12618 2.72175 1.77589L2.76863 1.99378C2.22376 2.27358 1.6885 2.57246 1.16286 2.8904Z" transform="translate(12.9814 12.8176)" fill="white"/>
<path fill-rule="evenodd" clip-rule="evenodd" d="M1.99579 0.023138C2.1262 0.359934 2.24099 0.7038 2.34856 1.05152C2.86529 0.847336 3.39141 0.671425 3.92488 0.524475C3.94411 0.512263 3.96274 0.498766 3.98137 0.486554C3.42842 0.635778 2.88337 0.816648 2.34856 1.02838C2.24099 0.682589 2.1262 0.338724 1.99579 0C1.86478 0.336796 1.75 0.681304 1.64243 1.02838C1.10439 0.814179 0.556154 0.630528 0 0.478198L0.0558894 0.516763C0.592928 0.665917 1.12247 0.844404 1.64243 1.05152C1.75 0.704443 1.86478 0.360576 1.99579 0.023138Z" transform="translate(14.0613 12.8182)" fill="#C9252C"/>
<path fill-rule="evenodd" clip-rule="evenodd" d="M1.44231 0C0.935697 0.459559 0.469351 0.913976 0 1.41403L0.0751202 1.36839C0.537861 0.87991 0.948317 0.484626 1.44471 0.034708L1.44231 0Z" transform="translate(13.7133 14.632)" fill="#CB4D2C"/>
<path fill-rule="evenodd" clip-rule="evenodd" d="M1.32031 0.712156H1.28786C1.19171 0.72244 1.09555 0.733367 0.999399 0.745579C0.675481 0.483341 0.34375 0.231386 0 0V0.0276384C0.345553 0.262238 0.675481 0.514835 0.999399 0.77643L1.32031 0.739794C1.42428 0.804068 1.52284 0.859986 1.6256 0.923617H1.66767C1.55469 0.853559 1.4351 0.781572 1.32031 0.712156Z" transform="translate(14.3894 13.4397)" fill="#CB4D2C"/>
<path fill-rule="evenodd" clip-rule="evenodd" d="M0 0.93133C0.526042 0.613816 1.0613 0.313871 1.60577 0.0314941V0C1.0609 0.279806 0.525641 0.579751 0 0.899836V0.93133Z" transform="translate(14.1442 14.8088)" fill="#CB4D2C"/>
<path fill-rule="evenodd" clip-rule="evenodd" d="M0.356971 0C0.233173 0.573967 0.11238 1.16722 0 1.74568V1.76818C0.112981 1.18457 0.230168 0.606746 0.355769 0.0263519C0.716346 0.265451 1.24579 0.633741 1.91406 1.14922V1.11515C1.40745 0.72501 0.889423 0.350936 0.356971 0Z" transform="translate(16.0571 14.5915)" fill="#A71C20"/>
<path fill-rule="evenodd" clip-rule="evenodd" d="M0.0228362 0.0212097L0 0V0.0366354C0.495793 0.486553 0.892428 0.888909 1.35457 1.37739L1.43269 1.42495C0.946514 0.908834 0.51262 0.466628 0.0228362 0.0212097Z" transform="translate(16.9561 14.6153)" fill="#A71C20"/>
<path fill-rule="evenodd" clip-rule="evenodd" d="M2.17668 0.00565624C1.44111 0.116657 0.72476 0.260889 0 0.445419C0.0354567 0.445419 0.0781249 0.445419 0.114784 0.445419C0.811298 0.271494 1.49339 0.135747 2.20012 0.0296946V0L2.17668 0.00565624Z" transform="translate(12.9832 14.1551)" fill="#CB4D2C"/>
<path fill-rule="evenodd" clip-rule="evenodd" d="M0 0C0.744591 0.111708 1.44231 0.256646 2.17368 0.443297H2.05349C1.35637 0.269372 0.709735 0.138574 0.00240374 0.0325222L0 0Z" transform="translate(16.9297 14.1519)" fill="#A71C20"/>
<path fill-rule="evenodd" clip-rule="evenodd" d="M0.00120211 0.707014L0.0324521 0.71087C0.453125 0.46213 0.881611 0.230101 1.32212 0.023139V0C0.870793 0.212747 0.43149 0.449918 0 0.707014" transform="translate(16.4008 13.4449)" fill="#A71C20"/>
<path fill-rule="evenodd" clip-rule="evenodd" d="M0.0414664 0.408782L0 0.494267C0.0258413 0.505193 0.0757211 0.521905 0.0979567 0.532188C0.346154 0.390786 0.590745 0.249383 0.834736 0.113122C0.841003 0.0816469 0.84944 0.0507114 0.859976 0.0205679L0.784856 0C0.536058 0.131976 0.288261 0.268236 0.0414664 0.408782Z" transform="translate(11.8942 15.8256)" fill="white"/>
<path fill-rule="evenodd" clip-rule="evenodd" d="M0.147236 0.743649C0.11238 0.752648 0.0679086 0.752648 0.0324519 0.761646C0.0252403 0.735294 0.0078125 0.708299 0 0.681947C0.173077 0.460844 0.348357 0.241455 0.525841 0.0237808L0.639423 0C0.647236 0.0231386 0.663461 0.064274 0.672476 0.0829134C0.495392 0.301445 0.320313 0.52169 0.147236 0.743649Z" transform="translate(13.4393 16.861)" fill="white"/>
<path fill-rule="evenodd" clip-rule="evenodd" d="M0.81851 0.408782L0.859977 0.494267C0.834135 0.505193 0.784255 0.521905 0.762019 0.532188C0.513822 0.390786 0.269231 0.249383 0.0252409 0.113122C0.0186919 0.0817235 0.0102605 0.0508086 0 0.0205679L0.0751209 0C0.323919 0.131976 0.571715 0.268236 0.81851 0.408782Z" transform="translate(19.3022 15.8256)" fill="white"/>
<path fill-rule="evenodd" clip-rule="evenodd" d="M0.52524 0.743649L0.640024 0.761646C0.650841 0.735937 0.662259 0.709585 0.672476 0.681947C0.499399 0.460844 0.324119 0.241455 0.146635 0.0237808L0.0330529 0C0.0252404 0.0231386 0.00901442 0.064274 0 0.0829134C0.177484 0.301445 0.352564 0.52169 0.52524 0.743649Z" transform="translate(17.9447 16.861)" fill="white"/>
<path fill-rule="evenodd" clip-rule="evenodd" d="M0.0390625 0.453774L0.015625 0.500694L0 0.494267L0.0414664 0.408782C0.287861 0.268236 0.535657 0.131976 0.784856 0L0.859976 0.0205679C0.854567 0.0366364 0.850961 0.0514191 0.846154 0.0662022C0.826322 0.0597748 0.799279 0.0552756 0.778846 0.0494909C0.530048 0.181895 0.285457 0.313015 0.0390625 0.453774Z" transform="translate(11.8942 15.8256)" fill="#CC612C"/>
<path fill-rule="evenodd" clip-rule="evenodd" d="M0.632812 0.0295668C0.642428 0.0430643 0.653245 0.0752012 0.663461 0.0938406L0.672476 0.0829134C0.672476 0.0732723 0.648437 0.0231386 0.639423 0L0.525841 0.0237818C0.348357 0.241456 0.173077 0.460844 0 0.681947C0 0.691588 0.0102162 0.7038 0.013221 0.713441C0.124399 0.572038 0.364183 0.263523 0.539062 0.0507765C0.564904 0.0417781 0.602163 0.0359942 0.632812 0.0295668Z" transform="translate(13.4411 16.8636)" fill="#A71C20"/>
<path fill-rule="evenodd" clip-rule="evenodd" d="M0.820914 0.453774L0.844352 0.500694L0.859977 0.494267L0.81851 0.408782C0.571315 0.268236 0.323518 0.131976 0.0751209 0L0 0.0205679C0.00540866 0.0366364 0.00901487 0.0514191 0.0138226 0.0662022C0.0336543 0.0597748 0.0606973 0.0552756 0.08113 0.0494909C0.329928 0.181895 0.57452 0.313015 0.820914 0.453774Z" transform="translate(19.3022 15.8256)" fill="#A71C20"/>
<path fill-rule="evenodd" clip-rule="evenodd" d="M0.0396633 0.0295668C0.0300479 0.0430643 0.0192305 0.0752012 0.00901413 0.0938406L0 0.0829134C0.00300481 0.0732723 0.0240385 0.0231386 0.0330529 0L0.146635 0.0237818C0.324119 0.241456 0.499399 0.460844 0.672476 0.681947C0.668269 0.692231 0.664663 0.702514 0.660457 0.713441C0.549279 0.571396 0.308293 0.263523 0.133413 0.0507765C0.105769 0.0417781 0.0685095 0.0359942 0.0396633 0.0295668Z" transform="translate(17.9447 16.8636)" fill="#A71C20"/>
<path fill-rule="evenodd" clip-rule="evenodd" d="M0.0388579 1.91087C0.347151 0.437707 2.25701 0 3.45532 0C4.65364 0 6.5629 0.432565 6.87179 1.91087C7.2558 3.7446 4.69691 4.42719 3.45532 4.42719C2.21374 4.42719 -0.345157 3.74075 0.0388579 1.91087ZM0.163858 1.89994C0.454122 0.476913 2.30208 0.0546331 3.45532 0.0546331C4.60857 0.0546331 6.45653 0.476913 6.74679 1.90058C7.10737 3.66169 4.64883 4.31214 3.45532 4.31214C2.26181 4.31214 -0.194315 3.65783 0.166262 1.89672L0.163858 1.89994Z" transform="translate(12.5855 12.6909)" fill="#CB4D2C"/>
<path fill-rule="evenodd" clip-rule="evenodd" d="M0.0388579 1.91858C0.347151 0.445419 2.17768 0 3.45532 0C4.73297 0 6.5629 0.445419 6.87179 1.91858C7.25581 3.75231 4.69691 4.4349 3.45532 4.4349C2.21374 4.4349 -0.345157 3.75167 0.0388579 1.91858ZM0.163858 1.90765C0.454122 0.484626 2.30208 0.0623465 3.45532 0.0623465C4.60857 0.0623465 6.45653 0.484626 6.74679 1.90829C7.10737 3.6694 4.64883 4.3205 3.45532 4.3205C2.26181 4.3205 -0.195517 3.66876 0.163858 1.90765Z" transform="translate(12.5964 12.725)" fill="white"/>
<path opacity="0.45" d="M4.26202 1.66882L3.70192 1.58076L3.6274 1.56277C3.48727 1.52007 3.36389 1.42984 3.27584 1.30567C3.19772 1.17712 3.00901 0.954093 2.90565 0.815261C2.76322 0.622439 2.4369 0.447614 2.38942 0.368557C2.33544 0.280731 2.28608 0.189749 2.24159 0.0960354C2.21494 0.0302574 2.15051 -0.0084028 2.08413 0.00155299C1.9994 0.00733765 1.99219 0.0381896 1.92007 0.0426888C1.86217 0.0443293 1.80425 0.040457 1.74699 0.0311188C1.71251 0.0222132 1.67728 0.0170453 1.64183 0.0156931C1.59675 0.0947501 1.52824 0.144241 1.36238 0.144241C1.35244 0.144513 1.34252 0.143214 1.33293 0.140385C1.35036 0.180235 1.50541 0.204659 1.53125 0.204659C1.55709 0.204659 1.70433 0.246437 1.73738 0.253507C1.79565 0.251812 1.85278 0.271047 1.89964 0.30814C2.07993 0.418691 2.34615 0.72335 2.39964 0.987516C2.42849 1.13342 2.66286 1.37316 2.6905 1.50621C2.3774 1.48114 1.96154 1.26004 1.96154 1.26004L1.90925 1.23304C1.7605 1.16301 1.60055 1.12417 1.4381 1.11863C0.897235 1.06722 0.694711 0.990087 0.641226 0.970805C0.530048 0.930955 0.545673 0.91103 0.454928 0.906531H0.40625C0.394359 0.930791 0.378481 0.952563 0.359375 0.970805C0.262439 1.06419 0.177558 1.17097 0.106971 1.28832C0.0809085 1.32605 0.0428772 1.35233 0 1.36223C0.102764 1.33717 0.304086 1.27932 0.304086 1.27932C0.493389 1.25232 0.784855 1.34359 0.784855 1.34359C0.881051 1.36917 0.975599 1.40137 1.06791 1.44C1.06791 1.44 1.83534 1.69067 2.02344 1.83722C2.14663 1.93363 2.78486 2.1888 2.95373 2.25114C3.15229 2.34103 3.34627 2.44208 3.53486 2.55387C3.64062 2.65028 4.25601 2.93952 4.42608 2.99929C4.63627 2.63021 4.71859 2.19389 4.65865 1.76652L4.26202 1.66882Z" transform="translate(15.8683 13.2781)" fill="#4F264A"/>
<path opacity="0.45" d="M0.272611 0.0010284C0.233357 0.00137053 0.194257 0.00682397 0.156024 0.0172895L0.00337975 0.123342C-0.015851 0.160814 0.0532598 0.20889 0.0532598 0.20889C0.0532598 0.20889 0.246168 0.223738 0.245567 0.279592C0.387394 0.368676 0.689678 0.37928 0.846529 0.387764C0.826096 0.326961 0.803259 0.265451 0.777418 0.205355C0.751577 0.145259 0.726337 0.0886974 0.697491 0.0321363C0.688476 0.0321363 0.568284 -0.00674875 0.272611 0.0010284Z" transform="translate(19.5753 14.264)" fill="#4F264A"/>
<path opacity="0.45" d="M0.276139 0.0507765C0.276139 0.0507765 0.239481 0.0006428 0.0441681 0C-0.080231 0 0.0976534 0.313657 0.0976534 0.313657C0.210033 0.393999 0.612678 0.516763 0.698616 0.528975C0.784553 0.541187 1.0622 0.629242 1.0622 0.629242C1.16254 0.645023 1.26173 0.668217 1.35907 0.698658C1.38311 0.675519 1.40655 0.651738 1.42878 0.627956C1.51245 0.540546 1.59112 0.447824 1.66436 0.350293C1.32422 0.34258 0.841043 0.336153 0.475058 0.131762C0.437798 0.017354 0.276139 0.0507765 0.276139 0.0507765Z" transform="translate(18.4324 16.2221)" fill="#4F264A"/>
<path d="M3.59329 5.24807C3.59329 5.24807 3.47731 5.13817 3.47731 5.13174C3.46949 5.09253 3.50976 5.04111 3.51937 4.97684C3.50735 4.97234 3.49594 4.96655 3.48452 4.96141C3.45747 4.84958 3.43464 4.6484 3.48452 4.54106C3.51715 4.48679 3.53038 4.42175 3.52178 4.35788C3.42863 4.01594 3.24353 3.71514 3.11312 3.39377C3.0867 3.31648 3.07505 3.2343 3.07887 3.1521C2.97791 3.03319 2.86132 2.72275 2.80483 2.53057C2.68764 2.84808 2.60952 3.21316 2.60952 3.29736C2.60952 3.65472 2.94846 3.82826 2.83127 4.42215C2.80844 4.53656 2.77118 4.69532 2.72791 4.85922C2.79822 5.27314 2.79822 5.5733 2.90158 6.05343C3.05961 6.21837 3.1737 6.42536 3.23211 6.6531C3.27178 6.80736 3.39377 7.17051 3.54942 7.22514C3.64618 7.25856 3.2225 7.34212 3.10231 7.18079C2.98211 7.01946 2.7868 6.90249 2.69245 6.7373C2.61733 6.60875 2.50014 6.32659 2.42622 6.19354L2.33548 6.70324C2.45868 7.24635 2.38536 7.36654 2.27538 7.80746C2.22791 8.00029 1.86853 7.10688 1.86793 7.03618C1.87246 6.88872 1.85419 6.74148 1.81384 6.6004C1.73872 6.44293 1.74654 6.2199 1.75375 6.05086C1.77118 5.76741 1.76937 5.23329 1.78079 5.09253C1.69005 4.85407 1.45747 4.42344 1.43404 4.18048C1.39798 3.80255 1.45747 3.42012 1.4082 3.04348C1.3481 3.23244 1.2832 3.47154 1.14618 3.61616C0.942617 3.83694 0.749661 4.06862 0.568051 4.31032C0.501344 4.40801 0.560238 4.45558 0.456272 4.61176C0.352306 4.76795 0.409397 4.6966 0.387762 4.84315C0.385097 4.86322 0.376943 4.88201 0.364325 4.89714C0.309637 4.94663 0.251945 4.98841 0.17382 4.95306C0.0229788 4.87207 0.0121616 4.75188 0.0013443 4.59762C-0.0184874 4.3026 0.185839 4.28846 0.301825 4.11042C0.528387 3.75949 0.643171 3.17203 0.88596 2.90786C0.900984 2.85515 0.958075 2.66683 1.06625 2.38595C1.06925 2.03695 1.14978 1.72715 1.48692 1.58382C1.62454 1.52533 1.80423 1.5099 1.81084 1.30744C1.81264 1.27003 1.80648 1.23266 1.79281 1.19817C1.73752 1.15061 1.69846 1.14932 1.67262 1.11526C1.61853 1.0407 1.57346 0.561217 1.57947 0.531008C1.6582 0.124154 1.83969 -0.0114639 2.07045 0.000748138C2.34329 0.0148884 2.55904 0.155006 2.54702 0.546434C2.538 0.862019 2.23332 1.2663 2.68884 1.41927C2.86252 1.47776 2.89557 1.43727 3.04521 1.59796C3.21288 1.77792 3.25375 2.09801 3.28139 2.39431L3.45267 2.81852C3.76577 3.38284 3.65219 3.56088 3.76757 4.13549C3.82158 4.33223 3.85247 4.5354 3.85952 4.74031C3.86613 4.8965 3.75134 5.241 3.59329 5.24807Z" transform="translate(14.0822 5.31152)" fill="#FBB257"/>
<path d="M0.237132 4.69617C0.251555 4.54577 0.231122 4.55862 0.320666 4.41915C0.404199 4.2906 0.363935 4.22632 0.437252 4.1132C0.610592 3.86743 0.795737 3.63144 0.99194 3.40619C1.12776 3.259 1.31225 2.76345 1.35552 2.58798C1.36393 2.56227 1.37656 2.55006 1.38196 2.57191C1.41081 2.90421 1.45468 3.18187 1.44206 3.50838C1.41922 4.19483 1.43665 4.12284 1.70348 4.76365C1.72571 4.50656 1.78401 4.13184 1.92463 4.00522C1.76057 4.67367 1.75035 5.62557 1.73293 5.91866C1.72391 6.06777 1.68605 6.3043 1.75336 6.43992C1.77264 6.55182 1.7813 6.66552 1.7792 6.77929C1.7792 6.84356 1.78341 7.951 1.78341 7.951L1.68725 8.46519C1.6216 8.65842 1.50069 8.82462 1.3417 8.94018C1.29963 8.96524 1.20107 9.0218 1.20107 9.06872C1.20107 9.14971 1.69026 9.3014 1.80204 9.11693C1.87262 8.99958 1.9575 8.8928 2.05444 8.79942C2.20889 8.6413 2.03761 8.47805 2.05805 8.2653C2.0935 7.89315 2.24314 7.56986 2.29242 7.21828C2.32883 7.00276 2.30587 6.78056 2.22631 6.57875L2.29182 5.90709C2.36905 6.05393 2.43866 6.2052 2.50035 6.36022C2.62055 6.6321 2.62415 6.65909 2.83509 6.88212C2.91011 6.95949 2.97665 7.04574 3.03341 7.13922C3.13317 7.30762 3.20168 7.47537 3.19266 7.67655C3.11934 7.8186 3.08809 7.8096 2.99374 7.89572C2.99675 7.90022 2.9679 7.97864 3.05744 7.97864C3.37535 7.97864 3.33569 7.8006 3.45648 7.5705C3.53401 7.42138 3.75696 7.19514 3.51237 7.11672C3.43227 7.09299 3.3633 7.03823 3.31886 6.96311C3.14879 6.65974 3.14278 6.66745 3.05444 6.3885C2.99671 6.22278 2.89577 6.07824 2.76357 5.972C2.69299 5.80456 2.64756 5.62626 2.62896 5.44367C2.5947 5.16922 2.56886 4.97254 2.528 4.69231C2.6524 4.16526 2.7161 4.05407 2.50456 3.54759C2.45429 3.42887 2.42847 3.29998 2.42884 3.16966C2.44861 2.9141 2.50622 2.66352 2.59951 2.4273C2.61886 2.35203 2.66504 2.28788 2.72812 2.24861C2.7792 2.45301 2.95588 2.87271 3.05805 2.97555C3.05742 3.05834 3.06877 3.14072 3.0917 3.21979C3.22091 3.5508 3.4066 3.85225 3.49915 4.20126C3.531 4.32145 3.48833 4.3793 3.45648 4.47635C3.44455 4.56977 3.44699 4.66465 3.46369 4.75723L3.50756 4.78294C3.49609 4.83518 3.48184 4.88668 3.4649 4.93719C3.4703 4.98411 3.52499 5.01111 3.52499 5.01111C3.59591 4.9944 3.69687 4.71995 3.69326 4.61004C3.68608 4.41095 3.65394 4.2138 3.59771 4.02386C3.49314 3.45375 3.55384 3.29757 3.25576 2.74609L3.08569 2.29618C3.06526 2.06672 2.97932 1.54289 2.70468 1.44905C2.65841 1.43298 2.61153 1.43041 2.54182 1.40598C2.18124 1.28129 2.18124 0.985631 2.2816 0.662976C2.36874 0.375671 2.38016 0.0369473 1.98473 0.00159658C1.74074 -0.0202566 1.66622 0.18542 1.61393 0.422591C1.61393 0.448301 1.62776 0.833944 1.68124 0.916858C1.78581 0.999771 1.8441 0.975347 1.83749 1.18359C1.83208 1.35842 1.72812 1.4619 1.58689 1.51461C1.35732 1.60138 1.23954 1.65215 1.16201 1.90539C1.12921 2.02382 1.1138 2.14698 1.11634 2.27047V2.28718C1.04125 2.4703 0.974861 2.65736 0.91742 2.84765C0.634368 3.15102 0.496747 3.84197 0.207685 4.13313C0.01718 4.32595 -0.0405124 4.3388 0.0273963 4.63768C0.0346078 4.66789 0.125954 4.74566 0.147589 4.75658C0.169223 4.76751 0.237733 4.71352 0.237132 4.69617Z" transform="translate(14.1721 5.43732)" fill="url(#paint2_linear)"/>
</g>
<defs>
<linearGradient id="paint0_linear" x2="1" gradientUnits="userSpaceOnUse" gradientTransform="translate(0.000513581 0.00241912) scale(9.27404 4.82471)">
<stop stop-color="#CC612C"/>
<stop offset="1" stop-color="#743237"/>
</linearGradient>
<linearGradient id="paint1_linear" x2="1" gradientUnits="userSpaceOnUse" gradientTransform="translate(-1.4399 0.227515) scale(5.8425 5.58439) rotate(-11.1624)">
<stop stop-color="#FFDD7F"/>
<stop offset="1" stop-color="#F47920"/>
</linearGradient>
<linearGradient id="paint2_linear" x2="1" gradientUnits="userSpaceOnUse" gradientTransform="translate(1.0587 -1.00997) scale(3.61184 9.00138) rotate(23.2265)">
<stop stop-color="#2A3795"/>
<stop offset="1" stop-color="#222A7E"/>
</linearGradient>
</defs>
</svg>
