<svg xmlns="http://www.w3.org/2000/svg" xmlns:xlink="http://www.w3.org/1999/xlink" width="32" height="32" viewBox="0 0 32 32">
  <defs>
    <rect id="regiobank--a" width="32" height="32" rx="8"/>
  </defs>
  <g fill="none" fill-rule="evenodd">
    <mask id="regiobank--b" fill="#fff">
      <use xlink:href="#regiobank--a"/>
    </mask>
    <use fill="#D01A21" xlink:href="#regiobank--a"/>
    <g fill="#FFF" mask="url(#regiobank--b)">
      <g transform="translate(6 7)">
        <path d="M4.19565667,4.78199009 C3.93868189,5.29427316 3.49450959,5.80613584 2.85168006,5.91493878 C2.86335693,5.91493878 2.91021478,5.92600902 2.94526211,5.92600902 C4.13738923,6.07854799 4.65172301,6.89536406 4.65172301,7.72349949 C4.65172301,8.4312635 4.23083764,9.54256993 2.29075571,9.54256993 L0.268781958,9.54256993 C0.128616355,9.54256993 0,9.43351787 0,9.302808 L0,2.45124381 C0,2.32028482 0.128616355,2.21112378 0.268781958,2.21112378 L0.829774799,2.21112378 C0.969940737,2.21112378 1.08687654,2.32028482 1.08687654,2.45124381 L1.08687654,5.51212815 L1.63625264,5.51212815 C2.43097844,5.51212815 2.79341262,5.05415313 3.06224803,4.58602648 C3.3893843,4.01960664 3.61137857,3.23533181 3.91532814,2.38584995 C3.96211916,2.24396084 4.06736139,2.21112378 4.19565667,2.21112378 L4.96723252,2.21112378 C5.17760003,2.21112378 5.212781,2.33124608 5.14243576,2.50517818 C4.73342773,3.56181845 4.33614669,4.5097025 4.19565667,4.78199009 Z M3.54141755,7.58171936 C3.54141755,6.82992348 3.00373001,6.37268025 2.13877257,6.37268025 L1.08687654,6.37268025 L1.08687654,8.63829736 L2.26738525,8.63829736 C3.10878848,8.63829736 3.54141755,8.16998387 3.54141755,7.58171936 M9.33084242,4.83671853 C9.33084242,6.84124285 8.39602418,7.54894458 7.20381354,7.54894458 C5.91812107,7.54894458 5.05336409,6.51408669 5.05336409,4.86925976 C5.05336409,3.08254372 5.95308488,2.156987 7.55437038,2.156987 C8.23223053,2.156987 8.62962851,2.25490652 9.00367274,2.40757006 C9.13208496,2.46200266 9.20229656,2.57074331 9.15563917,2.70151547 L9.02702649,3.05001805 C8.9803691,3.16995351 8.88673693,3.25661595 8.71151698,3.20266601 C8.37252009,3.11539635 8.05689364,3.01728998 7.61283828,3.01728998 C6.5609339,3.01728998 6.21026012,3.58383439 6.16353592,4.59678533 L9.07381752,4.59678533 C9.21417389,4.59678533 9.33084242,4.70596194 9.33084242,4.83671853 M8.24397423,5.34870577 L6.16353592,5.34870577 C6.28047172,6.48129634 6.80648238,6.75372406 7.23872723,6.75372406 C7.96351205,6.75372406 8.22067059,6.04571093 8.24397423,5.34870577 M12.6602553,3.13741228 L11.6902561,3.13741228 C11.2694877,3.13741228 11.0824739,3.20266601 11.0824739,3.4313577 C11.0824739,3.55110632 11.1759892,3.6709795 11.2928582,3.76889902 C11.4680614,3.72553666 11.6667688,3.70364529 11.8655262,3.70364529 C13.1627786,3.70364529 13.9926887,4.43379891 13.9926887,5.63164322 C13.9926887,6.00222401 13.817285,6.36179684 13.5718702,6.67763363 L13.9575078,6.72099599 C14.0978808,6.73206624 14.1913292,6.8084525 14.1913292,6.94985894 L14.1913292,7.23298323 C14.1913292,7.37462323 14.0978808,7.48379984 13.9342876,7.48379984 L12.5901106,7.48379984 C12.3446957,7.48379984 12.1109411,7.53806117 11.8655262,7.53806117 C10.6148644,7.53806117 9.76166733,6.85193942 9.76166733,5.63164322 C9.76166733,4.91305808 10.0889706,4.36852961 10.6031207,4.05196103 C10.3226585,3.81269734 10.0889706,3.52927722 10.0889706,3.14793758 C10.0889706,2.51662211 10.6848755,2.29870484 11.3745462,2.29870484 L12.5082221,2.29870484 C13.1392912,2.29870484 13.3847061,2.05846025 13.3847061,1.61203814 C13.3847061,1.13296581 12.8238485,0.838708994 12.1109411,0.838708994 C11.5617604,0.838708994 10.9538613,0.936815359 10.8602792,1.51399405 C10.8368586,1.6557119 10.7434102,1.7319736 10.6031207,1.74298156 L10.018759,1.76487294 C9.87860313,1.76487294 9.76166733,1.66647074 9.76166733,1.52493974 C9.77341103,0.348675408 10.9538613,8.8817842e-16 12.0756431,8.8817842e-16 C13.1512354,8.8817842e-16 14.4016299,0.457556191 14.4016299,1.72102791 C14.4016299,2.62530048 13.7236361,3.13741228 12.6602553,3.13741228 Z M12.9173638,5.65365915 C12.9173638,4.67312488 12.4148405,4.46632457 11.8770694,4.46632457 C11.3160783,4.46632457 10.8486023,4.64058365 10.8486023,5.65365915 C10.8486023,6.62320103 11.3160783,6.79731997 11.8770694,6.79731997 C12.449821,6.79731997 12.9173638,6.61225534 12.9173638,5.65365915 M16.1123506,9.32471494 C16.1123506,9.69498434 15.7967075,10 15.3993095,10 C14.9904184,10 14.6747252,9.69498434 14.6747252,9.32471494 C14.6747252,8.94329745 14.9904184,8.63829736 15.3993095,8.63829736 C15.7967075,8.63829736 16.1123506,8.94329745 16.1123506,9.32471494 M15.9255875,2.45124381 L15.9255875,7.24392892 C15.9255875,7.37462323 15.7967075,7.48379984 15.668479,7.48379984 L15.1422679,7.48379984 C15.0020452,7.48379984 14.8734826,7.37462323 14.8734826,7.24392892 L14.8734826,2.45124381 C14.8734826,2.32028482 15.0020452,2.21112378 15.1422679,2.21112378 L15.668479,2.21112378 C15.7967075,2.21112378 15.9255875,2.32028482 15.9255875,2.45124381 M21,4.84736839 C21,6.51408669 20.1351762,7.54894458 18.7326147,7.54894458 C17.3300533,7.54894458 16.4535526,6.52503238 16.4535526,4.84736839 C16.4535526,3.15888327 17.3300533,2.156987 18.7326147,2.156987 C20.1467027,2.156987 21,3.18071236 21,4.84736839 M19.8897781,4.84736839 C19.8897781,3.52927722 19.4455891,2.98462419 18.7092276,2.98462419 C17.9847268,2.98462419 17.5403707,3.52927722 17.5403707,4.84736839 C17.5403707,6.14356818 17.9847268,6.71023714 18.7092276,6.71023714 C19.4455891,6.71023714 19.8897781,6.14356818 19.8897781,4.84736839" transform="matrix(1 0 0 -1 0 10)"/>
        <path d="M3.32183908,15.0503199 C4.26586707,15.3189435 4.6623355,15.8783561 4.6623355,16.717651 C4.6623355,17.8252495 3.88122605,18.5860699 2.52923538,18.5860699 L0.26803265,18.5860699 C0.128269199,18.5860699 0,18.4741234 0,18.3398036 L0,11.3019837 C0,11.1678558 0.128269199,11.0557334 0.26803265,11.0557334 L2.64567716,11.0557334 C4.1142762,11.0557334 5,11.8277323 5,13.1706584 C5,14.1441291 4.44094619,14.9271948 3.32183908,15.0503199 Z M3.57787425,16.5718487 C3.57787425,15.8783561 3.13206508,15.4419408 2.25218298,15.4419408 L1.09079896,15.4419408 L1.09079896,17.6908658 L2.33450427,17.6908658 C3.16710612,17.6908658 3.57787425,17.2880663 3.57787425,16.5718487 L3.57787425,16.5718487 Z M3.85920851,13.282349 C3.85920851,12.4654915 3.37886128,11.9734227 2.56922891,11.9734227 L1.09079896,11.9734227 L1.09079896,14.6027899 L2.34590518,14.6027899 C3.29670766,14.6027899 3.85920851,14.0432333 3.85920851,13.282349 L3.85920851,13.282349 Z M9.6389676,11.3019837 L9.56855021,11.6267084 C9.4986358,11.9621641 9.51020437,12.2644036 9.51020437,12.5437741 L9.51020437,14.4908434 C9.51020437,15.3971462 9.35763335,16.5382967 7.49224305,16.5382967 C6.98792038,16.5382967 6.412845,16.4153475 6.07299724,16.3257103 C5.93149181,16.2921583 5.87364895,16.1804677 5.90919297,16.0347934 L6.00207687,15.6210391 C6.03745322,15.4754287 6.15498321,15.3971462 6.30788955,15.4419408 C6.62409718,15.5200954 6.97618415,15.6322338 7.43339423,15.6322338 C8.26666672,15.6322338 8.45394346,15.3299943 8.45394346,14.6810565 L8.45394346,14.4124968 L7.16429919,14.3340383 C6.21383203,14.2670144 5.40470264,13.7972389 5.40470264,12.5999872 C5.40470264,11.5932844 5.97977803,11 6.91733533,11 C7.5628281,11 8.1726092,11.2234612 8.53643241,11.7721429 L8.61858603,11.2795624 C8.64155552,11.1230772 8.74734927,11.0557334 8.88835171,11.0557334 L9.42805074,11.0557334 C9.58078942,11.0557334 9.66227241,11.1566131 9.6389676,11.3019837 L9.6389676,11.3019837 Z M8.45394346,12.8461256 C8.45394346,12.4322594 7.97342858,11.8166177 7.22264503,11.8166177 C6.78924273,11.8166177 6.48343005,12.0626281 6.48343005,12.5999872 C6.48343005,13.4391541 6.99965661,13.6406258 7.71539912,13.6629191 L8.45394346,13.6854044 L8.45394346,12.8461256 L8.45394346,12.8461256 Z M14.2575103,15.1397812 C14.2575103,15.9788841 13.6943388,16.5382967 12.8149597,16.5382967 C12.1929394,16.5382967 11.7006883,16.3145317 11.2075989,15.7662977 L11.0904042,16.2699929 C11.0550279,16.4153475 10.9732096,16.4714486 10.80907,16.4714486 L10.4571507,16.4714486 C10.3164835,16.4714486 10.1875526,16.3704409 10.1875526,16.236377 L10.1875526,11.3019837 C10.1875526,11.1678558 10.3164835,11.0557334 10.4571507,11.0557334 L10.996682,11.0557334 C11.1370138,11.0557334 11.2550468,11.1678558 11.2550468,11.3019837 L11.2550468,14.3454089 C11.2550468,15.0948587 11.806482,15.6656578 12.5212186,15.6656578 C13.0020688,15.6656578 13.1900162,15.4307621 13.1900162,14.9159522 L13.1900162,11.3019837 C13.1900162,11.1678558 13.3192824,11.0557334 13.4602848,11.0557334 L13.9994809,11.0557334 C14.1398127,11.0557334 14.2575103,11.1678558 14.2575103,11.3019837 L14.2575103,15.1397812 Z M18.9629012,11.3465224 L17.0393327,14.1441291 L18.6111495,16.1916464 C18.7048717,16.3145317 18.6463582,16.4714486 18.4818833,16.4714486 L17.7319381,16.4714486 C17.5667925,16.4714486 17.4615018,16.3930541 17.3914197,16.2812356 L15.9720062,14.211281 L15.9720062,18.7538617 C15.9720062,18.8993601 15.8549792,19 15.7141444,19 L15.185511,19 C15.0453468,19 14.9274815,18.8993601 14.9274815,18.7538617 L14.9274815,11.3019837 C14.9274815,11.1678558 15.0453468,11.0557334 15.185511,11.0557334 L15.7141444,11.0557334 C15.8549792,11.0557334 15.9720062,11.1678558 15.9720062,11.3019837 L15.9720062,13.9760175 L17.6727539,11.2684477 C17.7547399,11.1343198 17.860366,11.0557334 17.9894646,11.0557334 L18.822737,11.0557334 C18.986709,11.0557334 19.0453901,11.2234612 18.9629012,11.3465224 L18.9629012,11.3465224 Z" transform="matrix(1 0 0 -1 0 30)"/>
      </g>
    </g>
  </g>
</svg>
