<svg width="32" height="25" viewBox="0 0 32 25" fill="none" xmlns="http://www.w3.org/2000/svg">
<mask id="mask0" mask-type="alpha" maskUnits="userSpaceOnUse" x="0" y="0" width="32" height="25">
<path d="M28 0H4C1.79086 0 0 1.79086 0 4V20C0 22.2091 1.79086 24 4 24H28C30.2091 24 32 22.2091 32 20V4C32 1.79086 30.2091 0 28 0Z" transform="translate(0 0.5)" fill="white"/>
</mask>
<g mask="url(#mask0)">
<path d="M28 0H4C1.79086 0 0 1.79086 0 4V20C0 22.2091 1.79086 24 4 24H28C30.2091 24 32 22.2091 32 20V4C32 1.79086 30.2091 0 28 0Z" transform="translate(0 0.5)" fill="#D01A21"/>
<path fill-rule="evenodd" clip-rule="evenodd" d="M3.14674 3.58649C2.95401 3.9707 2.62088 4.3546 2.13876 4.4362C2.14752 4.4362 2.18266 4.44451 2.20895 4.44451C3.10304 4.55891 3.48879 5.17152 3.48879 5.79262C3.48879 6.32345 3.17313 7.15693 1.71807 7.15693H0.201586C0.0964623 7.15693 0 7.07514 0 6.97711V1.83843C0 1.74021 0.0964623 1.65834 0.201586 1.65834H0.622331C0.727456 1.65834 0.815157 1.74021 0.815157 1.83843V4.1341H1.22719C1.82323 4.1341 2.09506 3.79061 2.29669 3.43952C2.54204 3.01471 2.70853 2.4265 2.9365 1.78939C2.97159 1.68297 3.05052 1.65834 3.14674 1.65834H3.72542C3.8832 1.65834 3.90959 1.74843 3.85683 1.87888C3.55007 2.67136 3.25211 3.38228 3.14674 3.58649ZM2.65606 5.68629C2.65606 5.12244 2.2528 4.77951 1.60408 4.77951H0.815157V6.47872H1.70054C2.33159 6.47872 2.65606 6.12749 2.65606 5.68629ZM6.99813 3.62754C6.99813 5.13093 6.29702 5.66171 5.40286 5.66171C4.43859 5.66171 3.79002 4.88557 3.79002 3.65194C3.79002 2.31191 4.46481 1.61774 5.66578 1.61774C6.17417 1.61774 6.47222 1.69118 6.75275 1.80568C6.84906 1.8465 6.90172 1.92806 6.86673 2.02614L6.77027 2.28751C6.73528 2.37747 6.66505 2.44246 6.53364 2.402C6.27939 2.33655 6.04267 2.26297 5.70963 2.26297C4.9207 2.26297 4.6577 2.68788 4.62265 3.44759H6.80536C6.91063 3.44759 6.99813 3.52947 6.99813 3.62754ZM6.18298 4.01153H4.62265C4.71035 4.86097 5.10486 5.06529 5.42905 5.06529C5.97263 5.06529 6.1655 4.53428 6.18298 4.01153ZM9.49519 2.35306H8.76769C8.45212 2.35306 8.31186 2.402 8.31186 2.57352C8.31186 2.66333 8.38199 2.75323 8.46964 2.82667C8.60105 2.79415 8.75008 2.77773 8.89915 2.77773C9.87208 2.77773 10.4945 3.32535 10.4945 4.22373C10.4945 4.50167 10.363 4.77135 10.1789 5.00823L10.4681 5.04075C10.5734 5.04905 10.6435 5.10634 10.6435 5.21239V5.42474C10.6435 5.53097 10.5734 5.61285 10.4507 5.61285H9.44258C9.25852 5.61285 9.08321 5.65355 8.89915 5.65355C7.96115 5.65355 7.32125 5.13895 7.32125 4.22373C7.32125 3.68479 7.56673 3.2764 7.95234 3.03897C7.74199 2.85952 7.56673 2.64696 7.56673 2.36095C7.56673 1.88747 8.01366 1.72403 8.53091 1.72403H9.38117C9.85447 1.72403 10.0385 1.54385 10.0385 1.20903C10.0385 0.849724 9.61789 0.629032 9.08321 0.629032C8.67132 0.629032 8.2154 0.702612 8.14521 1.1355C8.12764 1.24178 8.05756 1.29898 7.95234 1.30724L7.51407 1.32365C7.40895 1.32365 7.32125 1.24985 7.32125 1.1437C7.33006 0.261506 8.2154 0 9.05673 0C9.86343 0 10.8012 0.343167 10.8012 1.29077C10.8012 1.96898 10.2927 2.35306 9.49519 2.35306ZM9.68802 4.24024C9.68802 3.50484 9.31113 3.34974 8.9078 3.34974C8.48706 3.34974 8.13645 3.48044 8.13645 4.24024C8.13645 4.9674 8.48706 5.09799 8.9078 5.09799C9.33737 5.09799 9.68802 4.95919 9.68802 4.24024ZM12.0843 6.99354C12.0843 7.27124 11.8475 7.5 11.5495 7.5C11.2428 7.5 11.006 7.27124 11.006 6.99354C11.006 6.70747 11.2428 6.47872 11.5495 6.47872C11.8475 6.47872 12.0843 6.70747 12.0843 6.99354ZM11.9442 1.83843V5.43295C11.9442 5.53097 11.8475 5.61285 11.7514 5.61285H11.3567C11.2515 5.61285 11.1551 5.53097 11.1551 5.43295V1.83843C11.1551 1.74021 11.2515 1.65834 11.3567 1.65834H11.7514C11.8475 1.65834 11.9442 1.74021 11.9442 1.83843ZM15.75 3.63553C15.75 4.88556 15.1014 5.66171 14.0495 5.66171C12.9975 5.66171 12.3402 4.89377 12.3402 3.63553C12.3402 2.36916 12.9975 1.61774 14.0495 1.61774C15.11 1.61774 15.75 2.38553 15.75 3.63553ZM14.9173 3.63553C14.9173 2.64696 14.5842 2.23847 14.0319 2.23847C13.4885 2.23847 13.1553 2.64696 13.1553 3.63553C13.1553 4.60768 13.4885 5.03268 14.0319 5.03268C14.5842 5.03268 14.9173 4.60768 14.9173 3.63553Z" transform="translate(8.5 13.25) scale(1 -1)" fill="white"/>
<path fill-rule="evenodd" clip-rule="evenodd" d="M2.49138 3.03774C3.1994 3.23921 3.49675 3.65877 3.49675 4.28824C3.49675 5.11894 2.91092 5.68955 1.89693 5.68955H0.201024C0.0962019 5.68955 0 5.60559 0 5.50485V0.226488C0 0.125892 0.0962019 0.0417995 0.201024 0.0417995H1.98426C3.08571 0.0417995 3.75 0.620799 3.75 1.62799C3.75 2.3581 3.33071 2.9454 2.49138 3.03774ZM2.68341 4.17889C2.68341 3.65877 2.34905 3.33146 1.68914 3.33146H0.818099V5.01815H1.75088C2.37533 5.01815 2.68341 4.71605 2.68341 4.17889ZM2.89441 1.71176C2.89441 1.09912 2.53415 0.730067 1.92692 0.730067H0.818099V2.70209H1.75943C2.47253 2.70209 2.89441 2.28242 2.89441 1.71176ZM7.22923 0.226488L7.17641 0.470032C7.12398 0.721623 7.13265 0.948302 7.13265 1.15783V2.61813C7.13265 3.29786 7.01822 4.15372 5.61918 4.15372C5.24094 4.15372 4.80963 4.06151 4.55475 3.99428C4.44862 3.96912 4.40524 3.88535 4.43189 3.7761L4.50156 3.46578C4.52809 3.35657 4.61624 3.29786 4.73092 3.33146C4.96807 3.39007 5.23214 3.47418 5.57505 3.47418C6.2 3.47418 6.34046 3.2475 6.34046 2.76079V2.55937L5.37322 2.50053C4.66037 2.45026 4.05353 2.09793 4.05353 1.19999C4.05353 0.444963 4.48483 0 5.188 0C5.67212 0 6.12946 0.167596 6.40232 0.579107L6.46394 0.209672C6.48117 0.0923081 6.56051 0.0417995 6.66626 0.0417995H7.07104C7.18559 0.0417995 7.2467 0.11746 7.22923 0.226488ZM6.34046 1.38459C6.34046 1.07419 5.98007 0.612463 5.41698 0.612463C5.09193 0.612463 4.86257 0.796971 4.86257 1.19999C4.86257 1.82937 5.24974 1.98047 5.78655 1.99719L6.34046 2.01405V1.38459ZM10.6931 3.10484C10.6931 3.73416 10.2708 4.15372 9.61122 4.15372C9.1447 4.15372 8.77552 3.9859 8.4057 3.57472L8.3178 3.95249C8.29127 4.06151 8.22991 4.10359 8.1068 4.10359H7.84286C7.73736 4.10359 7.64066 4.02783 7.64066 3.92728V0.226488C7.64066 0.125892 7.73736 0.0417995 7.84286 0.0417995H8.24751C8.35276 0.0417995 8.44129 0.125892 8.44129 0.226488V2.50906C8.44129 3.07114 8.85486 3.49924 9.39091 3.49924C9.75155 3.49924 9.89251 3.32307 9.89251 2.93696V0.226488C9.89251 0.125892 9.98946 0.0417995 10.0952 0.0417995H10.4996C10.6049 0.0417995 10.6931 0.125892 10.6931 0.226488V3.10484ZM14.2222 0.259892L12.7795 2.3581L13.9584 3.89373C14.0287 3.9859 13.9848 4.10359 13.8614 4.10359H13.299C13.1751 4.10359 13.0961 4.04479 13.0436 3.96093L11.979 2.40846V5.8154C11.979 5.92452 11.8912 6 11.7856 6H11.3891C11.284 6 11.1956 5.92452 11.1956 5.8154V0.226488C11.1956 0.125892 11.284 0.0417995 11.3891 0.0417995H11.7856C11.8912 0.0417995 11.979 0.125892 11.979 0.226488V2.23201L13.2546 0.201336C13.3161 0.10074 13.3953 0.0417995 13.4921 0.0417995H14.1171C14.24 0.0417995 14.284 0.167596 14.2222 0.259892Z" transform="translate(8.5 20) scale(1 -1)" fill="white"/>
</g>
</svg>
