<svg xmlns="http://www.w3.org/2000/svg" xmlns:xlink="http://www.w3.org/1999/xlink" width="32" height="32" viewBox="0 0 32 32">
  <defs>
    <polygon id="sns-bank-a" points=".001 2.924 10.175 .001 3.929 5.105"/>
    <linearGradient id="sns-bank-c" x1="41.165%" x2="81.026%" y1="55.044%" y2="32.273%">
      <stop offset="0%" stop-color="#EF4130"/>
      <stop offset="91.875%" stop-color="#C53526"/>
      <stop offset="100%" stop-color="#C53526"/>
    </linearGradient>
    <polygon id="sns-bank-d" points="6.252 .011 10.182 2.192 .006 5.115"/>
    <linearGradient id="sns-bank-f" x1="-.395%" x2="99.622%" y1="78.799%" y2="21.652%">
      <stop offset="0%" stop-color="#D4D3EA"/>
      <stop offset="89.494%" stop-color="#8685C0"/>
      <stop offset="100%" stop-color="#8685C0"/>
    </linearGradient>
    <path id="sns-bank-g" d="M0.0119352869,8.02548402 L1.02222222,0.0122404037 L4.70966422,5.19992048 C3.46179487,6.49740327 1.86541514,7.4932375 0.0119352869,8.0259061 L0.0119352869,8.0259061 L0.0119352869,8.02548402 L0.0119352869,8.02548402 Z"/>
    <linearGradient id="sns-bank-i" x1="95.253%" x2="-19.214%" y1="42.895%" y2="60.911%">
      <stop offset="0%" stop-color="#7474B6"/>
      <stop offset="9.533%" stop-color="#7474B6"/>
      <stop offset="100%" stop-color="#BBB9DD"/>
    </linearGradient>
    <path id="sns-bank-j" d="M0.0119352869,2.96048937 L0.203742369,2.60692461 C1.86358974,2.08213488 3.29947497,1.17142071 4.44315629,0.00295458021 L4.44315629,0.00295458021 L4.70966422,0.13492583 C3.46193529,1.43226793 1.86541514,2.42824285 0.0122161172,2.96077076 L0.0122161172,2.96077076 L0.0119352869,2.96048937 L0.0119352869,2.96048937 Z"/>
    <linearGradient id="sns-bank-l" x1="103.216%" x2=".351%" y1="1.127%" y2="95.639%">
      <stop offset="0%" stop-color="#7474B6"/>
      <stop offset="9.533%" stop-color="#7474B6"/>
      <stop offset="100%" stop-color="#BBB9DD"/>
    </linearGradient>
    <path id="sns-bank-m" d="M0.0112332112,0.012381098 L0.0112332112,0.012381098 L6.3556105,0.397039303 C5.90473748,2.20074017 4.98656288,3.86051078 3.69867521,5.19992048 L3.69867521,5.19992048 L0.0112332112,0.012381098 L0.0112332112,0.012381098 Z"/>
    <linearGradient id="sns-bank-o" x1="33.944%" x2="79.492%" y1="84.104%" y2="-12.572%">
      <stop offset="0%" stop-color="#EF4130"/>
      <stop offset="99.659%" stop-color="#A82B1C"/>
      <stop offset="100%" stop-color="#A82B1C"/>
    </linearGradient>
    <path id="sns-bank-p" d="M0.00786324786,4.46563695 C1.14606838,3.23737575 1.97156899,1.74362441 2.40882173,0.12676556 L2.40882173,0.12676556 L2.73289988,0.00309527451 C2.28202686,1.80679615 1.36385226,3.46656675 0.075964591,4.80597645 L0.075964591,4.80597645 L0.00786324786,4.46563695 L0.00786324786,4.46563695 Z"/>
    <linearGradient id="sns-bank-r" x1="1.463%" x2="103.937%" y1="97.785%" y2="-3.118%">
      <stop offset="0%" stop-color="#EF4130"/>
      <stop offset="3.105%" stop-color="#EF4130"/>
      <stop offset="100%" stop-color="#9E2718"/>
    </linearGradient>
    <path id="sns-bank-s" d="M0.0112332112,5.10537391 L6.25788156,0.00098486007 C6.78949328,1.85688332 6.79230159,3.74148341 6.3556105,5.49017281 L6.3556105,5.49017281 L0.0112332112,5.10537391 L0.0112332112,5.10537391 Z"/>
    <linearGradient id="sns-bank-u" x1="33.293%" x2="70.4%" y1="108.835%" y2="-15.103%">
      <stop offset="0%" stop-color="#EEEDF7"/>
      <stop offset="93.388%" stop-color="#AFAED7"/>
      <stop offset="100%" stop-color="#AFAED7"/>
    </linearGradient>
    <path id="sns-bank-v" d="M0.0525152625,5.33090687 C0.434304029,3.73866952 0.443571429,2.03446766 0.00758241758,0.344982413 L0.00758241758,0.344982413 L0.205989011,0.00098486007 C0.737600733,1.8579948 0.740409035,3.74148341 0.303717949,5.49017281 L0.303717949,5.49017281 L0.0525152625,5.33090687 L0.0525152625,5.33090687 Z"/>
    <linearGradient id="sns-bank-x" x1="-90.033%" x2="179.585%" y1="54.77%" y2="46.143%">
      <stop offset="0%" stop-color="#FFF"/>
      <stop offset="85.447%" stop-color="#AFAED7"/>
      <stop offset="100%" stop-color="#AFAED7"/>
    </linearGradient>
    <path id="sns-bank-y" d="M0.00533577534,0.00858235204 L8.00296093,1.02087781 L2.82669719,4.71579141 C1.53122711,3.46431564 0.537368742,1.86504358 0.00533577534,0.00858235204"/>
    <linearGradient id="sns-bank-A" x1="15.77%" x2="99.943%" y1="66.65%" y2="25.66%">
      <stop offset="0%" stop-color="#FFEF96"/>
      <stop offset="11.33%" stop-color="#FFEF96"/>
      <stop offset="100%" stop-color="#FFD540"/>
    </linearGradient>
    <path id="sns-bank-B" d="M0.00435286935,3.70279248 L5.18061661,0.00787888056 L4.79770452,6.36500994 C2.9964591,5.91267778 1.33998168,4.99324056 0.00435286935,3.70279248"/>
    <linearGradient id="sns-bank-D" x1="1.459%" x2="118.07%" y1="64.412%" y2="29.785%">
      <stop offset="0%" stop-color="#F8A084"/>
      <stop offset="3.221%" stop-color="#F8A084"/>
      <stop offset="100%" stop-color="#EF402F"/>
    </linearGradient>
    <path id="sns-bank-E" d="M0.00435286935,0.0728796452 L0.342753358,0.00365805169 C1.56984127,1.14468879 3.05838217,1.97183056 4.67442002,2.40924912 L4.67442002,2.40924912 L4.7975641,2.73467503 L4.79742369,2.73495642 C2.99631868,2.28262425 1.33998168,1.36318703 0.00435286935,0.0728796452"/>
    <linearGradient id="sns-bank-G" x1="-1.538%" x2="102.884%" y1="-2.323%" y2="103.688%">
      <stop offset="0%" stop-color="#F8A084"/>
      <stop offset="3.221%" stop-color="#F8A084"/>
      <stop offset="100%" stop-color="#EF402F"/>
    </linearGradient>
    <path id="sns-bank-H" d="M0.00954822955,6.36500994 L0.392460317,0.00787888056 L5.48798535,6.26652393 C4.51322344,6.54692766 3.53101954,6.68058725 2.56510379,6.68058725 L2.56510379,6.68058725 C1.69396825,6.68058725 0.836172161,6.57154917 0.00954822955,6.36500994"/>
    <linearGradient id="sns-bank-J" x1="-6.1%" x2="86.783%" y1="63.177%" y2="41.32%">
      <stop offset="0%" stop-color="#426AB3"/>
      <stop offset="96.787%" stop-color="#143F90"/>
      <stop offset="100%" stop-color="#143F90"/>
    </linearGradient>
    <path id="sns-bank-K" d="M0.0102503053,2.82751919 C1.25797924,1.53048662 2.8546398,0.534807157 4.707558,0.00153356782 L4.707558,0.00153356782 L4.51603175,0.355534485 C2.85688645,0.880436764 1.42029915,1.79105245 0.276758242,2.95953265 L0.276758242,2.95953265 L0.0102503053,2.82751919 L0.0102503053,2.82751919 Z"/>
    <linearGradient id="sns-bank-M" x1="-2.613%" x2="107.806%" y1="74.018%" y2="23.638%">
      <stop offset="0%" stop-color="#5563A4"/>
      <stop offset="63.846%" stop-color="#133C8B"/>
      <stop offset="100%" stop-color="#133C8B"/>
    </linearGradient>
    <path id="sns-bank-N" d="M0.00702075702,4.80245909 C0.457472527,2.99920844 1.37550672,1.33884692 2.66409646,0.00126624866 L2.66409646,0.00126624866 L6.35055556,5.18827099 L0.00702075702,4.80245909 L0.00702075702,4.80245909 Z"/>
    <linearGradient id="sns-bank-P" x1="46.515%" x2="53.802%" y1="98.945%" y2="-3.12%">
      <stop offset="0%" stop-color="#FFF"/>
      <stop offset="84.738%" stop-color="#D1D0E8"/>
      <stop offset="100%" stop-color="#D1D0E8"/>
    </linearGradient>
    <path id="sns-bank-Q" d="M0.00716117216,4.81609237 C0.457612943,3.0123915 1.37564713,1.35291635 2.66409646,0.0136332773 L2.66409646,0.0136332773 L2.73205739,0.353818015 C1.5932906,1.58324698 0.768492063,3.07543661 0.330115995,4.69440587 L0.330115995,4.69440587 L0.0073015873,4.81635969 L0.00716117216,4.81609237 L0.00716117216,4.81609237 Z"/>
    <linearGradient id="sns-bank-S" x1="-17.587%" x2="122.726%" y1="61.021%" y2="38.148%">
      <stop offset="0%" stop-color="#FFF"/>
      <stop offset="85.64%" stop-color="#C7C6E4"/>
      <stop offset="100%" stop-color="#C7C6E4"/>
    </linearGradient>
    <path id="sns-bank-T" d="M0.00210622711,3.70135739 L5.17865079,0.00593729928 C6.47468254,1.25713167 7.46797924,2.85565805 7.99888889,4.7135403 L7.99888889,4.7135403 L7.99748474,4.71397645 L0.00210622711,3.70135739 L0.00210622711,3.70135739 Z"/>
    <linearGradient id="sns-bank-V" x1="2.588%" x2="91.699%" y1="73.091%" y2="29.709%">
      <stop offset="0%" stop-color="#C7C6E4"/>
      <stop offset="89.327%" stop-color="#7474B6"/>
      <stop offset="100%" stop-color="#7474B6"/>
    </linearGradient>
    <path id="sns-bank-W" d="M0.00210622711,6.36036703 L0.38543956,0.00334852424 C2.18612332,0.4545692 3.84260073,1.37511791 5.17865079,2.66505949 L5.17865079,2.66505949 L0.00210622711,6.36036703 L0.00210622711,6.36036703 Z"/>
    <linearGradient id="sns-bank-Y" x1="10.419%" x2="73.472%" y1="105.892%" y2="16.784%">
      <stop offset="0%" stop-color="#EF4130"/>
      <stop offset="97.148%" stop-color="#B12E20"/>
      <stop offset="100%" stop-color="#B12E20"/>
    </linearGradient>
    <path id="sns-bank-Z" d="M0.12974359,0.328211653 L0.00645909646,0.00368619055 L0.00645909646,0.00334852424 C1.80714286,0.4545692 3.46347985,1.37511791 4.79952991,2.6639058 L4.79952991,2.6639058 L4.46056777,2.73370424 C3.23418193,1.59319407 1.7445177,0.765686496 0.12974359,0.328211653"/>
    <linearGradient id="sns-bank-ab" x1="-2.092%" x2="102.334%" y1="-2.909%" y2="103.139%">
      <stop offset="0%" stop-color="#EF4130"/>
      <stop offset="3.105%" stop-color="#EF4130"/>
      <stop offset="100%" stop-color="#9E2718"/>
    </linearGradient>
    <path id="sns-bank-ac" d="M0.00365079365,0.423616455 C1.85755189,-0.107940664 3.73771062,-0.110473161 5.48250916,0.326945404 L5.48250916,0.326945404 L5.09917582,6.68407646 L0.00365079365,0.423616455 L0.00365079365,0.423616455 Z"/>
    <linearGradient id="sns-bank-ae" x1="39.919%" x2="105.186%" y1="57.366%" y2="3.673%">
      <stop offset="0%" stop-color="#F8ABA6"/>
      <stop offset="98.981%" stop-color="#F48594"/>
      <stop offset="100%" stop-color="#F48594"/>
    </linearGradient>
    <path id="sns-bank-af" d="M0.00407203907,0.423616455 C1.85755189,-0.107940664 3.73771062,-0.110473161 5.48250916,0.326945404 L5.48250916,0.326945404 L5.32398046,0.579266555 C3.7356044,0.195536932 2.03405372,0.186856094 0.348650794,0.623669674 L0.348650794,0.623669674 L0.00407203907,0.423616455 L0.00407203907,0.423616455 Z"/>
    <linearGradient id="sns-bank-ah" x1="1.266%" x2="101.259%" y1="40.086%" y2="40.086%">
      <stop offset="0%" stop-color="#F8ABA6"/>
      <stop offset="99.197%" stop-color="#F37B90"/>
      <stop offset="100%" stop-color="#F37B90"/>
    </linearGradient>
  </defs>
  <g fill="none" fill-rule="evenodd">
    <rect width="32" height="32" fill="#4858BB" rx="8"/>
    <g transform="matrix(1 0 0 -1 5 27)">
      <polygon fill="#FFF" points="13.403 1.992 7.604 2.605 6.01 10.802" transform="rotate(127 9.706 6.397)"/>
      <g transform="translate(11.191 7.696)">
        <mask id="sns-bank-b" fill="#fff">
          <use xlink:href="#sns-bank-a"/>
        </mask>
        <g fill="url(#sns-bank-c)" mask="url(#sns-bank-b)">
          <polyline points=".001 2.924 10.175 .001 3.929 5.105"/>
        </g>
      </g>
      <polyline fill="#EF4130" points="15.12 12.801 21.367 7.697 20.745 8.022 15.106 12.631"/>
      <polyline fill="#F58769" points="11.193 10.62 15.12 12.801 15.105 12.631 11.559 10.662"/>
      <polyline fill="#BC3123" points="21.367 7.696 11.193 10.62 11.559 10.662 20.745 8.022"/>
      <polyline fill="#F8ABA6" points="11.193 10.62 15.12 12.801 14.109 20.815"/>
      <polyline fill="#D37482" points="14.109 20.815 11.192 10.62 11.422 10.91 14.056 20.114"/>
      <polyline fill="#D79592" points="15.12 12.801 14.11 20.815 14.056 20.114 14.968 12.88"/>
      <polyline fill="#FBCBC5" points="11.193 10.62 15.12 12.801 14.969 12.88 11.422 10.91"/>
      <polyline fill="#FFF" points="13.369 6.684 8.274 .425 8.599 1.047 13.2 6.699"/>
      <polyline fill="#FFF" points="11.193 10.62 13.369 6.684 13.2 6.699 11.234 10.252"/>
      <polyline fill="#D3D2EA" points="8.274 .425 11.193 10.62 11.234 10.251 8.6 1.048"/>
      <polyline fill="#293896" points="11.193 10.62 13.369 6.684 21.367 7.697"/>
      <polyline fill="#464EA1" points="21.367 7.696 11.192 10.62 11.482 10.389 20.667 7.75"/>
      <polyline fill="#1F2879" points="13.369 6.684 21.367 7.696 20.667 7.75 13.448 6.836"/>
      <polyline fill="#8785C0" points="11.193 10.62 13.369 6.684 13.448 6.836 11.482 10.389"/>
      <g transform="translate(1.011 8.428)">
        <mask id="sns-bank-e" fill="#fff">
          <use xlink:href="#sns-bank-d"/>
        </mask>
        <g fill="url(#sns-bank-f)" mask="url(#sns-bank-e)">
          <polyline points="6.252 .011 10.182 2.192 .006 5.115"/>
        </g>
      </g>
      <polyline fill="#B0AED7" points="7.264 8.438 1.017 13.543 1.639 13.218 7.278 8.608"/>
      <polyline fill="#FFDE17" points="11.193 10.62 7.264 8.438 8.274 .424"/>
      <polyline fill="#D3B382" points="8.274 .425 11.193 10.62 10.961 10.329 8.328 1.126"/>
      <polyline fill="#E8C446" points="7.264 8.438 8.274 .424 8.328 1.126 7.416 8.36"/>
      <polyline fill="#EF4130" points="11.193 10.62 9.015 14.556 14.109 20.814"/>
      <polyline fill="#F16246" points="9.015 14.556 14.109 20.814 13.784 20.191 9.184 14.54"/>
      <polyline fill="#D93B2B" points="11.193 10.62 9.015 14.556 9.184 14.54 11.15 10.988"/>
      <polyline fill="#C53526" points="14.109 20.814 11.192 10.62 11.15 10.988 13.784 20.192"/>
      <polyline fill="#EEEDF7" points="11.193 10.62 9.015 14.556 1.017 13.543"/>
      <polyline fill="#D3D2EA" points="9.015 14.556 1.017 13.543 1.717 13.49 8.937 14.403"/>
      <g transform="translate(14.098 12.79)">
        <mask id="sns-bank-h" fill="#fff">
          <use xlink:href="#sns-bank-g"/>
        </mask>
        <g fill="url(#sns-bank-i)" mask="url(#sns-bank-h)">
          <path d="M0.0119352869,8.02548402 L1.02222222,0.0122404037 L4.70966422,5.19992048 C3.46179487,6.49740327 1.86541514,7.4932375 0.0119352869,8.0259061 L0.0119352869,8.0259061"/>
        </g>
      </g>
      <path fill="#8785C0" d="M14.109475,20.8154397 L15.1197619,12.8014926 L15.2135592,13.1789754 L14.2642125,20.7694326 C14.211978,20.7853311 14.1604457,20.8008075 14.109475,20.8154397"/>
      <path fill="#9A98CB" d="M18.7080708,18.0900505 L15.2141209,13.1789754 L15.1203236,12.8014926 L18.8084676,17.9884692 C18.7750488,18.0236428 18.7414896,18.057128 18.7080708,18.0900505"/>
      <g transform="translate(14.098 17.854)">
        <mask id="sns-bank-k" fill="#fff">
          <use xlink:href="#sns-bank-j"/>
        </mask>
        <g fill="url(#sns-bank-l)" mask="url(#sns-bank-k)">
          <path d="M0.0119352869,2.96048937 L0.203742369,2.60692461 C1.86358974,2.08213488 3.29947497,1.17142071 4.44315629,0.00295458021 L4.44315629,0.00295458021 L4.70966422,0.13492583 C3.46193529,1.43226793 1.86541514,2.42824285 0.0122161172,2.96077076 L0.0122161172,2.96077076"/>
        </g>
      </g>
      <g transform="translate(15.109 12.79)">
        <mask id="sns-bank-n" fill="#fff">
          <use xlink:href="#sns-bank-m"/>
        </mask>
        <g fill="url(#sns-bank-o)" mask="url(#sns-bank-n)">
          <path d="M0.0112332112,0.012381098 L0.0112332112,0.012381098 L6.3556105,0.397039303 C5.90473748,2.20074017 4.98656288,3.86051078 3.69867521,5.19992048 L3.69867521,5.19992048"/>
        </g>
      </g>
      <path fill="#F37557" d="M18.807906,17.9884692 L15.1197619,12.8014926 L15.4060684,12.9597737 L18.9071795,17.8835112 C18.8743223,17.9192476 18.8413248,17.9538584 18.807906,17.9884692"/>
      <path fill="#A82B1C" d="M21.4286142,13.3262823 L15.4055067,12.9597737 L15.1197619,12.8014926 L21.4642796,13.1861508 C21.4522039,13.2328613 21.4406899,13.2795718 21.4286142,13.3262823"/>
      <g transform="translate(18.731 13.183)">
        <mask id="sns-bank-q" fill="#fff">
          <use xlink:href="#sns-bank-p"/>
        </mask>
        <g fill="url(#sns-bank-r)" mask="url(#sns-bank-q)">
          <path d="M0.00786324786,4.46563695 C1.14606838,3.23737575 1.97156899,1.74362441 2.40882173,0.12676556 L2.40882173,0.12676556 L2.73289988,0.00309527451 C2.28202686,1.80679615 1.36385226,3.46656675 0.075964591,4.80597645 L0.075964591,4.80597645"/>
        </g>
      </g>
      <g transform="translate(15.109 7.696)">
        <mask id="sns-bank-t" fill="#fff">
          <use xlink:href="#sns-bank-s"/>
        </mask>
        <g fill="url(#sns-bank-u)" mask="url(#sns-bank-t)">
          <path d="M0.0112332112,5.10537391 L6.25788156,0.00098486007 C6.78949328,1.85688332 6.79230159,3.74148341 6.3556105,5.49017281 L6.3556105,5.49017281"/>
        </g>
      </g>
      <path fill="#C7C6E3" d="M21.4642796,13.1861508 L15.1203236,12.8009298 L15.489475,12.6827466 L21.4982601,13.0460193 C21.4873077,13.0927298 21.4757937,13.1394403 21.4642796,13.1861508"/>
      <path fill="#EEEDF7" d="M21.3666911,7.69575287 C21.3814347,7.74626212 21.3946337,7.79584279 21.408254,7.84574706 L15.4896154,12.6827466 L15.1199023,12.8014926"/>
      <g transform="translate(21.16 7.696)">
        <mask id="sns-bank-w" fill="#fff">
          <use xlink:href="#sns-bank-v"/>
        </mask>
        <g fill="url(#sns-bank-x)" mask="url(#sns-bank-w)">
          <path d="M0.0525152625,5.33090687 C0.434304029,3.73866952 0.443571429,2.03446766 0.00758241758,0.344982413 L0.00758241758,0.344982413 L0.205989011,0.00098486007 C0.737600733,1.8579948 0.740409035,3.74148341 0.303717949,5.49017281 L0.303717949,5.49017281"/>
        </g>
      </g>
      <g transform="translate(1.011 13.535)">
        <mask id="sns-bank-z" fill="#fff">
          <use xlink:href="#sns-bank-y"/>
        </mask>
        <g fill="url(#sns-bank-A)" mask="url(#sns-bank-z)">
          <path d="M0.00533577534,0.00858235204 L8.00296093,1.02087781 L2.82669719,4.71579141 C1.53122711,3.46431564 0.537368742,1.86504358 0.00533577534,0.00858235204"/>
        </g>
      </g>
      <path fill="#FFCB1F" d="M1.01688645,13.5433736 L9.0145116,14.5556691 L8.63763736,14.6490901 L1.06238095,13.6972932 C1.0470757,13.6456584 1.03163004,13.5944456 1.01688645,13.5433736"/>
      <path fill="#FFDE17" d="M3.73574481,18.150549 L8.63763736,14.6502156 L9.01507326,14.5556691 L3.83824786,18.2505827 C3.8042674,18.2176602 3.76916361,18.184597 3.73574481,18.150549"/>
      <path fill="#FFFAC2" d="M3.83726496,18.2505827 C2.54221612,16.9991069 1.54835775,15.4009604 1.01688645,13.5433736 L1.36960928,13.7357027 C1.89335775,15.3971616 2.80282662,16.8364643 3.96897436,17.9835449"/>
      <g transform="translate(3.833 14.548)">
        <mask id="sns-bank-C" fill="#fff">
          <use xlink:href="#sns-bank-B"/>
        </mask>
        <g fill="url(#sns-bank-D)" mask="url(#sns-bank-C)">
          <path d="M0.00435286935,3.70279248 L5.18061661,0.00787888056 L4.79770452,6.36500994 C2.9964591,5.91267778 1.33998168,4.99324056 0.00435286935,3.70279248"/>
        </g>
      </g>
      <path fill="#EF4130" d="M3.83838828,18.2505827 L9.01493284,14.5556691 L8.85640415,14.8415599 L3.94313797,18.3494907 C3.90677045,18.3176938 3.8729304,18.2840679 3.83838828,18.2505827"/>
      <path fill="#EF4130" d="M8.49118437,20.876501 L8.85654457,14.8414192 L9.0145116,14.5556691 L8.63047619,20.9128001 C8.58442002,20.9001376 8.53724054,20.8886007 8.49118437,20.876501"/>
      <g transform="translate(3.833 18.178)">
        <mask id="sns-bank-F" fill="#fff">
          <use xlink:href="#sns-bank-E"/>
        </mask>
        <g fill="url(#sns-bank-G)" mask="url(#sns-bank-F)">
          <path d="M0.00435286935,0.0728796452 L0.342753358,0.00365805169 C1.56984127,1.14468879 3.05838217,1.97183056 4.67442002,2.40924912 L4.67442002,2.40924912 L4.7975641,2.73467503 L4.79742369,2.73495642 C2.99631868,2.28262425 1.33998168,1.36318703 0.00435286935,0.0728796452"/>
        </g>
      </g>
      <g transform="translate(8.621 14.548)">
        <mask id="sns-bank-I" fill="#fff">
          <use xlink:href="#sns-bank-H"/>
        </mask>
        <g fill="url(#sns-bank-J)" mask="url(#sns-bank-I)">
          <path d="M0.00954822955,6.36674107 L0.392460317,0.0121902105 L5.48798535,6.26829503 C4.51322344,6.54858495 3.53101954,6.68219029 2.56510379,6.68219029 L2.56510379,6.68219029 C1.69396825,6.68219029 0.836172161,6.57319646 0.00954822955,6.36674107"/>
        </g>
      </g>
      <path fill="#17479E" d="M8.63103785,20.9122373 L9.01394994,14.5556691 L9.13344322,14.9261171 L8.76976801,20.9462854 C8.72315018,20.9353112 8.67709402,20.9237743 8.63103785,20.9122373"/>
      <path fill="#2E3092" d="M14.109475,20.8144548 C14.0600488,20.8288056 14.0102015,20.8430158 13.9607753,20.856241 L9.13302198,14.9261171 L9.0145116,14.5558098 L14.109475,20.8144548"/>
      <path fill="#293896" d="M3.57665446,3.25130448 C4.82508547,1.95268206 6.42062271,0.956664933 8.27396215,0.423616455 L7.26367521,8.43770424"/>
      <path fill="#1F2879" d="M8.27396215,0.42472794 L7.26367521,8.43770424 L7.17001832,8.06024958 L8.11922466,0.469792323 C8.1714591,0.453851659 8.22313187,0.439120967 8.27396215,0.42472794"/>
      <path fill="#595DA9" d="M3.67592796,3.14847102 L7.17001832,8.06068573 L7.26367521,8.43830922 L3.57665446,3.25119193 C3.6095116,3.21656706 3.64250916,3.18254718 3.67592796,3.14847102"/>
      <g transform="translate(3.567 .422)">
        <mask id="sns-bank-L" fill="#fff">
          <use xlink:href="#sns-bank-K"/>
        </mask>
        <g fill="url(#sns-bank-M)" mask="url(#sns-bank-L)">
          <path d="M0.0102503053,2.82751919 C1.25797924,1.53048662 2.8546398,0.534807157 4.707558,0.00153356782 L4.707558,0.00153356782 L4.51603175,0.355534485 C2.85688645,0.880436764 1.42029915,1.79105245 0.276758242,2.95953265 L0.276758242,2.95953265"/>
        </g>
      </g>
      <g transform="translate(.913 3.25)">
        <mask id="sns-bank-O" fill="#fff">
          <use xlink:href="#sns-bank-N"/>
        </mask>
        <g fill="url(#sns-bank-P)" mask="url(#sns-bank-O)">
          <path d="M0.00702075702,4.80245909 C0.457472527,2.99920844 1.37550672,1.33884692 2.66409646,0.00126624866 L2.66409646,0.00126624866 L6.35055556,5.18827099"/>
        </g>
      </g>
      <path fill="#A5A3D1" d="M3.5760928,3.25130448 L7.26367521,8.43770424 L6.9779304,8.27887445 L3.47738095,3.35567151 C3.50967643,3.32104664 3.54323565,3.28532436 3.5760928,3.25130448"/>
      <path fill="#D1D0E9" d="M0.955946276,7.91394158 L6.9779304,8.27893072 L7.26367521,8.43776051 L0.919157509,8.05353846 C0.931233211,8.00627925 0.943308913,7.96010338 0.955946276,7.91394158"/>
      <g transform="translate(.913 3.236)">
        <mask id="sns-bank-R" fill="#fff">
          <use xlink:href="#sns-bank-Q"/>
        </mask>
        <g fill="url(#sns-bank-S)" mask="url(#sns-bank-R)">
          <path d="M0.00716117216,4.81609237 C0.457612943,3.0123915 1.37564713,1.35291635 2.66409646,0.0136332773 L2.66409646,0.0136332773 L2.73205739,0.353818015 C1.5932906,1.58324698 0.768492063,3.07543661 0.330115995,4.69440587 L0.330115995,4.69440587 L0.0073015873,4.81635969"/>
        </g>
      </g>
      <path fill="#EF4130" d="M7.26367521,8.43776051 L0.919157509,8.05310231 C0.482606838,9.80122893 0.48541514,11.6852662 1.01688645,13.5433736"/>
      <path fill="#CF381E" d="M0.91971917,8.05359474 L7.26423687,8.43764796 L6.89396215,8.55640801 L0.885879121,8.19313534 C0.897252747,8.14587613 0.908205128,8.10024897 0.91971917,8.05359474"/>
      <path fill="#F37557" d="M1.01688645,13.5433736 C1.00312576,13.4928644 0.988943834,13.44334 0.975744811,13.3938156 L6.89452381,8.55646429 L7.26367521,8.43776051 L1.01688645,13.5433736"/>
      <path fill="#F37557" d="M1.21599512,13.1988133 C0.780006105,11.5093421 0.789273504,9.80452118 1.17162393,8.21187582 L0.919859585,8.05304603 C0.483168498,9.80134149 0.48485348,11.68521 1.01632479,13.5433736"/>
      <g transform="translate(13.368 2.983)">
        <mask id="sns-bank-U" fill="#fff">
          <use xlink:href="#sns-bank-T"/>
        </mask>
        <g fill="url(#sns-bank-V)" mask="url(#sns-bank-U)">
          <path d="M0.00210622711,3.70135739 L5.17865079,0.00593729928 C6.47468254,1.25713167 7.46797924,2.85565805 7.99888889,4.7135403 L7.99888889,4.7135403 L7.99748474,4.71397645"/>
        </g>
      </g>
      <path fill="#7574B6" d="M21.3671123,7.69575287 L13.3694872,6.68402019 L13.7463614,6.58948769 L21.3217582,7.54132681 C21.3370635,7.59249732 21.3523687,7.64469491 21.3671123,7.69575287"/>
      <path fill="#C7C6E3" d="M18.648254,3.08912617 L13.7457998,6.58948769 L13.3694872,6.68402019 L18.5461722,2.98854381 C18.580293,3.02163511 18.6142735,3.05510629 18.648254,3.08912617"/>
      <path fill="#6264AD" d="M18.5463126,2.98860009 C19.8423443,4.24006178 20.8357814,5.838757 21.3666911,7.69575287 L21.0145299,7.5029032 C20.4907814,5.84145833 19.5818742,4.40214161 18.4151648,3.25520171"/>
      <g transform="translate(13.368 .324)">
        <mask id="sns-bank-X" fill="#fff">
          <use xlink:href="#sns-bank-W"/>
        </mask>
        <g fill="url(#sns-bank-Y)" mask="url(#sns-bank-X)">
          <path d="M0.00210622711,6.36036703 L0.38543956,0.00334852424 C2.18612332,0.4545692 3.84260073,1.37511791 5.17865079,2.66505949 L5.17865079,2.66505949 L0.00210622711,6.36036703"/>
        </g>
      </g>
      <path fill="#EF4130" d="M18.5463126 2.98860009L13.3694872 6.68402019 13.5287179 6.39758067 18.4415629 2.88912922C18.4766667 2.9214467 18.5117705 2.95562135 18.5463126 2.98860009M13.8928144.363174186L13.5280159 6.39769323 13.3694872 6.68402019 13.7529609.326889127C13.8001404.338440128 13.8461966.351074476 13.8928144.363174186"/>
      <g transform="translate(13.747 .324)">
        <mask id="sns-bank-aa" fill="#fff">
          <use xlink:href="#sns-bank-Z"/>
        </mask>
        <g fill="url(#sns-bank-ab)" mask="url(#sns-bank-aa)">
          <path d="M0.12974359,0.328211653 L0.00645909646,0.00368619055 L0.00645909646,0.00334852424 C1.80714286,0.4545692 3.46347985,1.37511791 4.79952991,2.6639058 L4.79952991,2.6639058 L4.46056777,2.73370424 C3.23418193,1.59319407 1.7445177,0.765686496 0.12974359,0.328211653"/>
        </g>
      </g>
      <g transform="translate(8.27)">
        <mask id="sns-bank-ad" fill="#fff">
          <use xlink:href="#sns-bank-ac"/>
        </mask>
        <g fill="url(#sns-bank-ae)" mask="url(#sns-bank-ad)">
          <path d="M0.00365079365,0.423616455 C1.85755189,-0.107940664 3.73771062,-0.110473161 5.48250916,0.326945404 L5.48250916,0.326945404 L5.09917582,6.68407646"/>
        </g>
      </g>
      <path fill="#F8ABA6" d="M13.7529609,0.326889127 L13.3696276,6.68402019 L13.2505556,6.31469766 L13.6142308,0.293417954 C13.6602869,0.304420248 13.7063431,0.31595718 13.7529609,0.326889127"/>
      <path fill="#FCD3CE" d="M8.27396215,0.42472794 C8.32380952,0.409997247 8.37379731,0.396195137 8.42364469,0.382407096 L13.2504151,6.31310781 L13.3694872,6.68396391"/>
      <g transform="translate(8.27)">
        <mask id="sns-bank-ag" fill="#fff">
          <use xlink:href="#sns-bank-af"/>
        </mask>
        <g fill="url(#sns-bank-ah)" mask="url(#sns-bank-ag)">
          <path d="M0.00407203907,0.423616455 C1.85755189,-0.107940664 3.73771062,-0.110473161 5.48250916,0.326945404 L5.48250916,0.326945404 L5.32398046,0.579266555 C3.7356044,0.195536932 2.03405372,0.186856094 0.348650794,0.623669674 L0.348650794,0.623669674"/>
        </g>
      </g>
    </g>
  </g>
</svg>
