<svg xmlns="http://www.w3.org/2000/svg" width="32" height="32" viewBox="0 0 32 32">
  <g fill="none" fill-rule="evenodd">
    <rect width="32" height="32" fill="#FF9500" rx="8"/>
    <path fill="#FFF" d="M19.9826544,9 C18.7185057,9 17.4904689,8.99990129 16.3899535,9.55888963 C15.2902395,10.1179007 14.3188236,11.2367479 13.5712426,13.4743941 C13.4092141,13.9554967 13.3235124,14.3699998 13.3122834,14.7298231 C13.3010574,15.090449 13.3636435,15.3972223 13.5000043,15.6638762 C13.6684502,15.989162 13.9411777,16.2951901 14.2820817,16.5530097 C14.623787,16.8116317 15.0319645,17.0213386 15.4723325,17.1554695 C15.4891765,17.1602864 15.7202884,17.2261032 16.0010332,17.3064211 C16.2801722,17.3867389 16.6065823,17.4830226 16.8135298,17.5456699 C16.9346504,17.582616 17.0676911,17.630859 17.1880103,17.7039485 C17.309131,17.7754311 17.4174897,17.8717543 17.4856692,18.0050817 C17.5305891,18.0934304 17.5546934,18.1906528 17.5570997,18.2942615 C17.5603034,18.3986747 17.5425584,18.5112273 17.5016496,18.6300971 C17.3989788,18.933697 17.2433579,19.129656 16.9465714,19.2493293 C16.6513889,19.3690016 16.2158807,19.4074144 15.5549299,19.4122342 L7.30423152,19.4122342 L6,23 L14.8313832,23 C15.6623847,23 17.181588,23.0000987 18.6414562,22.3784551 C20.1013234,21.7576003 21.5019917,20.5166782 22.0947621,18.0324571 C22.3177532,17.0991671 22.2487112,16.338554 21.8837444,15.740991 C21.5171727,15.1442314 20.8546171,14.7106039 19.88966,14.4335088 C19.88966,14.4335088 19.6739559,14.3706828 19.4196821,14.2975943 C19.1670123,14.2245057 18.8742114,14.141046 18.7250167,14.0976742 C18.4779619,14.0269951 18.2878189,13.8840112 18.175522,13.7016895 C18.0640265,13.5201724 18.0303267,13.299283 18.0936945,13.0735896 C18.16027,12.8390628 18.3207242,12.6519154 18.5517356,12.5226044 C18.7843517,12.3940948 19.0891466,12.3234552 19.4452897,12.3234552 L24.5788472,12.3234552 C24.6149425,12.2712491 24.6478764,12.2142982 24.6839716,12.162092 C25.6216552,10.8336396 26.7567064,9.75900119 28,9 L19.9826544,9 L19.9826544,9 Z"/>
  </g>
</svg>
