<svg xmlns="http://www.w3.org/2000/svg" width="32" height="32" viewBox="0 0 32 32">
  <g fill="none" fill-rule="evenodd">
    <rect width="32" height="32" fill="#00927B" rx="8"/>
    <path fill="#FFF" d="M21.0642202,10.5 C21.0642202,13.4295 19.8124037,16.263 18.1498349,17.943 C17.0906055,18.999 16.1276697,19.647 14.7058349,20.2725 L14.5613945,20.0085 C15.2354495,19.599 15.7906422,19.167 16.4406239,18.519 C18.2942752,16.743 19.5235229,13.6695 19.5235229,11.148 C19.5235229,10.764 19.5235229,9.996 19.4753761,9.444 C19.2587156,10.524 18.583156,11.676 17.6442936,12.6135 C17.3794862,12.8775 16.9943119,13.2855 16.7054312,13.4295 C16.7054312,12.8775 16.4887706,11.604 16.2239633,10.86 C16.5850642,10.572 16.7776514,10.356 17.1146789,10.044 C17.8850275,9.252 18.3905688,8.2425 18.3905688,7.4025 C18.3905688,6.9225 18.1739083,6.4185 17.7887339,6.0345 C17.4035596,5.6505 16.6091376,5.3625 15.8147156,5.3625 C14.8743486,5.3625 13.4780917,5.8665 12.7558899,6.3945 C14.224367,7.8825 15.1150826,9.492 15.6702752,11.508 C15.9110092,12.3735 16.0313761,13.2375 16.0313761,14.1015 C16.0313761,15.6615 15.6462018,17.151 14.9706422,18.327 C13.8873394,20.2005 12.2503486,21.2565 10.1063119,21.2565 C7.55302752,21.2565 5.16976147,20.0085 3.38682569,18.207 C1.34058716,16.143 0.328,13.6215 0.328,11.028 C0.328,10.572 0.352073394,10.14 0.424293578,9.636 L0.714678899,9.636 C0.738752294,10.404 0.835045872,11.124 1.05170642,12.012 C1.46095413,13.6215 2.56833028,15.3975 3.96458716,16.791 C4.97717431,17.799 6.46972477,18.783 7.50488073,19.191 C6.71045872,18.543 5.94011009,17.343 5.55493578,15.9975 C5.4586422,15.6375 5.36234862,15.1575 5.36234862,14.8215 C5.84381651,15.1095 7.04748624,15.5415 7.81783486,15.6615 C7.98634862,16.767 8.39710092,17.991 9.21559633,18.807 C9.62484404,19.215 10.1063119,19.479 10.7081468,19.479 C11.6229358,19.479 12.3466422,18.807 12.8040367,18.039 C13.2614312,17.247 13.5503119,15.8295 13.429945,14.8695 C12.4188624,15.1575 11.454422,15.3015 10.4914862,15.3015 C9.52855046,15.3015 8.56561468,15.1575 7.52895413,14.8695 C5.84381651,14.4135 4.30161468,13.5495 3.19423853,12.4455 C2.0146422,11.268 1.09985321,9.636 1.09985321,7.9545 C1.09985321,6.2025 1.99056881,4.737 3.17016514,3.537 C5.14568807,1.569 7.96227523,0.5595 10.7322202,0.5595 C12.9725505,0.5595 14.9706422,1.329 16.7776514,2.649 L16.633211,2.889 C15.1873028,2.097 13.6706789,1.713 11.9614679,1.713 C9.38411009,1.713 6.92711927,2.505 5.0253211,3.945 C5.60308257,3.753 6.25306422,3.657 6.73453211,3.657 C7.57710092,3.657 9.11930275,3.897 9.86557798,4.353 C9.3359633,4.665 8.37302752,5.4345 7.86598165,6.0345 C7.14377982,5.7465 6.25306422,5.5305 5.4586422,5.5305 C4.71236697,5.5305 3.89236697,5.6985 3.36275229,6.2505 C3.04979817,6.6105 2.85721101,7.0665 2.85721101,7.5465 C2.85721101,8.5545 3.41089908,9.396 4.08495413,10.092 C4.56792661,10.596 5.21790826,11.052 5.72344954,11.292 C6.27713761,9.252 7.216,7.6185 8.68598165,6.1545 C10.5155596,4.353 12.9003303,3.345 14.9947156,3.345 C16.5850642,3.321 17.9331743,3.777 19.0646239,4.905 C20.2697982,6.1305 21.0642202,8.2905 21.0642202,10.5 M13.1169908,12.18 C12.6114495,10.62 11.6710826,9.204 10.539633,8.0985 C9.43225688,9.276 8.68598165,10.812 8.30080734,12.348 C8.95078899,12.4935 9.62484404,12.5655 10.2988991,12.5655 C11.2618349,12.5655 12.2022018,12.4215 13.1169908,12.18" transform="translate(5 5)"/>
  </g>
</svg>
