<svg width="32" height="25" viewBox="0 0 32 25" fill="none" xmlns="http://www.w3.org/2000/svg">
<path d="M28 0H4C1.79086 0 0 1.79086 0 4V20C0 22.2091 1.79086 24 4 24H28C30.2091 24 32 22.2091 32 20V4C32 1.79086 30.2091 0 28 0Z" transform="translate(0 0.5)" fill="#27337A"/>
<path fill-rule="evenodd" clip-rule="evenodd" d="M0.582423 2.50564V4.5H0V0H1.13374C2.03746 0 2.58256 0.468992 2.58256 1.23723C2.58256 2.08486 1.96336 2.50564 1.03382 2.50564H0.582423ZM1.10219 0.541834H0.582423V2.00647H1.06439C1.64779 2.00647 1.99397 1.77218 1.99397 1.25626C1.99397 0.781669 1.68506 0.541834 1.10219 0.541834ZM5.83279 4.5L5.33117 2.94431H3.56771L3.08428 4.5H2.49516L4.1673 0H4.74973L6.39653 4.38002L5.83279 4.5ZM4.44658 0.69701L3.76472 2.44556H5.13372L4.44658 0.69701ZM8.14909 4.5H7.5672V2.54142L6.05617 0.120154L6.63859 0L7.86365 2.02507L9.05857 0H9.70267L8.14909 2.54142V4.5Z" transform="translate(11.5 16.25)" fill="white"/>
<path fill-rule="evenodd" clip-rule="evenodd" d="M7.59239 8L5.42634 2.55489L4.55018 7.18477C4.44733 7.7016 4.04134 8 3.5905 8H0.0494919L0 7.76774C0.726915 7.61084 1.55281 7.35782 2.05315 7.0871C2.35938 6.92175 2.44676 6.77716 2.5473 6.38416L4.20683 0H6.40613L9.77778 8H7.59239Z" transform="translate(11 13.5) scale(1 -1)" fill="white"/>
</svg>
