<svg xmlns="http://www.w3.org/2000/svg" xmlns:xlink="http://www.w3.org/1999/xlink" width="32" height="32" viewBox="0 0 32 32">
  <defs>
    <rect id="v-pay-a" width="32" height="32" rx="8"/>
  </defs>
  <g fill="none" fill-rule="evenodd">
    <mask id="v-pay-b" fill="#fff">
      <use xlink:href="#v-pay-a"/>
    </mask>
    <use fill="#27337A" xlink:href="#v-pay-a"/>
    <rect width="31" height="31" x=".5" y=".5" stroke="#27337A" rx="8"/>
    <path fill="#FFF" d="M10.7765648,24.3408508 L10.7765648,27 L10,27 L10,21 L11.5116536,21 C12.7166071,21 13.4434138,21.625322 13.4434138,22.6496404 C13.4434138,23.7798137 12.6178084,24.3408508 11.378422,24.3408508 L10.7765648,24.3408508 Z M11.4695908,21.7224453 L10.7765648,21.7224453 L10.7765648,23.6752875 L11.4191806,23.6752875 C12.1970496,23.6752875 12.6586322,23.3629112 12.6586322,22.6750127 C12.6586322,22.0422245 12.2467424,21.7224453 11.4695908,21.7224453 L11.4695908,21.7224453 Z M17.7770599,27 L17.1082282,24.9257418 L14.7569482,24.9257418 L14.112376,27 L13.326877,27 L15.556403,21 L16.3329677,21 L18.5287131,26.8400269 L17.7770599,27 Z M15.9287732,21.9293464 L15.019629,24.2607479 L16.8449605,24.2607479 L15.9287732,21.9293464 Z M20.8654504,27 L20.089603,27 L20.089603,24.3885583 L18.0748909,21.1602059 L18.8514557,21 L20.4848632,23.7000903 L22.0780992,21 L22.9368984,21 L20.8654504,24.3885583 L20.8654504,27 Z" mask="url(#v-pay-b)"/>
    <g mask="url(#v-pay-b)">
      <g transform="translate(9 6)">
        <path fill="#FFF" d="M10.6365582,0 L7.52897468,8.19570063 L7.22813897,6.53180591 C6.45536931,4.49196279 4.9543471,2.4597068 3,1.59226714 L5.64091007,12 L9.00244494,11.9974924 L14,0 L10.6365582,0"/>
        <path fill="#EC982D" d="M0.0524194613,0 L0,0.29021691 C3.73188374,1.20365944 5.97507942,3.34850229 7,6 L6.05996075,0.930736314 C5.88114325,0.232551276 5.3602133,0.0236682898 4.71226934,0 L0.0524194613,0 Z"/>
      </g>
    </g>
  </g>
</svg>
