<svg xmlns="http://www.w3.org/2000/svg" xmlns:xlink="http://www.w3.org/1999/xlink" width="32" height="32" viewBox="0 0 32 32">
  <defs>
    <rect id="van-lanschot-a" width="32" height="32" rx="8"/>
  </defs>
  <g fill="none" fill-rule="evenodd">
    <mask id="van-lanschot-b" fill="#fff">
      <use xlink:href="#van-lanschot-a"/>
    </mask>
    <use fill="#8ACE00" xlink:href="#van-lanschot-a"/>
    <g fill="#FFF" mask="url(#van-lanschot-b)">
      <g transform="translate(9 6)">
        <polyline points="7.948 9.532 7.948 8.797 8.684 8.797 8.684 9.532 9.679 9.532 9.679 8.202 4.56 8.202 4.56 9.532 5.54 9.532 5.54 8.797 6.276 8.797 6.276 9.532" transform="matrix(1 0 0 -1 0 17.734)"/>
        <path d="M6.79781895,0.219066937 L6.79781895,0.238777659 C6.79781895,0.303417688 6.77399491,0.408098023 6.65519668,0.470602982 C6.48907232,0.561482716 5.58987596,1.16428425 5.42632717,2.01580602 C5.33586023,2.46423268 5.33972359,2.85102079 5.5187258,3.07996841 C5.57410058,3.14959027 5.67422592,3.26380106 5.67422592,3.31337183 C5.67229424,3.42371474 5.50134069,3.74524396 5.4604535,3.9652181 C5.43212221,4.1599427 5.41248348,4.49319934 5.57410058,4.67486598 C5.73378601,4.85433567 5.8786619,4.83205667 5.82393101,5.00750376 C5.78304381,5.13777399 5.69225492,5.35004331 5.69225492,5.65514177 C5.69225492,5.85286785 5.73571769,6.18210189 5.97041663,6.25358034 C6.15585777,6.3080401 6.20350585,6.34795664 6.21734954,6.38168456 C6.22990545,6.41479362 6.21734954,6.90214664 6.25211976,7.11967628 C6.28334856,7.30688172 6.39087866,7.87252066 6.9014857,7.92821815 L6.98390398,7.93564448 L7.06825394,7.92821815 C7.57886097,7.87252066 7.68767887,7.30688172 7.71761988,7.11967628 C7.75303399,6.90214664 7.73790251,6.41479362 7.75303399,6.38168456 C7.76687769,6.34795664 7.81323797,6.3080401 7.99867911,6.25358034 C8.23337806,6.18210189 8.28006029,5.85286785 8.28006029,5.65514177 C8.28006029,5.35004331 8.1886275,5.13777399 8.14645252,5.00750376 C8.09139968,4.83205667 8.23595363,4.85433567 8.39563906,4.67486598 C8.55725616,4.49319934 8.54083689,4.1599427 8.50928614,3.9652181 C8.46839895,3.74524396 8.29808929,3.42371474 8.29422593,3.31337183 C8.29422593,3.26380106 8.39563906,3.14959027 8.45036995,3.07996841 C8.62937216,2.85102079 8.63323552,2.46423268 8.54470025,2.01580602 C8.38050757,1.16428425 7.47873564,0.561482716 7.31422101,0.470602982 C7.19638862,0.408098023 7.17192069,0.303417688 7.17192069,0.238777659 L7.17192069,0.219066937" transform="matrix(1 0 0 -1 0 8.155)"/>
        <polyline points="6.985 9.153 9.126 9.153 9.41 9.685 4.56 9.685 4.844 9.153" transform="matrix(1 0 0 -1 0 19.483)"/>
        <path d="M6.9860007,19.6435552 L9.93486746,19.6435552 L10.4872912,15.9183109 L8.2103419,15.9183109 L7.86750134,17.52822 C7.86750134,17.52822 7.7586432,18.0019007 6.9860007,18.0019007 C6.21460944,18.0019007 6.1057513,17.52822 6.1057513,17.52822 L5.76103387,15.9183109 L3.4822077,15.9183109 L4.03431864,19.6435552 L6.9860007,19.6435552" transform="matrix(1 0 0 -1 0 35.562)"/>
        <polyline points="9.679 14.475 9.436 15.007 4.531 15.007 4.29 14.475" transform="matrix(1 0 0 -1 0 30.127)"/>
        <path d="M2.13405272,18.3131108 L2.21339054,18.3088347 C2.72638167,18.2509094 2.83276648,17.6506398 2.86191711,17.4505702 C2.90098498,17.2273607 2.88866358,16.7126446 2.90098498,16.6817107 C2.91420795,16.6462884 2.96409461,16.6016161 3.14771358,16.5431146 C3.37851451,16.4703593 3.42689856,16.124324 3.42689856,15.9123964 C3.42689856,15.5942016 3.3388456,15.3679291 3.29707304,15.239978 C3.23967333,15.0504319 3.38452495,15.0753004 3.5404959,14.8832675 C3.70638407,14.6944493 3.68925431,14.3431977 3.65589636,14.1406109 C3.61893215,13.9107901 3.44402832,13.5661802 3.44012153,13.4564558 C3.43921997,13.4048083 3.5404959,13.2859856 3.59759509,13.2152622 C3.77790831,12.9672147 3.78572189,12.5590993 3.69406266,12.0898439 C3.52396718,11.1930637 2.65876421,10.5647109 2.48776716,10.4639937 C2.36365156,10.3912687 2.37597296,10.2104873 2.37597296,10.152562 L2.37597296,6.60520007 L1.89423612,6.60520007 L1.89423612,10.152562 C1.89423612,10.2104873 1.90745909,10.3912687 1.7821414,10.4639937 C1.61294749,10.5647109 0.747443989,11.1930637 0.576146422,12.0898439 C0.485388764,12.5590993 0.490497639,12.9672147 0.673816087,13.2152622 C0.727609534,13.2859856 0.830087552,13.4048083 0.828584942,13.4564558 C0.823476067,13.5661802 0.650074846,13.9107901 0.611608024,14.1406109 C0.582757907,14.3431977 0.563223974,14.6944493 0.727609534,14.8832675 C0.885383609,15.0753004 1.03173785,15.0504319 0.970130826,15.239978 C0.933166614,15.3679291 0.84301,15.5942016 0.84301,15.9123964 C0.84301,16.124324 0.892295616,16.4703593 1.12339707,16.5431146 C1.30821813,16.6016161 1.35600113,16.6462884 1.36832254,16.6817107 C1.38154551,16.7126446 1.36832254,17.2273607 1.40588779,17.4505702 C1.43443739,17.6506398 1.54382741,18.2509094 2.05681855,18.3088347" transform="matrix(1 0 0 -1 0 24.918)"/>
        <path d="M11.8336165,18.3131108 L11.7536774,18.3088347 C11.242488,18.2509094 11.1358023,17.6506398 11.1063511,17.4505702 C11.0663815,17.2273607 11.0805061,16.7126446 11.0663815,16.6817107 C11.0546611,16.6462884 11.0071785,16.6016161 10.8247611,16.5431146 C10.5903532,16.4703593 10.5440727,16.124324 10.5440727,15.9123964 C10.5440727,15.5942016 10.6309238,15.3679291 10.6690902,15.239978 C10.7312985,15.0504319 10.5846433,15.0753004 10.4247651,14.8832675 C10.2627832,14.6944493 10.2817162,14.3431977 10.3117685,14.1406109 C10.3502354,13.9107901 10.522435,13.5661802 10.528746,13.4564558 C10.528746,13.4048083 10.4247651,13.2859856 10.3733757,13.2152622 C10.1915593,12.9672147 10.1831447,12.5590993 10.2763068,12.0898439 C10.4461022,11.1930637 11.3110072,10.5647109 11.4826058,10.4639937 C11.6046181,10.3912687 11.5898924,10.2104873 11.5898924,10.152562 L11.5898924,6.60520007 L12.0767396,6.60520007 L12.0767396,10.152562 C12.0767396,10.2104873 12.063216,10.3912687 12.1858294,10.4639937 C12.3577285,10.5647109 13.223535,11.1930637 13.393631,12.0898439 C13.4852905,12.5590993 13.4771764,12.9672147 13.2950595,13.2152622 C13.2412659,13.2859856 13.1390881,13.4048083 13.1390881,13.4564558 C13.144197,13.5661802 13.3178992,13.9107901 13.354563,14.1406109 C13.3861179,14.3431977 13.4071545,14.6944493 13.2412659,14.8832675 C13.0825898,15.0753004 12.9377377,15.0504319 12.9981428,15.239978 C13.0393145,15.3679291 13.1264661,15.5942016 13.1264661,15.9123964 C13.1264661,16.124324 13.0774809,16.4703593 12.8460782,16.5431146 C12.6642619,16.6016161 12.613173,16.6462884 12.600551,16.6817107 C12.586727,16.7126446 12.600551,17.2273607 12.5632862,17.4505702 C12.5320318,17.6506398 12.4259472,18.2509094 11.9123535,18.3088347" transform="matrix(1 0 0 -1 0 24.918)"/>
        <path d="M8.62302354,12.2085489 L7.931654,12.2085489 L7.931654,13.5269079 L8.62302354,13.5269079 L8.62302354,12.2085489 L8.62302354,12.2085489 Z M6.3072712,12.2085489 L5.61590166,12.2085489 L5.61590166,13.5269079 L6.3072712,13.5269079 L6.3072712,12.2085489 L6.3072712,12.2085489 Z M9.01996607,14.8539554 L5.21926424,14.8539554 L4.82933914,10.5965333 L9.40958606,10.5965333 L9.01996607,14.8539554 Z" transform="matrix(1 0 0 -1 0 25.45)"/>
        <polyline points="7.948 9.532 7.948 8.797 8.684 8.797 8.684 9.532 9.679 9.532 9.679 8.202 4.56 8.202 4.56 9.532 5.54 9.532 5.54 8.797 6.276 8.797 6.276 9.532" transform="matrix(1 0 0 -1 0 17.734)"/>
        <path d="M6.79781895,0.219066937 L6.79781895,0.238777659 C6.79781895,0.303417688 6.77399491,0.408098023 6.65519668,0.470602982 C6.48907232,0.561482716 5.58987596,1.16428425 5.42632717,2.01580602 C5.33586023,2.46423268 5.33972359,2.85102079 5.5187258,3.07996841 C5.57410058,3.14959027 5.67422592,3.26380106 5.67422592,3.31337183 C5.67229424,3.42371474 5.50134069,3.74524396 5.4604535,3.9652181 C5.43212221,4.1599427 5.41248348,4.49319934 5.57410058,4.67486598 C5.73378601,4.85433567 5.8786619,4.83205667 5.82393101,5.00750376 C5.78304381,5.13777399 5.69225492,5.35004331 5.69225492,5.65514177 C5.69225492,5.85286785 5.73571769,6.18210189 5.97041663,6.25358034 C6.15585777,6.3080401 6.20350585,6.34795664 6.21734954,6.38168456 C6.22990545,6.41479362 6.21734954,6.90214664 6.25211976,7.11967628 C6.28334856,7.30688172 6.39087866,7.87252066 6.9014857,7.92821815 L6.98390398,7.93564448 L7.06825394,7.92821815 C7.57886097,7.87252066 7.68767887,7.30688172 7.71761988,7.11967628 C7.75303399,6.90214664 7.73790251,6.41479362 7.75303399,6.38168456 C7.76687769,6.34795664 7.81323797,6.3080401 7.99867911,6.25358034 C8.23337806,6.18210189 8.28006029,5.85286785 8.28006029,5.65514177 C8.28006029,5.35004331 8.1886275,5.13777399 8.14645252,5.00750376 C8.09139968,4.83205667 8.23595363,4.85433567 8.39563906,4.67486598 C8.55725616,4.49319934 8.54083689,4.1599427 8.50928614,3.9652181 C8.46839895,3.74524396 8.29808929,3.42371474 8.29422593,3.31337183 C8.29422593,3.26380106 8.39563906,3.14959027 8.45036995,3.07996841 C8.62937216,2.85102079 8.63323552,2.46423268 8.54470025,2.01580602 C8.38050757,1.16428425 7.47873564,0.561482716 7.31422101,0.470602982 C7.19638862,0.408098023 7.17192069,0.303417688 7.17192069,0.238777659 L7.17192069,0.219066937" transform="matrix(1 0 0 -1 0 8.155)"/>
        <polyline points="6.985 9.153 9.126 9.153 9.41 9.685 4.56 9.685 4.844 9.153" transform="matrix(1 0 0 -1 0 19.483)"/>
        <path d="M6.9860007,19.6435552 L9.93486746,19.6435552 L10.4872912,15.9183109 L8.2103419,15.9183109 L7.86750134,17.52822 C7.86750134,17.52822 7.7586432,18.0019007 6.9860007,18.0019007 C6.21460944,18.0019007 6.1057513,17.52822 6.1057513,17.52822 L5.76103387,15.9183109 L3.4822077,15.9183109 L4.03431864,19.6435552 L6.9860007,19.6435552" transform="matrix(1 0 0 -1 0 35.562)"/>
        <polyline points="9.679 14.475 9.436 15.007 4.531 15.007 4.29 14.475" transform="matrix(1 0 0 -1 0 30.127)"/>
        <path d="M2.13405272,18.3131108 L2.21339054,18.3088347 C2.72638167,18.2509094 2.83276648,17.6506398 2.86191711,17.4505702 C2.90098498,17.2273607 2.88866358,16.7126446 2.90098498,16.6817107 C2.91420795,16.6462884 2.96409461,16.6016161 3.14771358,16.5431146 C3.37851451,16.4703593 3.42689856,16.124324 3.42689856,15.9123964 C3.42689856,15.5942016 3.3388456,15.3679291 3.29707304,15.239978 C3.23967333,15.0504319 3.38452495,15.0753004 3.5404959,14.8832675 C3.70638407,14.6944493 3.68925431,14.3431977 3.65589636,14.1406109 C3.61893215,13.9107901 3.44402832,13.5661802 3.44012153,13.4564558 C3.43921997,13.4048083 3.5404959,13.2859856 3.59759509,13.2152622 C3.77790831,12.9672147 3.78572189,12.5590993 3.69406266,12.0898439 C3.52396718,11.1930637 2.65876421,10.5647109 2.48776716,10.4639937 C2.36365156,10.3912687 2.37597296,10.2104873 2.37597296,10.152562 L2.37597296,6.60520007 L1.89423612,6.60520007 L1.89423612,10.152562 C1.89423612,10.2104873 1.90745909,10.3912687 1.7821414,10.4639937 C1.61294749,10.5647109 0.747443989,11.1930637 0.576146422,12.0898439 C0.485388764,12.5590993 0.490497639,12.9672147 0.673816087,13.2152622 C0.727609534,13.2859856 0.830087552,13.4048083 0.828584942,13.4564558 C0.823476067,13.5661802 0.650074846,13.9107901 0.611608024,14.1406109 C0.582757907,14.3431977 0.563223974,14.6944493 0.727609534,14.8832675 C0.885383609,15.0753004 1.03173785,15.0504319 0.970130826,15.239978 C0.933166614,15.3679291 0.84301,15.5942016 0.84301,15.9123964 C0.84301,16.124324 0.892295616,16.4703593 1.12339707,16.5431146 C1.30821813,16.6016161 1.35600113,16.6462884 1.36832254,16.6817107 C1.38154551,16.7126446 1.36832254,17.2273607 1.40588779,17.4505702 C1.43443739,17.6506398 1.54382741,18.2509094 2.05681855,18.3088347" transform="matrix(1 0 0 -1 0 24.918)"/>
        <path d="M11.8336165,18.3131108 L11.7536774,18.3088347 C11.242488,18.2509094 11.1358023,17.6506398 11.1063511,17.4505702 C11.0663815,17.2273607 11.0805061,16.7126446 11.0663815,16.6817107 C11.0546611,16.6462884 11.0071785,16.6016161 10.8247611,16.5431146 C10.5903532,16.4703593 10.5440727,16.124324 10.5440727,15.9123964 C10.5440727,15.5942016 10.6309238,15.3679291 10.6690902,15.239978 C10.7312985,15.0504319 10.5846433,15.0753004 10.4247651,14.8832675 C10.2627832,14.6944493 10.2817162,14.3431977 10.3117685,14.1406109 C10.3502354,13.9107901 10.522435,13.5661802 10.528746,13.4564558 C10.528746,13.4048083 10.4247651,13.2859856 10.3733757,13.2152622 C10.1915593,12.9672147 10.1831447,12.5590993 10.2763068,12.0898439 C10.4461022,11.1930637 11.3110072,10.5647109 11.4826058,10.4639937 C11.6046181,10.3912687 11.5898924,10.2104873 11.5898924,10.152562 L11.5898924,6.60520007 L12.0767396,6.60520007 L12.0767396,10.152562 C12.0767396,10.2104873 12.063216,10.3912687 12.1858294,10.4639937 C12.3577285,10.5647109 13.223535,11.1930637 13.393631,12.0898439 C13.4852905,12.5590993 13.4771764,12.9672147 13.2950595,13.2152622 C13.2412659,13.2859856 13.1390881,13.4048083 13.1390881,13.4564558 C13.144197,13.5661802 13.3178992,13.9107901 13.354563,14.1406109 C13.3861179,14.3431977 13.4071545,14.6944493 13.2412659,14.8832675 C13.0825898,15.0753004 12.9377377,15.0504319 12.9981428,15.239978 C13.0393145,15.3679291 13.1264661,15.5942016 13.1264661,15.9123964 C13.1264661,16.124324 13.0774809,16.4703593 12.8460782,16.5431146 C12.6642619,16.6016161 12.613173,16.6462884 12.600551,16.6817107 C12.586727,16.7126446 12.600551,17.2273607 12.5632862,17.4505702 C12.5320318,17.6506398 12.4259472,18.2509094 11.9123535,18.3088347" transform="matrix(1 0 0 -1 0 24.918)"/>
        <path d="M8.62302354,12.2085489 L7.931654,12.2085489 L7.931654,13.5269079 L8.62302354,13.5269079 L8.62302354,12.2085489 L8.62302354,12.2085489 Z M6.3072712,12.2085489 L5.61590166,12.2085489 L5.61590166,13.5269079 L6.3072712,13.5269079 L6.3072712,12.2085489 L6.3072712,12.2085489 Z M9.01996607,14.8539554 L5.21926424,14.8539554 L4.82933914,10.5965333 L9.40958606,10.5965333 L9.01996607,14.8539554 Z" transform="matrix(1 0 0 -1 0 25.45)"/>
      </g>
    </g>
  </g>
</svg>
