<svg width="32" height="25" viewBox="0 0 32 25" fill="none" xmlns="http://www.w3.org/2000/svg">
<path d="M28 0H4C1.79086 0 0 1.79086 0 4V20C0 22.2091 1.79086 24 4 24H28C30.2091 24 32 22.2091 32 20V4C32 1.79086 30.2091 0 28 0Z" transform="translate(0 0.5)" fill="#8ACE00"/>
<path fill-rule="evenodd" clip-rule="evenodd" d="M2.54109 0.997833V0.446299H3.09314V0.997833H3.83933V0H0V0.997833H0.735293V0.446299H1.28734V0.997833" transform="translate(14.1699 12.1491) scale(1 -1)" fill="white"/>
<path fill-rule="evenodd" clip-rule="evenodd" d="M1.07222 0V0.0147834C1.07222 0.0632634 1.05435 0.141773 0.965254 0.188652C0.840661 0.256812 0.166263 0.708913 0.0436013 1.34755C-0.0242489 1.68387 -0.0213506 1.97397 0.112901 2.14568C0.154432 2.19789 0.229526 2.28355 0.229526 2.32073C0.228077 2.40349 0.0998614 2.64463 0.069196 2.80961C0.0479476 2.95566 0.0332188 3.2056 0.154432 3.34185C0.274196 3.47645 0.382853 3.45974 0.341805 3.59133C0.311139 3.68903 0.243047 3.84823 0.243047 4.07706C0.243047 4.22535 0.275645 4.47228 0.451669 4.52589C0.59075 4.56673 0.626486 4.59667 0.636869 4.62196C0.646286 4.6468 0.636868 5.01231 0.662946 5.17546C0.686368 5.31586 0.767015 5.74009 1.14997 5.78186L1.21178 5.78743L1.27505 5.78186C1.658 5.74009 1.73962 5.31586 1.76207 5.17546C1.78863 5.01231 1.77728 4.6468 1.78863 4.62196C1.79901 4.59667 1.83379 4.56673 1.97287 4.52589C2.14889 4.47228 2.1839 4.22535 2.1839 4.07706C2.1839 3.84823 2.11533 3.68903 2.08369 3.59133C2.04241 3.45974 2.15082 3.47645 2.27059 3.34185C2.3918 3.2056 2.37948 2.95566 2.35582 2.80961C2.32515 2.64463 2.19742 2.40349 2.19453 2.32073C2.19453 2.28355 2.27059 2.19789 2.31163 2.14568C2.44589 1.97397 2.44878 1.68387 2.38238 1.34755C2.25924 0.708913 1.58291 0.256812 1.45952 0.188652C1.37115 0.141773 1.3528 0.0632634 1.3528 0.0147834V0" transform="translate(14.7761 10.9517) scale(1 -1)" fill="white"/>
<path fill-rule="evenodd" clip-rule="evenodd" d="M1.81887 0H3.42481L3.63726 0.399134H0L0.212922 0" transform="translate(14.1699 12.7479) scale(1 -1)" fill="white"/>
<path fill-rule="evenodd" clip-rule="evenodd" d="M2.62784 2.79393H4.83949L5.25381 0H3.5461L3.28897 1.20743C3.28897 1.20743 3.20733 1.56269 2.62784 1.56269C2.0493 1.56269 1.96766 1.20743 1.96766 1.20743L1.70912 0H0L0.414083 2.79393H2.62784Z" transform="translate(13.3617 19.7327) scale(1 -1)" fill="white"/>
<path fill-rule="evenodd" clip-rule="evenodd" d="M4.0414 0L3.85895 0.399133H0.180617L0 0" transform="translate(13.9679 16.7391) scale(1 -1)" fill="white"/>
<path fill-rule="evenodd" clip-rule="evenodd" d="M1.21165 8.78093L1.27115 8.77773C1.6559 8.73428 1.73569 8.28408 1.75755 8.13403C1.78685 7.96662 1.77761 7.58058 1.78685 7.55738C1.79677 7.53082 1.83418 7.49731 1.9719 7.45343C2.145 7.39887 2.18129 7.13934 2.18129 6.9804C2.18129 6.74175 2.11525 6.57205 2.08392 6.47608C2.04087 6.33392 2.1495 6.35258 2.26648 6.20855C2.3909 6.06694 2.37805 5.8035 2.35303 5.65156C2.32531 5.47919 2.19413 5.22073 2.1912 5.13844C2.19053 5.09971 2.26648 5.01059 2.30931 4.95755C2.44454 4.77151 2.4504 4.46542 2.38166 4.11348C2.25409 3.4409 1.60518 2.96963 1.47694 2.8941C1.38385 2.83955 1.39309 2.70397 1.39309 2.66052V0H1.03179V2.66052C1.03179 2.70397 1.04171 2.83955 0.947717 2.8941C0.820822 2.96963 0.171694 3.4409 0.0432208 4.11348C-0.0248474 4.46542 -0.0210155 4.77151 0.116473 4.95755C0.156819 5.01059 0.233677 5.09971 0.23255 5.13844C0.228718 5.22073 0.0986669 5.47919 0.0698168 5.65156C0.0481792 5.8035 0.0335285 6.06694 0.156818 6.20855C0.275148 6.35258 0.384914 6.33392 0.338709 6.47608C0.310986 6.57205 0.243368 6.74175 0.243368 6.9804C0.243368 7.13934 0.280332 7.39887 0.453658 7.45343C0.592274 7.49731 0.628112 7.53082 0.637353 7.55738C0.64727 7.58058 0.637353 7.96662 0.665527 8.13403C0.686939 8.28408 0.768982 8.73428 1.15372 8.77773" transform="translate(11.1389 18.7349) scale(1 -1)" fill="white"/>
<path fill-rule="evenodd" clip-rule="evenodd" d="M1.21181 8.78093L1.15186 8.77773C0.768468 8.73428 0.688454 8.28408 0.666365 8.13403C0.636388 7.96662 0.646981 7.58058 0.636387 7.55738C0.627597 7.53082 0.591985 7.49731 0.455172 7.45343C0.279366 7.39887 0.244656 7.13934 0.244656 6.9804C0.244656 6.74175 0.309795 6.57205 0.33842 6.47608C0.385076 6.33392 0.275084 6.35258 0.155175 6.20855C0.0336884 6.06694 0.0478882 5.8035 0.0704275 5.65156C0.0992777 5.47919 0.228427 5.22073 0.233161 5.13844C0.233161 5.09971 0.155175 5.01059 0.116633 4.95755C-0.0197293 4.77151 -0.0260402 4.46542 0.0438314 4.11348C0.171178 3.4409 0.819857 2.96963 0.948556 2.8941C1.04006 2.83955 1.02902 2.70397 1.02902 2.66052V0H1.39416V2.66052C1.39416 2.70397 1.38401 2.83955 1.47597 2.8941C1.6049 2.96963 2.25425 3.4409 2.38182 4.11348C2.45057 4.46542 2.44448 4.77151 2.3079 4.95755C2.26755 5.01059 2.19092 5.09971 2.19092 5.13844C2.19475 5.22073 2.32503 5.47919 2.35252 5.65156C2.37619 5.8035 2.39197 6.06694 2.26755 6.20855C2.14854 6.35258 2.03991 6.33392 2.08521 6.47608C2.11609 6.57205 2.18145 6.74175 2.18145 6.9804C2.18145 7.13934 2.14471 7.39887 1.97116 7.45343C1.8348 7.49731 1.79648 7.53082 1.78701 7.55738C1.77665 7.58058 1.78701 7.96662 1.75907 8.13403C1.73563 8.28408 1.65606 8.73428 1.27087 8.77773" transform="translate(18.4135 18.7349) scale(1 -1)" fill="white"/>
<path fill-rule="evenodd" clip-rule="evenodd" d="M2.84526 1.20901H2.32674V2.19778H2.84526V1.20901ZM1.10845 1.20901H0.589922V2.19778H1.10845V1.20901ZM3.14297 3.19307H0.292443L0 0H3.43519L3.14297 3.19307Z" transform="translate(14.3719 16.1404) scale(1 -1)" fill="white"/>
<path fill-rule="evenodd" clip-rule="evenodd" d="M2.54109 0.997833V0.446299H3.09314V0.997833H3.83933V0H0V0.997833H0.735293V0.446299H1.28734V0.997833" transform="translate(14.1699 12.1491) scale(1 -1)" fill="white"/>
<path fill-rule="evenodd" clip-rule="evenodd" d="M1.07222 0V0.0147834C1.07222 0.0632634 1.05435 0.141773 0.965254 0.188652C0.840661 0.256812 0.166263 0.708913 0.0436013 1.34755C-0.0242489 1.68387 -0.0213506 1.97397 0.112901 2.14568C0.154432 2.19789 0.229526 2.28355 0.229526 2.32073C0.228077 2.40349 0.0998614 2.64463 0.069196 2.80961C0.0479476 2.95566 0.0332188 3.2056 0.154432 3.34185C0.274196 3.47645 0.382853 3.45974 0.341805 3.59133C0.311139 3.68903 0.243047 3.84823 0.243047 4.07706C0.243047 4.22535 0.275645 4.47228 0.451669 4.52589C0.59075 4.56673 0.626486 4.59667 0.636869 4.62196C0.646286 4.6468 0.636868 5.01231 0.662946 5.17546C0.686368 5.31586 0.767015 5.74009 1.14997 5.78186L1.21178 5.78743L1.27505 5.78186C1.658 5.74009 1.73962 5.31586 1.76207 5.17546C1.78863 5.01231 1.77728 4.6468 1.78863 4.62196C1.79901 4.59667 1.83379 4.56673 1.97287 4.52589C2.14889 4.47228 2.1839 4.22535 2.1839 4.07706C2.1839 3.84823 2.11533 3.68903 2.08369 3.59133C2.04241 3.45974 2.15082 3.47645 2.27059 3.34185C2.3918 3.2056 2.37948 2.95566 2.35582 2.80961C2.32515 2.64463 2.19742 2.40349 2.19453 2.32073C2.19453 2.28355 2.27059 2.19789 2.31163 2.14568C2.44589 1.97397 2.44878 1.68387 2.38238 1.34755C2.25924 0.708913 1.58291 0.256812 1.45952 0.188652C1.37115 0.141773 1.3528 0.0632634 1.3528 0.0147834V0" transform="translate(14.7761 10.9517) scale(1 -1)" fill="white"/>
<path fill-rule="evenodd" clip-rule="evenodd" d="M1.81887 0H3.42481L3.63726 0.399134H0L0.212922 0" transform="translate(14.1699 12.7479) scale(1 -1)" fill="white"/>
<path fill-rule="evenodd" clip-rule="evenodd" d="M2.62784 2.79393H4.83949L5.25381 0H3.5461L3.28897 1.20743C3.28897 1.20743 3.20733 1.56269 2.62784 1.56269C2.0493 1.56269 1.96766 1.20743 1.96766 1.20743L1.70912 0H0L0.414083 2.79393H2.62784Z" transform="translate(13.3617 19.7327) scale(1 -1)" fill="white"/>
<path fill-rule="evenodd" clip-rule="evenodd" d="M4.0414 0L3.85895 0.399133H0.180617L0 0" transform="translate(13.9679 16.7391) scale(1 -1)" fill="white"/>
<path fill-rule="evenodd" clip-rule="evenodd" d="M1.21165 8.78093L1.27115 8.77773C1.6559 8.73428 1.73569 8.28408 1.75755 8.13403C1.78685 7.96662 1.77761 7.58058 1.78685 7.55738C1.79677 7.53082 1.83418 7.49731 1.9719 7.45343C2.145 7.39887 2.18129 7.13934 2.18129 6.9804C2.18129 6.74175 2.11525 6.57205 2.08392 6.47608C2.04087 6.33392 2.1495 6.35258 2.26648 6.20855C2.3909 6.06694 2.37805 5.8035 2.35303 5.65156C2.32531 5.47919 2.19413 5.22073 2.1912 5.13844C2.19053 5.09971 2.26648 5.01059 2.30931 4.95755C2.44454 4.77151 2.4504 4.46542 2.38166 4.11348C2.25409 3.4409 1.60518 2.96963 1.47694 2.8941C1.38385 2.83955 1.39309 2.70397 1.39309 2.66052V0H1.03179V2.66052C1.03179 2.70397 1.04171 2.83955 0.947717 2.8941C0.820822 2.96963 0.171694 3.4409 0.0432208 4.11348C-0.0248474 4.46542 -0.0210155 4.77151 0.116473 4.95755C0.156819 5.01059 0.233677 5.09971 0.23255 5.13844C0.228718 5.22073 0.0986669 5.47919 0.0698168 5.65156C0.0481792 5.8035 0.0335285 6.06694 0.156818 6.20855C0.275148 6.35258 0.384914 6.33392 0.338709 6.47608C0.310986 6.57205 0.243368 6.74175 0.243368 6.9804C0.243368 7.13934 0.280332 7.39887 0.453658 7.45343C0.592274 7.49731 0.628112 7.53082 0.637353 7.55738C0.64727 7.58058 0.637353 7.96662 0.665527 8.13403C0.686939 8.28408 0.768982 8.73428 1.15372 8.77773" transform="translate(11.1389 18.7349) scale(1 -1)" fill="white"/>
<path fill-rule="evenodd" clip-rule="evenodd" d="M1.21181 8.78093L1.15186 8.77773C0.768468 8.73428 0.688454 8.28408 0.666365 8.13403C0.636388 7.96662 0.646981 7.58058 0.636387 7.55738C0.627597 7.53082 0.591985 7.49731 0.455172 7.45343C0.279366 7.39887 0.244656 7.13934 0.244656 6.9804C0.244656 6.74175 0.309795 6.57205 0.33842 6.47608C0.385076 6.33392 0.275084 6.35258 0.155175 6.20855C0.0336884 6.06694 0.0478882 5.8035 0.0704275 5.65156C0.0992777 5.47919 0.228427 5.22073 0.233161 5.13844C0.233161 5.09971 0.155175 5.01059 0.116633 4.95755C-0.0197293 4.77151 -0.0260402 4.46542 0.0438314 4.11348C0.171178 3.4409 0.819857 2.96963 0.948556 2.8941C1.04006 2.83955 1.02902 2.70397 1.02902 2.66052V0H1.39416V2.66052C1.39416 2.70397 1.38401 2.83955 1.47597 2.8941C1.6049 2.96963 2.25425 3.4409 2.38182 4.11348C2.45057 4.46542 2.44448 4.77151 2.3079 4.95755C2.26755 5.01059 2.19092 5.09971 2.19092 5.13844C2.19475 5.22073 2.32503 5.47919 2.35252 5.65156C2.37619 5.8035 2.39197 6.06694 2.26755 6.20855C2.14854 6.35258 2.03991 6.33392 2.08521 6.47608C2.11609 6.57205 2.18145 6.74175 2.18145 6.9804C2.18145 7.13934 2.14471 7.39887 1.97116 7.45343C1.8348 7.49731 1.79648 7.53082 1.78701 7.55738C1.77665 7.58058 1.78701 7.96662 1.75907 8.13403C1.73563 8.28408 1.65606 8.73428 1.27087 8.77773" transform="translate(18.4135 18.7349) scale(1 -1)" fill="white"/>
<path fill-rule="evenodd" clip-rule="evenodd" d="M2.84526 1.20901H2.32674V2.19778H2.84526V1.20901ZM1.10845 1.20901H0.589922V2.19778H1.10845V1.20901ZM3.14297 3.19307H0.292443L0 0H3.43519L3.14297 3.19307Z" transform="translate(14.3719 16.1404) scale(1 -1)" fill="white"/>
</svg>
