<svg width="32" height="25" viewBox="0 0 32 25" fill="none" xmlns="http://www.w3.org/2000/svg">
<path d="M28 0H4C1.79086 0 0 1.79086 0 4V20C0 22.2091 1.79086 24 4 24H28C30.2091 24 32 22.2091 32 20V4C32 1.79086 30.2091 0 28 0Z" transform="translate(0 0.5)" fill="#27337A"/>
<path d="M9.30917 4.08183C9.2989 3.24605 10.0307 2.77962 10.5821 2.50233C11.1485 2.21778 11.3388 2.03534 11.3366 1.78092C11.3323 1.39148 10.8848 1.21964 10.4659 1.21294C9.73509 1.20123 9.31025 1.41659 8.97243 1.5795L8.70921 0.307979C9.04811 0.146736 9.67563 0.00613725 10.3264 0C11.8539 0 12.8533 0.778315 12.8587 1.98512C12.8646 3.51664 10.8064 3.60145 10.8204 4.28603C10.8253 4.49358 11.0172 4.71508 11.4377 4.77143C11.6458 4.79989 12.2203 4.82165 12.8717 4.512L13.1273 5.74224C12.7771 5.87391 12.3268 6 11.7663 6C10.3286 6 9.31728 5.21108 9.30917 4.08183ZM15.5839 5.89399C15.305 5.89399 15.0699 5.72606 14.965 5.46829L12.783 0.0903854H14.3094L14.6132 0.956853H16.4785L16.6547 0.0903854H18L16.826 5.89399H15.5839ZM15.7974 4.3262L16.2379 2.14692H15.0315L15.7974 4.3262ZM7.45847 5.89399L6.2553 0.0903854H7.70981L8.91244 5.89399H7.45847ZM5.30671 5.89399L3.79275 1.94384L3.18035 5.30258C3.10846 5.67751 2.82469 5.89399 2.50958 5.89399H0.0345926L0 5.7255C0.508078 5.61168 1.08534 5.42812 1.43505 5.23173C1.64909 5.11177 1.71017 5.00688 1.78043 4.72178L2.94036 0.0903854H4.47757L6.83418 5.89399H5.30671Z" transform="translate(7 15.5) scale(1 -1)" fill="white"/>
</svg>
