<svg xmlns="http://www.w3.org/2000/svg" xmlns:xlink="http://www.w3.org/1999/xlink" width="32" height="32" viewBox="0 0 32 32">
  <defs>
    <path id="visa-a" d="M15.7304897,17.44244 C15.7164458,16.328064 16.7172635,15.7061558 17.4712029,15.336433 C18.2458388,14.9570392 18.5060218,14.7137809 18.5030652,14.3745583 C18.4971519,13.8553097 17.8851305,13.6261856 17.3122843,13.6172587 C16.3129449,13.6016366 15.731968,13.8887856 15.2699953,14.1060071 L14.9100262,12.4106379 C15.3734772,12.1956481 16.2316377,12.008183 17.121582,12 C19.2104378,12 20.5771379,13.0377534 20.5845295,14.6468291 C20.5926602,16.68886 17.7779528,16.8019342 17.7971709,17.7147108 C17.8038233,17.991445 18.0662238,18.286777 18.6412874,18.3619118 C18.9258626,18.3998512 19.7115858,18.4288637 20.6022692,18.015994 L20.9518902,19.6563139 C20.4729168,19.8318765 19.8571996,20 19.0906945,20 C17.1245386,20 15.7415771,18.9481123 15.7304897,17.44244 M24.3113558,19.8586572 C23.9299511,19.8586572 23.6084181,19.6347406 23.4650217,19.2910545 L20.4810476,12.1205133 L22.5684251,12.1205133 L22.983831,13.2758044 L25.5346595,13.2758044 L25.7756245,12.1205133 L27.6153846,12.1205133 L26.009937,19.8586572 L24.3113558,19.8586572 M24.6033225,17.7682723 L25.2057349,14.8625628 L23.555938,14.8625628 L24.6033225,17.7682723 M13.1996184,19.8586572 L11.5542564,12.1205133 L13.5433261,12.1205133 L15.187949,19.8586572 L13.1996184,19.8586572 M10.257037,19.8586572 L8.18666008,14.5917798 L7.34919594,19.0701134 C7.25088814,19.5700205 6.86283106,19.8586572 6.43190291,19.8586572 L3.04730601,19.8586572 L3,19.6339967 C3.69480696,19.4822392 4.48422594,19.237493 4.9624601,18.975637 C5.25516601,18.8156965 5.33869068,18.6758415 5.434781,18.2957039 L7.02101052,12.1205133 L9.12317117,12.1205133 L12.3458928,19.8586572 L10.257037,19.8586572"/>
  </defs>
  <g fill="none" fill-rule="evenodd">
    <rect width="32" height="32" fill="#1D18F5" rx="8"/>
    <use fill="#FFF" transform="matrix(1 0 0 -1 0 32)" xlink:href="#visa-a"/>
  </g>
</svg>
