<svg width="32" height="24" viewBox="0 0 32 24" fill="none" xmlns="http://www.w3.org/2000/svg">
<path d="M4.096 0.5H27.904C29.8862 0.5 31.5 2.12098 31.5 4.12903V19.871C31.5 21.879 29.8862 23.5 27.904 23.5H4.096C2.11376 23.5 0.5 21.879 0.5 19.871V4.12903C0.5 2.12098 2.11376 0.5 4.096 0.5Z" fill="white" stroke="#E5E5E5"/>
<path fill-rule="evenodd" clip-rule="evenodd" d="M5.22875 4.72173L4.95364 1.53808L4.94514 1.44288L2.9552 0.0235242C2.86386 -0.0292357 2.74701 0.00976059 2.69325 0.110406L0.0266478 5.11198C-0.0271122 5.21263 0.00305946 5.33736 0.093848 5.39041L1.94226 6.24976L2.94861 5.7818L5.22875 4.72173Z" transform="translate(8.19202 5.93549)" fill="#FFE252"/>
<path fill-rule="evenodd" clip-rule="evenodd" d="M3.21353 6.28646L5.14121 5.39041C5.232 5.33736 5.2619 5.21291 5.20814 5.11198L2.54181 0.110406C2.48777 0.0097606 2.37038 -0.0292357 2.27986 0.0235242L0.289646 1.44288L0 4.79284L3.21353 6.28646Z" transform="translate(18.176 5.93549)" fill="#33A2DB"/>
<path fill-rule="evenodd" clip-rule="evenodd" d="M0.223269 1.89936L0 4.48631C0 4.59498 0.0894169 4.68301 0.199954 4.68301H5.67689C5.78743 4.68301 5.87685 4.5947 5.87685 4.48631L5.66016 1.97792L2.88631 0L0.223269 1.89936Z" transform="translate(12.8 15.2258)" fill="#C9529E"/>
<path fill-rule="evenodd" clip-rule="evenodd" d="M5.14121 0.896057L3.21353 0L3.03497 0.0831545L0 1.49362L0.28992 4.84358L2.27986 6.26265C2.3701 6.3157 2.48777 6.27699 2.54181 6.17577L5.20841 1.17448C5.2619 1.07355 5.232 0.948817 5.14121 0.896057Z" transform="translate(18.176 12.129)" fill="#37559A"/>
<path fill-rule="evenodd" clip-rule="evenodd" d="M4.9522 4.80172L5.06301 3.51943L5.23526 1.53032L1.94219 0L0.0940518 0.859355C0.00271468 0.912115 -0.0269085 1.03685 0.0265772 1.1372L2.69346 6.13907C2.74694 6.23971 2.86406 6.279 2.9554 6.22566L4.9522 4.80172Z" transform="translate(8.19202 12.129)" fill="#F37B46"/>
<path fill-rule="evenodd" clip-rule="evenodd" d="M0.216411 2.70509L2.93815 4.64602L3.50427 4.24229L5.66043 2.70509L5.87712 0.196416C5.87712 0.0877417 5.78715 0 5.67689 0H0.199954C0.0894169 0 0 0.0880285 0 0.196416L0.216411 2.70509Z" transform="translate(12.8 5.16129)" fill="#6BBD45"/>
</svg>
