<svg xmlns="http://www.w3.org/2000/svg" xmlns:xlink="http://www.w3.org/1999/xlink" width="32" height="32" viewBox="0 0 32 32">
  <defs>
    <rect id="webshop-giftcard-a" width="32" height="32" rx="8"/>
  </defs>
  <g fill="none" fill-rule="evenodd">
    <use fill="#FFF" xlink:href="#webshop-giftcard-a"/>
    <rect width="31" height="31" x=".5" y=".5" stroke="#000" stroke-opacity=".1" rx="8"/>
    <g transform="translate(6 6)">
      <path fill="#FFE252" d="M6.80826921,7.09890388 L6.45005492,2.98668165 L6.43898349,2.86371869 L3.84791207,1.03038536 C3.72898349,0.96223721 3.57684064,1.01260758 3.50684064,1.14260758 L0.0346977804,7.60297795 C-0.0353022196,7.73297795 0.00398349473,7.89408906 0.12219778,7.96260758 L2.52898349,9.07260758 L3.83934064,8.46816314 L6.80826921,7.09890388 Z"/>
      <path fill="#33A2DB" d="M17.1842857,9.12001499 L17.1842857,9.12001499 L19.6942857,7.96260758 C19.8125,7.89408906 19.8514286,7.73334832 19.7814286,7.60297795 L16.3096429,1.14260758 C16.2392857,1.01260758 16.0864286,0.96223721 15.9685714,1.03038536 L13.3771429,2.86371869 L13,7.19075573 L17.1842857,9.12001499 Z"/>
      <path fill="#C9529E" d="M6.29071429,15.4533333 L6,18.7948148 C6,18.9351852 6.11642857,19.0488889 6.26035714,19.0488889 L13.3917857,19.0488889 C13.5357143,19.0488889 13.6521429,18.9348148 13.6521429,18.7948148 L13.37,15.5548148 L9.75821429,13 L6.29071429,15.4533333 Z"/>
      <path fill="#37559A" d="M19.6942857,10.1574074 L17.1842857,9 L16.9517857,9.10740741 L13,10.9292593 L13.3775,15.2562963 L15.9685714,17.0892593 C16.0860714,17.1577778 16.2392857,17.1077778 16.3096429,16.977037 L19.7817857,10.517037 C19.8514286,10.3866667 19.8125,10.2255556 19.6942857,10.1574074"/>
      <path fill="#F37B46" d="M6.44817729,15.2022222 L6.592463,13.5459259 L6.81674872,10.9766667 L2.52889158,9 L0.122463004,10.11 C0.00353443288,10.1781481 -0.0350369957,10.3392593 0.0346058615,10.4688889 L3.50710586,16.9296296 C3.57674872,17.0596296 3.72924872,17.1103704 3.84817729,17.0414815 L6.44817729,15.2022222 Z"/>
      <path fill="#6BBD45" d="M6.28178571,3.49407407 L9.82571429,6.00111111 L10.5628571,5.47962963 L13.3703571,3.49407407 L13.6525,0.253703704 C13.6525,0.113333333 13.5353571,0 13.3917857,0 L6.26035714,0 C6.11642857,0 6,0.113703704 6,0.253703704 L6.28178571,3.49407407 Z"/>
    </g>
  </g>
</svg>
